<svg width="260" height="260" viewBox="0 0 260 260" fill="none" xmlns="http://www.w3.org/2000/svg">
<mask id="mask0_455_1448" style="mask-type:alpha" maskUnits="userSpaceOnUse" x="0" y="0" width="260" height="260">
<rect width="260" height="260" fill="#D9D9D9"/>
</mask>
<g mask="url(#mask0_455_1448)">
<path d="M130.001 231.833C101.474 231.833 77.3694 227.229 57.6888 218.021C38.0082 208.812 28.168 197.527 28.168 184.166V75.833C28.168 62.6525 38.0985 51.3677 57.9596 41.9788C77.8208 32.59 101.835 27.8955 130.001 27.8955C157.987 27.8955 182.001 32.59 202.043 41.9788C222.085 51.3677 232.105 62.6525 232.105 75.833V184.166C232.105 197.527 222.175 208.812 202.314 218.021C182.453 227.229 158.349 231.833 130.001 231.833ZM130.001 93.9788C144.987 93.9788 160.56 91.6768 176.72 87.0726C192.88 82.4684 203.939 77.0969 209.897 70.958C203.758 64.9997 192.564 59.6281 176.314 54.8434C160.064 50.0587 144.626 47.6663 130.001 47.6663C114.474 47.6663 98.7201 50.0136 82.7409 54.708C66.7617 59.4025 55.8832 64.8191 50.1055 70.958C56.0638 77.2775 66.8971 82.6941 82.6055 87.208C98.3138 91.7219 114.112 93.9788 130.001 93.9788ZM129.73 153.021C137.133 153.021 144.536 152.569 151.939 151.666C159.342 150.764 166.609 149.409 173.741 147.604C180.873 145.798 187.689 143.586 194.189 140.968C200.689 138.35 206.737 135.416 212.335 132.166V93.708C206.557 96.7775 200.373 99.5761 193.783 102.104C187.192 104.632 180.331 106.753 173.199 108.468C166.067 110.184 158.845 111.493 151.533 112.396C144.22 113.298 136.953 113.75 129.73 113.75C122.328 113.75 114.88 113.298 107.387 112.396C99.8937 111.493 92.6263 110.184 85.5846 108.468C78.543 106.753 71.8173 104.632 65.4076 102.104C58.9978 99.5761 53.1749 96.7775 47.9388 93.708V132.166C53.536 135.416 59.5395 138.35 65.9492 140.968C72.3589 143.586 79.0846 145.798 86.1263 147.604C93.168 149.409 100.345 150.764 107.658 151.666C114.97 152.569 122.328 153.021 129.73 153.021ZM130.001 212.062C138.668 212.062 147.605 211.295 156.814 209.76C166.022 208.225 174.508 206.194 182.272 203.666C190.036 201.139 196.671 198.25 202.178 195C207.685 191.75 211.071 188.5 212.335 185.25V153.021C206.557 156.09 200.373 158.889 193.783 161.416C187.192 163.944 180.331 166.021 173.199 167.646C166.067 169.271 158.845 170.534 151.533 171.437C144.22 172.34 136.953 172.791 129.73 172.791C122.508 172.791 115.286 172.385 108.064 171.573C100.842 170.76 93.7999 169.496 86.9388 167.781C80.0777 166.066 73.352 163.989 66.7617 161.552C60.1714 159.114 53.8971 156.271 47.9388 153.021V185.521C48.8416 188.771 51.9562 191.975 57.2826 195.135C62.6089 198.295 69.1992 201.139 77.0534 203.666C84.9076 206.194 93.4839 208.225 102.783 209.76C112.081 211.295 121.154 212.062 130.001 212.062Z" fill="#34495E"/>
</g>
</svg>
