<svg width="260" height="260" viewBox="0 0 260 260" fill="none" xmlns="http://www.w3.org/2000/svg">
<mask id="mask0_771_3722" style="mask-type:alpha" maskUnits="userSpaceOnUse" x="0" y="0" width="260" height="260">
<rect width="260" height="260" fill="#D9D9D9"/>
</mask>
<g mask="url(#mask0_771_3722)">
<path d="M54.167 216.662C46.5978 216.662 40.1916 214.04 34.9484 208.797C29.7055 203.554 27.084 197.148 27.084 189.579C27.084 182.01 29.7055 175.603 34.9484 170.36C40.1916 165.117 46.5978 162.496 54.167 162.496H205.834C213.403 162.496 219.809 165.117 225.052 170.36C230.295 175.603 232.917 182.01 232.917 189.579C232.917 197.148 230.295 203.554 225.052 208.797C219.809 214.04 213.403 216.662 205.834 216.662H54.167ZM54.167 200.412H205.834C208.903 200.412 211.476 199.374 213.552 197.298C215.629 195.221 216.667 192.648 216.667 189.579C216.667 186.51 215.629 183.937 213.552 181.86C211.476 179.784 208.903 178.746 205.834 178.746H54.167C51.0976 178.746 48.5247 179.784 46.4483 181.86C44.3719 183.937 43.3337 186.51 43.3337 189.579C43.3337 192.648 44.3719 195.221 46.4483 197.298C48.5247 199.374 51.0976 200.412 54.167 200.412ZM117.874 140.829C115.112 140.829 112.796 139.895 110.928 138.026C109.06 136.157 108.126 133.842 108.126 131.079V53.0779C108.126 50.3154 109.061 48.0001 110.929 46.1321C112.798 44.2641 115.114 43.3301 117.876 43.3301H195.877C198.64 43.3301 200.955 44.2645 202.823 46.1332C204.691 48.002 205.625 50.3176 205.625 53.0801V131.081C205.625 133.844 204.691 136.159 202.822 138.027C200.953 139.895 198.638 140.829 195.875 140.829H117.874ZM124.376 124.58H189.376V59.5795H124.376V124.58ZM27.084 121.538V105.788H85.9596V121.538H27.084ZM135.209 89.3712H178.542V73.2883H135.209V89.3712ZM48.7507 89.3712H85.9596V73.2883H48.7507V89.3712Z" fill="#5F83D9"/>
</g>
</svg>
