<svg width="260" height="260" viewBox="0 0 260 260" fill="none" xmlns="http://www.w3.org/2000/svg">
<mask id="mask0_455_1469" style="mask-type:alpha" maskUnits="userSpaceOnUse" x="0" y="0" width="260" height="260">
<rect width="260" height="260" fill="#D9D9D9"/>
</mask>
<g mask="url(#mask0_455_1469)">
<path d="M10.2832 190.126V160.219C10.2832 153.435 12.007 147.255 15.4545 141.68C18.9018 136.106 23.6781 131.942 29.7832 129.188C41.1582 124.313 52.8012 120.251 64.7123 117.001C76.6234 113.751 88.8137 112.126 101.283 112.126C110.843 112.126 120.297 113.119 129.645 115.105C138.993 117.091 148.046 119.709 156.804 122.959C154.481 125.491 152.361 128.131 150.444 130.881C148.526 133.631 146.855 136.587 145.429 139.751C138.207 137.223 130.885 135.282 123.462 133.928C116.04 132.574 108.602 131.896 101.148 131.896C90.4048 131.896 79.6617 133.341 68.9186 136.23C58.1756 139.119 47.8388 142.73 37.9082 147.063C35.3804 148.327 33.4395 150.13 32.0853 152.471C30.7311 154.812 30.054 157.454 30.054 160.397V170.355H137.575C137.394 173.966 137.62 177.396 138.252 180.646C138.884 183.896 139.742 187.056 140.825 190.126H10.2832ZM101.055 93.9798C88.6497 93.9798 78.1383 89.6857 69.5212 81.0974C60.9042 72.5092 56.5957 62.0122 56.5957 49.6062C56.5957 37.2004 60.8899 26.689 69.4782 18.072C78.0663 9.45498 88.5633 5.14648 100.969 5.14648C113.375 5.14648 123.887 9.44063 132.504 18.0289C141.121 26.6171 145.429 37.1141 145.429 49.5201C145.429 61.9259 141.135 72.4373 132.547 81.0543C123.958 89.6713 113.461 93.9798 101.055 93.9798ZM101.046 74.209C107.885 74.209 113.696 71.8054 118.481 66.9983C123.266 62.1912 125.658 56.3683 125.658 49.5296C125.658 42.6908 123.255 36.8791 118.448 32.0944C113.64 27.3097 107.818 24.9173 100.979 24.9173C94.1401 24.9173 88.3284 27.3209 83.5436 32.128C78.7589 36.9351 76.3665 42.758 76.3665 49.5967C76.3665 56.4355 78.7701 62.2472 83.5772 67.0319C88.3843 71.8166 94.2072 74.209 101.046 74.209ZM210.158 49.5631C210.158 61.7597 205.805 72.2116 197.097 80.9189C188.39 89.6262 177.925 93.9798 165.703 93.9798C162.84 93.9798 159.964 93.7993 157.075 93.4382C154.186 93.077 151.478 92.4451 148.95 91.5423C153.825 85.7645 157.301 79.2229 159.377 71.9175C161.453 64.612 162.492 57.1505 162.492 49.5331C162.492 41.9156 161.363 34.5545 159.106 27.4496C156.849 20.3447 153.464 13.7229 148.95 7.58398C151.613 6.65864 154.367 6.02109 157.21 5.67136C160.054 5.32144 162.925 5.14648 165.823 5.14648C177.965 5.14648 188.39 9.50012 197.097 18.2074C205.805 26.9147 210.158 37.3666 210.158 49.5631ZM206.783 224.251C191.99 224.251 179.465 219.058 169.209 208.671C158.953 198.285 153.825 185.724 153.825 170.988C153.825 156.219 158.96 143.664 169.229 133.324C179.499 122.983 192.06 117.813 206.911 117.813C221.798 117.813 234.411 122.981 244.752 133.316C255.092 143.651 260.262 156.22 260.262 171.025C260.262 185.728 255.092 198.274 244.752 208.665C234.411 219.055 221.755 224.251 206.783 224.251ZM196.887 195.001L235.075 156.813L227.221 149.23L196.617 179.834L181.45 164.396L173.867 171.98L196.887 195.001Z" fill="#52C3B7"/>
</g>
</svg>
