<svg width="260" height="260" viewBox="0 0 260 260" fill="none" xmlns="http://www.w3.org/2000/svg">
<mask id="mask0_731_3620" style="mask-type:alpha" maskUnits="userSpaceOnUse" x="0" y="0" width="260" height="260">
<rect width="260" height="260" fill="#D9D9D9"/>
</mask>
<g mask="url(#mask0_731_3620)">
<path d="M118.06 230.208C104.164 230.208 91.1463 227.55 79.0064 222.235C66.8664 216.919 56.2441 209.706 47.1396 200.595C38.0351 191.484 30.8815 180.839 25.6788 168.66C20.4763 156.481 17.875 143.418 17.875 129.473C17.875 115.528 20.4757 102.463 25.6772 90.2795C30.8786 78.0962 38.0306 67.4473 47.1331 58.3328C56.2357 49.2186 66.8595 42.0027 79.0048 36.6851C91.1502 31.3676 104.176 28.7088 118.083 28.7088C121.875 28.7088 125.712 28.9345 129.593 29.3859C133.475 29.8373 137.222 30.5144 140.833 31.4171V55.521C137.222 54.4377 133.475 53.5801 129.593 52.9481C125.712 52.3162 121.861 52.0002 118.042 52.0002C96.7222 52.0002 78.5796 59.5732 63.6144 74.7191C48.6491 89.8648 41.1664 108.111 41.1664 129.459C41.1664 150.806 48.6491 169.052 63.6144 184.198C78.5796 199.344 96.7358 206.917 118.083 206.917C139.43 206.917 157.677 199.344 172.823 184.198C187.968 169.052 195.541 150.818 195.541 129.494C195.541 127.506 195.496 125.59 195.406 123.746C195.316 121.901 195.055 119.986 194.625 118H217.979C218.34 120.028 218.572 121.965 218.677 123.812C218.781 125.659 218.833 127.541 218.833 129.459C218.833 143.331 216.175 156.394 210.859 168.646C205.544 180.899 198.348 191.564 189.271 200.642C180.194 209.72 169.531 216.917 157.28 222.234C145.029 227.55 131.956 230.208 118.06 230.208ZM148.667 176.333L106.708 134.375V74.2085H129.999V125.084L164.958 160.042L148.667 176.333ZM195.541 96.3335V63.2918H162.5V40.0007H195.541V6.95898H218.833V40.0007H251.874V63.2918H218.833V96.3335H195.541Z" fill="#FCE221"/>
</g>
</svg>
