<svg width="260" height="260" viewBox="0 0 260 260" fill="none" xmlns="http://www.w3.org/2000/svg">
<path d="M129.786 168.869C140.507 168.869 149.701 165.131 157.368 157.655C165.035 150.18 168.869 141.032 168.869 130.214C168.869 119.493 165.058 110.299 157.437 102.632C149.816 94.9645 140.644 91.131 129.923 91.131C119.202 91.131 110.056 94.9417 102.486 102.563C94.916 110.184 91.131 119.356 91.131 130.077C91.131 140.798 94.8689 149.944 102.345 157.514C109.82 165.084 118.968 168.869 129.786 168.869ZM129.835 190.123C113.129 190.123 98.9596 184.307 87.3265 172.673C75.6934 161.04 69.8768 146.871 69.8768 130.165C69.8768 113.459 75.6934 99.2348 87.3265 87.4916C98.9596 75.7484 113.129 69.8768 129.835 69.8768C146.541 69.8768 160.765 75.7484 172.508 87.4916C184.252 99.2348 190.123 113.459 190.123 130.165C190.123 146.871 184.252 161.04 172.508 172.673C160.765 184.307 146.541 190.123 129.835 190.123ZM10.4815 140.627C7.61366 140.627 5.14973 139.593 3.08972 137.524C1.02991 135.455 0 132.98 0 130.1C0 127.219 1.02991 124.711 3.08972 122.576C5.14973 120.44 7.61366 119.373 10.4815 119.373H39.5969C42.5472 119.373 45.0803 120.436 47.196 122.561C49.3117 124.687 50.3695 127.232 50.3695 130.197C50.3695 133.079 49.3117 135.538 47.196 137.574C45.0803 139.609 42.5472 140.627 39.5969 140.627H10.4815ZM220.112 140.627C217.244 140.627 214.78 139.593 212.72 137.524C210.66 135.455 209.63 132.98 209.63 130.1C209.63 127.219 210.66 124.711 212.72 122.576C214.78 120.44 217.244 119.373 220.112 119.373H249.227C252.178 119.373 254.711 120.436 256.826 122.561C258.942 124.687 260 127.232 260 130.197C260 133.079 258.942 135.538 256.826 137.574C254.711 139.609 252.178 140.627 249.227 140.627H220.112ZM129.803 50.3695C126.921 50.3695 124.462 49.3396 122.426 47.2798C120.391 45.2198 119.373 42.7559 119.373 39.888V10.7727C119.373 7.82232 120.407 5.28929 122.476 3.17358C124.545 1.05786 127.02 0 129.9 0C132.781 0 135.289 1.05786 137.424 3.17358C139.56 5.28929 140.627 7.82232 140.627 10.7727V39.888C140.627 42.7559 139.564 45.2198 137.439 47.2798C135.313 49.3396 132.768 50.3695 129.803 50.3695ZM129.803 260C126.921 260 124.462 258.97 122.426 256.91C120.391 254.85 119.373 252.386 119.373 249.518V220.403C119.373 217.453 120.407 214.92 122.476 212.804C124.545 210.688 127.02 209.63 129.9 209.63C132.781 209.63 135.289 210.688 137.424 212.804C139.56 214.92 140.627 217.453 140.627 220.403V249.518C140.627 252.386 139.564 254.85 137.439 256.91C135.313 258.97 132.768 260 129.803 260ZM58.813 73.6618L42.2172 57.3572C40.0821 55.2221 39.002 52.6888 38.977 49.7572C38.9518 46.8255 40.0219 44.3022 42.1873 42.1872C44.1081 40.2662 46.5344 39.3057 49.4661 39.3057C52.3976 39.3057 55.028 40.2762 57.3572 42.2172L73.6618 58.813C75.6028 61.0188 76.5733 63.5598 76.5733 66.436C76.5733 69.3122 75.6028 71.6723 73.6618 73.5162C71.8178 75.7484 69.3673 76.8645 66.3102 76.8645C63.2531 76.8645 60.754 75.7969 58.813 73.6618ZM202.643 217.783L186.338 201.187C184.203 199.246 183.184 196.856 183.281 194.017C183.378 191.179 184.446 188.619 186.484 186.338C188.328 184.397 190.686 183.415 193.559 183.39C196.432 183.366 198.974 184.349 201.187 186.338L217.783 202.643C219.724 204.972 220.707 207.602 220.732 210.534C220.757 213.466 219.784 215.892 217.813 217.813C215.613 219.928 213.069 220.985 210.18 220.985C207.29 220.985 204.778 219.918 202.643 217.783ZM186.338 73.6618C184.203 71.6723 183.135 69.2339 183.135 66.3466C183.135 63.4593 184.203 60.9481 186.338 58.813L202.643 42.2172C204.778 40.2762 207.311 39.2932 210.243 39.2681C213.174 39.2429 215.698 40.2159 217.813 42.1872C219.734 44.3866 220.694 46.931 220.694 49.8204C220.694 52.7098 219.724 55.2221 217.783 57.3572L201.187 73.6618C199.052 75.7969 196.542 76.8645 193.657 76.8645C190.772 76.8645 188.332 75.7969 186.338 73.6618ZM42.1873 217.813C40.0721 215.892 39.0146 213.466 39.0146 210.534C39.0146 207.602 40.0821 204.972 42.2172 202.643L58.813 186.338C60.7152 184.397 63.0832 183.427 65.9171 183.427C68.751 183.427 71.2566 184.397 73.4338 186.338C75.5268 188.473 76.5733 190.997 76.5733 193.908C76.5733 196.82 75.6028 199.246 73.6618 201.187L57.3572 217.783C55.028 219.918 52.3976 220.998 49.4661 221.023C46.5344 221.048 44.1081 219.978 42.1873 217.813Z" fill="#543C6F"/>
</svg>
