<svg width="260" height="260" viewBox="0 0 260 260" fill="none" xmlns="http://www.w3.org/2000/svg">
<mask id="mask0_455_1484" style="mask-type:alpha" maskUnits="userSpaceOnUse" x="0" y="0" width="260" height="260">
<rect width="260" height="260" fill="#D9D9D9"/>
</mask>
<g mask="url(#mask0_455_1484)">
<path d="M205.566 241.584C204.138 241.584 202.833 241.313 201.651 240.771C200.469 240.23 199.427 239.417 198.524 238.334L135.691 175.23C134.575 174.34 133.799 173.33 133.364 172.202C132.929 171.073 132.712 169.826 132.712 168.459C132.712 167.092 132.929 165.844 133.364 164.715C133.799 163.587 134.575 162.488 135.691 161.417L161.42 135.688C162.31 134.752 163.319 134.022 164.448 133.497C165.576 132.971 166.824 132.709 168.191 132.709C169.558 132.709 170.806 132.971 171.934 133.497C173.063 134.022 174.162 134.752 175.233 135.688L238.337 198.792C239.24 199.695 239.962 200.739 240.504 201.925C241.045 203.11 241.316 204.419 241.316 205.852C241.316 207.284 241.053 208.551 240.528 209.652C240.003 210.754 239.273 211.738 238.337 212.605L212.608 238.605C211.537 239.54 210.438 240.27 209.309 240.796C208.181 241.321 206.933 241.584 205.566 241.584ZM205.566 217.75L217.483 205.834L168.191 156.271L156.274 168.188L205.566 217.75ZM54.1702 241.313C52.7258 241.313 51.4039 241.087 50.2044 240.636C49.005 240.184 47.9797 239.417 47.1286 238.334L21.6702 212.875C20.5869 212.024 19.8196 210.999 19.3682 209.799C18.9168 208.6 18.6911 207.278 18.6911 205.834C18.6911 204.389 18.9168 203.116 19.3682 202.015C19.8196 200.914 20.5869 199.839 21.6702 198.792L79.3578 141.105H105.087L115.92 130.271L70.4202 84.5003H54.9827L16.5244 46.3128L45.7744 17.0628L84.2327 55.2503V70.6878L129.733 116.459L163.858 82.3337L145.712 64.1878L159.254 50.6462H132.17L125.399 44.1462L162.504 7.04199L169.274 13.542V40.6253L182.545 27.3545L229.652 74.19C232.372 77.0913 234.59 80.3859 236.306 84.0738C238.021 87.7618 238.879 91.6956 238.879 95.8753C238.879 99.9644 238.066 103.921 236.441 107.744C234.816 111.568 232.74 115.014 230.212 118.084L207.191 95.0628L192.024 110.23L177.941 96.1462L118.899 155.188V180.646L61.2119 238.334C60.1414 239.417 59.0419 240.184 57.9134 240.636C56.785 241.087 55.5372 241.313 54.1702 241.313ZM54.1702 217.75L103.462 168.459V156.542H91.5453L42.2536 205.834L54.1702 217.75ZM54.1702 217.75L42.2536 205.834L48.492 211.512L54.1702 217.75Z" fill="#94866E"/>
</g>
</svg>
