<svg width="260" height="260" viewBox="0 0 260 260" fill="none" xmlns="http://www.w3.org/2000/svg">
<mask id="mask0_1186_334" style="mask-type:alpha" maskUnits="userSpaceOnUse" x="0" y="0" width="260" height="260">
<rect width="260" height="260" fill="#D9D9D9"/>
</mask>
<g mask="url(#mask0_1186_334)">
<path d="M72.3193 231.022V188.401C62.0277 178.634 54.0381 167.778 48.3506 155.83C42.6631 143.882 39.8193 131.611 39.8193 119.017C39.8193 94.007 48.5876 72.7483 66.124 55.2413C83.6605 37.7341 104.955 28.9805 130.007 28.9805C150.243 28.9805 168.593 35.1718 185.056 47.5545C201.519 59.9372 212.197 75.9333 217.09 95.5429L228.052 140.005C228.952 143.836 228.208 147.324 225.818 150.47C223.427 153.616 220.241 155.189 216.257 155.189H198.528V184.814C198.528 191.793 196.182 197.628 191.491 202.319C186.8 207.01 180.965 209.355 173.986 209.355H155.194V231.022H137.319V191.48H173.986C175.931 191.48 177.528 190.855 178.778 189.605C180.028 188.356 180.653 186.758 180.653 184.814V137.314H208.819L199.611 99.668C195.458 84.1819 186.858 71.5083 173.809 61.647C160.76 51.786 146.16 46.8555 130.007 46.8555C110.035 46.8555 92.9898 53.8421 78.8716 67.8153C64.7534 81.7885 57.6943 98.7804 57.6943 118.791C57.6943 129.076 59.8159 138.897 64.0589 148.254C68.302 157.611 74.3055 165.798 82.0693 172.814L90.1943 180.376V231.022H72.3193ZM120.715 158.46H137.674L139.007 146.835C140.937 146.474 142.913 145.8 144.934 144.814C146.955 143.828 148.562 142.529 149.757 140.918L160.09 144.751L168.299 130.126L159.84 123.751C160.673 121.321 161.09 118.89 161.09 116.46C161.09 114.029 160.673 111.599 159.84 109.168L168.299 102.793L160.09 88.1679L149.757 92.0012C148.562 90.3901 146.955 89.0916 144.934 88.1055C142.913 87.1194 140.937 86.4457 139.007 86.0846L137.674 74.4596H120.715L119.382 86.0846C117.451 86.4457 115.476 87.1194 113.455 88.1055C111.434 89.0916 109.826 90.3901 108.632 92.0012L98.2985 88.1679L90.0901 102.793L98.5485 109.168C97.7152 111.599 97.2986 114.029 97.2986 116.46C97.2986 118.89 97.7152 121.321 98.5485 123.751L90.0901 130.126L98.2985 144.751L108.632 140.918C109.826 142.529 111.434 143.828 113.455 144.814C115.476 145.8 117.451 146.474 119.382 146.835L120.715 158.46ZM129.15 137.21C123.374 137.21 118.479 135.188 114.465 131.145C110.451 127.101 108.444 122.192 108.444 116.415C108.444 110.639 110.466 105.744 114.509 101.73C118.553 97.7166 123.462 95.7097 129.238 95.7097C135.015 95.7097 139.91 97.7313 143.924 101.775C147.937 105.818 149.944 110.728 149.944 116.504C149.944 122.28 147.923 127.175 143.879 131.189C139.836 135.203 134.926 137.21 129.15 137.21Z" fill="#3C3141"/>
</g>
</svg>
