<svg width="260" height="260" viewBox="0 0 260 260" fill="none" xmlns="http://www.w3.org/2000/svg">
<mask id="mask0_455_1478" style="mask-type:alpha" maskUnits="userSpaceOnUse" x="0" y="0" width="260" height="260">
<rect width="260" height="260" fill="#D9D9D9"/>
</mask>
<g mask="url(#mask0_455_1478)">
<path d="M37.099 231.833C31.9125 231.833 27.3208 229.835 23.3238 225.838C19.3267 221.84 17.3281 217.249 17.3281 212.062V82.333C17.3281 77.1465 19.3267 72.5548 23.3238 68.5579C27.3208 64.5607 31.9125 62.5622 37.099 62.5622H82.8698V35.4788C82.8698 30.3579 84.8684 25.7825 88.8655 21.7527C92.8625 17.7229 97.4542 15.708 102.641 15.708H157.349C162.535 15.708 167.127 17.7229 171.124 21.7527C175.121 25.7825 177.12 30.3579 177.12 35.4788V62.5622H222.891C228.077 62.5622 232.669 64.5607 236.666 68.5579C240.663 72.5548 242.661 77.1465 242.661 82.333V140.833C239.735 138.277 236.611 135.968 233.29 133.906C229.968 131.843 226.502 130 222.891 128.375V82.333H37.099V212.062H124.849C125.571 215.673 126.655 219.104 128.099 222.354C129.543 225.604 131.259 228.764 133.245 231.833H37.099ZM102.641 62.5622H157.349V35.4788H102.641V62.5622ZM194.995 251.062C179.648 251.062 166.467 245.555 155.453 234.541C144.439 223.527 138.932 210.347 138.932 195C138.932 179.652 144.439 166.472 155.453 155.458C166.467 144.444 179.648 138.937 194.995 138.937C210.342 138.937 223.523 144.444 234.536 155.458C245.55 166.472 251.057 179.652 251.057 195C251.057 210.347 245.55 223.527 234.536 234.541C223.523 245.555 210.342 251.062 194.995 251.062ZM199.87 194.458V157.625H187.682V197.918L215.036 223.166L222.891 215.312L199.87 194.458Z" fill="#E04434"/>
</g>
</svg>
