<svg width="260" height="260" viewBox="0 0 260 260" fill="none" xmlns="http://www.w3.org/2000/svg">
<mask id="mask0_457_1675" style="mask-type:alpha" maskUnits="userSpaceOnUse" x="0" y="0" width="260" height="260">
<rect width="260" height="260" fill="#D9D9D9"/>
</mask>
<g mask="url(#mask0_457_1675)">
<path d="M74.667 248.354C69.5656 248.354 65.0993 246.438 61.2681 242.607C57.4367 238.776 55.521 234.31 55.521 229.208V30.7925C55.521 25.6911 57.4367 21.2248 61.2681 17.3936C65.0993 13.5622 69.5656 11.6465 74.667 11.6465H185.333C190.434 11.6465 194.9 13.5622 198.732 17.3936C202.563 21.2248 204.479 25.6911 204.479 30.7925V229.208C204.479 234.31 202.563 238.776 198.732 242.607C194.9 246.439 190.434 248.355 185.333 248.355L74.667 248.354ZM71.3333 204.562V229.208C71.3333 230.042 71.6805 230.806 72.375 231.5C73.0695 232.195 73.8336 232.542 74.667 232.542H185.333C186.166 232.542 186.93 232.195 187.625 231.5C188.319 230.806 188.666 230.042 188.666 229.208V204.562H71.3333ZM130.101 226.917C132.353 226.917 134.302 226.078 135.948 224.4C137.594 222.723 138.417 220.74 138.417 218.452C138.417 216.165 137.56 214.198 135.846 212.552C134.133 210.906 132.15 210.083 129.898 210.083C127.647 210.083 125.698 210.94 124.052 212.653C122.406 214.367 121.583 216.349 121.583 218.6C121.583 220.922 122.44 222.889 124.154 224.5C125.867 226.111 127.85 226.917 130.101 226.917ZM71.3333 188.75H188.666V53.4797H71.3333V188.75ZM71.3333 37.6673H188.666V30.7925C188.666 29.9591 188.319 29.1951 187.625 28.5005C186.93 27.806 186.166 27.4588 185.333 27.4588H74.667C73.8336 27.4588 73.0695 27.806 72.375 28.5005C71.6805 29.1951 71.3333 29.9591 71.3333 30.7925V37.6673Z" fill="#494949"/>
</g>
</svg>
