<svg width="65" height="50" viewBox="0 0 65 50" fill="none" xmlns="http://www.w3.org/2000/svg">
<path d="M7.18666 8.30156C8.01338 3.50476 12.1739 0 17.0414 0H55C60.5228 0 65 4.47715 65 10V50H0L7.18666 8.30156Z" fill="#3C3141"/>
<path d="M20.5064 32.175C20.5064 30.985 20.8331 29.9467 21.4864 29.06C22.1631 28.15 23.0964 27.45 24.2864 26.96C25.4764 26.47 26.8414 26.225 28.3814 26.225C29.1514 26.225 29.9331 26.2833 30.7264 26.4C31.5198 26.5167 32.2081 26.7033 32.7915 26.96V25.98C32.7915 24.8133 32.4414 23.915 31.7414 23.285C31.0648 22.655 30.0498 22.34 28.6964 22.34C27.6931 22.34 26.7364 22.515 25.8264 22.865C24.9164 23.215 23.9598 23.7283 22.9564 24.405L21.4514 21.325C22.6648 20.5317 23.9014 19.9367 25.1614 19.54C26.4448 19.1433 27.7864 18.945 29.1864 18.945C31.7998 18.945 33.8298 19.5983 35.2765 20.905C36.7465 22.2117 37.4815 24.0783 37.4815 26.505V32.35C37.4815 32.84 37.5631 33.19 37.7264 33.4C37.9131 33.61 38.2048 33.7383 38.6015 33.785V37.6C38.1814 37.67 37.7965 37.7283 37.4464 37.775C37.1198 37.8217 36.8398 37.845 36.6064 37.845C35.6731 37.845 34.9614 37.635 34.4714 37.215C34.0048 36.795 33.7131 36.2817 33.5964 35.675L33.4914 34.73C32.6981 35.7567 31.7064 36.55 30.5164 37.11C29.3264 37.67 28.1131 37.95 26.8764 37.95C25.6631 37.95 24.5664 37.705 23.5864 37.215C22.6298 36.7017 21.8714 36.0133 21.3114 35.15C20.7748 34.2633 20.5064 33.2717 20.5064 32.175ZM31.9164 33.12C32.1731 32.84 32.3831 32.56 32.5464 32.28C32.7098 32 32.7915 31.7433 32.7915 31.51V29.655C32.2314 29.4217 31.6248 29.2467 30.9714 29.13C30.3181 28.99 29.6998 28.92 29.1164 28.92C27.9031 28.92 26.8998 29.1883 26.1064 29.725C25.3364 30.2383 24.9514 30.9267 24.9514 31.79C24.9514 32.2567 25.0798 32.7 25.3364 33.12C25.5931 33.54 25.9664 33.8783 26.4564 34.135C26.9464 34.3917 27.5298 34.52 28.2064 34.52C28.9064 34.52 29.5948 34.3917 30.2714 34.135C30.9481 33.855 31.4964 33.5167 31.9164 33.12Z" fill="white"/>
<path d="M41.8641 37.6V19.26H46.5541V37.6H41.8641ZM41.8641 16.705V12.05H46.5541V16.705H41.8641Z" fill="white"/>
</svg>
