<svg width="159" height="50" viewBox="0 0 159 50" fill="none" xmlns="http://www.w3.org/2000/svg">
<path d="M7.01768 8.33894C7.82859 3.52492 11.9969 0 16.8788 0H149C154.523 0 159 4.47715 159 10V50H0L7.01768 8.33894Z" fill="#34495E"/>
<path d="M39.4918 37.5H34.813V27.21C34.813 25.7867 34.5337 24.725 33.975 24.025C33.4396 23.325 32.6947 22.975 31.7403 22.975C31.1816 22.975 30.5881 23.1383 29.9596 23.465C29.3311 23.7917 28.7607 24.2467 28.2486 24.83C27.7598 25.39 27.399 26.0433 27.1662 26.79V37.5H22.4874V11.95H27.1662V22.555C27.8413 21.3883 28.7607 20.4783 29.9246 19.825C31.0885 19.1717 32.3572 18.845 33.7306 18.845C34.9177 18.845 35.8838 19.055 36.6287 19.475C37.3736 19.8717 37.9555 20.42 38.3745 21.12C38.7935 21.7967 39.0845 22.5667 39.2474 23.43C39.4104 24.27 39.4918 25.145 39.4918 26.055V37.5Z" fill="white"/>
<path d="M54.4542 23.22C53.0343 23.22 51.7656 23.5 50.6483 24.06C49.531 24.5967 48.7279 25.3783 48.239 26.405V37.5H43.5602V19.16H47.855V23.08C48.5067 21.82 49.3331 20.8283 50.334 20.105C51.335 19.3817 52.3941 18.985 53.5115 18.915C53.7675 18.915 53.9654 18.915 54.1051 18.915C54.2447 18.915 54.3611 18.9267 54.4542 18.95V23.22Z" fill="white"/>
<path d="M75.0723 37.85C73.6756 37.85 72.4303 37.535 71.3362 36.905C70.2422 36.275 69.3809 35.4117 68.7524 34.315V37.5H64.6671V11.95H69.346V22.38C69.9977 21.2833 70.8474 20.42 71.8949 19.79C72.9657 19.16 74.211 18.845 75.631 18.845C76.8182 18.845 77.9006 19.1017 78.8782 19.615C79.8559 20.105 80.6939 20.7933 81.3923 21.68C82.1139 22.5667 82.6609 23.5817 83.0333 24.725C83.4291 25.8683 83.6269 27.0933 83.6269 28.4C83.6269 29.7067 83.4058 30.9317 82.9635 32.075C82.5445 33.2183 81.9509 34.2333 81.1828 35.12C80.4146 35.9833 79.5067 36.66 78.4592 37.15C77.435 37.6167 76.306 37.85 75.0723 37.85ZM73.7804 33.86C74.5253 33.86 75.2003 33.72 75.8056 33.44C76.4341 33.1367 76.9695 32.74 77.4117 32.25C77.8773 31.76 78.2265 31.1883 78.4592 30.535C78.7153 29.8583 78.8433 29.1583 78.8433 28.435C78.8433 27.4317 78.6338 26.51 78.2148 25.67C77.8191 24.8067 77.2604 24.1183 76.5388 23.605C75.8405 23.0917 75.0141 22.835 74.0597 22.835C73.3847 22.835 72.7329 22.9983 72.1044 23.325C71.4992 23.6283 70.9521 24.0483 70.4633 24.585C69.9977 25.1217 69.6253 25.7283 69.346 26.405V30.78C69.4856 31.2467 69.7068 31.6667 70.0094 32.04C70.3353 32.4133 70.7077 32.74 71.1267 33.02C71.5457 33.2767 71.9764 33.4867 72.4186 33.65C72.8842 33.79 73.3381 33.86 73.7804 33.86Z" fill="white"/>
<path d="M85.54 32.075C85.54 30.885 85.8659 29.8467 86.5176 28.96C87.1927 28.05 88.1238 27.35 89.311 26.86C90.4982 26.37 91.8599 26.125 93.3963 26.125C94.1644 26.125 94.9442 26.1833 95.7357 26.3C96.5271 26.4167 97.2138 26.6033 97.7958 26.86V25.88C97.7958 24.7133 97.4466 23.815 96.7483 23.185C96.0732 22.555 95.0606 22.24 93.7105 22.24C92.7096 22.24 91.7552 22.415 90.8473 22.765C89.9395 23.115 88.9851 23.6283 87.9842 24.305L86.4827 21.225C87.6932 20.4317 88.9269 19.8367 90.1839 19.44C91.4642 19.0433 92.8027 18.845 94.1993 18.845C96.8065 18.845 98.8316 19.4983 100.275 20.805C101.741 22.1117 102.475 23.9783 102.475 26.405V32.25C102.475 32.74 102.556 33.09 102.719 33.3C102.905 33.51 103.196 33.6383 103.592 33.685V37.5C103.173 37.57 102.789 37.6283 102.44 37.675C102.114 37.7217 101.834 37.745 101.602 37.745C100.671 37.745 99.9606 37.535 99.4718 37.115C99.0062 36.695 98.7152 36.1817 98.5989 35.575L98.4941 34.63C97.7027 35.6567 96.7133 36.45 95.5262 37.01C94.339 37.57 93.1286 37.85 91.8948 37.85C90.6844 37.85 89.5903 37.605 88.6127 37.115C87.6583 36.6017 86.9017 35.9133 86.3431 35.05C85.8077 34.1633 85.54 33.1717 85.54 32.075ZM96.9229 33.02C97.1789 32.74 97.3884 32.46 97.5514 32.18C97.7143 31.9 97.7958 31.6433 97.7958 31.41V29.555C97.2371 29.3217 96.6319 29.1467 95.9801 29.03C95.3283 28.89 94.7115 28.82 94.1295 28.82C92.9191 28.82 91.9181 29.0883 91.1267 29.625C90.3585 30.1383 89.9744 30.8267 89.9744 31.69C89.9744 32.1567 90.1024 32.6 90.3585 33.02C90.6146 33.44 90.987 33.7783 91.4758 34.035C91.9647 34.2917 92.5466 34.42 93.2217 34.42C93.92 34.42 94.6067 34.2917 95.2818 34.035C95.9568 33.755 96.5039 33.4167 96.9229 33.02Z" fill="white"/>
<path d="M113.586 37.85C112.026 37.85 110.536 37.5933 109.116 37.08C107.696 36.5667 106.474 35.8083 105.45 34.805L107.126 31.76C108.22 32.6467 109.291 33.3 110.339 33.72C111.409 34.14 112.434 34.35 113.411 34.35C114.319 34.35 115.041 34.1867 115.576 33.86C116.135 33.5333 116.414 33.0433 116.414 32.39C116.414 31.9467 116.263 31.6083 115.96 31.375C115.658 31.1183 115.215 30.8967 114.633 30.71C114.075 30.5233 113.388 30.3133 112.573 30.08C111.223 29.6367 110.094 29.205 109.186 28.785C108.278 28.365 107.592 27.84 107.126 27.21C106.684 26.5567 106.463 25.7283 106.463 24.725C106.463 23.5117 106.765 22.4733 107.371 21.61C107.999 20.7233 108.86 20.035 109.954 19.545C111.072 19.055 112.375 18.81 113.865 18.81C115.169 18.81 116.402 19.02 117.566 19.44C118.73 19.8367 119.789 20.49 120.744 21.4L118.858 24.375C117.927 23.6517 117.043 23.1267 116.205 22.8C115.367 22.45 114.517 22.275 113.656 22.275C113.167 22.275 112.701 22.3333 112.259 22.45C111.84 22.5667 111.491 22.765 111.211 23.045C110.955 23.3017 110.827 23.675 110.827 24.165C110.827 24.6083 110.944 24.9583 111.177 25.215C111.433 25.4483 111.805 25.6583 112.294 25.845C112.806 26.0317 113.423 26.2417 114.144 26.475C115.611 26.895 116.845 27.3267 117.846 27.77C118.87 28.2133 119.638 28.7617 120.15 29.415C120.662 30.045 120.918 30.92 120.918 32.04C120.918 33.86 120.255 35.2833 118.928 36.31C117.601 37.3367 115.82 37.85 113.586 37.85Z" fill="white"/>
<path d="M132.585 37.85C131.119 37.85 129.792 37.605 128.605 37.115C127.418 36.6017 126.405 35.9133 125.567 35.05C124.729 34.1633 124.077 33.16 123.612 32.04C123.17 30.8967 122.948 29.695 122.948 28.435C122.948 26.685 123.332 25.0867 124.101 23.64C124.892 22.1933 126.009 21.0383 127.453 20.175C128.919 19.2883 130.642 18.845 132.62 18.845C134.622 18.845 136.333 19.2883 137.753 20.175C139.173 21.0383 140.255 22.1933 141 23.64C141.769 25.0633 142.153 26.6033 142.153 28.26C142.153 28.54 142.141 28.8317 142.118 29.135C142.094 29.415 142.071 29.6483 142.048 29.835H127.907C128 30.7683 128.267 31.585 128.71 32.285C129.175 32.985 129.757 33.5217 130.456 33.895C131.177 34.245 131.945 34.42 132.76 34.42C133.691 34.42 134.564 34.1983 135.379 33.755C136.217 33.2883 136.787 32.6817 137.09 31.935L141.105 33.055C140.663 33.9883 140.023 34.8167 139.185 35.54C138.37 36.2633 137.404 36.835 136.287 37.255C135.169 37.6517 133.936 37.85 132.585 37.85ZM127.802 26.86H137.369C137.276 25.9267 137.008 25.1217 136.566 24.445C136.147 23.745 135.588 23.2083 134.89 22.835C134.192 22.4383 133.412 22.24 132.551 22.24C131.713 22.24 130.944 22.4383 130.246 22.835C129.571 23.2083 129.012 23.745 128.57 24.445C128.151 25.1217 127.895 25.9267 127.802 26.86Z" fill="white"/>
</svg>
