<svg width="190" height="50" viewBox="0 0 190 50" fill="none" xmlns="http://www.w3.org/2000/svg">
<path d="M35.562 0H189.658V50H27L35.562 0Z" fill="#543C6F"/>
<path d="M69.1556 37.5H64.4686V27.21C64.4686 25.7867 64.1888 24.725 63.6291 24.025C63.0928 23.325 62.3466 22.975 61.3906 22.975C60.8309 22.975 60.2363 23.1383 59.6067 23.465C58.9771 23.7917 58.4058 24.2467 57.8928 24.83C57.4031 25.39 57.0417 26.0433 56.8085 26.79V37.5H52.1215V11.95H56.8085V22.555C57.4847 21.3883 58.4058 20.4783 59.5717 19.825C60.7376 19.1717 62.0085 18.845 63.3843 18.845C64.5735 18.845 65.5413 19.055 66.2875 19.475C67.0336 19.8717 67.6166 20.42 68.0363 21.12C68.4561 21.7967 68.7476 22.5667 68.9108 23.43C69.074 24.27 69.1556 25.145 69.1556 26.055V37.5Z" fill="white"/>
<path d="M81.6957 37.85C80.2033 37.85 78.8625 37.605 77.6733 37.115C76.484 36.6017 75.4697 35.9017 74.6302 35.015C73.8141 34.1283 73.1845 33.1133 72.7414 31.97C72.2984 30.8267 72.0768 29.625 72.0768 28.365C72.0768 27.0817 72.2984 25.8683 72.7414 24.725C73.1845 23.5817 73.8141 22.5667 74.6302 21.68C75.4697 20.7933 76.484 20.105 77.6733 19.615C78.8625 19.1017 80.2033 18.845 81.6957 18.845C83.1881 18.845 84.5173 19.1017 85.6832 19.615C86.8724 20.105 87.8868 20.7933 88.7262 21.68C89.5657 22.5667 90.1953 23.5817 90.615 24.725C91.0581 25.8683 91.2796 27.0817 91.2796 28.365C91.2796 29.625 91.0581 30.8267 90.615 31.97C90.1953 33.1133 89.5657 34.1283 88.7262 35.015C87.9101 35.9017 86.9074 36.6017 85.7182 37.115C84.5289 37.605 83.1881 37.85 81.6957 37.85ZM76.9038 28.365C76.9038 29.4383 77.1136 30.395 77.5334 31.235C77.9531 32.0517 78.5244 32.6933 79.2473 33.16C79.9701 33.6267 80.7863 33.86 81.6957 33.86C82.5818 33.86 83.3863 33.6267 84.1092 33.16C84.8321 32.67 85.4034 32.0167 85.8231 31.2C86.2661 30.36 86.4877 29.4033 86.4877 28.33C86.4877 27.28 86.2661 26.335 85.8231 25.495C85.4034 24.655 84.8321 24.0017 84.1092 23.535C83.3863 23.0683 82.5818 22.835 81.6957 22.835C80.7863 22.835 79.9701 23.08 79.2473 23.57C78.5244 24.0367 77.9531 24.69 77.5334 25.53C77.1136 26.3467 76.9038 27.2917 76.9038 28.365Z" fill="white"/>
<path d="M94.4082 11.95H99.0953V31.62C99.0953 32.46 99.2352 33.0317 99.515 33.335C99.7948 33.615 100.18 33.755 100.669 33.755C101.042 33.755 101.427 33.7083 101.824 33.615C102.22 33.5217 102.57 33.405 102.873 33.265L103.502 36.835C102.873 37.1383 102.138 37.3717 101.299 37.535C100.459 37.6983 99.7015 37.78 99.0253 37.78C97.5562 37.78 96.4136 37.395 95.5975 36.625C94.8046 35.8317 94.4082 34.7117 94.4082 33.265V11.95Z" fill="white"/>
<path d="M105.545 37.5V19.16H110.232V37.5H105.545ZM105.545 16.605V11.95H110.232V16.605H105.545Z" fill="white"/>
<path d="M113.34 28.33C113.34 26.5567 113.69 24.9583 114.39 23.535C115.089 22.0883 116.057 20.945 117.293 20.105C118.529 19.265 119.94 18.845 121.525 18.845C122.878 18.845 124.09 19.1833 125.163 19.86C126.259 20.5133 127.11 21.3533 127.716 22.38V11.95H132.403V32.25C132.403 32.74 132.485 33.09 132.648 33.3C132.811 33.51 133.091 33.6383 133.488 33.685V37.5C132.672 37.6633 132.007 37.745 131.494 37.745C130.655 37.745 129.955 37.535 129.395 37.115C128.859 36.695 128.556 36.1467 128.486 35.47L128.416 34.315C127.74 35.4583 126.819 36.3333 125.653 36.94C124.51 37.5467 123.309 37.85 122.05 37.85C120.791 37.85 119.625 37.605 118.552 37.115C117.503 36.625 116.582 35.9483 115.789 35.085C115.019 34.2217 114.413 33.2183 113.97 32.075C113.55 30.9083 113.34 29.66 113.34 28.33ZM127.716 30.78V26.405C127.483 25.7283 127.11 25.1217 126.597 24.585C126.084 24.0483 125.513 23.6283 124.883 23.325C124.254 22.9983 123.624 22.835 122.994 22.835C122.271 22.835 121.619 22.9867 121.036 23.29C120.453 23.5933 119.94 24.0017 119.497 24.515C119.077 25.0283 118.75 25.6233 118.517 26.3C118.307 26.9767 118.202 27.6883 118.202 28.435C118.202 29.1817 118.319 29.8933 118.552 30.57C118.809 31.2233 119.17 31.795 119.637 32.285C120.103 32.775 120.639 33.16 121.245 33.44C121.875 33.72 122.551 33.86 123.274 33.86C123.717 33.86 124.16 33.79 124.603 33.65C125.07 33.4867 125.501 33.2767 125.898 33.02C126.317 32.74 126.679 32.4133 126.982 32.04C127.308 31.6433 127.553 31.2233 127.716 30.78Z" fill="white"/>
<path d="M135.745 32.075C135.745 30.885 136.071 29.8467 136.724 28.96C137.4 28.05 138.333 27.35 139.522 26.86C140.712 26.37 142.076 26.125 143.615 26.125C144.384 26.125 145.166 26.1833 145.958 26.3C146.751 26.4167 147.439 26.6033 148.022 26.86V25.88C148.022 24.7133 147.672 23.815 146.973 23.185C146.296 22.555 145.282 22.24 143.93 22.24C142.927 22.24 141.971 22.415 141.061 22.765C140.152 23.115 139.196 23.6283 138.193 24.305L136.689 21.225C137.902 20.4317 139.138 19.8367 140.397 19.44C141.679 19.0433 143.02 18.845 144.419 18.845C147.031 18.845 149.06 19.4983 150.505 20.805C151.975 22.1117 152.709 23.9783 152.709 26.405V32.25C152.709 32.74 152.791 33.09 152.954 33.3C153.14 33.51 153.432 33.6383 153.828 33.685V37.5C153.409 37.57 153.024 37.6283 152.674 37.675C152.348 37.7217 152.068 37.745 151.835 37.745C150.902 37.745 150.191 37.535 149.701 37.115C149.235 36.695 148.943 36.1817 148.827 35.575L148.722 34.63C147.929 35.6567 146.938 36.45 145.749 37.01C144.559 37.57 143.347 37.85 142.111 37.85C140.898 37.85 139.802 37.605 138.823 37.115C137.867 36.6017 137.109 35.9133 136.549 35.05C136.013 34.1633 135.745 33.1717 135.745 32.075ZM147.148 33.02C147.404 32.74 147.614 32.46 147.777 32.18C147.94 31.9 148.022 31.6433 148.022 31.41V29.555C147.462 29.3217 146.856 29.1467 146.203 29.03C145.55 28.89 144.932 28.82 144.349 28.82C143.137 28.82 142.134 29.0883 141.341 29.625C140.572 30.1383 140.187 30.8267 140.187 31.69C140.187 32.1567 140.315 32.6 140.572 33.02C140.828 33.44 141.201 33.7783 141.691 34.035C142.181 34.2917 142.764 34.42 143.44 34.42C144.14 34.42 144.827 34.2917 145.504 34.035C146.18 33.755 146.728 33.4167 147.148 33.02Z" fill="white"/>
<path d="M156.791 41.07C157.21 41.1633 157.595 41.245 157.945 41.315C158.318 41.385 158.633 41.42 158.889 41.42C159.332 41.42 159.694 41.3033 159.974 41.07C160.277 40.86 160.568 40.4633 160.848 39.88C161.128 39.32 161.419 38.5267 161.722 37.5L154.482 19.16H159.344L164.276 32.705L168.613 19.16H173.09L165.395 41.14C165.115 41.9567 164.684 42.6917 164.101 43.345C163.541 44.0217 162.83 44.5467 161.967 44.92C161.128 45.3167 160.183 45.515 159.134 45.515C158.761 45.515 158.388 45.48 158.015 45.41C157.642 45.3633 157.234 45.27 156.791 45.13V41.07Z" fill="white"/>
<rect x="0.00195312" y="-0.000976562" width="49.9994" height="49.9994" fill="#543C6F"/>
<mask id="mask0_652_274" style="mask-type:alpha" maskUnits="userSpaceOnUse" x="10" y="10" width="30" height="30">
<rect x="10.502" y="10.499" width="28.9996" height="28.9996" fill="#D9D9D9"/>
</mask>
<g mask="url(#mask0_652_274)">
<path d="M24.995 29.0167C26.1073 29.0167 27.0612 28.6289 27.8567 27.8533C28.6522 27.0776 29.0499 26.1286 29.0499 25.0062C29.0499 23.8938 28.6545 22.9399 27.8638 22.1444C27.0731 21.3489 26.1215 20.9512 25.0091 20.9512C23.8968 20.9512 22.9479 21.3466 22.1625 22.1373C21.3771 22.928 20.9844 23.8796 20.9844 24.992C20.9844 26.1043 21.3722 27.0532 22.1479 27.8386C22.9235 28.624 23.8725 29.0167 24.995 29.0167ZM25 31.2219C23.2668 31.2219 21.7966 30.6184 20.5897 29.4114C19.3827 28.2045 18.7792 26.7344 18.7792 25.0011C18.7792 23.2678 19.3827 21.792 20.5897 20.5736C21.7966 19.3552 23.2668 18.746 25 18.746C26.7333 18.746 28.2091 19.3552 29.4275 20.5736C30.6459 21.792 31.2551 23.2678 31.2551 25.0011C31.2551 26.7344 30.6459 28.2045 29.4275 29.4114C28.2091 30.6184 26.7333 31.2219 25 31.2219ZM12.6168 26.0865C12.3192 26.0865 12.0636 25.9792 11.8499 25.7646C11.6362 25.5499 11.5293 25.2932 11.5293 24.9943C11.5293 24.6954 11.6362 24.4352 11.8499 24.2136C12.0636 23.9921 12.3192 23.8814 12.6168 23.8814H15.6376C15.9437 23.8814 16.2065 23.9916 16.426 24.2121C16.6455 24.4327 16.7553 24.6967 16.7553 25.0043C16.7553 25.3034 16.6455 25.5585 16.426 25.7697C16.2065 25.9809 15.9437 26.0865 15.6376 26.0865H12.6168ZM34.3665 26.0865C34.069 26.0865 33.8133 25.9792 33.5996 25.7646C33.3859 25.5499 33.279 25.2932 33.279 24.9943C33.279 24.6954 33.3859 24.4352 33.5996 24.2136C33.8133 23.9921 34.069 23.8814 34.3665 23.8814H37.3873C37.6934 23.8814 37.9562 23.9916 38.1757 24.2121C38.3953 24.4327 38.505 24.6967 38.505 25.0043C38.505 25.3034 38.3953 25.5585 38.1757 25.7697C37.9562 25.9809 37.6934 26.0865 37.3873 26.0865H34.3665ZM24.9968 16.7221C24.6977 16.7221 24.4426 16.6152 24.2314 16.4015C24.0202 16.1878 23.9146 15.9321 23.9146 15.6346V12.6138C23.9146 12.3077 24.0219 12.0449 24.2365 11.8254C24.4512 11.6059 24.7079 11.4961 25.0068 11.4961C25.3057 11.4961 25.5659 11.6059 25.7875 11.8254C26.009 12.0449 26.1197 12.3077 26.1197 12.6138V15.6346C26.1197 15.9321 26.0095 16.1878 25.789 16.4015C25.5684 16.6152 25.3044 16.7221 24.9968 16.7221ZM24.9968 38.4718C24.6977 38.4718 24.4426 38.365 24.2314 38.1512C24.0202 37.9375 23.9146 37.6819 23.9146 37.3843V34.3635C23.9146 34.0574 24.0219 33.7946 24.2365 33.5751C24.4512 33.3556 24.7079 33.2458 25.0068 33.2458C25.3057 33.2458 25.5659 33.3556 25.7875 33.5751C26.009 33.7946 26.1197 34.0574 26.1197 34.3635V37.3843C26.1197 37.6819 26.0095 37.9375 25.789 38.1512C25.5684 38.365 25.3044 38.4718 24.9968 38.4718ZM17.6313 19.1387L15.9095 17.4471C15.6879 17.2255 15.5759 16.9627 15.5733 16.6585C15.5706 16.3544 15.6817 16.0926 15.9063 15.8731C16.1056 15.6738 16.3574 15.5742 16.6615 15.5742C16.9657 15.5742 17.2386 15.6749 17.4803 15.8762L19.1719 17.5981C19.3733 17.827 19.474 18.0906 19.474 18.389C19.474 18.6874 19.3733 18.9323 19.1719 19.1236C18.9806 19.3552 18.7263 19.471 18.4092 19.471C18.092 19.471 17.8327 19.3602 17.6313 19.1387ZM32.554 34.0917L30.8624 32.3698C30.6409 32.1684 30.5351 31.9205 30.5452 31.6259C30.5553 31.3314 30.666 31.0658 30.8775 30.8292C31.0688 30.6278 31.3135 30.5259 31.6116 30.5233C31.9096 30.5208 32.1734 30.6228 32.403 30.8292L34.1249 32.5208C34.3262 32.7625 34.4282 33.0354 34.4308 33.3396C34.4335 33.6437 34.3325 33.8955 34.128 34.0948C33.8998 34.3142 33.6358 34.4239 33.336 34.4239C33.0362 34.4239 32.7756 34.3132 32.554 34.0917ZM30.8624 19.1387C30.6409 18.9323 30.5301 18.6793 30.5301 18.3797C30.5301 18.0802 30.6409 17.8196 30.8624 17.5981L32.554 15.8762C32.7756 15.6749 33.0384 15.5729 33.3426 15.5703C33.6467 15.5677 33.9085 15.6686 34.128 15.8731C34.3273 16.1013 34.4269 16.3653 34.4269 16.6651C34.4269 16.9649 34.3262 17.2255 34.1249 17.4471L32.403 19.1387C32.1815 19.3602 31.921 19.471 31.6217 19.471C31.3224 19.471 31.0693 19.3602 30.8624 19.1387ZM15.9063 34.0948C15.6869 33.8955 15.5772 33.6437 15.5772 33.3396C15.5772 33.0354 15.6879 32.7625 15.9095 32.5208L17.6313 30.8292C17.8287 30.6278 18.0744 30.5271 18.3684 30.5271C18.6624 30.5271 18.9224 30.6278 19.1483 30.8292C19.3654 31.0507 19.474 31.3125 19.474 31.6146C19.474 31.9167 19.3733 32.1684 19.1719 32.3698L17.4803 34.0917C17.2386 34.3132 16.9657 34.4252 16.6615 34.4278C16.3574 34.4305 16.1056 34.3194 15.9063 34.0948Z" fill="white"/>
</g>
</svg>
