<svg width="163" height="50" viewBox="0 0 163 50" fill="none" xmlns="http://www.w3.org/2000/svg">
<path d="M7.1542 8.30872C7.9779 3.50862 12.1399 0 17.0101 0H153C158.523 0 163 4.47715 163 10V50H0L7.1542 8.30872Z" fill="#543C6F"/>
<path d="M42.2442 37.5H37.5473V27.21C37.5473 25.7867 37.2669 24.725 36.7061 24.025C36.1687 23.325 35.4209 22.975 34.4628 22.975C33.902 22.975 33.3061 23.1383 32.6752 23.465C32.0443 23.7917 31.4718 24.2467 30.9577 24.83C30.467 25.39 30.1048 26.0433 29.8711 26.79V37.5H25.1742V11.95H29.8711V22.555C30.5488 21.3883 31.4718 20.4783 32.6402 19.825C33.8085 19.1717 35.0821 18.845 36.4607 18.845C37.6525 18.845 38.6222 19.055 39.37 19.475C40.1178 19.8717 40.702 20.42 41.1226 21.12C41.5432 21.7967 41.8353 22.5667 41.9988 23.43C42.1624 24.27 42.2442 25.145 42.2442 26.055V37.5Z" fill="white"/>
<path d="M54.8106 37.85C53.3151 37.85 51.9715 37.605 50.7797 37.115C49.588 36.6017 48.5715 35.9017 47.7303 35.015C46.9124 34.1283 46.2815 33.1133 45.8375 31.97C45.3935 30.8267 45.1715 29.625 45.1715 28.365C45.1715 27.0817 45.3935 25.8683 45.8375 24.725C46.2815 23.5817 46.9124 22.5667 47.7303 21.68C48.5715 20.7933 49.588 20.105 50.7797 19.615C51.9715 19.1017 53.3151 18.845 54.8106 18.845C56.3062 18.845 57.6381 19.1017 58.8065 19.615C59.9982 20.105 61.0147 20.7933 61.8559 21.68C62.6972 22.5667 63.3281 23.5817 63.7487 24.725C64.1927 25.8683 64.4147 27.0817 64.4147 28.365C64.4147 29.625 64.1927 30.8267 63.7487 31.97C63.3281 33.1133 62.6972 34.1283 61.8559 35.015C61.0381 35.9017 60.0333 36.6017 58.8415 37.115C57.6498 37.605 56.3062 37.85 54.8106 37.85ZM50.0086 28.365C50.0086 29.4383 50.2189 30.395 50.6395 31.235C51.0602 32.0517 51.6327 32.6933 52.357 33.16C53.0814 33.6267 53.8993 33.86 54.8106 33.86C55.6986 33.86 56.5048 33.6267 57.2292 33.16C57.9536 32.67 58.5261 32.0167 58.9467 31.2C59.3907 30.36 59.6127 29.4033 59.6127 28.33C59.6127 27.28 59.3907 26.335 58.9467 25.495C58.5261 24.655 57.9536 24.0017 57.2292 23.535C56.5048 23.0683 55.6986 22.835 54.8106 22.835C53.8993 22.835 53.0814 23.08 52.357 23.57C51.6327 24.0367 51.0602 24.69 50.6395 25.53C50.2189 26.3467 50.0086 27.2917 50.0086 28.365Z" fill="white"/>
<path d="M67.5499 11.95H72.2467V31.62C72.2467 32.46 72.3869 33.0317 72.6673 33.335C72.9478 33.615 73.3333 33.755 73.824 33.755C74.1979 33.755 74.5835 33.7083 74.9807 33.615C75.378 33.5217 75.7285 33.405 76.0323 33.265L76.6632 36.835C76.0323 37.1383 75.2962 37.3717 74.455 37.535C73.6137 37.6983 72.8543 37.78 72.1766 37.78C70.7045 37.78 69.5595 37.395 68.7416 36.625C67.9471 35.8317 67.5499 34.7117 67.5499 33.265V11.95Z" fill="white"/>
<path d="M78.7096 37.5V19.16H83.4065V37.5H78.7096ZM78.7096 16.605V11.95H83.4065V16.605H78.7096Z" fill="white"/>
<path d="M86.5219 28.33C86.5219 26.5567 86.8724 24.9583 87.5735 23.535C88.2745 22.0883 89.2442 20.945 90.4827 20.105C91.7212 19.265 93.1349 18.845 94.7239 18.845C96.0792 18.845 97.2943 19.1833 98.3692 19.86C99.4675 20.5133 100.32 21.3533 100.928 22.38V11.95H105.625V32.25C105.625 32.74 105.707 33.09 105.87 33.3C106.034 33.51 106.314 33.6383 106.711 33.685V37.5C105.894 37.6633 105.228 37.745 104.714 37.745C103.872 37.745 103.171 37.535 102.61 37.115C102.073 36.695 101.769 36.1467 101.699 35.47L101.629 34.315C100.951 35.4583 100.028 36.3333 98.86 36.94C97.715 37.5467 96.5115 37.85 95.2497 37.85C93.9878 37.85 92.8195 37.605 91.7446 37.115C90.693 36.625 89.77 35.9483 88.9755 35.085C88.2044 34.2217 87.5968 33.2183 87.1528 32.075C86.7322 30.9083 86.5219 29.66 86.5219 28.33ZM100.928 30.78V26.405C100.694 25.7283 100.32 25.1217 99.8063 24.585C99.2923 24.0483 98.7198 23.6283 98.0888 23.325C97.4579 22.9983 96.827 22.835 96.1961 22.835C95.4717 22.835 94.8174 22.9867 94.2332 23.29C93.649 23.5933 93.1349 24.0017 92.6909 24.515C92.2703 25.0283 91.9432 25.6233 91.7095 26.3C91.4992 26.9767 91.394 27.6883 91.394 28.435C91.394 29.1817 91.5109 29.8933 91.7446 30.57C92.0016 31.2233 92.3638 31.795 92.8311 32.285C93.2985 32.775 93.8359 33.16 94.4435 33.44C95.0744 33.72 95.7521 33.86 96.4765 33.86C96.9205 33.86 97.3644 33.79 97.8084 33.65C98.2758 33.4867 98.7081 33.2767 99.1053 33.02C99.5259 32.74 99.8881 32.4133 100.192 32.04C100.519 31.6433 100.764 31.2233 100.928 30.78Z" fill="white"/>
<path d="M108.973 32.075C108.973 30.885 109.3 29.8467 109.955 28.96C110.632 28.05 111.567 27.35 112.759 26.86C113.951 26.37 115.318 26.125 116.86 26.125C117.631 26.125 118.414 26.1833 119.208 26.3C120.003 26.4167 120.692 26.6033 121.276 26.86V25.88C121.276 24.7133 120.926 23.815 120.225 23.185C119.547 22.555 118.531 22.24 117.175 22.24C116.171 22.24 115.212 22.415 114.301 22.765C113.39 23.115 112.432 23.6283 111.427 24.305L109.92 21.225C111.135 20.4317 112.373 19.8367 113.635 19.44C114.92 19.0433 116.264 18.845 117.666 18.845C120.283 18.845 122.316 19.4983 123.765 20.805C125.237 22.1117 125.973 23.9783 125.973 26.405V32.25C125.973 32.74 126.055 33.09 126.219 33.3C126.406 33.51 126.698 33.6383 127.095 33.685V37.5C126.674 37.57 126.289 37.6283 125.938 37.675C125.611 37.7217 125.331 37.745 125.097 37.745C124.162 37.745 123.45 37.535 122.959 37.115C122.491 36.695 122.199 36.1817 122.083 35.575L121.977 34.63C121.183 35.6567 120.19 36.45 118.998 37.01C117.806 37.57 116.591 37.85 115.353 37.85C114.138 37.85 113.039 37.605 112.058 37.115C111.1 36.6017 110.34 35.9133 109.78 35.05C109.242 34.1633 108.973 33.1717 108.973 32.075ZM120.4 33.02C120.657 32.74 120.867 32.46 121.031 32.18C121.195 31.9 121.276 31.6433 121.276 31.41V29.555C120.716 29.3217 120.108 29.1467 119.454 29.03C118.799 28.89 118.18 28.82 117.596 28.82C116.381 28.82 115.376 29.0883 114.582 29.625C113.81 30.1383 113.425 30.8267 113.425 31.69C113.425 32.1567 113.553 32.6 113.81 33.02C114.067 33.44 114.441 33.7783 114.932 34.035C115.423 34.2917 116.007 34.42 116.685 34.42C117.386 34.42 118.075 34.2917 118.753 34.035C119.43 33.755 119.979 33.4167 120.4 33.02Z" fill="white"/>
<path d="M130.063 41.07C130.484 41.1633 130.869 41.245 131.22 41.315C131.594 41.385 131.909 41.42 132.166 41.42C132.61 41.42 132.973 41.3033 133.253 41.07C133.557 40.86 133.849 40.4633 134.129 39.88C134.41 39.32 134.702 38.5267 135.006 37.5L127.75 19.16H132.622L137.564 32.705L141.911 19.16H146.397L138.686 41.14C138.405 41.9567 137.973 42.6917 137.389 43.345C136.828 44.0217 136.115 44.5467 135.251 44.92C134.41 45.3167 133.463 45.515 132.412 45.515C132.038 45.515 131.664 45.48 131.29 45.41C130.916 45.3633 130.507 45.27 130.063 45.13V41.07Z" fill="white"/>
</svg>
