<svg width="114" height="50" viewBox="0 0 114 50" fill="none" xmlns="http://www.w3.org/2000/svg">
<path d="M8.61742 0H113.4V50H0L8.61742 0Z" fill="#E04434"/>
<path d="M31.222 37.85C29.6587 37.85 28.1653 37.5933 26.742 37.08C25.3187 36.5667 24.0937 35.8083 23.067 34.805L24.747 31.76C25.8437 32.6467 26.917 33.3 27.967 33.72C29.0403 34.14 30.067 34.35 31.047 34.35C31.957 34.35 32.6803 34.1867 33.217 33.86C33.777 33.5333 34.057 33.0433 34.057 32.39C34.057 31.9467 33.9053 31.6083 33.602 31.375C33.2987 31.1183 32.8553 30.8967 32.272 30.71C31.712 30.5233 31.0237 30.3133 30.207 30.08C28.8537 29.6367 27.722 29.205 26.812 28.785C25.902 28.365 25.2137 27.84 24.747 27.21C24.3037 26.5567 24.082 25.7283 24.082 24.725C24.082 23.5117 24.3853 22.4733 24.992 21.61C25.622 20.7233 26.4853 20.035 27.582 19.545C28.702 19.055 30.0087 18.81 31.502 18.81C32.8087 18.81 34.0453 19.02 35.212 19.44C36.3787 19.8367 37.4403 20.49 38.397 21.4L36.507 24.375C35.5737 23.6517 34.687 23.1267 33.847 22.8C33.007 22.45 32.1553 22.275 31.292 22.275C30.802 22.275 30.3353 22.3333 29.892 22.45C29.472 22.5667 29.122 22.765 28.842 23.045C28.5853 23.3017 28.457 23.675 28.457 24.165C28.457 24.6083 28.5737 24.9583 28.807 25.215C29.0637 25.4483 29.437 25.6583 29.927 25.845C30.4403 26.0317 31.0587 26.2417 31.782 26.475C33.252 26.895 34.4887 27.3267 35.492 27.77C36.5187 28.2133 37.2887 28.7617 37.802 29.415C38.3153 30.045 38.572 30.92 38.572 32.04C38.572 33.86 37.907 35.2833 36.577 36.31C35.247 37.3367 33.462 37.85 31.222 37.85Z" fill="white"/>
<path d="M58.8069 37.5H54.1169V27.21C54.1169 25.7867 53.8369 24.725 53.2769 24.025C52.7402 23.325 51.9936 22.975 51.0369 22.975C50.4769 22.975 49.8819 23.1383 49.2519 23.465C48.6219 23.7917 48.0503 24.2467 47.5369 24.83C47.0469 25.39 46.6852 26.0433 46.4519 26.79V37.5H41.7619V11.95H46.4519V22.555C47.1286 21.3883 48.0503 20.4783 49.2169 19.825C50.3836 19.1717 51.6553 18.845 53.0319 18.845C54.2219 18.845 55.1903 19.055 55.9369 19.475C56.6836 19.8717 57.2669 20.42 57.6869 21.12C58.1069 21.7967 58.3986 22.5667 58.5619 23.43C58.7253 24.27 58.8069 25.145 58.8069 26.055V37.5Z" fill="white"/>
<path d="M62.885 37.5V19.16H67.575V37.5H62.885ZM62.885 16.605V11.95H67.575V16.605H62.885Z" fill="white"/>
<path d="M72.9259 37.5V23.71H70.5109V20.14H72.9259V19.02C72.9259 17.5033 73.1709 16.1967 73.6609 15.1C74.1742 13.98 74.8859 13.1167 75.7959 12.51C76.7292 11.9033 77.8142 11.6 79.0509 11.6C79.7975 11.6 80.5442 11.6933 81.2909 11.88C82.0609 12.0667 82.8192 12.335 83.5659 12.685L82.6209 16.22C82.2709 16.0333 81.8625 15.8817 81.3959 15.765C80.9292 15.625 80.4859 15.555 80.0659 15.555C79.2725 15.555 78.6659 15.835 78.2459 16.395C77.8259 16.955 77.6159 17.7717 77.6159 18.845V20.14H82.0959V23.71H77.6159V37.5H72.9259Z" fill="white"/>
<path d="M95.75 36.555C95.3533 36.7183 94.875 36.905 94.315 37.115C93.755 37.325 93.1483 37.4883 92.495 37.605C91.865 37.745 91.2233 37.815 90.57 37.815C89.7066 37.815 88.9133 37.6633 88.19 37.36C87.4666 37.0567 86.8833 36.5783 86.44 35.925C86.02 35.2483 85.81 34.3733 85.81 33.3V22.765H83.395V19.16H85.81V13.21H90.5V19.16H94.35V22.765H90.5V31.725C90.5233 32.355 90.6983 32.81 91.025 33.09C91.3516 33.37 91.76 33.51 92.25 33.51C92.74 33.51 93.2183 33.4283 93.685 33.265C94.1516 33.1017 94.525 32.9617 94.805 32.845L95.75 36.555Z" fill="white"/>
</svg>
