<svg width="163" height="50" viewBox="0 0 163 50" fill="none" xmlns="http://www.w3.org/2000/svg">
<path d="M8.56742 0H162.762V50H0L8.56742 0Z" fill="#543C6F"/>
<path d="M42.1824 37.5H37.4924V27.21C37.4924 25.7867 37.2124 24.725 36.6524 24.025C36.1157 23.325 35.3691 22.975 34.4124 22.975C33.8524 22.975 33.2574 23.1383 32.6274 23.465C31.9974 23.7917 31.4257 24.2467 30.9124 24.83C30.4224 25.39 30.0607 26.0433 29.8274 26.79V37.5H25.1374V11.95H29.8274V22.555C30.5041 21.3883 31.4257 20.4783 32.5924 19.825C33.7591 19.1717 35.0307 18.845 36.4074 18.845C37.5974 18.845 38.5657 19.055 39.3124 19.475C40.0591 19.8717 40.6424 20.42 41.0624 21.12C41.4824 21.7967 41.7741 22.5667 41.9374 23.43C42.1007 24.27 42.1824 25.145 42.1824 26.055V37.5Z" fill="white"/>
<path d="M54.7304 37.85C53.2371 37.85 51.8955 37.605 50.7055 37.115C49.5154 36.6017 48.5005 35.9017 47.6605 35.015C46.8438 34.1283 46.2138 33.1133 45.7705 31.97C45.3271 30.8267 45.1054 29.625 45.1054 28.365C45.1054 27.0817 45.3271 25.8683 45.7705 24.725C46.2138 23.5817 46.8438 22.5667 47.6605 21.68C48.5005 20.7933 49.5154 20.105 50.7055 19.615C51.8955 19.1017 53.2371 18.845 54.7304 18.845C56.2238 18.845 57.5538 19.1017 58.7205 19.615C59.9105 20.105 60.9255 20.7933 61.7655 21.68C62.6055 22.5667 63.2355 23.5817 63.6555 24.725C64.0988 25.8683 64.3205 27.0817 64.3205 28.365C64.3205 29.625 64.0988 30.8267 63.6555 31.97C63.2355 33.1133 62.6055 34.1283 61.7655 35.015C60.9488 35.9017 59.9454 36.6017 58.7555 37.115C57.5655 37.605 56.2238 37.85 54.7304 37.85ZM49.9355 28.365C49.9355 29.4383 50.1455 30.395 50.5655 31.235C50.9855 32.0517 51.5571 32.6933 52.2805 33.16C53.0038 33.6267 53.8204 33.86 54.7304 33.86C55.6171 33.86 56.4221 33.6267 57.1455 33.16C57.8688 32.67 58.4405 32.0167 58.8605 31.2C59.3038 30.36 59.5255 29.4033 59.5255 28.33C59.5255 27.28 59.3038 26.335 58.8605 25.495C58.4405 24.655 57.8688 24.0017 57.1455 23.535C56.4221 23.0683 55.6171 22.835 54.7304 22.835C53.8204 22.835 53.0038 23.08 52.2805 23.57C51.5571 24.0367 50.9855 24.69 50.5655 25.53C50.1455 26.3467 49.9355 27.2917 49.9355 28.365Z" fill="white"/>
<path d="M67.451 11.95H72.141V31.62C72.141 32.46 72.281 33.0317 72.561 33.335C72.841 33.615 73.226 33.755 73.716 33.755C74.0894 33.755 74.4744 33.7083 74.871 33.615C75.2677 33.5217 75.6177 33.405 75.921 33.265L76.551 36.835C75.921 37.1383 75.186 37.3717 74.346 37.535C73.506 37.6983 72.7477 37.78 72.071 37.78C70.601 37.78 69.4577 37.395 68.641 36.625C67.8477 35.8317 67.451 34.7117 67.451 33.265V11.95Z" fill="white"/>
<path d="M78.5944 37.5V19.16H83.2844V37.5H78.5944ZM78.5944 16.605V11.95H83.2844V16.605H78.5944Z" fill="white"/>
<path d="M86.3953 28.33C86.3953 26.5567 86.7453 24.9583 87.4453 23.535C88.1453 22.0883 89.1137 20.945 90.3503 20.105C91.587 19.265 92.9987 18.845 94.5853 18.845C95.9387 18.845 97.152 19.1833 98.2253 19.86C99.322 20.5133 100.174 21.3533 100.78 22.38V11.95H105.47V32.25C105.47 32.74 105.552 33.09 105.715 33.3C105.879 33.51 106.159 33.6383 106.555 33.685V37.5C105.739 37.6633 105.074 37.745 104.56 37.745C103.72 37.745 103.02 37.535 102.46 37.115C101.924 36.695 101.62 36.1467 101.55 35.47L101.48 34.315C100.804 35.4583 99.882 36.3333 98.7153 36.94C97.572 37.5467 96.3703 37.85 95.1103 37.85C93.8503 37.85 92.6837 37.605 91.6103 37.115C90.5603 36.625 89.6387 35.9483 88.8453 35.085C88.0753 34.2217 87.4687 33.2183 87.0253 32.075C86.6053 30.9083 86.3953 29.66 86.3953 28.33ZM100.78 30.78V26.405C100.547 25.7283 100.174 25.1217 99.6603 24.585C99.147 24.0483 98.5753 23.6283 97.9453 23.325C97.3153 22.9983 96.6853 22.835 96.0553 22.835C95.332 22.835 94.6787 22.9867 94.0953 23.29C93.512 23.5933 92.9987 24.0017 92.5553 24.515C92.1353 25.0283 91.8087 25.6233 91.5753 26.3C91.3653 26.9767 91.2603 27.6883 91.2603 28.435C91.2603 29.1817 91.377 29.8933 91.6103 30.57C91.867 31.2233 92.2287 31.795 92.6953 32.285C93.162 32.775 93.6987 33.16 94.3053 33.44C94.9353 33.72 95.612 33.86 96.3353 33.86C96.7787 33.86 97.222 33.79 97.6653 33.65C98.132 33.4867 98.5637 33.2767 98.9603 33.02C99.3803 32.74 99.742 32.4133 100.045 32.04C100.372 31.6433 100.617 31.2233 100.78 30.78Z" fill="white"/>
<path d="M108.814 32.075C108.814 30.885 109.141 29.8467 109.794 28.96C110.471 28.05 111.404 27.35 112.594 26.86C113.784 26.37 115.149 26.125 116.689 26.125C117.459 26.125 118.241 26.1833 119.034 26.3C119.827 26.4167 120.516 26.6033 121.099 26.86V25.88C121.099 24.7133 120.749 23.815 120.049 23.185C119.372 22.555 118.357 22.24 117.004 22.24C116.001 22.24 115.044 22.415 114.134 22.765C113.224 23.115 112.267 23.6283 111.264 24.305L109.759 21.225C110.972 20.4317 112.209 19.8367 113.469 19.44C114.752 19.0433 116.094 18.845 117.494 18.845C120.107 18.845 122.137 19.4983 123.584 20.805C125.054 22.1117 125.789 23.9783 125.789 26.405V32.25C125.789 32.74 125.871 33.09 126.034 33.3C126.221 33.51 126.512 33.6383 126.909 33.685V37.5C126.489 37.57 126.104 37.6283 125.754 37.675C125.427 37.7217 125.147 37.745 124.914 37.745C123.981 37.745 123.269 37.535 122.779 37.115C122.312 36.695 122.021 36.1817 121.904 35.575L121.799 34.63C121.006 35.6567 120.014 36.45 118.824 37.01C117.634 37.57 116.421 37.85 115.184 37.85C113.971 37.85 112.874 37.605 111.894 37.115C110.937 36.6017 110.179 35.9133 109.619 35.05C109.082 34.1633 108.814 33.1717 108.814 32.075ZM120.224 33.02C120.481 32.74 120.691 32.46 120.854 32.18C121.017 31.9 121.099 31.6433 121.099 31.41V29.555C120.539 29.3217 119.932 29.1467 119.279 29.03C118.626 28.89 118.007 28.82 117.424 28.82C116.211 28.82 115.207 29.0883 114.414 29.625C113.644 30.1383 113.259 30.8267 113.259 31.69C113.259 32.1567 113.387 32.6 113.644 33.02C113.901 33.44 114.274 33.7783 114.764 34.035C115.254 34.2917 115.837 34.42 116.514 34.42C117.214 34.42 117.902 34.2917 118.579 34.035C119.256 33.755 119.804 33.4167 120.224 33.02Z" fill="white"/>
<path d="M129.873 41.07C130.293 41.1633 130.678 41.245 131.028 41.315C131.401 41.385 131.716 41.42 131.973 41.42C132.416 41.42 132.778 41.3033 133.058 41.07C133.361 40.86 133.653 40.4633 133.933 39.88C134.213 39.32 134.505 38.5267 134.808 37.5L127.563 19.16H132.428L137.363 32.705L141.703 19.16H146.183L138.483 41.14C138.203 41.9567 137.771 42.6917 137.188 43.345C136.628 44.0217 135.916 44.5467 135.053 44.92C134.213 45.3167 133.268 45.515 132.218 45.515C131.845 45.515 131.471 45.48 131.098 45.41C130.725 45.3633 130.316 45.27 129.873 45.13V41.07Z" fill="white"/>
</svg>
