<svg width="269" height="50" viewBox="0 0 269 50" fill="none" xmlns="http://www.w3.org/2000/svg">
<path d="M38.5 0H268.125V50H35L38.5 0Z" fill="#5F81D7"/>
<path d="M63.6895 38.0911C62.2838 38.0911 61.0394 37.7777 59.9563 37.1508C58.8963 36.5006 58.0667 35.63 57.4675 34.5387V45.1611H52.8356V19.4932H56.8799V22.6277C57.5712 21.5596 58.4469 20.7238 59.5069 20.1201C60.567 19.4932 61.7768 19.1797 63.1364 19.1797C64.3577 19.1797 65.4754 19.4235 66.4893 19.9111C67.5263 20.3987 68.425 21.0836 69.1855 21.9659C69.946 22.825 70.5336 23.8234 70.9484 24.9611C71.3862 26.0756 71.6051 27.2829 71.6051 28.5832C71.6051 30.3478 71.2595 31.9498 70.5681 33.3894C69.8999 34.8289 68.9666 35.9782 67.7683 36.8373C66.593 37.6732 65.2334 38.0911 63.6895 38.0911ZM62.134 34.1208C62.8483 34.1208 63.4936 33.9698 64.0697 33.668C64.6458 33.3662 65.1412 32.9598 65.556 32.449C65.9939 31.915 66.3165 31.3229 66.5239 30.6728C66.7543 29.9995 66.8696 29.3029 66.8696 28.5832C66.8696 27.817 66.7428 27.1088 66.4893 26.4587C66.2589 25.8086 65.9132 25.2397 65.4523 24.7521C64.9914 24.2413 64.4499 23.8466 63.8277 23.568C63.2286 23.2894 62.5718 23.1501 61.8574 23.1501C61.4196 23.1501 60.9702 23.2313 60.5094 23.3939C60.0715 23.5332 59.6452 23.7421 59.2304 24.0208C58.8156 24.2994 58.4469 24.6244 58.1243 24.9959C57.8247 25.3674 57.6058 25.7738 57.4675 26.2149V30.4987C57.744 31.172 58.1128 31.7873 58.5736 32.3446C59.0576 32.9018 59.6106 33.3429 60.2328 33.668C60.855 33.9698 61.4887 34.1208 62.134 34.1208Z" fill="white"/>
<path d="M85.5281 23.5332C84.1224 23.5332 82.8665 23.8118 81.7603 24.369C80.6542 24.9031 79.8592 25.6809 79.3753 26.7025V37.7428H74.7434V19.4932H78.995V23.3939C79.6403 22.1401 80.4583 21.1533 81.4492 20.4335C82.4401 19.7138 83.4887 19.319 84.5948 19.2494C84.8483 19.2494 85.0441 19.2494 85.1824 19.2494C85.3207 19.2494 85.4359 19.261 85.5281 19.2842V23.5332Z" fill="white"/>
<path d="M96.2396 38.0911C94.7647 38.0911 93.4397 37.8473 92.2644 37.3597C91.0892 36.8489 90.0868 36.1524 89.2572 35.2701C88.4506 34.3878 87.8284 33.3778 87.3906 32.2401C86.9528 31.1024 86.7338 29.9066 86.7338 28.6528C86.7338 27.3758 86.9528 26.1685 87.3906 25.0308C87.8284 23.8931 88.4506 22.8831 89.2572 22.0008C90.0868 21.1185 91.0892 20.4335 92.2644 19.9459C93.4397 19.4351 94.7647 19.1797 96.2396 19.1797C97.7144 19.1797 99.0279 19.4351 100.18 19.9459C101.355 20.4335 102.358 21.1185 103.187 22.0008C104.017 22.8831 104.639 23.8931 105.054 25.0308C105.492 26.1685 105.711 27.3758 105.711 28.6528C105.711 29.9066 105.492 31.1024 105.054 32.2401C104.639 33.3778 104.017 34.3878 103.187 35.2701C102.381 36.1524 101.39 36.8489 100.215 37.3597C99.0394 37.8473 97.7144 38.0911 96.2396 38.0911ZM91.504 28.6528C91.504 29.7209 91.7114 30.6728 92.1262 31.5087C92.541 32.3213 93.1055 32.9598 93.8199 33.4242C94.5343 33.8886 95.3408 34.1208 96.2396 34.1208C97.1152 34.1208 97.9103 33.8886 98.6246 33.4242C99.339 32.9366 99.9036 32.2865 100.318 31.4739C100.756 30.638 100.975 29.6861 100.975 28.618C100.975 27.5732 100.756 26.6328 100.318 25.797C99.9036 24.9611 99.339 24.311 98.6246 23.8466C97.9103 23.3823 97.1152 23.1501 96.2396 23.1501C95.3408 23.1501 94.5343 23.3939 93.8199 23.8815C93.1055 24.3458 92.541 24.9959 92.1262 25.8318C91.7114 26.6444 91.504 27.5848 91.504 28.6528Z" fill="white"/>
<path d="M107.731 28.618C107.731 26.8534 108.077 25.2629 108.768 23.8466C109.459 22.4071 110.416 21.2694 111.637 20.4335C112.858 19.5977 114.252 19.1797 115.819 19.1797C117.156 19.1797 118.354 19.5164 119.414 20.1897C120.497 20.8398 121.339 21.6757 121.938 22.6973V12.3187H126.57V32.5187C126.57 33.0063 126.65 33.3546 126.812 33.5635C126.973 33.7725 127.249 33.9002 127.641 33.9466V37.7428C126.835 37.9054 126.178 37.9866 125.671 37.9866C124.841 37.9866 124.15 37.7777 123.597 37.3597C123.067 36.9418 122.767 36.3962 122.698 35.7228L122.629 34.5735C121.961 35.7112 121.051 36.5819 119.898 37.1856C118.769 37.7893 117.582 38.0911 116.338 38.0911C115.094 38.0911 113.941 37.8473 112.881 37.3597C111.844 36.8721 110.934 36.1988 110.151 35.3397C109.39 34.4807 108.791 33.4823 108.353 32.3446C107.938 31.1836 107.731 29.9415 107.731 28.618ZM121.938 31.0559V26.7025C121.707 26.0292 121.339 25.4255 120.832 24.8915C120.325 24.3574 119.76 23.9395 119.138 23.6377C118.516 23.3126 117.893 23.1501 117.271 23.1501C116.557 23.1501 115.912 23.301 115.336 23.6028C114.759 23.9047 114.252 24.311 113.815 24.8218C113.4 25.3326 113.077 25.9247 112.847 26.598C112.639 27.2713 112.536 27.9795 112.536 28.7225C112.536 29.4655 112.651 30.1736 112.881 30.847C113.135 31.4971 113.492 32.0659 113.953 32.5535C114.414 33.0411 114.944 33.4242 115.543 33.7028C116.165 33.9815 116.833 34.1208 117.548 34.1208C117.986 34.1208 118.423 34.0511 118.861 33.9118C119.322 33.7493 119.749 33.5403 120.14 33.2849C120.555 33.0063 120.912 32.6812 121.212 32.3097C121.534 31.915 121.776 31.4971 121.938 31.0559Z" fill="white"/>
<path d="M130.943 30.9166V19.4932H135.575V29.9066C135.575 31.2997 135.829 32.3562 136.336 33.0759C136.843 33.7725 137.592 34.1208 138.582 34.1208C139.182 34.1208 139.769 34.0047 140.345 33.7725C140.945 33.5171 141.486 33.1456 141.97 32.658C142.477 32.1704 142.903 31.5551 143.249 30.8121V19.4932H147.881V32.5187C147.881 33.0063 147.961 33.3546 148.123 33.5635C148.307 33.7725 148.595 33.9002 148.987 33.9466V37.7428C148.526 37.8125 148.134 37.8589 147.812 37.8821C147.512 37.9286 147.236 37.9518 146.982 37.9518C146.152 37.9518 145.473 37.7661 144.943 37.3946C144.436 36.9998 144.136 36.4658 144.044 35.7925L143.94 34.3297C143.134 35.5603 142.097 36.5006 140.829 37.1508C139.562 37.7777 138.168 38.0911 136.647 38.0911C134.78 38.0911 133.363 37.4874 132.395 36.2801C131.427 35.0495 130.943 33.2617 130.943 30.9166Z" fill="white"/>
<path d="M160.918 38.0911C159.443 38.0911 158.118 37.8473 156.943 37.3597C155.768 36.8489 154.765 36.1524 153.936 35.2701C153.106 34.3646 152.461 33.3429 152 32.2052C151.562 31.0675 151.343 29.8718 151.343 28.618C151.343 26.8998 151.723 25.3326 152.484 23.9163C153.267 22.4767 154.373 21.3274 155.802 20.4684C157.231 19.6093 158.925 19.1797 160.883 19.1797C162.842 19.1797 164.524 19.6093 165.93 20.4684C167.336 21.3274 168.384 22.4535 169.076 23.8466L164.547 25.2397C164.156 24.5664 163.637 24.0556 162.992 23.7073C162.347 23.3358 161.632 23.1501 160.849 23.1501C159.973 23.1501 159.167 23.3823 158.429 23.8466C157.715 24.2878 157.15 24.9263 156.735 25.7621C156.321 26.5748 156.113 27.5267 156.113 28.618C156.113 29.6861 156.321 30.638 156.735 31.4739C157.173 32.2865 157.749 32.9366 158.464 33.4242C159.178 33.8886 159.973 34.1208 160.849 34.1208C161.402 34.1208 161.92 34.0279 162.404 33.8421C162.911 33.6564 163.361 33.401 163.752 33.0759C164.144 32.7509 164.432 32.3794 164.617 31.9615L169.145 33.3546C168.73 34.2601 168.119 35.0727 167.313 35.7925C166.529 36.5123 165.596 37.0811 164.513 37.499C163.453 37.8938 162.255 38.0911 160.918 38.0911Z" fill="white"/>
<path d="M182.849 36.8025C182.457 36.965 181.985 37.1508 181.431 37.3597C180.878 37.5687 180.279 37.7312 179.634 37.8473C179.012 37.9866 178.378 38.0563 177.733 38.0563C176.88 38.0563 176.097 37.9054 175.382 37.6035C174.668 37.3017 174.092 36.8257 173.654 36.1756C173.239 35.5023 173.032 34.6316 173.032 33.5635V23.0804H170.647V19.4932H173.032V13.5725H177.664V19.4932H181.466V23.0804H177.664V31.9963C177.687 32.6232 177.86 33.0759 178.182 33.3546C178.505 33.6332 178.908 33.7725 179.392 33.7725C179.876 33.7725 180.348 33.6912 180.809 33.5287C181.27 33.3662 181.639 33.2269 181.915 33.1108L182.849 36.8025Z" fill="white"/>
<path d="M185.261 37.7428V19.4932H189.893V37.7428H185.261ZM185.261 16.9508V12.3187H189.893V16.9508H185.261Z" fill="white"/>
<path d="M198.945 37.7428L192.274 19.4932H197.079L201.641 33.4939L206.239 19.4932H210.629L203.992 37.7428H198.945Z" fill="white"/>
<path d="M213.076 37.7428V19.4932H217.708V37.7428H213.076ZM213.076 16.9508V12.3187H217.708V16.9508H213.076Z" fill="white"/>
<path d="M232.74 36.8025C232.349 36.965 231.876 37.1508 231.323 37.3597C230.77 37.5687 230.171 37.7312 229.526 37.8473C228.903 37.9866 228.27 38.0563 227.624 38.0563C226.772 38.0563 225.988 37.9054 225.274 37.6035C224.56 37.3017 223.983 36.8257 223.546 36.1756C223.131 35.5023 222.923 34.6316 222.923 33.5635V23.0804H220.538V19.4932H222.923V13.5725H227.555V19.4932H231.358V23.0804H227.555V31.9963C227.578 32.6232 227.751 33.0759 228.074 33.3546C228.396 33.6332 228.8 33.7725 229.284 33.7725C229.768 33.7725 230.24 33.6912 230.701 33.5287C231.162 33.3662 231.53 33.2269 231.807 33.1108L232.74 36.8025Z" fill="white"/>
<path d="M235.465 41.2952C235.88 41.3881 236.26 41.4694 236.606 41.539C236.975 41.6087 237.286 41.6435 237.539 41.6435C237.977 41.6435 238.334 41.5274 238.611 41.2952C238.91 41.0863 239.198 40.6916 239.475 40.1111C239.752 39.5539 240.04 38.7644 240.339 37.7428L233.184 19.4932H237.989L242.863 32.9715L247.149 19.4932H251.573L243.969 41.3649C243.692 42.1775 243.266 42.9089 242.69 43.559C242.137 44.2324 241.434 44.7548 240.581 45.1263C239.752 45.521 238.818 45.7183 237.781 45.7183C237.413 45.7183 237.044 45.6835 236.675 45.6139C236.306 45.5674 235.903 45.4746 235.465 45.3352V41.2952Z" fill="white"/>
<rect x="0.00195312" y="-0.00195312" width="49.9994" height="49.9994" fill="#5F83D9"/>
<mask id="mask0_652_276" style="mask-type:alpha" maskUnits="userSpaceOnUse" x="10" y="10" width="30" height="30">
<rect x="10.5" y="10.498" width="28.9997" height="28.9997" fill="#D9D9D9"/>
</mask>
<g mask="url(#mask0_652_276)">
<path d="M16.5403 34.665C15.696 34.665 14.9815 34.3726 14.3967 33.7878C13.8119 33.203 13.5195 32.4885 13.5195 31.6442C13.5195 30.7999 13.8119 30.0854 14.3967 29.5006C14.9815 28.9158 15.696 28.6235 16.5403 28.6235H33.4568C34.301 28.6235 35.0155 28.9158 35.6004 29.5006C36.1851 30.0854 36.4775 30.7999 36.4775 31.6442C36.4775 32.4885 36.1851 33.203 35.6004 33.7878C35.0155 34.3726 34.301 34.665 33.4568 34.665H16.5403ZM16.5403 32.8525H33.4568C33.7991 32.8525 34.0861 32.7367 34.3177 32.5051C34.5493 32.2735 34.6651 31.9866 34.6651 31.6442C34.6651 31.3019 34.5493 31.0149 34.3177 30.7833C34.0861 30.5517 33.7991 30.4359 33.4568 30.4359H16.5403C16.1979 30.4359 15.911 30.5517 15.6794 30.7833C15.4478 31.0149 15.332 31.3019 15.332 31.6442C15.332 31.9866 15.4478 32.2735 15.6794 32.5051C15.911 32.7367 16.1979 32.8525 16.5403 32.8525ZM23.646 26.2068C23.3379 26.2068 23.0796 26.1026 22.8713 25.8942C22.6629 25.6857 22.5588 25.4274 22.5588 25.1193V16.4193C22.5588 16.1112 22.663 15.8529 22.8714 15.6446C23.0798 15.4362 23.3381 15.332 23.6462 15.332H32.3463C32.6544 15.332 32.9127 15.4362 33.121 15.6447C33.3294 15.8531 33.4335 16.1114 33.4335 16.4195V25.1196C33.4335 25.4277 33.3293 25.6859 33.1209 25.8943C32.9124 26.1026 32.6541 26.2068 32.346 26.2068H23.646ZM24.3712 24.3944H31.6211V17.1444H24.3712V24.3944ZM13.5195 24.0551V22.2984H20.0864V24.0551H13.5195ZM25.5795 20.4673H30.4128V18.6735H25.5795V20.4673ZM15.9362 20.4673H20.0864V18.6735H15.9362V20.4673Z" fill="white"/>
</g>
</svg>
