<svg width="191" height="50" viewBox="0 0 191 50" fill="none" xmlns="http://www.w3.org/2000/svg">
<path d="M37.5568 0H190.538V50H29L37.5568 0Z" fill="#34495E"/>
<path d="M69.1223 37.5H64.3688V27.21C64.3688 25.7867 64.085 24.725 63.5174 24.025C62.9735 23.325 62.2167 22.975 61.2471 22.975C60.6795 22.975 60.0764 23.1383 59.4379 23.465C58.7993 23.7917 58.2199 24.2467 57.6996 24.83C57.203 25.39 56.8364 26.0433 56.5999 26.79V37.5H51.8464V11.95H56.5999V22.555C57.2858 21.3883 58.2199 20.4783 59.4024 19.825C60.5849 19.1717 61.8738 18.845 63.2691 18.845C64.4752 18.845 65.4567 19.055 66.2134 19.475C66.9702 19.8717 67.5615 20.42 67.9872 21.12C68.4129 21.7967 68.7085 22.5667 68.874 23.43C69.0396 24.27 69.1223 25.145 69.1223 26.055V37.5Z" fill="white"/>
<path d="M84.3236 23.22C82.881 23.22 81.5921 23.5 80.4569 24.06C79.3217 24.5967 78.5058 25.3783 78.0092 26.405V37.5H73.2556V19.16H77.619V23.08C78.2812 21.82 79.1207 20.8283 80.1376 20.105C81.1546 19.3817 82.2306 18.985 83.3658 18.915C83.6259 18.915 83.827 18.915 83.9689 18.915C84.1108 18.915 84.229 18.9267 84.3236 18.95V23.22Z" fill="white"/>
<path d="M105.271 37.85C103.852 37.85 102.587 37.535 101.475 36.905C100.364 36.275 99.4886 35.4117 98.85 34.315V37.5H94.6995V11.95H99.4531V22.38C100.115 21.2833 100.978 20.42 102.043 19.79C103.131 19.16 104.396 18.845 105.838 18.845C107.045 18.845 108.144 19.1017 109.138 19.615C110.131 20.105 110.982 20.7933 111.692 21.68C112.425 22.5667 112.981 23.5817 113.359 24.725C113.761 25.8683 113.962 27.0933 113.962 28.4C113.962 29.7067 113.737 30.9317 113.288 32.075C112.862 33.2183 112.259 34.2333 111.479 35.12C110.698 35.9833 109.776 36.66 108.712 37.15C107.671 37.6167 106.524 37.85 105.271 37.85ZM103.958 33.86C104.715 33.86 105.401 33.72 106.016 33.44C106.654 33.1367 107.198 32.74 107.648 32.25C108.121 31.76 108.475 31.1883 108.712 30.535C108.972 29.8583 109.102 29.1583 109.102 28.435C109.102 27.4317 108.889 26.51 108.464 25.67C108.062 24.8067 107.494 24.1183 106.761 23.605C106.051 23.0917 105.212 22.835 104.242 22.835C103.556 22.835 102.894 22.9983 102.256 23.325C101.641 23.6283 101.085 24.0483 100.588 24.585C100.115 25.1217 99.7369 25.7283 99.4531 26.405V30.78C99.595 31.2467 99.8196 31.6667 100.127 32.04C100.458 32.4133 100.837 32.74 101.262 33.02C101.688 33.2767 102.125 33.4867 102.575 33.65C103.048 33.79 103.509 33.86 103.958 33.86Z" fill="white"/>
<path d="M115.906 32.075C115.906 30.885 116.237 29.8467 116.899 28.96C117.585 28.05 118.531 27.35 119.737 26.86C120.943 26.37 122.326 26.125 123.887 26.125C124.668 26.125 125.46 26.1833 126.264 26.3C127.068 26.4167 127.766 26.6033 128.357 26.86V25.88C128.357 24.7133 128.002 23.815 127.293 23.185C126.607 22.555 125.578 22.24 124.207 22.24C123.19 22.24 122.22 22.415 121.298 22.765C120.375 23.115 119.406 23.6283 118.389 24.305L116.863 21.225C118.093 20.4317 119.347 19.8367 120.624 19.44C121.924 19.0433 123.284 18.845 124.703 18.845C127.352 18.845 129.41 19.4983 130.876 20.805C132.366 22.1117 133.111 23.9783 133.111 26.405V32.25C133.111 32.74 133.193 33.09 133.359 33.3C133.548 33.51 133.844 33.6383 134.246 33.685V37.5C133.82 37.57 133.43 37.6283 133.075 37.675C132.744 37.7217 132.46 37.745 132.224 37.745C131.278 37.745 130.557 37.535 130.06 37.115C129.587 36.695 129.291 36.1817 129.173 35.575L129.067 34.63C128.263 35.6567 127.257 36.45 126.051 37.01C124.845 37.57 123.615 37.85 122.362 37.85C121.132 37.85 120.021 37.605 119.027 37.115C118.058 36.6017 117.289 35.9133 116.722 35.05C116.178 34.1633 115.906 33.1717 115.906 32.075ZM127.47 33.02C127.73 32.74 127.943 32.46 128.109 32.18C128.274 31.9 128.357 31.6433 128.357 31.41V29.555C127.79 29.3217 127.175 29.1467 126.512 29.03C125.85 28.89 125.224 28.82 124.632 28.82C123.403 28.82 122.386 29.0883 121.582 29.625C120.801 30.1383 120.411 30.8267 120.411 31.69C120.411 32.1567 120.541 32.6 120.801 33.02C121.061 33.44 121.44 33.7783 121.936 34.035C122.433 34.2917 123.024 34.42 123.71 34.42C124.419 34.42 125.117 34.2917 125.803 34.035C126.489 33.755 127.045 33.4167 127.47 33.02Z" fill="white"/>
<path d="M144.399 37.85C142.815 37.85 141.301 37.5933 139.859 37.08C138.416 36.5667 137.174 35.8083 136.134 34.805L137.836 31.76C138.948 32.6467 140.036 33.3 141.1 33.72C142.188 34.14 143.229 34.35 144.222 34.35C145.144 34.35 145.877 34.1867 146.421 33.86C146.989 33.5333 147.273 33.0433 147.273 32.39C147.273 31.9467 147.119 31.6083 146.811 31.375C146.504 31.1183 146.055 30.8967 145.463 30.71C144.896 30.5233 144.198 30.3133 143.37 30.08C141.999 29.6367 140.852 29.205 139.929 28.785C139.007 28.365 138.309 27.84 137.836 27.21C137.387 26.5567 137.162 25.7283 137.162 24.725C137.162 23.5117 137.47 22.4733 138.085 21.61C138.723 20.7233 139.598 20.035 140.71 19.545C141.845 19.055 143.169 18.81 144.683 18.81C146.007 18.81 147.261 19.02 148.443 19.44C149.626 19.8367 150.702 20.49 151.671 21.4L149.756 24.375C148.81 23.6517 147.911 23.1267 147.06 22.8C146.208 22.45 145.345 22.275 144.47 22.275C143.974 22.275 143.501 22.3333 143.051 22.45C142.626 22.5667 142.271 22.765 141.987 23.045C141.727 23.3017 141.597 23.675 141.597 24.165C141.597 24.6083 141.715 24.9583 141.951 25.215C142.212 25.4483 142.59 25.6583 143.087 25.845C143.607 26.0317 144.234 26.2417 144.967 26.475C146.457 26.895 147.71 27.3267 148.727 27.77C149.768 28.2133 150.548 28.7617 151.068 29.415C151.589 30.045 151.849 30.92 151.849 32.04C151.849 33.86 151.175 35.2833 149.827 36.31C148.479 37.3367 146.67 37.85 144.399 37.85Z" fill="white"/>
<path d="M163.702 37.85C162.212 37.85 160.864 37.605 159.658 37.115C158.452 36.6017 157.423 35.9133 156.572 35.05C155.72 34.1633 155.058 33.16 154.585 32.04C154.136 30.8967 153.911 29.695 153.911 28.435C153.911 26.685 154.302 25.0867 155.082 23.64C155.886 22.1933 157.021 21.0383 158.487 20.175C159.977 19.2883 161.727 18.845 163.738 18.845C165.772 18.845 167.51 19.2883 168.952 20.175C170.395 21.0383 171.495 22.1933 172.251 23.64C173.032 25.0633 173.422 26.6033 173.422 28.26C173.422 28.54 173.41 28.8317 173.387 29.135C173.363 29.415 173.339 29.6483 173.316 29.835H158.949C159.043 30.7683 159.315 31.585 159.765 32.285C160.238 32.985 160.829 33.5217 161.538 33.895C162.271 34.245 163.052 34.42 163.88 34.42C164.826 34.42 165.712 34.1983 166.54 33.755C167.392 33.2883 167.971 32.6817 168.278 31.935L172.358 33.055C171.909 33.9883 171.258 34.8167 170.407 35.54C169.579 36.2633 168.598 36.835 167.462 37.255C166.327 37.6517 165.074 37.85 163.702 37.85ZM158.842 26.86H168.562C168.468 25.9267 168.196 25.1217 167.746 24.445C167.321 23.745 166.753 23.2083 166.043 22.835C165.334 22.4383 164.542 22.24 163.667 22.24C162.815 22.24 162.035 22.4383 161.325 22.835C160.64 23.2083 160.072 23.745 159.623 24.445C159.197 25.1217 158.937 25.9267 158.842 26.86Z" fill="white"/>
<rect width="49.9994" height="49.9994" fill="#34495E"/>
<mask id="mask0_652_272" style="mask-type:alpha" maskUnits="userSpaceOnUse" x="10" y="10" width="30" height="30">
<rect x="10.5" y="10.5" width="28.9996" height="28.9996" fill="#D9D9D9"/>
</mask>
<g mask="url(#mask0_652_272)">
<path d="M24.9988 36.3589C21.8169 36.3589 19.1284 35.8454 16.9333 34.8183C14.7382 33.7912 13.6406 32.5326 13.6406 31.0423V18.9591C13.6406 17.489 14.7483 16.2303 16.9635 15.1831C19.1788 14.1359 21.8572 13.6123 24.9988 13.6123C28.1203 13.6123 30.7987 14.1359 33.0341 15.1831C35.2695 16.2303 36.3872 17.489 36.3872 18.9591V31.0423C36.3872 32.5326 35.2796 33.7912 33.0643 34.8183C30.8491 35.8454 28.1606 36.3589 24.9988 36.3589ZM24.9988 20.983C26.6703 20.983 28.4073 20.7263 30.2097 20.2127C32.0121 19.6992 33.2456 19.1001 33.9102 18.4154C33.2255 17.7508 31.9769 17.1517 30.1644 16.618C28.3519 16.0843 26.6301 15.8175 24.9988 15.8175C23.2669 15.8175 21.5098 16.0793 19.7275 16.6029C17.9453 17.1265 16.7319 17.7307 16.0875 18.4154C16.752 19.1202 17.9604 19.7244 19.7124 20.2278C21.4645 20.7313 23.2266 20.983 24.9988 20.983ZM24.9686 27.5684C25.7943 27.5684 26.62 27.518 27.4457 27.4173C28.2713 27.3167 29.0819 27.1656 29.8774 26.9642C30.6729 26.7628 31.4331 26.5161 32.1581 26.2241C32.8831 25.9321 33.5577 25.6049 34.182 25.2424V20.9528C33.5376 21.2952 32.8479 21.6073 32.1128 21.8893C31.3777 22.1712 30.6125 22.4079 29.817 22.5992C29.0215 22.7905 28.216 22.9365 27.4004 23.0372C26.5847 23.1379 25.7742 23.1882 24.9686 23.1882C24.1429 23.1882 23.3122 23.1379 22.4765 23.0372C21.6407 22.9365 20.8301 22.7905 20.0447 22.5992C19.2593 22.4079 18.5091 22.1712 17.7942 21.8893C17.0793 21.6073 16.4298 21.2952 15.8458 20.9528V25.2424C16.4701 25.6049 17.1397 25.9321 17.8546 26.2241C18.5696 26.5161 19.3197 26.7628 20.1051 26.9642C20.8905 27.1656 21.691 27.3167 22.5067 27.4173C23.3223 27.518 24.1429 27.5684 24.9686 27.5684ZM24.9988 34.1537C25.9655 34.1537 26.9623 34.0681 27.9894 33.897C29.0165 33.7258 29.963 33.4992 30.829 33.2173C31.6949 32.9353 32.435 32.6131 33.0492 32.2506C33.6635 31.8881 34.0411 31.5256 34.182 31.1631V27.5684C33.5376 27.9107 32.8479 28.2229 32.1128 28.5048C31.3777 28.7868 30.6125 29.0184 29.817 29.1996C29.0215 29.3809 28.216 29.5218 27.4004 29.6225C26.5847 29.7232 25.7742 29.7736 24.9686 29.7736C24.1631 29.7736 23.3575 29.7283 22.552 29.6376C21.7464 29.547 20.961 29.406 20.1958 29.2147C19.4305 29.0234 18.6803 28.7918 17.9453 28.5199C17.2102 28.2481 16.5104 27.9309 15.8458 27.5684V31.1933C15.9465 31.5558 16.2939 31.9133 16.888 32.2657C17.4821 32.6181 18.2171 32.9353 19.0932 33.2173C19.9692 33.4992 20.9258 33.7258 21.9629 33.897C23.0001 34.0681 24.012 34.1537 24.9988 34.1537Z" fill="white"/>
</g>
</svg>
