<svg width="114" height="50" viewBox="0 0 114 50" fill="none" xmlns="http://www.w3.org/2000/svg">
<path d="M7.20224 8.29812C8.0304 3.50291 12.1902 0 17.0564 0H104C109.523 0 114 4.47715 114 10V50H0L7.20224 8.29812Z" fill="#E04434"/>
<path d="M31.2871 37.85C29.7205 37.85 28.224 37.5933 26.7977 37.08C25.3714 36.5667 24.1439 35.8083 23.1151 34.805L24.7986 31.76C25.8975 32.6467 26.9731 33.3 28.0253 33.72C29.1009 34.14 30.1297 34.35 31.1117 34.35C32.0236 34.35 32.7484 34.1867 33.2862 33.86C33.8474 33.5333 34.128 33.0433 34.128 32.39C34.128 31.9467 33.976 31.6083 33.672 31.375C33.3681 31.1183 32.9238 30.8967 32.3393 30.71C31.7781 30.5233 31.0883 30.3133 30.27 30.08C28.9138 29.6367 27.7798 29.205 26.8679 28.785C25.956 28.365 25.2662 27.84 24.7986 27.21C24.3543 26.5567 24.1322 25.7283 24.1322 24.725C24.1322 23.5117 24.4362 22.4733 25.0441 21.61C25.6754 20.7233 26.5405 20.035 27.6395 19.545C28.7618 19.055 30.0712 18.81 31.5677 18.81C32.877 18.81 34.1163 19.02 35.2854 19.44C36.4545 19.8367 37.5184 20.49 38.477 21.4L36.5831 24.375C35.6478 23.6517 34.7593 23.1267 33.9175 22.8C33.0758 22.45 32.2223 22.275 31.3572 22.275C30.8662 22.275 30.3986 22.3333 29.9543 22.45C29.5334 22.5667 29.1827 22.765 28.9021 23.045C28.6449 23.3017 28.5163 23.675 28.5163 24.165C28.5163 24.6083 28.6332 24.9583 28.867 25.215C29.1242 25.4483 29.4984 25.6583 29.9894 25.845C30.5038 26.0317 31.1234 26.2417 31.8482 26.475C33.3213 26.895 34.5605 27.3267 35.566 27.77C36.5948 28.2133 37.3664 28.7617 37.8808 29.415C38.3952 30.045 38.6524 30.92 38.6524 32.04C38.6524 33.86 37.986 35.2833 36.6532 36.31C35.3205 37.3367 33.5317 37.85 31.2871 37.85Z" fill="white"/>
<path d="M58.9295 37.5H54.2297V27.21C54.2297 25.7867 53.9491 24.725 53.388 24.025C52.8502 23.325 52.102 22.975 51.1433 22.975C50.5821 22.975 49.9859 23.1383 49.3546 23.465C48.7233 23.7917 48.1504 24.2467 47.636 24.83C47.145 25.39 46.7826 26.0433 46.5487 26.79V37.5H41.849V11.95H46.5487V22.555C47.2268 21.3883 48.1504 20.4783 49.3195 19.825C50.4886 19.1717 51.7629 18.845 53.1424 18.845C54.3349 18.845 55.3053 19.055 56.0535 19.475C56.8017 19.8717 57.3863 20.42 57.8072 21.12C58.228 21.7967 58.5203 22.5667 58.684 23.43C58.8476 24.27 58.9295 25.145 58.9295 26.055V37.5Z" fill="white"/>
<path d="M63.016 37.5V19.16H67.7158V37.5H63.016ZM63.016 16.605V11.95H67.7158V16.605H63.016Z" fill="white"/>
<path d="M73.0779 37.5V23.71H70.6578V20.14H73.0779V19.02C73.0779 17.5033 73.3234 16.1967 73.8144 15.1C74.3288 13.98 75.0419 13.1167 75.9538 12.51C76.8891 11.9033 77.9764 11.6 79.2156 11.6C79.9639 11.6 80.7121 11.6933 81.4603 11.88C82.2319 12.0667 82.9918 12.335 83.74 12.685L82.7931 16.22C82.4423 16.0333 82.0331 15.8817 81.5655 15.765C81.0979 15.625 80.6536 15.555 80.2327 15.555C79.4378 15.555 78.8298 15.835 78.409 16.395C77.9881 16.955 77.7776 17.7717 77.7776 18.845V20.14H82.267V23.71H77.7776V37.5H73.0779Z" fill="white"/>
<path d="M95.9495 36.555C95.552 36.7183 95.0727 36.905 94.5116 37.115C93.9504 37.325 93.3424 37.4883 92.6878 37.605C92.0564 37.745 91.4134 37.815 90.7587 37.815C89.8936 37.815 89.0986 37.6633 88.3738 37.36C87.6489 37.0567 87.0644 36.5783 86.6201 35.925C86.1993 35.2483 85.9888 34.3733 85.9888 33.3V22.765H83.5688V19.16H85.9888V13.21H90.6886V19.16H94.5466V22.765H90.6886V31.725C90.712 32.355 90.8873 32.81 91.2147 33.09C91.542 33.37 91.9512 33.51 92.4422 33.51C92.9333 33.51 93.4126 33.4283 93.8802 33.265C94.3479 33.1017 94.722 32.9617 95.0026 32.845L95.9495 36.555Z" fill="white"/>
</svg>
