<svg width="197" height="50" viewBox="0 0 197 50" fill="none" xmlns="http://www.w3.org/2000/svg">
<path d="M8.475 0H196.725V50H0L8.475 0Z" fill="#FBE020"/>
<path d="M44.918 19.16H49.363L41.698 37.5H37.778L34.698 29.625L31.688 37.5H27.733L20.103 19.16H24.513L29.973 33.02L32.108 27.035L28.923 19.195H32.808L34.698 24.795L36.623 19.195H40.508L37.323 27.035L39.493 33.02L44.918 19.16Z" fill="white"/>
<path d="M59.3831 37.85C57.8898 37.85 56.5481 37.605 55.3581 37.115C54.1681 36.6017 53.1531 35.9017 52.3131 35.015C51.4965 34.1283 50.8665 33.1133 50.4231 31.97C49.9798 30.8267 49.7581 29.625 49.7581 28.365C49.7581 27.0817 49.9798 25.8683 50.4231 24.725C50.8665 23.5817 51.4965 22.5667 52.3131 21.68C53.1531 20.7933 54.1681 20.105 55.3581 19.615C56.5481 19.1017 57.8898 18.845 59.3831 18.845C60.8765 18.845 62.2065 19.1017 63.3731 19.615C64.5631 20.105 65.5781 20.7933 66.4181 21.68C67.2581 22.5667 67.8881 23.5817 68.3081 24.725C68.7515 25.8683 68.9731 27.0817 68.9731 28.365C68.9731 29.625 68.7515 30.8267 68.3081 31.97C67.8881 33.1133 67.2581 34.1283 66.4181 35.015C65.6015 35.9017 64.5981 36.6017 63.4081 37.115C62.2181 37.605 60.8765 37.85 59.3831 37.85ZM54.5881 28.365C54.5881 29.4383 54.7981 30.395 55.2181 31.235C55.6381 32.0517 56.2098 32.6933 56.9331 33.16C57.6565 33.6267 58.4731 33.86 59.3831 33.86C60.2698 33.86 61.0748 33.6267 61.7981 33.16C62.5215 32.67 63.0931 32.0167 63.5131 31.2C63.9565 30.36 64.1781 29.4033 64.1781 28.33C64.1781 27.28 63.9565 26.335 63.5131 25.495C63.0931 24.655 62.5215 24.0017 61.7981 23.535C61.0748 23.0683 60.2698 22.835 59.3831 22.835C58.4731 22.835 57.6565 23.08 56.9331 23.57C56.2098 24.0367 55.6381 24.69 55.2181 25.53C54.7981 26.3467 54.5881 27.2917 54.5881 28.365Z" fill="white"/>
<path d="M83.0587 23.22C81.6354 23.22 80.3637 23.5 79.2437 24.06C78.1237 24.5967 77.3187 25.3783 76.8287 26.405V37.5H72.1387V19.16H76.4437V23.08C77.097 21.82 77.9254 20.8283 78.9287 20.105C79.932 19.3817 80.9937 18.985 82.1137 18.915C82.3704 18.915 82.5687 18.915 82.7087 18.915C82.8487 18.915 82.9654 18.9267 83.0587 18.95V23.22Z" fill="white"/>
<path d="M98.2039 37.5L92.8489 29.59L90.3639 32.04V37.5H85.6739V11.95H90.3639V27.42L97.7489 19.195H102.719L95.8939 26.965L103.209 37.5H98.2039Z" fill="white"/>
<path d="M122.235 37.5H117.545V27.21C117.545 25.7867 117.265 24.725 116.705 24.025C116.169 23.325 115.422 22.975 114.465 22.975C113.905 22.975 113.31 23.1383 112.68 23.465C112.05 23.7917 111.479 24.2467 110.965 24.83C110.475 25.39 110.114 26.0433 109.88 26.79V37.5H105.19V11.95H109.88V22.555C110.557 21.3883 111.479 20.4783 112.645 19.825C113.812 19.1717 115.084 18.845 116.46 18.845C117.65 18.845 118.619 19.055 119.365 19.475C120.112 19.8717 120.695 20.42 121.115 21.12C121.535 21.7967 121.827 22.5667 121.99 23.43C122.154 24.27 122.235 25.145 122.235 26.055V37.5Z" fill="white"/>
<path d="M134.784 37.85C133.29 37.85 131.949 37.605 130.759 37.115C129.569 36.6017 128.554 35.9017 127.714 35.015C126.897 34.1283 126.267 33.1133 125.824 31.97C125.38 30.8267 125.159 29.625 125.159 28.365C125.159 27.0817 125.38 25.8683 125.824 24.725C126.267 23.5817 126.897 22.5667 127.714 21.68C128.554 20.7933 129.569 20.105 130.759 19.615C131.949 19.1017 133.29 18.845 134.784 18.845C136.277 18.845 137.607 19.1017 138.774 19.615C139.964 20.105 140.979 20.7933 141.819 21.68C142.659 22.5667 143.289 23.5817 143.709 24.725C144.152 25.8683 144.374 27.0817 144.374 28.365C144.374 29.625 144.152 30.8267 143.709 31.97C143.289 33.1133 142.659 34.1283 141.819 35.015C141.002 35.9017 139.999 36.6017 138.809 37.115C137.619 37.605 136.277 37.85 134.784 37.85ZM129.989 28.365C129.989 29.4383 130.199 30.395 130.619 31.235C131.039 32.0517 131.61 32.6933 132.334 33.16C133.057 33.6267 133.874 33.86 134.784 33.86C135.67 33.86 136.475 33.6267 137.199 33.16C137.922 32.67 138.494 32.0167 138.914 31.2C139.357 30.36 139.579 29.4033 139.579 28.33C139.579 27.28 139.357 26.335 138.914 25.495C138.494 24.655 137.922 24.0017 137.199 23.535C136.475 23.0683 135.67 22.835 134.784 22.835C133.874 22.835 133.057 23.08 132.334 23.57C131.61 24.0367 131.039 24.69 130.619 25.53C130.199 26.3467 129.989 27.2917 129.989 28.365Z" fill="white"/>
<path d="M147.364 30.64V19.16H152.054V29.625C152.054 31.025 152.311 32.0867 152.824 32.81C153.337 33.51 154.096 33.86 155.099 33.86C155.706 33.86 156.301 33.7433 156.884 33.51C157.491 33.2533 158.039 32.88 158.529 32.39C159.042 31.9 159.474 31.2817 159.824 30.535V19.16H164.514V32.25C164.514 32.74 164.596 33.09 164.759 33.3C164.946 33.51 165.237 33.6383 165.634 33.685V37.5C165.167 37.57 164.771 37.6167 164.444 37.64C164.141 37.6867 163.861 37.71 163.604 37.71C162.764 37.71 162.076 37.5233 161.539 37.15C161.026 36.7533 160.722 36.2167 160.629 35.54L160.524 34.07C159.707 35.3067 158.657 36.2517 157.374 36.905C156.091 37.535 154.679 37.85 153.139 37.85C151.249 37.85 149.814 37.2433 148.834 36.03C147.854 34.7933 147.364 32.9967 147.364 30.64Z" fill="white"/>
<path d="M180.095 23.22C178.672 23.22 177.4 23.5 176.28 24.06C175.16 24.5967 174.355 25.3783 173.865 26.405V37.5H169.175V19.16H173.48V23.08C174.133 21.82 174.962 20.8283 175.965 20.105C176.968 19.3817 178.03 18.985 179.15 18.915C179.407 18.915 179.605 18.915 179.745 18.915C179.885 18.915 180.002 18.9267 180.095 18.95V23.22Z" fill="white"/>
</svg>
