<svg width="279" height="50" viewBox="0 0 279 50" fill="none" xmlns="http://www.w3.org/2000/svg">
<path d="M45.4658 0H278.139V50H37L45.4658 0Z" fill="#52C3B7"/>
<path d="M62.656 37.85C61.1629 37.85 59.8214 37.605 58.6315 37.115C57.4416 36.6017 56.4267 35.9017 55.5868 35.015C54.7469 34.105 54.0937 33.0783 53.6271 31.935C53.1838 30.7917 52.9621 29.59 52.9621 28.33C52.9621 26.6033 53.3471 25.0283 54.117 23.605C54.9102 22.1583 56.0301 21.0033 57.4766 20.14C58.9231 19.2767 60.6379 18.845 62.621 18.845C64.6041 18.845 66.3073 19.2767 67.7305 20.14C69.1536 21.0033 70.2152 22.135 70.9151 23.535L66.3306 24.935C65.934 24.2583 65.4091 23.745 64.7558 23.395C64.1025 23.0217 63.3793 22.835 62.586 22.835C61.6995 22.835 60.8829 23.0683 60.1363 23.535C59.4131 23.9783 58.8415 24.62 58.4215 25.46C58.0016 26.2767 57.7916 27.2333 57.7916 28.33C57.7916 29.4033 58.0016 30.36 58.4215 31.2C58.8648 32.0167 59.4481 32.67 60.1713 33.16C60.8946 33.6267 61.6995 33.86 62.586 33.86C63.146 33.86 63.6709 33.7667 64.1609 33.58C64.6741 33.3933 65.1291 33.1367 65.5257 32.81C65.9223 32.4833 66.214 32.11 66.4006 31.69L70.9851 33.09C70.5651 34 69.9469 34.8167 69.1303 35.54C68.3371 36.2633 67.3922 36.835 66.2956 37.255C65.2224 37.6517 64.0092 37.85 62.656 37.85Z" fill="white"/>
<path d="M82.1688 37.85C80.6756 37.85 79.3341 37.605 78.1442 37.115C76.9544 36.6017 75.9395 35.9017 75.0996 35.015C74.283 34.1283 73.6531 33.1133 73.2098 31.97C72.7665 30.8267 72.5449 29.625 72.5449 28.365C72.5449 27.0817 72.7665 25.8683 73.2098 24.725C73.6531 23.5817 74.283 22.5667 75.0996 21.68C75.9395 20.7933 76.9544 20.105 78.1442 19.615C79.3341 19.1017 80.6756 18.845 82.1688 18.845C83.6619 18.845 84.9918 19.1017 86.1583 19.615C87.3482 20.105 88.3631 20.7933 89.203 21.68C90.0429 22.5667 90.6728 23.5817 91.0928 24.725C91.536 25.8683 91.7577 27.0817 91.7577 28.365C91.7577 29.625 91.536 30.8267 91.0928 31.97C90.6728 33.1133 90.0429 34.1283 89.203 35.015C88.3864 35.9017 87.3832 36.6017 86.1933 37.115C85.0035 37.605 83.6619 37.85 82.1688 37.85ZM77.3743 28.365C77.3743 29.4383 77.5843 30.395 78.0042 31.235C78.4242 32.0517 78.9958 32.6933 79.7191 33.16C80.4423 33.6267 81.2589 33.86 82.1688 33.86C83.0553 33.86 83.8603 33.6267 84.5835 33.16C85.3068 32.67 85.8784 32.0167 86.2983 31.2C86.7416 30.36 86.9632 29.4033 86.9632 28.33C86.9632 27.28 86.7416 26.335 86.2983 25.495C85.8784 24.655 85.3068 24.0017 84.5835 23.535C83.8603 23.0683 83.0553 22.835 82.1688 22.835C81.2589 22.835 80.4423 23.08 79.7191 23.57C78.9958 24.0367 78.4242 24.69 78.0042 25.53C77.5843 26.3467 77.3743 27.2917 77.3743 28.365Z" fill="white"/>
<path d="M123.41 37.5H118.72V27.21C118.72 25.7633 118.464 24.7017 117.95 24.025C117.46 23.325 116.772 22.975 115.886 22.975C114.976 22.975 114.101 23.3367 113.261 24.06C112.444 24.76 111.861 25.6817 111.511 26.825V37.5H106.822V27.21C106.822 25.74 106.565 24.6667 106.052 23.99C105.562 23.3133 104.873 22.975 103.987 22.975C103.077 22.975 102.202 23.325 101.362 24.025C100.546 24.725 99.9623 25.6467 99.6124 26.79V37.5H94.9229V19.16H99.1574V22.555C99.8573 21.365 100.791 20.455 101.957 19.825C103.124 19.1717 104.465 18.845 105.982 18.845C107.498 18.845 108.676 19.2183 109.516 19.965C110.379 20.7117 110.928 21.6333 111.161 22.73C111.908 21.47 112.853 20.5133 113.996 19.86C115.162 19.1833 116.469 18.845 117.915 18.845C119.059 18.845 119.98 19.055 120.68 19.475C121.403 19.8717 121.963 20.42 122.36 21.12C122.756 21.7967 123.025 22.5667 123.165 23.43C123.328 24.2933 123.41 25.1683 123.41 26.055V37.5Z" fill="white"/>
<path d="M138.481 37.85C137.058 37.85 135.798 37.535 134.702 36.905C133.628 36.2517 132.789 35.3767 132.182 34.28V44.955H127.492V19.16H131.587V22.31C132.287 21.2367 133.173 20.3967 134.247 19.79C135.32 19.16 136.545 18.845 137.921 18.845C139.158 18.845 140.289 19.09 141.316 19.58C142.366 20.07 143.276 20.7583 144.046 21.645C144.815 22.5083 145.41 23.5117 145.83 24.655C146.274 25.775 146.495 26.9883 146.495 28.295C146.495 30.0683 146.145 31.6783 145.445 33.125C144.769 34.5717 143.824 35.7267 142.611 36.59C141.421 37.43 140.044 37.85 138.481 37.85ZM136.906 33.86C137.63 33.86 138.283 33.7083 138.866 33.405C139.449 33.1017 139.951 32.6933 140.371 32.18C140.814 31.6433 141.141 31.0483 141.351 30.395C141.584 29.7183 141.701 29.0183 141.701 28.295C141.701 27.525 141.573 26.8133 141.316 26.16C141.083 25.5067 140.733 24.935 140.266 24.445C139.799 23.9317 139.251 23.535 138.621 23.255C138.015 22.975 137.35 22.835 136.626 22.835C136.183 22.835 135.728 22.9167 135.262 23.08C134.818 23.22 134.387 23.43 133.967 23.71C133.547 23.99 133.173 24.3167 132.847 24.69C132.544 25.0633 132.322 25.4717 132.182 25.915V30.22C132.462 30.8967 132.835 31.515 133.302 32.075C133.792 32.635 134.352 33.0783 134.982 33.405C135.612 33.7083 136.253 33.86 136.906 33.86Z" fill="white"/>
<path d="M158.177 37.85C156.707 37.85 155.377 37.605 154.187 37.115C152.997 36.6017 151.982 35.9133 151.142 35.05C150.302 34.1633 149.649 33.16 149.183 32.04C148.739 30.8967 148.518 29.695 148.518 28.435C148.518 26.685 148.903 25.0867 149.673 23.64C150.466 22.1933 151.586 21.0383 153.032 20.175C154.502 19.2883 156.228 18.845 158.212 18.845C160.218 18.845 161.933 19.2883 163.356 20.175C164.779 21.0383 165.864 22.1933 166.611 23.64C167.381 25.0633 167.765 26.6033 167.765 28.26C167.765 28.54 167.754 28.8317 167.73 29.135C167.707 29.415 167.684 29.6483 167.661 29.835H153.487C153.58 30.7683 153.849 31.585 154.292 32.285C154.759 32.985 155.342 33.5217 156.042 33.895C156.765 34.245 157.535 34.42 158.352 34.42C159.285 34.42 160.16 34.1983 160.976 33.755C161.816 33.2883 162.388 32.6817 162.691 31.935L166.716 33.055C166.272 33.9883 165.631 34.8167 164.791 35.54C163.974 36.2633 163.006 36.835 161.886 37.255C160.766 37.6517 159.53 37.85 158.177 37.85ZM153.382 26.86H162.971C162.878 25.9267 162.609 25.1217 162.166 24.445C161.746 23.745 161.186 23.2083 160.486 22.835C159.786 22.4383 159.005 22.24 158.142 22.24C157.302 22.24 156.532 22.4383 155.832 22.835C155.155 23.2083 154.595 23.745 154.152 24.445C153.732 25.1217 153.475 25.9267 153.382 26.86Z" fill="white"/>
<path d="M181.44 36.555C181.044 36.7183 180.565 36.905 180.005 37.115C179.445 37.325 178.839 37.4883 178.186 37.605C177.556 37.745 176.914 37.815 176.261 37.815C175.398 37.815 174.604 37.6633 173.881 37.36C173.158 37.0567 172.575 36.5783 172.131 35.925C171.711 35.2483 171.501 34.3733 171.501 33.3V22.765H169.087V19.16H171.501V13.21H176.191V19.16H180.04V22.765H176.191V31.725C176.214 32.355 176.389 32.81 176.716 33.09C177.042 33.37 177.451 33.51 177.941 33.51C178.431 33.51 178.909 33.4283 179.375 33.265C179.842 33.1017 180.215 32.9617 180.495 32.845L181.44 36.555Z" fill="white"/>
<path d="M192.181 37.85C190.712 37.85 189.382 37.605 188.192 37.115C187.002 36.6017 185.987 35.9133 185.147 35.05C184.307 34.1633 183.654 33.16 183.188 32.04C182.744 30.8967 182.523 29.695 182.523 28.435C182.523 26.685 182.908 25.0867 183.677 23.64C184.471 22.1933 185.591 21.0383 187.037 20.175C188.507 19.2883 190.233 18.845 192.216 18.845C194.223 18.845 195.938 19.2883 197.361 20.175C198.784 21.0383 199.869 22.1933 200.616 23.64C201.385 25.0633 201.77 26.6033 201.77 28.26C201.77 28.54 201.759 28.8317 201.735 29.135C201.712 29.415 201.689 29.6483 201.665 29.835H187.492C187.585 30.7683 187.854 31.585 188.297 32.285C188.764 32.985 189.347 33.5217 190.047 33.895C190.77 34.245 191.54 34.42 192.356 34.42C193.29 34.42 194.165 34.1983 194.981 33.755C195.821 33.2883 196.393 32.6817 196.696 31.935L200.721 33.055C200.277 33.9883 199.636 34.8167 198.796 35.54C197.979 36.2633 197.011 36.835 195.891 37.255C194.771 37.6517 193.535 37.85 192.181 37.85ZM187.387 26.86H196.976C196.883 25.9267 196.614 25.1217 196.171 24.445C195.751 23.745 195.191 23.2083 194.491 22.835C193.791 22.4383 193.01 22.24 192.146 22.24C191.307 22.24 190.537 22.4383 189.837 22.835C189.16 23.2083 188.6 23.745 188.157 24.445C187.737 25.1217 187.48 25.9267 187.387 26.86Z" fill="white"/>
<path d="M221.67 37.5H216.981V27.21C216.981 25.74 216.724 24.6667 216.211 23.99C215.698 23.3133 214.986 22.975 214.076 22.975C213.446 22.975 212.805 23.1383 212.151 23.465C211.521 23.7917 210.95 24.2467 210.437 24.83C209.923 25.39 209.55 26.0433 209.317 26.79V37.5H204.627V19.16H208.862V22.555C209.328 21.7617 209.923 21.0967 210.647 20.56C211.37 20 212.198 19.58 213.131 19.3C214.088 18.9967 215.091 18.845 216.141 18.845C217.284 18.845 218.217 19.055 218.941 19.475C219.687 19.8717 220.247 20.42 220.62 21.12C221.017 21.7967 221.285 22.5667 221.425 23.43C221.589 24.2933 221.67 25.1683 221.67 26.055V37.5Z" fill="white"/>
<path d="M234.287 37.85C232.794 37.85 231.452 37.605 230.262 37.115C229.072 36.6017 228.058 35.9017 227.218 35.015C226.378 34.105 225.725 33.0783 225.258 31.935C224.815 30.7917 224.593 29.59 224.593 28.33C224.593 26.6033 224.978 25.0283 225.748 23.605C226.541 22.1583 227.661 21.0033 229.107 20.14C230.554 19.2767 232.269 18.845 234.252 18.845C236.235 18.845 237.938 19.2767 239.361 20.14C240.785 21.0033 241.846 22.135 242.546 23.535L237.961 24.935C237.565 24.2583 237.04 23.745 236.387 23.395C235.733 23.0217 235.01 22.835 234.217 22.835C233.33 22.835 232.514 23.0683 231.767 23.535C231.044 23.9783 230.472 24.62 230.052 25.46C229.632 26.2767 229.422 27.2333 229.422 28.33C229.422 29.4033 229.632 30.36 230.052 31.2C230.496 32.0167 231.079 32.67 231.802 33.16C232.525 33.6267 233.33 33.86 234.217 33.86C234.777 33.86 235.302 33.7667 235.792 33.58C236.305 33.3933 236.76 33.1367 237.157 32.81C237.553 32.4833 237.845 32.11 238.031 31.69L242.616 33.09C242.196 34 241.578 34.8167 240.761 35.54C239.968 36.2633 239.023 36.835 237.926 37.255C236.853 37.6517 235.64 37.85 234.287 37.85Z" fill="white"/>
<path d="M245.545 41.07C245.965 41.1633 246.35 41.245 246.7 41.315C247.073 41.385 247.388 41.42 247.644 41.42C248.088 41.42 248.449 41.3033 248.729 41.07C249.033 40.86 249.324 40.4633 249.604 39.88C249.884 39.32 250.176 38.5267 250.479 37.5L243.235 19.16H248.099L253.034 32.705L257.373 19.16H261.853L254.154 41.14C253.874 41.9567 253.442 42.6917 252.859 43.345C252.299 44.0217 251.587 44.5467 250.724 44.92C249.884 45.3167 248.939 45.515 247.889 45.515C247.516 45.515 247.143 45.48 246.77 45.41C246.396 45.3633 245.988 45.27 245.545 45.13V41.07Z" fill="white"/>
<rect x="0.00195312" y="-0.00195312" width="49.9994" height="49.9994" fill="#52C3B7"/>
<mask id="mask0_652_277" style="mask-type:alpha" maskUnits="userSpaceOnUse" x="10" y="12" width="30" height="30">
<rect x="10.502" y="12.8984" width="28.9996" height="28.9996" fill="#D9D9D9"/>
</mask>
<g mask="url(#mask0_652_277)">
<path d="M11.6484 34.1047V30.769C11.6484 30.0123 11.8407 29.323 12.2252 28.7012C12.6097 28.0795 13.1425 27.615 13.8234 27.3079C15.0921 26.7642 16.3908 26.311 17.7193 25.9485C19.0478 25.5861 20.4075 25.4048 21.7983 25.4048C22.8646 25.4048 23.9191 25.5156 24.9617 25.7371C26.0043 25.9586 27.0141 26.2506 27.9909 26.6131C27.7318 26.8955 27.4953 27.19 27.2815 27.4967C27.0677 27.8034 26.8812 28.1332 26.7222 28.486C25.9167 28.2041 25.1 27.9876 24.2721 27.8365C23.4443 27.6855 22.6146 27.61 21.7832 27.61C20.585 27.61 19.3867 27.7711 18.1885 28.0933C16.9902 28.4155 15.8373 28.8183 14.7297 29.3016C14.4477 29.4426 14.2312 29.6436 14.0802 29.9048C13.9291 30.1659 13.8536 30.4606 13.8536 30.7889V31.8995H25.8462C25.826 32.3023 25.8512 32.6849 25.9217 33.0474C25.9922 33.4099 26.0878 33.7623 26.2087 34.1047H11.6484ZM21.7729 23.3809C20.3892 23.3809 19.2168 22.9019 18.2557 21.944C17.2946 20.9861 16.814 19.8153 16.814 18.4316C16.814 17.0479 17.293 15.8754 18.2509 14.9143C19.2088 13.9532 20.3796 13.4727 21.7633 13.4727C23.147 13.4727 24.3194 13.9516 25.2805 14.9095C26.2417 15.8674 26.7222 17.0382 26.7222 18.422C26.7222 19.8057 26.2433 20.9781 25.2853 21.9392C24.3274 22.9003 23.1566 23.3809 21.7729 23.3809ZM21.7719 21.1757C22.5346 21.1757 23.1828 20.9076 23.7165 20.3714C24.2502 19.8353 24.517 19.1858 24.517 18.423C24.517 17.6602 24.2489 17.012 23.7128 16.4783C23.1766 15.9447 22.5271 15.6778 21.7644 15.6778C21.0016 15.6778 20.3534 15.9459 19.8197 16.4821C19.286 17.0183 19.0192 17.6677 19.0192 18.4305C19.0192 19.1933 19.2873 19.8415 19.8234 20.3752C20.3596 20.9089 21.0091 21.1757 21.7719 21.1757ZM33.9419 18.4268C33.9419 19.7871 33.4563 20.9529 32.4851 21.9241C31.514 22.8953 30.3467 23.3809 28.9835 23.3809C28.6642 23.3809 28.3434 23.3607 28.0212 23.3205C27.6989 23.2802 27.3969 23.2097 27.1149 23.109C27.6587 22.4646 28.0463 21.7349 28.2779 20.9201C28.5095 20.1053 28.6253 19.273 28.6253 18.4234C28.6253 17.5738 28.4994 16.7527 28.2477 15.9603C27.996 15.1678 27.6184 14.4292 27.1149 13.7445C27.412 13.6413 27.7191 13.5702 28.0363 13.5312C28.3534 13.4922 28.6736 13.4727 28.9969 13.4727C30.3512 13.4727 31.514 13.9582 32.4851 14.9294C33.4563 15.9006 33.9419 17.0664 33.9419 18.4268ZM33.5655 37.9109C31.9155 37.9109 30.5185 37.3317 29.3745 36.1732C28.2306 35.0148 27.6587 33.6138 27.6587 31.9701C27.6587 30.3228 28.2314 28.9225 29.3768 27.7692C30.5223 26.6158 31.9232 26.0392 33.5798 26.0392C35.2402 26.0392 36.647 26.6155 37.8004 27.7683C38.9537 28.921 39.5304 30.323 39.5304 31.9742C39.5304 33.6142 38.9537 35.0136 37.8004 36.1725C36.647 37.3314 35.2354 37.9109 33.5655 37.9109ZM32.4617 34.6484L36.7211 30.3891L35.845 29.5433L32.4315 32.9568L30.7399 31.2349L29.8941 32.0808L32.4617 34.6484Z" fill="white"/>
</g>
</svg>
