<svg width="197" height="50" viewBox="0 0 197 50" fill="none" xmlns="http://www.w3.org/2000/svg">
<path d="M7.05487 8.3307C7.86927 3.52046 12.0359 0 16.9146 0H186.5C192.023 0 196.5 4.47715 196.5 10V50H0L7.05487 8.3307Z" fill="#FBE020"/>
<path d="M44.8666 19.16H49.3066L41.6503 37.5H37.7348L34.6583 29.625L31.6518 37.5H27.7013L20.08 19.16H24.485L29.9387 33.02L32.0713 27.035L28.8899 19.195H32.7705L34.6583 24.795L36.5811 19.195H40.4617L37.2803 27.035L39.4478 33.02L44.8666 19.16Z" fill="white"/>
<path d="M59.3152 37.85C57.8236 37.85 56.4835 37.605 55.2948 37.115C54.1062 36.6017 53.0923 35.9017 52.2533 35.015C51.4376 34.1283 50.8083 33.1133 50.3655 31.97C49.9226 30.8267 49.7012 29.625 49.7012 28.365C49.7012 27.0817 49.9226 25.8683 50.3655 24.725C50.8083 23.5817 51.4376 22.5667 52.2533 21.68C53.0923 20.7933 54.1062 20.105 55.2948 19.615C56.4835 19.1017 57.8236 18.845 59.3152 18.845C60.8068 18.845 62.1353 19.1017 63.3006 19.615C64.4893 20.105 65.5031 20.7933 66.3422 21.68C67.1812 22.5667 67.8105 23.5817 68.23 24.725C68.6728 25.8683 68.8942 27.0817 68.8942 28.365C68.8942 29.625 68.6728 30.8267 68.23 31.97C67.8105 33.1133 67.1812 34.1283 66.3422 35.015C65.5264 35.9017 64.5242 36.6017 63.3356 37.115C62.147 37.605 60.8068 37.85 59.3152 37.85ZM54.5257 28.365C54.5257 29.4383 54.7355 30.395 55.155 31.235C55.5745 32.0517 56.1455 32.6933 56.868 33.16C57.5905 33.6267 58.4062 33.86 59.3152 33.86C60.2009 33.86 61.0049 33.6267 61.7274 33.16C62.45 32.67 63.021 32.0167 63.4405 31.2C63.8833 30.36 64.1047 29.4033 64.1047 28.33C64.1047 27.28 63.8833 26.335 63.4405 25.495C63.021 24.655 62.45 24.0017 61.7274 23.535C61.0049 23.0683 60.2009 22.835 59.3152 22.835C58.4062 22.835 57.5905 23.08 56.868 23.57C56.1455 24.0367 55.5745 24.69 55.155 25.53C54.7355 26.3467 54.5257 27.2917 54.5257 28.365Z" fill="white"/>
<path d="M82.9637 23.22C81.542 23.22 80.2718 23.5 79.1531 24.06C78.0344 24.5967 77.2303 25.3783 76.7408 26.405V37.5H72.0562V19.16H76.3563V23.08C77.0089 21.82 77.8363 20.8283 78.8384 20.105C79.8406 19.3817 80.9011 18.985 82.0198 18.915C82.2762 18.915 82.4743 18.915 82.6141 18.915C82.754 18.915 82.8705 18.9267 82.9637 18.95V23.22Z" fill="white"/>
<path d="M98.0916 37.5L92.7427 29.59L90.2605 32.04V37.5H85.5759V11.95H90.2605V27.42L97.6371 19.195H102.601L95.7842 26.965L103.091 37.5H98.0916Z" fill="white"/>
<path d="M122.096 37.5H117.411V27.21C117.411 25.7867 117.131 24.725 116.572 24.025C116.036 23.325 115.29 22.975 114.335 22.975C113.775 22.975 113.181 23.1383 112.552 23.465C111.922 23.7917 111.351 24.2467 110.839 24.83C110.349 25.39 109.988 26.0433 109.755 26.79V37.5H105.07V11.95H109.755V22.555C110.431 21.3883 111.351 20.4783 112.517 19.825C113.682 19.1717 114.952 18.845 116.327 18.845C117.516 18.845 118.483 19.055 119.229 19.475C119.975 19.8717 120.557 20.42 120.977 21.12C121.396 21.7967 121.688 22.5667 121.851 23.43C122.014 24.27 122.096 25.145 122.096 26.055V37.5Z" fill="white"/>
<path d="M134.629 37.85C133.138 37.85 131.798 37.605 130.609 37.115C129.42 36.6017 128.406 35.9017 127.567 35.015C126.752 34.1283 126.122 33.1133 125.68 31.97C125.237 30.8267 125.015 29.625 125.015 28.365C125.015 27.0817 125.237 25.8683 125.68 24.725C126.122 23.5817 126.752 22.5667 127.567 21.68C128.406 20.7933 129.42 20.105 130.609 19.615C131.798 19.1017 133.138 18.845 134.629 18.845C136.121 18.845 137.449 19.1017 138.615 19.615C139.803 20.105 140.817 20.7933 141.656 21.68C142.495 22.5667 143.125 23.5817 143.544 24.725C143.987 25.8683 144.208 27.0817 144.208 28.365C144.208 29.625 143.987 30.8267 143.544 31.97C143.125 33.1133 142.495 34.1283 141.656 35.015C140.841 35.9017 139.838 36.6017 138.65 37.115C137.461 37.605 136.121 37.85 134.629 37.85ZM129.84 28.365C129.84 29.4383 130.05 30.395 130.469 31.235C130.889 32.0517 131.46 32.6933 132.182 33.16C132.905 33.6267 133.72 33.86 134.629 33.86C135.515 33.86 136.319 33.6267 137.042 33.16C137.764 32.67 138.335 32.0167 138.755 31.2C139.197 30.36 139.419 29.4033 139.419 28.33C139.419 27.28 139.197 26.335 138.755 25.495C138.335 24.655 137.764 24.0017 137.042 23.535C136.319 23.0683 135.515 22.835 134.629 22.835C133.72 22.835 132.905 23.08 132.182 23.57C131.46 24.0367 130.889 24.69 130.469 25.53C130.05 26.3467 129.84 27.2917 129.84 28.365Z" fill="white"/>
<path d="M147.196 30.64V19.16H151.88V29.625C151.88 31.025 152.137 32.0867 152.649 32.81C153.162 33.51 153.92 33.86 154.922 33.86C155.528 33.86 156.122 33.7433 156.705 33.51C157.311 33.2533 157.858 32.88 158.348 32.39C158.861 31.9 159.292 31.2817 159.641 30.535V19.16H164.326V32.25C164.326 32.74 164.408 33.09 164.571 33.3C164.757 33.51 165.048 33.6383 165.445 33.685V37.5C164.979 37.57 164.582 37.6167 164.256 37.64C163.953 37.6867 163.673 37.71 163.417 37.71C162.578 37.71 161.89 37.5233 161.354 37.15C160.842 36.7533 160.539 36.2167 160.445 35.54L160.34 34.07C159.525 35.3067 158.476 36.2517 157.194 36.905C155.912 37.535 154.502 37.85 152.964 37.85C151.076 37.85 149.643 37.2433 148.664 36.03C147.685 34.7933 147.196 32.9967 147.196 30.64Z" fill="white"/>
<path d="M179.889 23.22C178.467 23.22 177.197 23.5 176.078 24.06C174.96 24.5967 174.155 25.3783 173.666 26.405V37.5H168.981V19.16H173.281V23.08C173.934 21.82 174.761 20.8283 175.764 20.105C176.766 19.3817 177.826 18.985 178.945 18.915C179.201 18.915 179.399 18.915 179.539 18.915C179.679 18.915 179.796 18.9267 179.889 18.95V23.22Z" fill="white"/>
</svg>
