<svg width="242" height="50" viewBox="0 0 242 50" fill="none" xmlns="http://www.w3.org/2000/svg">
<path d="M8.46677 0H241.167V50H0L8.46677 0Z" fill="#52C3B7"/>
<path d="M25.659 37.85C24.1656 37.85 22.824 37.605 21.634 37.115C20.444 36.6017 19.429 35.9017 18.589 35.015C17.749 34.105 17.0956 33.0783 16.629 31.935C16.1856 30.7917 15.964 29.59 15.964 28.33C15.964 26.6033 16.349 25.0283 17.119 23.605C17.9123 22.1583 19.0323 21.0033 20.479 20.14C21.9256 19.2767 23.6406 18.845 25.624 18.845C27.6073 18.845 29.3106 19.2767 30.734 20.14C32.1573 21.0033 33.219 22.135 33.919 23.535L29.334 24.935C28.9373 24.2583 28.4123 23.745 27.759 23.395C27.1056 23.0217 26.3823 22.835 25.589 22.835C24.7023 22.835 23.8856 23.0683 23.139 23.535C22.4156 23.9783 21.844 24.62 21.424 25.46C21.004 26.2767 20.794 27.2333 20.794 28.33C20.794 29.4033 21.004 30.36 21.424 31.2C21.8673 32.0167 22.4506 32.67 23.174 33.16C23.8973 33.6267 24.7023 33.86 25.589 33.86C26.149 33.86 26.674 33.7667 27.164 33.58C27.6773 33.3933 28.1323 33.1367 28.529 32.81C28.9256 32.4833 29.2173 32.11 29.404 31.69L33.989 33.09C33.569 34 32.9506 34.8167 32.134 35.54C31.3406 36.2633 30.3956 36.835 29.299 37.255C28.2256 37.6517 27.0123 37.85 25.659 37.85Z" fill="white"/>
<path d="M45.1739 37.85C43.6806 37.85 42.3389 37.605 41.1489 37.115C39.9589 36.6017 38.9439 35.9017 38.1039 35.015C37.2873 34.1283 36.6572 33.1133 36.2139 31.97C35.7706 30.8267 35.5489 29.625 35.5489 28.365C35.5489 27.0817 35.7706 25.8683 36.2139 24.725C36.6572 23.5817 37.2873 22.5667 38.1039 21.68C38.9439 20.7933 39.9589 20.105 41.1489 19.615C42.3389 19.1017 43.6806 18.845 45.1739 18.845C46.6672 18.845 47.9972 19.1017 49.1639 19.615C50.3539 20.105 51.3689 20.7933 52.2089 21.68C53.0489 22.5667 53.6789 23.5817 54.0989 24.725C54.5422 25.8683 54.7639 27.0817 54.7639 28.365C54.7639 29.625 54.5422 30.8267 54.0989 31.97C53.6789 33.1133 53.0489 34.1283 52.2089 35.015C51.3923 35.9017 50.3889 36.6017 49.1989 37.115C48.0089 37.605 46.6672 37.85 45.1739 37.85ZM40.3789 28.365C40.3789 29.4383 40.5889 30.395 41.0089 31.235C41.4289 32.0517 42.0006 32.6933 42.7239 33.16C43.4473 33.6267 44.2639 33.86 45.1739 33.86C46.0606 33.86 46.8656 33.6267 47.5889 33.16C48.3123 32.67 48.8839 32.0167 49.3039 31.2C49.7472 30.36 49.9689 29.4033 49.9689 28.33C49.9689 27.28 49.7472 26.335 49.3039 25.495C48.8839 24.655 48.3123 24.0017 47.5889 23.535C46.8656 23.0683 46.0606 22.835 45.1739 22.835C44.2639 22.835 43.4473 23.08 42.7239 23.57C42.0006 24.0367 41.4289 24.69 41.0089 25.53C40.5889 26.3467 40.3789 27.2917 40.3789 28.365Z" fill="white"/>
<path d="M86.4195 37.5H81.7295V27.21C81.7295 25.7633 81.4728 24.7017 80.9595 24.025C80.4695 23.325 79.7812 22.975 78.8945 22.975C77.9845 22.975 77.1095 23.3367 76.2695 24.06C75.4528 24.76 74.8695 25.6817 74.5195 26.825V37.5H69.8295V27.21C69.8295 25.74 69.5728 24.6667 69.0595 23.99C68.5695 23.3133 67.8812 22.975 66.9945 22.975C66.0845 22.975 65.2095 23.325 64.3695 24.025C63.5528 24.725 62.9695 25.6467 62.6195 26.79V37.5H57.9295V19.16H62.1645V22.555C62.8645 21.365 63.7978 20.455 64.9645 19.825C66.1312 19.1717 67.4728 18.845 68.9895 18.845C70.5062 18.845 71.6845 19.2183 72.5245 19.965C73.3878 20.7117 73.9362 21.6333 74.1695 22.73C74.9162 21.47 75.8612 20.5133 77.0045 19.86C78.1712 19.1833 79.4778 18.845 80.9245 18.845C82.0678 18.845 82.9895 19.055 83.6895 19.475C84.4128 19.8717 84.9728 20.42 85.3695 21.12C85.7662 21.7967 86.0345 22.5667 86.1745 23.43C86.3378 24.2933 86.4195 25.1683 86.4195 26.055V37.5Z" fill="white"/>
<path d="M101.493 37.85C100.069 37.85 98.8094 37.535 97.7127 36.905C96.6394 36.2517 95.7994 35.3767 95.1927 34.28V44.955H90.5027V19.16H94.5977V22.31C95.2977 21.2367 96.1844 20.3967 97.2577 19.79C98.3311 19.16 99.5561 18.845 100.933 18.845C102.169 18.845 103.301 19.09 104.328 19.58C105.378 20.07 106.288 20.7583 107.058 21.645C107.828 22.5083 108.423 23.5117 108.843 24.655C109.286 25.775 109.508 26.9883 109.508 28.295C109.508 30.0683 109.158 31.6783 108.458 33.125C107.781 34.5717 106.836 35.7267 105.623 36.59C104.433 37.43 103.056 37.85 101.493 37.85ZM99.9177 33.86C100.641 33.86 101.294 33.7083 101.878 33.405C102.461 33.1017 102.963 32.6933 103.383 32.18C103.826 31.6433 104.153 31.0483 104.363 30.395C104.596 29.7183 104.713 29.0183 104.713 28.295C104.713 27.525 104.584 26.8133 104.328 26.16C104.094 25.5067 103.744 24.935 103.278 24.445C102.811 23.9317 102.263 23.535 101.633 23.255C101.026 22.975 100.361 22.835 99.6377 22.835C99.1944 22.835 98.7394 22.9167 98.2727 23.08C97.8294 23.22 97.3977 23.43 96.9777 23.71C96.5577 23.99 96.1844 24.3167 95.8577 24.69C95.5544 25.0633 95.3327 25.4717 95.1927 25.915V30.22C95.4727 30.8967 95.8461 31.515 96.3127 32.075C96.8027 32.635 97.3627 33.0783 97.9927 33.405C98.6227 33.7083 99.2644 33.86 99.9177 33.86Z" fill="white"/>
<path d="M121.19 37.85C119.72 37.85 118.39 37.605 117.2 37.115C116.01 36.6017 114.995 35.9133 114.155 35.05C113.315 34.1633 112.662 33.16 112.195 32.04C111.752 30.8967 111.53 29.695 111.53 28.435C111.53 26.685 111.915 25.0867 112.685 23.64C113.479 22.1933 114.599 21.0383 116.045 20.175C117.515 19.2883 119.242 18.845 121.225 18.845C123.232 18.845 124.947 19.2883 126.37 20.175C127.794 21.0383 128.879 22.1933 129.625 23.64C130.395 25.0633 130.78 26.6033 130.78 28.26C130.78 28.54 130.769 28.8317 130.745 29.135C130.722 29.415 130.699 29.6483 130.675 29.835H116.5C116.594 30.7683 116.862 31.585 117.305 32.285C117.772 32.985 118.355 33.5217 119.055 33.895C119.779 34.245 120.549 34.42 121.365 34.42C122.299 34.42 123.174 34.1983 123.99 33.755C124.83 33.2883 125.402 32.6817 125.705 31.935L129.73 33.055C129.287 33.9883 128.645 34.8167 127.805 35.54C126.989 36.2633 126.02 36.835 124.9 37.255C123.78 37.6517 122.544 37.85 121.19 37.85ZM116.395 26.86H125.985C125.892 25.9267 125.624 25.1217 125.18 24.445C124.76 23.745 124.2 23.2083 123.5 22.835C122.8 22.4383 122.019 22.24 121.155 22.24C120.315 22.24 119.545 22.4383 118.845 22.835C118.169 23.2083 117.609 23.745 117.165 24.445C116.745 25.1217 116.489 25.9267 116.395 26.86Z" fill="white"/>
<path d="M144.457 36.555C144.06 36.7183 143.582 36.905 143.022 37.115C142.462 37.325 141.855 37.4883 141.202 37.605C140.572 37.745 139.93 37.815 139.277 37.815C138.413 37.815 137.62 37.6633 136.897 37.36C136.173 37.0567 135.59 36.5783 135.147 35.925C134.727 35.2483 134.517 34.3733 134.517 33.3V22.765H132.102V19.16H134.517V13.21H139.207V19.16H143.057V22.765H139.207V31.725C139.23 32.355 139.405 32.81 139.732 33.09C140.058 33.37 140.467 33.51 140.957 33.51C141.447 33.51 141.925 33.4283 142.392 33.265C142.858 33.1017 143.232 32.9617 143.512 32.845L144.457 36.555Z" fill="white"/>
<path d="M155.199 37.85C153.729 37.85 152.399 37.605 151.209 37.115C150.019 36.6017 149.004 35.9133 148.164 35.05C147.324 34.1633 146.671 33.16 146.204 32.04C145.761 30.8967 145.539 29.695 145.539 28.435C145.539 26.685 145.924 25.0867 146.694 23.64C147.487 22.1933 148.607 21.0383 150.054 20.175C151.524 19.2883 153.251 18.845 155.234 18.845C157.241 18.845 158.956 19.2883 160.379 20.175C161.802 21.0383 162.887 22.1933 163.634 23.64C164.404 25.0633 164.789 26.6033 164.789 28.26C164.789 28.54 164.777 28.8317 164.754 29.135C164.731 29.415 164.707 29.6483 164.684 29.835H150.509C150.602 30.7683 150.871 31.585 151.314 32.285C151.781 32.985 152.364 33.5217 153.064 33.895C153.787 34.245 154.557 34.42 155.374 34.42C156.307 34.42 157.182 34.1983 157.999 33.755C158.839 33.2883 159.411 32.6817 159.714 31.935L163.739 33.055C163.296 33.9883 162.654 34.8167 161.814 35.54C160.997 36.2633 160.029 36.835 158.909 37.255C157.789 37.6517 156.552 37.85 155.199 37.85ZM150.404 26.86H159.994C159.901 25.9267 159.632 25.1217 159.189 24.445C158.769 23.745 158.209 23.2083 157.509 22.835C156.809 22.4383 156.027 22.24 155.164 22.24C154.324 22.24 153.554 22.4383 152.854 22.835C152.177 23.2083 151.617 23.745 151.174 24.445C150.754 25.1217 150.497 25.9267 150.404 26.86Z" fill="white"/>
<path d="M184.691 37.5H180.001V27.21C180.001 25.74 179.745 24.6667 179.231 23.99C178.718 23.3133 178.006 22.975 177.096 22.975C176.466 22.975 175.825 23.1383 175.171 23.465C174.541 23.7917 173.97 24.2467 173.456 24.83C172.943 25.39 172.57 26.0433 172.336 26.79V37.5H167.646V19.16H171.881V22.555C172.348 21.7617 172.943 21.0967 173.666 20.56C174.39 20 175.218 19.58 176.151 19.3C177.108 18.9967 178.111 18.845 179.161 18.845C180.305 18.845 181.238 19.055 181.961 19.475C182.708 19.8717 183.268 20.42 183.641 21.12C184.038 21.7967 184.306 22.5667 184.446 23.43C184.61 24.2933 184.691 25.1683 184.691 26.055V37.5Z" fill="white"/>
<path d="M197.309 37.85C195.816 37.85 194.474 37.605 193.284 37.115C192.094 36.6017 191.079 35.9017 190.239 35.015C189.399 34.105 188.746 33.0783 188.279 31.935C187.836 30.7917 187.614 29.59 187.614 28.33C187.614 26.6033 187.999 25.0283 188.769 23.605C189.563 22.1583 190.683 21.0033 192.129 20.14C193.576 19.2767 195.291 18.845 197.274 18.845C199.258 18.845 200.961 19.2767 202.384 20.14C203.808 21.0033 204.869 22.135 205.569 23.535L200.984 24.935C200.588 24.2583 200.063 23.745 199.409 23.395C198.756 23.0217 198.033 22.835 197.239 22.835C196.353 22.835 195.536 23.0683 194.789 23.535C194.066 23.9783 193.494 24.62 193.074 25.46C192.654 26.2767 192.444 27.2333 192.444 28.33C192.444 29.4033 192.654 30.36 193.074 31.2C193.518 32.0167 194.101 32.67 194.824 33.16C195.548 33.6267 196.353 33.86 197.239 33.86C197.799 33.86 198.324 33.7667 198.814 33.58C199.328 33.3933 199.783 33.1367 200.179 32.81C200.576 32.4833 200.868 32.11 201.054 31.69L205.639 33.09C205.219 34 204.601 34.8167 203.784 35.54C202.991 36.2633 202.046 36.835 200.949 37.255C199.876 37.6517 198.663 37.85 197.309 37.85Z" fill="white"/>
<path d="M208.568 41.07C208.988 41.1633 209.373 41.245 209.723 41.315C210.097 41.385 210.412 41.42 210.668 41.42C211.112 41.42 211.473 41.3033 211.753 41.07C212.057 40.86 212.348 40.4633 212.628 39.88C212.908 39.32 213.2 38.5267 213.503 37.5L206.258 19.16H211.123L216.058 32.705L220.398 19.16H224.878L217.178 41.14C216.898 41.9567 216.467 42.6917 215.883 43.345C215.323 44.0217 214.612 44.5467 213.748 44.92C212.908 45.3167 211.963 45.515 210.913 45.515C210.54 45.515 210.167 45.48 209.793 45.41C209.42 45.3633 209.012 45.27 208.568 45.13V41.07Z" fill="white"/>
</svg>
