<svg width="236" height="50" viewBox="0 0 236 50" fill="none" xmlns="http://www.w3.org/2000/svg">
<path d="M40.7251 0H235.797V50H32L40.7251 0Z" fill="#94866E"/>
<path d="M78.2205 19.16H82.6644L75.0014 37.5H71.0824L68.0032 29.625L64.994 37.5H61.04L53.4119 19.16H57.8208L63.2794 33.02L65.4138 27.035L62.2297 19.195H66.1137L68.0032 24.795L69.9277 19.195H73.8117L70.6275 27.035L72.7969 33.02L78.2205 19.16Z" fill="white"/>
<path d="M92.6819 37.85C91.189 37.85 89.8477 37.605 88.658 37.115C87.4683 36.6017 86.4535 35.9017 85.6138 35.015C84.7973 34.1283 84.1675 33.1133 83.7242 31.97C83.281 30.8267 83.0594 29.625 83.0594 28.365C83.0594 27.0817 83.281 25.8683 83.7242 24.725C84.1675 23.5817 84.7973 22.5667 85.6138 21.68C86.4535 20.7933 87.4683 20.105 88.658 19.615C89.8477 19.1017 91.189 18.845 92.6819 18.845C94.1749 18.845 95.5045 19.1017 96.6709 19.615C97.8606 20.105 98.8753 20.7933 99.7151 21.68C100.555 22.5667 101.185 23.5817 101.605 24.725C102.048 25.8683 102.269 27.0817 102.269 28.365C102.269 29.625 102.048 30.8267 101.605 31.97C101.185 33.1133 100.555 34.1283 99.7151 35.015C98.8987 35.9017 97.8956 36.6017 96.7059 37.115C95.5162 37.605 94.1749 37.85 92.6819 37.85ZM87.8882 28.365C87.8882 29.4383 88.0981 30.395 88.518 31.235C88.9379 32.0517 89.5094 32.6933 90.2326 33.16C90.9557 33.6267 91.7722 33.86 92.6819 33.86C93.5684 33.86 94.3732 33.6267 95.0963 33.16C95.8195 32.67 96.391 32.0167 96.8109 31.2C97.2541 30.36 97.4757 29.4033 97.4757 28.33C97.4757 27.28 97.2541 26.335 96.8109 25.495C96.391 24.655 95.8195 24.0017 95.0963 23.535C94.3732 23.0683 93.5684 22.835 92.6819 22.835C91.7722 22.835 90.9557 23.08 90.2326 23.57C89.5094 24.0367 88.9379 24.69 88.518 25.53C88.0981 26.3467 87.8882 27.2917 87.8882 28.365Z" fill="white"/>
<path d="M116.351 23.22C114.928 23.22 113.657 23.5 112.537 24.06C111.418 24.5967 110.613 25.3783 110.123 26.405V37.5H105.434V19.16H109.738V23.08C110.391 21.82 111.219 20.8283 112.222 20.105C113.226 19.3817 114.287 18.985 115.407 18.915C115.663 18.915 115.862 18.915 116.002 18.915C116.141 18.915 116.258 18.9267 116.351 18.95V23.22Z" fill="white"/>
<path d="M131.493 37.5L126.139 29.59L123.655 32.04V37.5H118.966V11.95H123.655V27.42L131.038 19.195H136.007L129.183 26.965L136.496 37.5H131.493Z" fill="white"/>
<path d="M161.222 19.16H165.665L158.002 37.5H154.083L151.004 29.625L147.995 37.5H144.041L136.413 19.16H140.822L146.28 33.02L148.415 27.035L145.231 19.195H149.115L151.004 24.795L152.929 19.195H156.813L153.629 27.035L155.798 33.02L161.222 19.16Z" fill="white"/>
<path d="M175.718 37.85C174.248 37.85 172.919 37.605 171.729 37.115C170.539 36.6017 169.525 35.9133 168.685 35.05C167.845 34.1633 167.192 33.16 166.725 32.04C166.282 30.8967 166.06 29.695 166.06 28.435C166.06 26.685 166.445 25.0867 167.215 23.64C168.008 22.1933 169.128 21.0383 170.574 20.175C172.044 19.2883 173.77 18.845 175.753 18.845C177.759 18.845 179.474 19.2883 180.897 20.175C182.32 21.0383 183.404 22.1933 184.151 23.64C184.921 25.0633 185.306 26.6033 185.306 28.26C185.306 28.54 185.294 28.8317 185.271 29.135C185.247 29.415 185.224 29.6483 185.201 29.835H171.029C171.123 30.7683 171.391 31.585 171.834 32.285C172.301 32.985 172.884 33.5217 173.584 33.895C174.307 34.245 175.076 34.42 175.893 34.42C176.826 34.42 177.701 34.1983 178.517 33.755C179.357 33.2883 179.929 32.6817 180.232 31.935L184.256 33.055C183.813 33.9883 183.171 34.8167 182.331 35.54C181.515 36.2633 180.547 36.835 179.427 37.255C178.307 37.6517 177.071 37.85 175.718 37.85ZM170.924 26.86H180.512C180.418 25.9267 180.15 25.1217 179.707 24.445C179.287 23.745 178.727 23.2083 178.027 22.835C177.328 22.4383 176.546 22.24 175.683 22.24C174.843 22.24 174.073 22.4383 173.374 22.835C172.697 23.2083 172.137 23.745 171.694 24.445C171.274 25.1217 171.018 25.9267 170.924 26.86Z" fill="white"/>
<path d="M186.902 32.075C186.902 30.885 187.229 29.8467 187.882 28.96C188.559 28.05 189.492 27.35 190.681 26.86C191.871 26.37 193.236 26.125 194.775 26.125C195.545 26.125 196.326 26.1833 197.12 26.3C197.913 26.4167 198.601 26.6033 199.184 26.86V25.88C199.184 24.7133 198.834 23.815 198.134 23.185C197.458 22.555 196.443 22.24 195.09 22.24C194.087 22.24 193.131 22.415 192.221 22.765C191.311 23.115 190.355 23.6283 189.352 24.305L187.847 21.225C189.06 20.4317 190.296 19.8367 191.556 19.44C192.839 19.0433 194.18 18.845 195.58 18.845C198.193 18.845 200.222 19.4983 201.668 20.805C203.138 22.1117 203.873 23.9783 203.873 26.405V32.25C203.873 32.74 203.955 33.09 204.118 33.3C204.304 33.51 204.596 33.6383 204.993 33.685V37.5C204.573 37.57 204.188 37.6283 203.838 37.675C203.511 37.7217 203.231 37.745 202.998 37.745C202.065 37.745 201.354 37.535 200.864 37.115C200.397 36.695 200.106 36.1817 199.989 35.575L199.884 34.63C199.091 35.6567 198.099 36.45 196.91 37.01C195.72 37.57 194.507 37.85 193.271 37.85C192.058 37.85 190.961 37.605 189.981 37.115C189.025 36.6017 188.267 35.9133 187.707 35.05C187.171 34.1633 186.902 33.1717 186.902 32.075ZM198.309 33.02C198.566 32.74 198.776 32.46 198.939 32.18C199.102 31.9 199.184 31.6433 199.184 31.41V29.555C198.624 29.3217 198.018 29.1467 197.365 29.03C196.711 28.89 196.093 28.82 195.51 28.82C194.297 28.82 193.294 29.0883 192.501 29.625C191.731 30.1383 191.346 30.8267 191.346 31.69C191.346 32.1567 191.474 32.6 191.731 33.02C191.988 33.44 192.361 33.7783 192.851 34.035C193.341 34.2917 193.924 34.42 194.6 34.42C195.3 34.42 195.988 34.2917 196.665 34.035C197.341 33.755 197.889 33.4167 198.309 33.02Z" fill="white"/>
<path d="M219.172 23.22C217.749 23.22 216.477 23.5 215.358 24.06C214.238 24.5967 213.433 25.3783 212.943 26.405V37.5H208.254V19.16H212.558V23.08C213.211 21.82 214.04 20.8283 215.043 20.105C216.046 19.3817 217.107 18.985 218.227 18.915C218.483 18.915 218.682 18.915 218.822 18.915C218.962 18.915 219.078 18.9267 219.172 18.95V23.22Z" fill="white"/>
<rect x="0.00195312" y="-0.00390625" width="49.9994" height="49.9994" fill="#94866E"/>
<mask id="mask0_652_279" style="mask-type:alpha" maskUnits="userSpaceOnUse" x="10" y="10" width="30" height="30">
<rect x="10.502" y="10.4961" width="28.9996" height="28.9996" fill="#D9D9D9"/>
</mask>
<g mask="url(#mask0_652_279)">
<path d="M33.4289 37.4413C33.2696 37.4413 33.1241 37.4111 32.9923 37.3507C32.8605 37.2903 32.7442 37.1997 32.6435 37.0789L25.6353 30.0404C25.5108 29.9411 25.4243 29.8286 25.3757 29.7027C25.3272 29.5768 25.303 29.4377 25.303 29.2852C25.303 29.1327 25.3272 28.9936 25.3757 28.8677C25.4243 28.7418 25.5108 28.6192 25.6353 28.4998L28.505 25.63C28.6043 25.5257 28.7168 25.4442 28.8427 25.3856C28.9686 25.327 29.1077 25.2977 29.2602 25.2977C29.4127 25.2977 29.5519 25.327 29.6777 25.3856C29.8036 25.4442 29.9262 25.5257 30.0456 25.63L37.0841 32.6685C37.1848 32.7692 37.2653 32.8857 37.3257 33.0179C37.3862 33.1501 37.4164 33.2961 37.4164 33.4559C37.4164 33.6157 37.3871 33.757 37.3285 33.8798C37.2699 34.0027 37.1884 34.1124 37.0841 34.2091L34.2143 37.1091C34.0949 37.2134 33.9723 37.2949 33.8464 37.3534C33.7206 37.412 33.5814 37.4413 33.4289 37.4413ZM33.4289 34.7831L34.7581 33.4539L29.2602 27.9258L27.9311 29.255L33.4289 34.7831ZM16.5427 37.4111C16.3815 37.4111 16.2341 37.386 16.1003 37.3356C15.9665 37.2853 15.8522 37.1997 15.7573 37.0789L12.9177 34.2393C12.7969 34.1444 12.7113 34.03 12.6609 33.8962C12.6106 33.7625 12.5854 33.615 12.5854 33.4539C12.5854 33.2928 12.6106 33.1508 12.6609 33.028C12.7113 32.9051 12.7969 32.7853 12.9177 32.6685L19.352 26.2342H22.2218L23.4301 25.0259L18.3551 19.9207H16.6333L12.3438 15.6614L15.6062 12.3989L19.8957 16.6583V18.3801L24.9707 23.4853L28.7769 19.6791L26.753 17.6551L28.2634 16.1447H25.2426L24.4874 15.4197L28.6258 11.2812L29.381 12.0062V15.027L30.8612 13.5468L36.1153 18.7707C36.4188 19.0944 36.6662 19.4618 36.8575 19.8732C37.0488 20.2845 37.1445 20.7233 37.1445 21.1895C37.1445 21.6455 37.0539 22.0868 36.8726 22.5133C36.6914 22.9397 36.4598 23.3242 36.1778 23.6665L33.6102 21.0988L31.9185 22.7905L30.3477 21.2197L23.7624 27.805V30.6446L17.3281 37.0789C17.2087 37.1997 17.086 37.2853 16.9602 37.3356C16.8343 37.386 16.6951 37.4111 16.5427 37.4111ZM16.5427 34.7831L22.0405 29.2852V27.956H20.7114L15.2135 33.4539L16.5427 34.7831ZM16.5427 34.7831L15.2135 33.4539L15.9093 34.0872L16.5427 34.7831Z" fill="white"/>
</g>
</svg>
