<svg width="164" height="50" viewBox="0 0 164 50" fill="none" xmlns="http://www.w3.org/2000/svg">
<path d="M42.5592 0H163.747V50H34L42.5592 0Z" fill="#9CEB5C"/>
<path d="M61.293 37.755C60.0773 37.755 58.9551 37.5217 57.9264 37.055C56.9211 36.565 56.0444 35.8883 55.2963 35.025C54.5715 34.1617 54.0104 33.17 53.613 32.05C53.2155 30.93 53.0168 29.74 53.0168 28.48C53.0168 27.15 53.2272 25.9133 53.648 24.77C54.0688 23.6267 54.6533 22.6233 55.4015 21.76C56.173 20.8733 57.0731 20.1967 58.1018 19.73C59.1538 19.24 60.3111 18.995 61.5736 18.995C62.9997 18.995 64.2505 19.3217 65.3259 19.975C66.4014 20.605 67.2898 21.4567 67.9911 22.53V19.31H72.0942V36.775C72.0942 38.595 71.65 40.1467 70.7616 41.43C69.8965 42.7367 68.6925 43.7283 67.1495 44.405C65.6065 45.105 63.853 45.455 61.8892 45.455C59.902 45.455 58.2186 45.1167 56.8393 44.44C55.4599 43.7867 54.2793 42.8533 53.2973 41.64L55.8574 39.155C56.5587 40.0183 57.4354 40.695 58.4875 41.185C59.563 41.675 60.6968 41.92 61.8892 41.92C62.8945 41.92 63.8063 41.7333 64.6245 41.36C65.4662 41.01 66.1325 40.45 66.6235 39.68C67.1378 38.9333 67.395 37.965 67.395 36.775V34.465C66.7871 35.515 65.9221 36.3317 64.7999 36.915C63.7011 37.475 62.5321 37.755 61.293 37.755ZM62.8711 34.01C63.3854 34.01 63.8764 33.9283 64.344 33.765C64.8116 33.6017 65.2441 33.38 65.6415 33.1C66.039 32.82 66.3897 32.4933 66.6936 32.12C66.9975 31.7233 67.2313 31.3267 67.395 30.93V26.555C67.1144 25.8317 66.717 25.2017 66.2026 24.665C65.7117 24.1283 65.1506 23.72 64.5193 23.44C63.9115 23.1367 63.2686 22.985 62.5906 22.985C61.8658 22.985 61.2112 23.1367 60.6267 23.44C60.0422 23.7433 59.5396 24.175 59.1187 24.735C58.6979 25.2717 58.3706 25.8783 58.1368 26.555C57.9264 27.2083 57.8212 27.8967 57.8212 28.62C57.8212 29.3667 57.9498 30.0667 58.207 30.72C58.4641 31.3733 58.8148 31.945 59.259 32.435C59.7266 32.925 60.2643 33.31 60.8722 33.59C61.5034 33.87 62.1697 34.01 62.8711 34.01Z" fill="white"/>
<path d="M76.1548 30.79V19.31H80.854V29.775C80.854 31.175 81.1112 32.2367 81.6255 32.96C82.1398 33.66 82.8997 34.01 83.905 34.01C84.5128 34.01 85.109 33.8933 85.6935 33.66C86.3013 33.4033 86.8507 33.03 87.3417 32.54C87.856 32.05 88.2886 31.4317 88.6393 30.685V19.31H93.3385V32.4C93.3385 32.89 93.4203 33.24 93.5839 33.45C93.771 33.66 94.0632 33.7883 94.4607 33.835V37.65C93.9931 37.72 93.5956 37.7667 93.2683 37.79C92.9644 37.8367 92.6838 37.86 92.4267 37.86C91.585 37.86 90.8953 37.6733 90.3576 37.3C89.8433 36.9033 89.5393 36.3667 89.4458 35.69L89.3406 34.22C88.5224 35.4567 87.4703 36.4017 86.1844 37.055C84.8986 37.685 83.4841 38 81.9411 38C80.0474 38 78.6096 37.3933 77.6277 36.18C76.6457 34.9433 76.1548 33.1467 76.1548 30.79Z" fill="white"/>
<path d="M106.53 38C105.057 38 103.725 37.755 102.532 37.265C101.34 36.7517 100.323 36.0633 99.4813 35.2C98.6396 34.3133 97.985 33.31 97.5174 32.19C97.0732 31.0467 96.8511 29.845 96.8511 28.585C96.8511 26.835 97.2369 25.2367 98.0084 23.79C98.8033 22.3433 99.9255 21.1883 101.375 20.325C102.848 19.4383 104.578 18.995 106.565 18.995C108.576 18.995 110.294 19.4383 111.72 20.325C113.146 21.1883 114.234 22.3433 114.982 23.79C115.753 25.2133 116.139 26.7533 116.139 28.41C116.139 28.69 116.127 28.9817 116.104 29.285C116.08 29.565 116.057 29.7983 116.034 29.985H101.831C101.924 30.9183 102.193 31.735 102.637 32.435C103.105 33.135 103.69 33.6717 104.391 34.045C105.116 34.395 105.887 34.57 106.705 34.57C107.641 34.57 108.517 34.3483 109.336 33.905C110.177 33.4383 110.75 32.8317 111.054 32.085L115.087 33.205C114.643 34.1383 114 34.9667 113.158 35.69C112.34 36.4133 111.37 36.985 110.247 37.405C109.125 37.8017 107.886 38 106.53 38ZM101.726 27.01H111.334C111.241 26.0767 110.972 25.2717 110.528 24.595C110.107 23.895 109.546 23.3583 108.845 22.985C108.143 22.5883 107.36 22.39 106.495 22.39C105.653 22.39 104.882 22.5883 104.18 22.985C103.502 23.3583 102.941 23.895 102.497 24.595C102.076 25.2717 101.819 26.0767 101.726 27.01Z" fill="white"/>
<path d="M125.77 38C124.204 38 122.707 37.7433 121.281 37.23C119.855 36.7167 118.628 35.9583 117.599 34.955L119.282 31.91C120.381 32.7967 121.456 33.45 122.509 33.87C123.584 34.29 124.613 34.5 125.595 34.5C126.506 34.5 127.231 34.3367 127.769 34.01C128.33 33.6833 128.611 33.1933 128.611 32.54C128.611 32.0967 128.459 31.7583 128.155 31.525C127.851 31.2683 127.406 31.0467 126.822 30.86C126.261 30.6733 125.571 30.4633 124.753 30.23C123.397 29.7867 122.263 29.355 121.351 28.935C120.439 28.515 119.75 27.99 119.282 27.36C118.838 26.7067 118.616 25.8783 118.616 24.875C118.616 23.6617 118.92 22.6233 119.528 21.76C120.159 20.8733 121.024 20.185 122.123 19.695C123.245 19.205 124.554 18.96 126.05 18.96C127.36 18.96 128.599 19.17 129.768 19.59C130.937 19.9867 132.001 20.64 132.959 21.55L131.065 24.525C130.13 23.8017 129.242 23.2767 128.4 22.95C127.558 22.6 126.705 22.425 125.84 22.425C125.349 22.425 124.882 22.4833 124.437 22.6C124.017 22.7167 123.666 22.915 123.385 23.195C123.128 23.4517 123 23.825 123 24.315C123 24.7583 123.116 25.1083 123.35 25.365C123.607 25.5983 123.981 25.8083 124.472 25.995C124.987 26.1817 125.606 26.3917 126.331 26.625C127.804 27.045 129.043 27.4767 130.048 27.92C131.077 28.3633 131.849 28.9117 132.363 29.565C132.877 30.195 133.134 31.07 133.134 32.19C133.134 34.01 132.468 35.4333 131.135 36.46C129.803 37.4867 128.014 38 125.77 38Z" fill="white"/>
<path d="M147.239 36.705C146.842 36.8683 146.363 37.055 145.802 37.265C145.241 37.475 144.633 37.6383 143.978 37.755C143.347 37.895 142.704 37.965 142.049 37.965C141.184 37.965 140.389 37.8133 139.665 37.51C138.94 37.2067 138.355 36.7283 137.911 36.075C137.49 35.3983 137.28 34.5233 137.28 33.45V22.915H134.86V19.31H137.28V13.36H141.979V19.31H145.837V22.915H141.979V31.875C142.002 32.505 142.178 32.96 142.505 33.24C142.832 33.52 143.242 33.66 143.733 33.66C144.224 33.66 144.703 33.5783 145.17 33.415C145.638 33.2517 146.012 33.1117 146.293 32.995L147.239 36.705Z" fill="white"/>
<rect x="0.00195312" y="-0.00488281" width="49.9994" height="49.9994" fill="#9CEB5C"/>
<mask id="mask0_652_281" style="mask-type:alpha" maskUnits="userSpaceOnUse" x="10" y="10" width="30" height="30">
<rect x="10.502" y="10.4951" width="28.9996" height="28.9996" fill="#D9D9D9"/>
</mask>
<g mask="url(#mask0_652_281)">
<path d="M17.0252 31.6712C18.3141 30.7649 19.6034 30.0752 20.8932 29.6019C22.183 29.1287 23.5524 28.8921 25.0015 28.8921C26.4505 28.8921 27.8195 29.1287 29.1084 29.6019C30.3973 30.0752 31.7063 30.7649 33.0354 31.6712C33.9014 30.5434 34.5055 29.4459 34.8479 28.3785C35.1903 27.3112 35.3614 26.1834 35.3614 24.9952C35.3614 22.055 34.3696 19.593 32.386 17.6094C30.4023 15.6257 27.9404 14.6339 25.0001 14.6339C22.0599 14.6339 19.5979 15.6257 17.6143 17.6094C15.6306 19.593 14.6388 22.055 14.6388 24.9952C14.6388 26.1834 14.815 27.3112 15.1674 28.3785C15.5198 29.4459 16.1391 30.5434 17.0252 31.6712ZM24.9957 26.264C23.7299 26.264 22.664 25.8295 21.7981 24.9606C20.9321 24.0917 20.4991 23.0244 20.4991 21.7586C20.4991 20.4928 20.9336 19.4269 21.8025 18.5609C22.6714 17.695 23.7387 17.262 25.0045 17.262C26.2703 17.262 27.3362 17.6964 28.2022 18.5653C29.0681 19.4342 29.5011 20.5016 29.5011 21.7674C29.5011 23.0332 29.0666 24.0991 28.1977 24.965C27.3289 25.831 26.2615 26.264 24.9957 26.264ZM25.0142 37.5617C23.293 37.5617 21.6718 37.2318 20.1507 36.572C18.6295 35.9122 17.2953 35.006 16.1481 33.8533C15.0009 32.7006 14.095 31.3664 13.4305 29.8507C12.7659 28.3349 12.4336 26.7087 12.4336 24.9721C12.4336 23.2757 12.768 21.6682 13.4368 20.1495C14.1056 18.6307 15.0115 17.2942 16.1545 16.1398C17.2974 14.9853 18.6271 14.0782 20.1436 13.4184C21.6601 12.7586 23.2866 12.4287 25.0232 12.4287C26.7196 12.4287 28.3271 12.7631 29.8459 13.4319C31.3646 14.1008 32.6988 15.007 33.8484 16.1507C34.9981 17.2943 35.9052 18.6259 36.5698 20.1454C37.2343 21.6649 37.5666 23.2768 37.5666 24.9811C37.5666 26.7023 37.2367 28.3235 36.5769 29.8447C35.9171 31.3659 35.01 32.6979 33.8556 33.8409C32.7012 34.9838 31.3651 35.8897 29.8473 36.5585C28.3296 37.2273 26.7186 37.5617 25.0142 37.5617ZM25.0001 35.3566C26.0675 35.3566 27.1197 35.2055 28.1568 34.9034C29.194 34.6014 30.2362 34.0476 31.2834 33.242C30.2445 32.5378 29.1943 32.0043 28.1329 31.6415C27.0714 31.2787 26.0272 31.0972 25.0001 31.0972C23.973 31.0972 22.9309 31.2785 21.8736 31.641C20.8163 32.0035 19.7741 32.5402 18.7471 33.2512C19.7741 34.0427 20.8062 34.5915 21.8434 34.8975C22.8805 35.2035 23.9328 35.3566 25.0001 35.3566ZM25.0001 24.0588C25.6647 24.0588 26.2135 23.8423 26.6464 23.4093C27.0794 22.9763 27.2959 22.4275 27.2959 21.763C27.2959 21.0984 27.0794 20.5496 26.6464 20.1166C26.2135 19.6837 25.6647 19.4672 25.0001 19.4672C24.3355 19.4672 23.7868 19.6837 23.3538 20.1166C22.9208 20.5496 22.7043 21.0984 22.7043 21.763C22.7043 22.4275 22.9208 22.9763 23.3538 23.4093C23.7868 23.8423 24.3355 24.0588 25.0001 24.0588Z" fill="white"/>
</g>
</svg>
