<svg width="241" height="50" viewBox="0 0 241 50" fill="none" xmlns="http://www.w3.org/2000/svg">
<path d="M7.06366 8.32875C7.87888 3.51941 12.0451 0 16.923 0H231C236.523 0 241 4.47715 241 10V50H0L7.06366 8.32875Z" fill="#52C3B7"/>
<path d="M25.6853 37.85C24.1904 37.85 22.8474 37.605 21.6562 37.115C20.4649 36.6017 19.4489 35.9017 18.608 35.015C17.7672 34.105 17.1132 33.0783 16.646 31.935C16.2022 30.7917 15.9803 29.59 15.9803 28.33C15.9803 26.6033 16.3657 25.0283 17.1365 23.605C17.9307 22.1583 19.0518 21.0033 20.5 20.14C21.9481 19.2767 23.6649 18.845 25.6503 18.845C27.6356 18.845 29.3407 19.2767 30.7655 20.14C32.1903 21.0033 33.253 22.135 33.9538 23.535L29.3641 24.935C28.967 24.2583 28.4414 23.745 27.7874 23.395C27.1334 23.0217 26.4094 22.835 25.6152 22.835C24.7276 22.835 23.9101 23.0683 23.1627 23.535C22.4386 23.9783 21.8664 24.62 21.4459 25.46C21.0255 26.2767 20.8153 27.2333 20.8153 28.33C20.8153 29.4033 21.0255 30.36 21.4459 31.2C21.8897 32.0167 22.4737 32.67 23.1977 33.16C23.9218 33.6267 24.7276 33.86 25.6152 33.86C26.1758 33.86 26.7013 33.7667 27.1918 33.58C27.7057 33.3933 28.1612 33.1367 28.5582 32.81C28.9553 32.4833 29.2473 32.11 29.4341 31.69L34.0238 33.09C33.6034 34 32.9844 34.8167 32.1669 35.54C31.3728 36.2633 30.4268 36.835 29.329 37.255C28.2546 37.6517 27.04 37.85 25.6853 37.85Z" fill="white"/>
<path d="M45.2203 37.85C43.7254 37.85 42.3824 37.605 41.1911 37.115C39.9999 36.6017 38.9839 35.9017 38.143 35.015C37.3255 34.1283 36.6949 33.1133 36.2511 31.97C35.8073 30.8267 35.5854 29.625 35.5854 28.365C35.5854 27.0817 35.8073 25.8683 36.2511 24.725C36.6949 23.5817 37.3255 22.5667 38.143 21.68C38.9839 20.7933 39.9999 20.105 41.1911 19.615C42.3824 19.1017 43.7254 18.845 45.2203 18.845C46.7151 18.845 48.0465 19.1017 49.2144 19.615C50.4056 20.105 51.4216 20.7933 52.2625 21.68C53.1034 22.5667 53.734 23.5817 54.1544 24.725C54.5982 25.8683 54.8201 27.0817 54.8201 28.365C54.8201 29.625 54.5982 30.8267 54.1544 31.97C53.734 33.1133 53.1034 34.1283 52.2625 35.015C51.445 35.9017 50.4406 36.6017 49.2494 37.115C48.0582 37.605 46.7151 37.85 45.2203 37.85ZM40.4204 28.365C40.4204 29.4383 40.6306 30.395 41.051 31.235C41.4714 32.0517 42.0437 32.6933 42.7678 33.16C43.4918 33.6267 44.3093 33.86 45.2203 33.86C46.1078 33.86 46.9137 33.6267 47.6378 33.16C48.3618 32.67 48.9341 32.0167 49.3545 31.2C49.7983 30.36 50.0202 29.4033 50.0202 28.33C50.0202 27.28 49.7983 26.335 49.3545 25.495C48.9341 24.655 48.3618 24.0017 47.6378 23.535C46.9137 23.0683 46.1078 22.835 45.2203 22.835C44.3093 22.835 43.4918 23.08 42.7678 23.57C42.0437 24.0367 41.4714 24.69 41.051 25.53C40.6306 26.3467 40.4204 27.2917 40.4204 28.365Z" fill="white"/>
<path d="M86.5082 37.5H81.8134V27.21C81.8134 25.7633 81.5564 24.7017 81.0426 24.025C80.5521 23.325 79.863 22.975 78.9755 22.975C78.0645 22.975 77.1886 23.3367 76.3478 24.06C75.5303 24.76 74.9463 25.6817 74.596 26.825V37.5H69.9012V27.21C69.9012 25.74 69.6442 24.6667 69.1304 23.99C68.6399 23.3133 67.9508 22.975 67.0633 22.975C66.1523 22.975 65.2764 23.325 64.4356 24.025C63.6181 24.725 63.0341 25.6467 62.6838 26.79V37.5H57.9889V19.16H62.2283V22.555C62.929 21.365 63.8633 20.455 65.0312 19.825C66.199 19.1717 67.5421 18.845 69.0603 18.845C70.5785 18.845 71.7581 19.2183 72.5989 19.965C73.4631 20.7117 74.012 21.6333 74.2456 22.73C74.993 21.47 75.939 20.5133 77.0835 19.86C78.2514 19.1833 79.5594 18.845 81.0076 18.845C82.1521 18.845 83.0747 19.055 83.7754 19.475C84.4995 19.8717 85.06 20.42 85.4571 21.12C85.8542 21.7967 86.1228 22.5667 86.2629 23.43C86.4264 24.2933 86.5082 25.1683 86.5082 26.055V37.5Z" fill="white"/>
<path d="M101.597 37.85C100.172 37.85 98.9108 37.535 97.813 36.905C96.7386 36.2517 95.8977 35.3767 95.2904 34.28V44.955H90.5956V19.16H94.6948V22.31C95.3955 21.2367 96.2831 20.3967 97.3576 19.79C98.432 19.16 99.6582 18.845 101.036 18.845C102.274 18.845 103.407 19.09 104.435 19.58C105.486 20.07 106.397 20.7583 107.168 21.645C107.938 22.5083 108.534 23.5117 108.954 24.655C109.398 25.775 109.62 26.9883 109.62 28.295C109.62 30.0683 109.27 31.6783 108.569 33.125C107.892 34.5717 106.946 35.7267 105.731 36.59C104.54 37.43 103.162 37.85 101.597 37.85ZM100.02 33.86C100.744 33.86 101.398 33.7083 101.982 33.405C102.566 33.1017 103.068 32.6933 103.489 32.18C103.933 31.6433 104.26 31.0483 104.47 30.395C104.703 29.7183 104.82 29.0183 104.82 28.295C104.82 27.525 104.692 26.8133 104.435 26.16C104.201 25.5067 103.851 24.935 103.384 24.445C102.917 23.9317 102.368 23.535 101.737 23.255C101.13 22.975 100.464 22.835 99.74 22.835C99.2962 22.835 98.8407 22.9167 98.3736 23.08C97.9298 23.22 97.4977 23.43 97.0773 23.71C96.6568 23.99 96.2831 24.3167 95.9561 24.69C95.6525 25.0633 95.4306 25.4717 95.2904 25.915V30.22C95.5707 30.8967 95.9444 31.515 96.4116 32.075C96.9021 32.635 97.4627 33.0783 98.0933 33.405C98.724 33.7083 99.3663 33.86 100.02 33.86Z" fill="white"/>
<path d="M121.315 37.85C119.843 37.85 118.512 37.605 117.321 37.115C116.129 36.6017 115.113 35.9133 114.273 35.05C113.432 34.1633 112.778 33.16 112.311 32.04C111.867 30.8967 111.645 29.695 111.645 28.435C111.645 26.685 112.03 25.0867 112.801 23.64C113.595 22.1933 114.716 21.0383 116.164 20.175C117.636 19.2883 119.364 18.845 121.35 18.845C123.358 18.845 125.075 19.2883 126.5 20.175C127.925 21.0383 129.011 22.1933 129.758 23.64C130.529 25.0633 130.915 26.6033 130.915 28.26C130.915 28.54 130.903 28.8317 130.88 29.135C130.856 29.415 130.833 29.6483 130.809 29.835H116.62C116.713 30.7683 116.982 31.585 117.426 32.285C117.893 32.985 118.477 33.5217 119.178 33.895C119.902 34.245 120.672 34.42 121.49 34.42C122.424 34.42 123.3 34.1983 124.118 33.755C124.958 33.2883 125.531 32.6817 125.834 31.935L129.863 33.055C129.42 33.9883 128.777 34.8167 127.937 35.54C127.119 36.2633 126.15 36.835 125.029 37.255C123.907 37.6517 122.669 37.85 121.315 37.85ZM116.515 26.86H126.115C126.021 25.9267 125.753 25.1217 125.309 24.445C124.888 23.745 124.328 23.2083 123.627 22.835C122.926 22.4383 122.144 22.24 121.28 22.24C120.439 22.24 119.668 22.4383 118.967 22.835C118.29 23.2083 117.729 23.745 117.286 24.445C116.865 25.1217 116.608 25.9267 116.515 26.86Z" fill="white"/>
<path d="M144.605 36.555C144.208 36.7183 143.729 36.905 143.168 37.115C142.608 37.325 142.001 37.4883 141.347 37.605C140.716 37.745 140.074 37.815 139.42 37.815C138.555 37.815 137.761 37.6633 137.037 37.36C136.313 37.0567 135.729 36.5783 135.285 35.925C134.865 35.2483 134.655 34.3733 134.655 33.3V22.765H132.237V19.16H134.655V13.21H139.349V19.16H143.203V22.765H139.349V31.725C139.373 32.355 139.548 32.81 139.875 33.09C140.202 33.37 140.611 33.51 141.101 33.51C141.592 33.51 142.071 33.4283 142.538 33.265C143.005 33.1017 143.379 32.9617 143.659 32.845L144.605 36.555Z" fill="white"/>
<path d="M155.358 37.85C153.887 37.85 152.556 37.605 151.364 37.115C150.173 36.6017 149.157 35.9133 148.316 35.05C147.475 34.1633 146.821 33.16 146.354 32.04C145.91 30.8967 145.689 29.695 145.689 28.435C145.689 26.685 146.074 25.0867 146.845 23.64C147.639 22.1933 148.76 21.0383 150.208 20.175C151.68 19.2883 153.408 18.845 155.393 18.845C157.402 18.845 159.119 19.2883 160.544 20.175C161.969 21.0383 163.055 22.1933 163.802 23.64C164.573 25.0633 164.958 26.6033 164.958 28.26C164.958 28.54 164.947 28.8317 164.923 29.135C164.9 29.415 164.877 29.6483 164.853 29.835H150.664C150.757 30.7683 151.026 31.585 151.469 32.285C151.937 32.985 152.521 33.5217 153.221 33.895C153.945 34.245 154.716 34.42 155.534 34.42C156.468 34.42 157.344 34.1983 158.161 33.755C159.002 33.2883 159.574 32.6817 159.878 31.935L163.907 33.055C163.463 33.9883 162.821 34.8167 161.98 35.54C161.163 36.2633 160.193 36.835 159.072 37.255C157.951 37.6517 156.713 37.85 155.358 37.85ZM150.559 26.86H160.158C160.065 25.9267 159.796 25.1217 159.353 24.445C158.932 23.745 158.372 23.2083 157.671 22.835C156.97 22.4383 156.188 22.24 155.323 22.24C154.483 22.24 153.712 22.4383 153.011 22.835C152.334 23.2083 151.773 23.745 151.329 24.445C150.909 25.1217 150.652 25.9267 150.559 26.86Z" fill="white"/>
<path d="M184.881 37.5H180.186V27.21C180.186 25.74 179.929 24.6667 179.415 23.99C178.901 23.3133 178.189 22.975 177.278 22.975C176.647 22.975 176.005 23.1383 175.351 23.465C174.72 23.7917 174.148 24.2467 173.634 24.83C173.12 25.39 172.747 26.0433 172.513 26.79V37.5H167.818V19.16H172.058V22.555C172.525 21.7617 173.12 21.0967 173.845 20.56C174.569 20 175.398 19.58 176.332 19.3C177.29 18.9967 178.294 18.845 179.345 18.845C180.49 18.845 181.424 19.055 182.148 19.475C182.895 19.8717 183.456 20.42 183.83 21.12C184.227 21.7967 184.495 22.5667 184.636 23.43C184.799 24.2933 184.881 25.1683 184.881 26.055V37.5Z" fill="white"/>
<path d="M197.512 37.85C196.017 37.85 194.674 37.605 193.483 37.115C192.291 36.6017 191.275 35.9017 190.435 35.015C189.594 34.105 188.94 33.0783 188.473 31.935C188.029 30.7917 187.807 29.59 187.807 28.33C187.807 26.6033 188.192 25.0283 188.963 23.605C189.757 22.1583 190.878 21.0033 192.327 20.14C193.775 19.2767 195.491 18.845 197.477 18.845C199.462 18.845 201.167 19.2767 202.592 20.14C204.017 21.0033 205.08 22.135 205.78 23.535L201.191 24.935C200.794 24.2583 200.268 23.745 199.614 23.395C198.96 23.0217 198.236 22.835 197.442 22.835C196.554 22.835 195.737 23.0683 194.989 23.535C194.265 23.9783 193.693 24.62 193.272 25.46C192.852 26.2767 192.642 27.2333 192.642 28.33C192.642 29.4033 192.852 30.36 193.272 31.2C193.716 32.0167 194.3 32.67 195.024 33.16C195.748 33.6267 196.554 33.86 197.442 33.86C198.002 33.86 198.528 33.7667 199.018 33.58C199.532 33.3933 199.988 33.1367 200.385 32.81C200.782 32.4833 201.074 32.11 201.261 31.69L205.85 33.09C205.43 34 204.811 34.8167 203.993 35.54C203.199 36.2633 202.253 36.835 201.156 37.255C200.081 37.6517 198.867 37.85 197.512 37.85Z" fill="white"/>
<path d="M208.782 41.07C209.203 41.1633 209.588 41.245 209.939 41.315C210.312 41.385 210.628 41.42 210.885 41.42C211.328 41.42 211.69 41.3033 211.971 41.07C212.274 40.86 212.566 40.4633 212.847 39.88C213.127 39.32 213.419 38.5267 213.723 37.5L206.47 19.16H211.34L216.28 32.705L220.625 19.16H225.109L217.401 41.14C217.121 41.9567 216.689 42.6917 216.105 43.345C215.544 44.0217 214.832 44.5467 213.968 44.92C213.127 45.3167 212.181 45.515 211.13 45.515C210.756 45.515 210.382 45.48 210.009 45.41C209.635 45.3633 209.226 45.27 208.782 45.13V41.07Z" fill="white"/>
</svg>
