<svg width="235" height="50" viewBox="0 0 235 50" fill="none" xmlns="http://www.w3.org/2000/svg">
<path d="M7.27759 8.28149C8.11275 3.49396 12.269 0 17.1288 0H224.848C230.371 0 234.848 4.47715 234.848 10V50H0L7.27759 8.28149Z" fill="#5F81D7"/>
<path d="M28.9015 38.0911C27.4855 38.0911 26.2319 37.7777 25.1408 37.1508C24.0729 36.5007 23.2372 35.63 22.6336 34.5387V45.1611H17.9675V19.4932H22.0416V22.6277C22.7381 21.5596 23.6202 20.7238 24.6881 20.1201C25.756 19.4932 26.9747 19.1797 28.3444 19.1797C29.5748 19.1797 30.7007 19.4235 31.7221 19.9111C32.7668 20.3987 33.6721 21.0836 34.4382 21.9659C35.2043 22.825 35.7963 23.8234 36.2141 24.9611C36.6552 26.0756 36.8758 27.283 36.8758 28.5832C36.8758 30.3478 36.5275 31.9498 35.8311 33.3894C35.1579 34.8289 34.2177 35.9782 33.0105 36.8373C31.8266 37.6732 30.4569 38.0911 28.9015 38.0911ZM27.3346 34.1208C28.0542 34.1208 28.7042 33.9698 29.2846 33.668C29.865 33.3662 30.3641 32.9598 30.7819 32.449C31.223 31.915 31.548 31.323 31.7569 30.6728C31.9891 29.9995 32.1052 29.303 32.1052 28.5832C32.1052 27.817 31.9775 27.1088 31.7221 26.4587C31.49 25.8086 31.1418 25.2397 30.6775 24.7522C30.2132 24.2413 29.6676 23.8466 29.0408 23.568C28.4373 23.2894 27.7756 23.1501 27.056 23.1501C26.6149 23.1501 26.1622 23.2313 25.6979 23.3939C25.2569 23.5332 24.8274 23.7421 24.4095 24.0208C23.9917 24.2994 23.6202 24.6244 23.2952 24.9959C22.9934 25.3674 22.7729 25.7738 22.6336 26.2149V30.4987C22.9122 31.172 23.2836 31.7873 23.7479 32.3446C24.2354 32.9018 24.7926 33.3429 25.4194 33.668C26.0462 33.9698 26.6846 34.1208 27.3346 34.1208Z" fill="white"/>
<path d="M50.9016 23.5332C49.4855 23.5332 48.2203 23.8118 47.106 24.369C45.9917 24.9031 45.1908 25.6809 44.7033 26.7025V37.7428H40.0372V19.4932H44.3203V23.3939C44.9703 22.1401 45.7944 21.1533 46.7926 20.4335C47.7909 19.7138 48.8471 19.319 49.9614 19.2494C50.2168 19.2494 50.4141 19.2494 50.5534 19.2494C50.6927 19.2494 50.8088 19.261 50.9016 19.2842V23.5332Z" fill="white"/>
<path d="M61.6923 38.0911C60.2066 38.0911 58.8717 37.8473 57.6878 37.3597C56.5038 36.8489 55.494 36.1524 54.6583 35.2701C53.8458 34.3878 53.219 33.3778 52.7779 32.2401C52.3368 31.1024 52.1163 29.9066 52.1163 28.6528C52.1163 27.3758 52.3368 26.1685 52.7779 25.0308C53.219 23.8931 53.8458 22.8831 54.6583 22.0008C55.494 21.1185 56.5038 20.4335 57.6878 19.9459C58.8717 19.4351 60.2066 19.1797 61.6923 19.1797C63.178 19.1797 64.5013 19.4351 65.662 19.9459C66.8459 20.4335 67.8558 21.1185 68.6915 22.0008C69.5272 22.8831 70.154 23.8931 70.5719 25.0308C71.0129 26.1685 71.2335 27.3758 71.2335 28.6528C71.2335 29.9066 71.0129 31.1024 70.5719 32.2401C70.154 33.3778 69.5272 34.3878 68.6915 35.2701C67.879 36.1524 66.8808 36.8489 65.6968 37.3597C64.5129 37.8473 63.178 38.0911 61.6923 38.0911ZM56.9217 28.6528C56.9217 29.7209 57.1306 30.6728 57.5485 31.5087C57.9664 32.3213 58.5351 32.9599 59.2548 33.4242C59.9744 33.8886 60.7869 34.1208 61.6923 34.1208C62.5745 34.1208 63.3754 33.8886 64.095 33.4242C64.8147 32.9366 65.3834 32.2865 65.8013 31.4739C66.2424 30.638 66.4629 29.6861 66.4629 28.618C66.4629 27.5732 66.2424 26.6328 65.8013 25.797C65.3834 24.9611 64.8147 24.311 64.095 23.8466C63.3754 23.3823 62.5745 23.1501 61.6923 23.1501C60.7869 23.1501 59.9744 23.3939 59.2548 23.8815C58.5351 24.3458 57.9664 24.9959 57.5485 25.8318C57.1306 26.6444 56.9217 27.5848 56.9217 28.6528Z" fill="white"/>
<path d="M73.2687 28.618C73.2687 26.8534 73.6169 25.263 74.3133 23.8466C75.0098 22.4071 75.9732 21.2694 77.2035 20.4335C78.4339 19.5977 79.8384 19.1797 81.417 19.1797C82.7634 19.1797 83.9706 19.5164 85.0384 20.1897C86.1295 20.8399 86.9769 21.6757 87.5804 22.6973V12.3187H92.2466V32.5187C92.2466 33.0063 92.3278 33.3546 92.4903 33.5635C92.6528 33.7725 92.9314 33.9002 93.326 33.9466V37.7428C92.5135 37.9054 91.8519 37.9866 91.3412 37.9866C90.5055 37.9866 89.809 37.7777 89.2519 37.3597C88.7179 36.9418 88.4162 36.3962 88.3465 35.7228L88.2769 34.5735C87.6037 35.7112 86.6867 36.5819 85.5259 37.1856C84.3884 37.7893 83.1929 38.0911 81.9393 38.0911C80.6857 38.0911 79.525 37.8473 78.4571 37.3597C77.4125 36.8721 76.4955 36.1988 75.7062 35.3397C74.9401 34.4807 74.3365 33.4823 73.8955 32.3446C73.4776 31.1836 73.2687 29.9415 73.2687 28.618ZM87.5804 31.0559V26.7025C87.3483 26.0292 86.9769 25.4255 86.4661 24.8915C85.9554 24.3574 85.3867 23.9395 84.7599 23.6377C84.1331 23.3126 83.5063 23.1501 82.8795 23.1501C82.1598 23.1501 81.5098 23.301 80.9295 23.6028C80.3491 23.9047 79.8384 24.311 79.3973 24.8218C78.9794 25.3326 78.6544 25.9247 78.4223 26.598C78.2134 27.2713 78.1089 27.9795 78.1089 28.7225C78.1089 29.4655 78.225 30.1736 78.4571 30.847C78.7125 31.4971 79.0723 32.0659 79.5366 32.5535C80.0009 33.0411 80.5348 33.4242 81.1384 33.7028C81.7652 33.9815 82.4384 34.1208 83.1581 34.1208C83.5991 34.1208 84.0402 34.0511 84.4813 33.9118C84.9456 33.7493 85.3751 33.5403 85.7697 33.2849C86.1876 33.0063 86.5474 32.6812 86.8492 32.3097C87.1742 31.915 87.4179 31.4971 87.5804 31.0559Z" fill="white"/>
<path d="M96.6526 30.9166V19.4932H101.319V29.9066C101.319 31.2997 101.574 32.3562 102.085 33.0759C102.596 33.7725 103.35 34.1208 104.348 34.1208C104.952 34.1208 105.544 34.0047 106.124 33.7725C106.728 33.5171 107.273 33.1456 107.761 32.658C108.272 32.1704 108.701 31.5551 109.049 30.8122V19.4932H113.715V32.5187C113.715 33.0063 113.797 33.3546 113.959 33.5635C114.145 33.7725 114.435 33.9002 114.83 33.9466V37.7428C114.365 37.8125 113.971 37.8589 113.646 37.8821C113.344 37.9286 113.065 37.9518 112.81 37.9518C111.974 37.9518 111.289 37.7661 110.755 37.3946C110.245 36.9999 109.943 36.4658 109.85 35.7925L109.746 34.3297C108.933 35.5603 107.888 36.5007 106.612 37.1508C105.335 37.7777 103.93 38.0911 102.398 38.0911C100.518 38.0911 99.0901 37.4874 98.1151 36.2801C97.1401 35.0495 96.6526 33.2617 96.6526 30.9166Z" fill="white"/>
<path d="M126.849 38.0911C125.363 38.0911 124.028 37.8473 122.844 37.3597C121.66 36.8489 120.651 36.1524 119.815 35.2701C118.979 34.3646 118.329 33.343 117.865 32.2053C117.424 31.0676 117.203 29.8718 117.203 28.618C117.203 26.8999 117.586 25.3326 118.352 23.9163C119.142 22.4767 120.256 21.3274 121.695 20.4684C123.135 19.6093 124.841 19.1797 126.814 19.1797C128.787 19.1797 130.482 19.6093 131.898 20.4684C133.314 21.3274 134.37 22.4535 135.067 23.8466L130.505 25.2397C130.111 24.5664 129.588 24.0556 128.938 23.7073C128.288 23.3358 127.569 23.1501 126.779 23.1501C125.897 23.1501 125.085 23.3823 124.342 23.8466C123.622 24.2878 123.053 24.9263 122.635 25.7621C122.218 26.5748 122.009 27.5267 122.009 28.618C122.009 29.6861 122.218 30.638 122.635 31.4739C123.077 32.2865 123.657 32.9366 124.377 33.4242C125.096 33.8886 125.897 34.1208 126.779 34.1208C127.336 34.1208 127.859 34.0279 128.346 33.8421C128.857 33.6564 129.31 33.401 129.704 33.0759C130.099 32.7509 130.389 32.3794 130.575 31.9615L135.136 33.3546C134.719 34.2601 134.103 35.0727 133.291 35.7925C132.502 36.5123 131.561 37.0811 130.47 37.499C129.402 37.8938 128.195 38.0911 126.849 38.0911Z" fill="white"/>
<path d="M148.942 36.8025C148.547 36.965 148.071 37.1508 147.514 37.3597C146.957 37.5687 146.353 37.7312 145.703 37.8473C145.076 37.9866 144.438 38.0563 143.788 38.0563C142.929 38.0563 142.14 37.9054 141.42 37.6035C140.701 37.3017 140.12 36.8257 139.679 36.1756C139.261 35.5023 139.052 34.6316 139.052 33.5635V23.0804H136.65V19.4932H139.052V13.5725H143.718V19.4932H147.549V23.0804H143.718V31.9963C143.742 32.6232 143.916 33.0759 144.241 33.3546C144.566 33.6332 144.972 33.7725 145.46 33.7725C145.947 33.7725 146.423 33.6912 146.887 33.5287C147.352 33.3662 147.723 33.2269 148.002 33.1108L148.942 36.8025Z" fill="white"/>
<path d="M151.372 37.7428V19.4932H156.038V37.7428H151.372ZM151.372 16.9508V12.3187H156.038V16.9508H151.372Z" fill="white"/>
<path d="M165.157 37.7428L158.437 19.4932H163.277L167.873 33.4939L172.505 19.4932H176.927L170.241 37.7428H165.157Z" fill="white"/>
<path d="M179.393 37.7428V19.4932H184.059V37.7428H179.393ZM179.393 16.9508V12.3187H184.059V16.9508H179.393Z" fill="white"/>
<path d="M199.202 36.8025C198.807 36.965 198.332 37.1508 197.774 37.3597C197.217 37.5687 196.614 37.7312 195.964 37.8473C195.337 37.9866 194.699 38.0563 194.048 38.0563C193.19 38.0563 192.4 37.9054 191.681 37.6035C190.961 37.3017 190.381 36.8257 189.94 36.1756C189.522 35.5023 189.313 34.6316 189.313 33.5635V23.0804H186.91V19.4932H189.313V13.5725H193.979V19.4932H197.809V23.0804H193.979V31.9963C194.002 32.6232 194.176 33.0759 194.501 33.3546C194.826 33.6332 195.232 33.7725 195.72 33.7725C196.207 33.7725 196.683 33.6912 197.148 33.5287C197.612 33.3662 197.983 33.2269 198.262 33.1108L199.202 36.8025Z" fill="white"/>
<path d="M201.947 41.2952C202.365 41.3881 202.748 41.4694 203.096 41.539C203.468 41.6087 203.781 41.6435 204.037 41.6435C204.478 41.6435 204.838 41.5274 205.116 41.2952C205.418 41.0863 205.708 40.6916 205.987 40.1111C206.265 39.5539 206.555 38.7644 206.857 37.7428L199.649 19.4932H204.489L209.399 32.9715L213.717 19.4932H218.174L210.514 41.3649C210.235 42.1776 209.805 42.9089 209.225 43.559C208.668 44.2324 207.96 44.7548 207.101 45.1263C206.265 45.521 205.325 45.7183 204.28 45.7183C203.909 45.7183 203.538 45.6835 203.166 45.6139C202.795 45.5674 202.388 45.4746 201.947 45.3353V41.2952Z" fill="white"/>
</svg>
