<svg width="230" height="50" viewBox="0 0 230 50" fill="none" xmlns="http://www.w3.org/2000/svg">
<path d="M41.4798 0H229.835V50H33L41.4798 0Z" fill="#FBE020"/>
<path d="M77.9432 19.16H82.3907L74.7214 37.5H70.7992L67.7175 29.625L64.7058 37.5H60.7486L53.1143 19.16H57.5268L62.9898 33.02L65.126 27.035L61.9392 19.195H65.8264L67.7175 24.795L69.6436 19.195H73.5308L70.344 27.035L72.5152 33.02L77.9432 19.16Z" fill="white"/>
<path d="M92.4165 37.85C90.9223 37.85 89.5799 37.605 88.3892 37.115C87.1985 36.6017 86.183 35.9017 85.3425 35.015C84.5254 34.1283 83.895 33.1133 83.4514 31.97C83.0079 30.8267 82.7861 29.625 82.7861 28.365C82.7861 27.0817 83.0079 25.8683 83.4514 24.725C83.895 23.5817 84.5254 22.5667 85.3425 21.68C86.183 20.7933 87.1985 20.105 88.3892 19.615C89.5799 19.1017 90.9223 18.845 92.4165 18.845C93.9106 18.845 95.2414 19.1017 96.4087 19.615C97.5994 20.105 98.6149 20.7933 99.4554 21.68C100.296 22.5667 100.926 23.5817 101.346 24.725C101.79 25.8683 102.012 27.0817 102.012 28.365C102.012 29.625 101.79 30.8267 101.346 31.97C100.926 33.1133 100.296 34.1283 99.4554 35.015C98.6383 35.9017 97.6344 36.6017 96.4437 37.115C95.2531 37.605 93.9106 37.85 92.4165 37.85ZM87.6188 28.365C87.6188 29.4383 87.8289 30.395 88.2491 31.235C88.6694 32.0517 89.2413 32.6933 89.9651 33.16C90.6888 33.6267 91.506 33.86 92.4165 33.86C93.3036 33.86 94.1091 33.6267 94.8328 33.16C95.5566 32.67 96.1286 32.0167 96.5488 31.2C96.9924 30.36 97.2142 29.4033 97.2142 28.33C97.2142 27.28 96.9924 26.335 96.5488 25.495C96.1286 24.655 95.5566 24.0017 94.8328 23.535C94.1091 23.0683 93.3036 22.835 92.4165 22.835C91.506 22.835 90.6888 23.08 89.9651 23.57C89.2413 24.0367 88.6694 24.69 88.2491 25.53C87.8289 26.3467 87.6188 27.2917 87.6188 28.365Z" fill="white"/>
<path d="M116.105 23.22C114.681 23.22 113.409 23.5 112.288 24.06C111.168 24.5967 110.362 25.3783 109.872 26.405V37.5H105.179V19.16H109.487V23.08C110.14 21.82 110.969 20.8283 111.973 20.105C112.977 19.3817 114.039 18.985 115.16 18.915C115.417 18.915 115.615 18.915 115.755 18.915C115.895 18.915 116.012 18.9267 116.105 18.95V23.22Z" fill="white"/>
<path d="M131.259 37.5L125.901 29.59L123.415 32.04V37.5H118.722V11.95H123.415V27.42L130.804 19.195H135.777L128.948 26.965L136.267 37.5H131.259Z" fill="white"/>
<path d="M155.304 37.5H150.611V27.21C150.611 25.7867 150.331 24.725 149.771 24.025C149.234 23.325 148.487 22.975 147.53 22.975C146.969 22.975 146.374 23.1383 145.744 23.465C145.113 23.7917 144.541 24.2467 144.028 24.83C143.537 25.39 143.176 26.0433 142.942 26.79V37.5H138.25V11.95H142.942V22.555C143.619 21.3883 144.541 20.4783 145.709 19.825C146.876 19.1717 148.148 18.845 149.526 18.845C150.717 18.845 151.685 19.055 152.432 19.475C153.18 19.8717 153.763 20.42 154.183 21.12C154.604 21.7967 154.896 22.5667 155.059 23.43C155.222 24.27 155.304 25.145 155.304 26.055V37.5Z" fill="white"/>
<path d="M167.859 37.85C166.365 37.85 165.023 37.605 163.832 37.115C162.641 36.6017 161.626 35.9017 160.785 35.015C159.968 34.1283 159.338 33.1133 158.894 31.97C158.451 30.8267 158.229 29.625 158.229 28.365C158.229 27.0817 158.451 25.8683 158.894 24.725C159.338 23.5817 159.968 22.5667 160.785 21.68C161.626 20.7933 162.641 20.105 163.832 19.615C165.023 19.1017 166.365 18.845 167.859 18.845C169.353 18.845 170.684 19.1017 171.851 19.615C173.042 20.105 174.058 20.7933 174.898 21.68C175.739 22.5667 176.369 23.5817 176.789 24.725C177.233 25.8683 177.455 27.0817 177.455 28.365C177.455 29.625 177.233 30.8267 176.789 31.97C176.369 33.1133 175.739 34.1283 174.898 35.015C174.081 35.9017 173.077 36.6017 171.886 37.115C170.696 37.605 169.353 37.85 167.859 37.85ZM163.061 28.365C163.061 29.4383 163.272 30.395 163.692 31.235C164.112 32.0517 164.684 32.6933 165.408 33.16C166.132 33.6267 166.949 33.86 167.859 33.86C168.746 33.86 169.552 33.6267 170.276 33.16C170.999 32.67 171.571 32.0167 171.992 31.2C172.435 30.36 172.657 29.4033 172.657 28.33C172.657 27.28 172.435 26.335 171.992 25.495C171.571 24.655 170.999 24.0017 170.276 23.535C169.552 23.0683 168.746 22.835 167.859 22.835C166.949 22.835 166.132 23.08 165.408 23.57C164.684 24.0367 164.112 24.69 163.692 25.53C163.272 26.3467 163.061 27.2917 163.061 28.365Z" fill="white"/>
<path d="M180.447 30.64V19.16H185.139V29.625C185.139 31.025 185.396 32.0867 185.91 32.81C186.424 33.51 187.182 33.86 188.186 33.86C188.793 33.86 189.389 33.7433 189.972 33.51C190.579 33.2533 191.128 32.88 191.618 32.39C192.132 31.9 192.564 31.2817 192.914 30.535V19.16H197.606V32.25C197.606 32.74 197.688 33.09 197.852 33.3C198.038 33.51 198.33 33.6383 198.727 33.685V37.5C198.26 37.57 197.863 37.6167 197.536 37.64C197.233 37.6867 196.953 37.71 196.696 37.71C195.855 37.71 195.167 37.5233 194.63 37.15C194.116 36.7533 193.813 36.2167 193.719 35.54L193.614 34.07C192.797 35.3067 191.747 36.2517 190.462 36.905C189.178 37.535 187.766 37.85 186.225 37.85C184.334 37.85 182.898 37.2433 181.918 36.03C180.937 34.7933 180.447 32.9967 180.447 30.64Z" fill="white"/>
<path d="M213.196 23.22C211.772 23.22 210.499 23.5 209.379 24.06C208.258 24.5967 207.453 25.3783 206.962 26.405V37.5H202.27V19.16H206.577V23.08C207.231 21.82 208.06 20.8283 209.064 20.105C210.068 19.3817 211.13 18.985 212.25 18.915C212.507 18.915 212.706 18.915 212.846 18.915C212.986 18.915 213.103 18.9267 213.196 18.95V23.22Z" fill="white"/>
<rect x="0.00195312" y="-0.00195312" width="49.9994" height="49.9994" fill="#FCE221"/>
<mask id="mask0_652_275" style="mask-type:alpha" maskUnits="userSpaceOnUse" x="10" y="10" width="30" height="30">
<rect x="10.502" y="10.498" width="28.9996" height="28.9996" fill="#D9D9D9"/>
</mask>
<g mask="url(#mask0_652_275)">
<path d="M23.6685 36.174C22.1186 36.174 20.6666 35.8776 19.3126 35.2847C17.9585 34.6918 16.7737 33.8872 15.7582 32.871C14.7427 31.8548 13.9448 30.6675 13.3646 29.3091C12.7843 27.9507 12.4941 26.4937 12.4941 24.9383C12.4941 23.3829 12.7842 21.9257 13.3644 20.5668C13.9445 19.2079 14.7422 18.0201 15.7575 17.0035C16.7728 15.9869 17.9577 15.1821 19.3124 14.589C20.667 13.9959 22.1199 13.6993 23.6711 13.6993C24.094 13.6993 24.5219 13.7245 24.9549 13.7749C25.3879 13.8252 25.8058 13.9007 26.2085 14.0014V16.6899C25.8058 16.5691 25.3879 16.4734 24.9549 16.4029C24.5219 16.3324 24.0925 16.2972 23.6665 16.2972C21.2885 16.2972 19.265 17.1419 17.5958 18.8312C15.9266 20.5205 15.092 22.5557 15.092 24.9367C15.092 27.3177 15.9266 29.3529 17.5958 31.0422C19.265 32.7315 21.29 33.5762 23.6711 33.5762C26.0521 33.5762 28.0872 32.7315 29.7765 31.0422C31.4659 29.3529 32.3105 27.319 32.3105 24.9407C32.3105 24.7189 32.3055 24.5052 32.2954 24.2995C32.2854 24.0938 32.2563 23.8802 32.2083 23.6586H34.8131C34.8534 23.8848 34.8793 24.1009 34.891 24.3069C34.9026 24.5129 34.9084 24.7228 34.9084 24.9367C34.9084 26.484 34.6119 27.941 34.019 29.3076C33.4262 30.6742 32.6235 31.8638 31.6112 32.8763C30.5988 33.8888 29.4094 34.6916 28.0429 35.2845C26.6765 35.8775 25.2184 36.174 23.6685 36.174ZM27.0823 30.165L22.4024 25.4851V18.7743H25.0002V24.4487L28.8993 28.3479L27.0823 30.165ZM32.3105 21.242V17.5566H28.6252V14.9588H32.3105V11.2734H34.9084V14.9588H38.5938V17.5566H34.9084V21.242H32.3105Z" fill="white"/>
</g>
</svg>
