<svg width="65" height="50" viewBox="0 0 65 50" fill="none" xmlns="http://www.w3.org/2000/svg">
<path d="M8.63402 0H65V50H0L8.63402 0Z" fill="#3C3141"/>
<path d="M20.546 32.175C20.546 30.985 20.8733 29.9467 21.5278 29.06C22.2058 28.15 23.1409 27.45 24.3332 26.96C25.5255 26.47 26.8932 26.225 28.4361 26.225C29.2076 26.225 29.9908 26.2833 30.7857 26.4C31.5805 26.5167 32.2702 26.7033 32.8546 26.96V25.98C32.8546 24.8133 32.504 23.915 31.8026 23.285C31.1246 22.655 30.1077 22.34 28.7517 22.34C27.7465 22.34 26.788 22.515 25.8762 22.865C24.9645 23.215 24.0059 23.7283 23.0007 24.405L21.4928 21.325C22.7084 20.5317 23.9475 19.9367 25.2099 19.54C26.4957 19.1433 27.84 18.945 29.2427 18.945C31.861 18.945 33.895 19.5983 35.3444 20.905C36.8172 22.2117 37.5537 24.0783 37.5537 26.505V32.35C37.5537 32.84 37.6355 33.19 37.7991 33.4C37.9862 33.61 38.2784 33.7383 38.6758 33.785V37.6C38.255 37.67 37.8693 37.7283 37.5186 37.775C37.1913 37.8217 36.9108 37.845 36.677 37.845C35.7418 37.845 35.0288 37.635 34.5379 37.215C34.0703 36.795 33.7781 36.2817 33.6612 35.675L33.556 34.73C32.7611 35.7567 31.7675 36.55 30.5752 37.11C29.383 37.67 28.1673 37.95 26.9282 37.95C25.7126 37.95 24.6138 37.705 23.6319 37.215C22.6734 36.7017 21.9136 36.0133 21.3525 35.15C20.8148 34.2633 20.546 33.2717 20.546 32.175ZM31.9779 33.12C32.2351 32.84 32.4455 32.56 32.6092 32.28C32.7728 32 32.8546 31.7433 32.8546 31.51V29.655C32.2935 29.4217 31.6857 29.2467 31.0311 29.13C30.3765 28.99 29.757 28.92 29.1725 28.92C27.9569 28.92 26.9516 29.1883 26.1567 29.725C25.3853 30.2383 24.9995 30.9267 24.9995 31.79C24.9995 32.2567 25.1281 32.7 25.3853 33.12C25.6424 33.54 26.0165 33.8783 26.5074 34.135C26.9984 34.3917 27.5828 34.52 28.2608 34.52C28.9621 34.52 29.6518 34.3917 30.3298 34.135C31.0077 33.855 31.5571 33.5167 31.9779 33.12Z" fill="white"/>
<path d="M41.9448 37.6V19.26H46.6438V37.6H41.9448ZM41.9448 16.705V12.05H46.6438V16.705H41.9448Z" fill="white"/>
</svg>
