<svg width="203" height="50" viewBox="0 0 203 50" fill="none" xmlns="http://www.w3.org/2000/svg">
<path d="M7.04093 8.33378C7.85402 3.52213 12.0213 0 16.9011 0H203V50H0L7.04093 8.33378Z" fill="#F2F2F2"/>
<path d="M31.7016 37.85C30.2088 37.85 28.8676 37.605 27.6781 37.115C26.4885 36.6017 25.4739 35.9017 24.6342 35.015C23.7945 34.105 23.1414 33.0783 22.6749 31.935C22.2318 30.7917 22.0102 29.59 22.0102 28.33C22.0102 26.6033 22.395 25.0283 23.1647 23.605C23.9578 22.1583 25.0774 21.0033 26.5235 20.14C27.9696 19.2767 29.684 18.845 31.6666 18.845C33.6492 18.845 35.3519 19.2767 36.7747 20.14C38.1975 21.0033 39.2588 22.135 39.9586 23.535L35.3752 24.935C34.9787 24.2583 34.4539 23.745 33.8008 23.395C33.1477 23.0217 32.4247 22.835 31.6316 22.835C30.7453 22.835 29.9289 23.0683 29.1825 23.535C28.4595 23.9783 27.888 24.62 27.4682 25.46C27.0483 26.2767 26.8384 27.2333 26.8384 28.33C26.8384 29.4033 27.0483 30.36 27.4682 31.2C27.9113 32.0167 28.4944 32.67 29.2175 33.16C29.9406 33.6267 30.7453 33.86 31.6316 33.86C32.1914 33.86 32.7162 33.7667 33.206 33.58C33.7192 33.3933 34.174 33.1367 34.5705 32.81C34.9671 32.4833 35.2586 32.11 35.4452 31.69L40.0285 33.09C39.6087 34 38.9906 34.8167 38.1742 35.54C37.3812 36.2633 36.4365 36.835 35.3403 37.255C34.2673 37.6517 33.0544 37.85 31.7016 37.85Z" fill="black"/>
<path d="M53.8993 37.85C52.4765 37.85 51.2169 37.535 50.1207 36.905C49.0477 36.2517 48.208 35.3767 47.6016 34.28V44.955H42.9133V19.16H47.0068V22.31C47.7066 21.2367 48.5929 20.3967 49.6658 19.79C50.7388 19.16 51.9633 18.845 53.3395 18.845C54.5757 18.845 55.7069 19.09 56.7332 19.58C57.7828 20.07 58.6925 20.7583 59.4622 21.645C60.2319 22.5083 60.8267 23.5117 61.2466 24.655C61.6897 25.775 61.9113 26.9883 61.9113 28.295C61.9113 30.0683 61.5615 31.6783 60.8617 33.125C60.1853 34.5717 59.2406 35.7267 58.0278 36.59C56.8382 37.43 55.462 37.85 53.8993 37.85ZM52.3249 33.86C53.0479 33.86 53.701 33.7083 54.2841 33.405C54.8672 33.1017 55.3687 32.6933 55.7886 32.18C56.2318 31.6433 56.5583 31.0483 56.7682 30.395C57.0015 29.7183 57.1181 29.0183 57.1181 28.295C57.1181 27.525 56.9898 26.8133 56.7332 26.16C56.5 25.5067 56.1501 24.935 55.6836 24.445C55.2171 23.9317 54.669 23.535 54.0392 23.255C53.4328 22.975 52.768 22.835 52.045 22.835C51.6018 22.835 51.147 22.9167 50.6805 23.08C50.2373 23.22 49.8058 23.43 49.3859 23.71C48.9661 23.99 48.5929 24.3167 48.2663 24.69C47.9631 25.0633 47.7415 25.4717 47.6016 25.915V30.22C47.8815 30.8967 48.2547 31.515 48.7212 32.075C49.211 32.635 49.7708 33.0783 50.4006 33.405C51.0303 33.7083 51.6718 33.86 52.3249 33.86Z" fill="black"/>
<path d="M65.0528 11.95H69.7411V31.62C69.7411 32.46 69.881 33.0317 70.1609 33.335C70.4408 33.615 70.8257 33.755 71.3155 33.755C71.6887 33.755 72.0735 33.7083 72.47 33.615C72.8666 33.5217 73.2164 33.405 73.5197 33.265L74.1494 36.835C73.5197 37.1383 72.7849 37.3717 71.9452 37.535C71.1056 37.6983 70.3475 37.78 69.6711 37.78C68.2016 37.78 67.0587 37.395 66.2423 36.625C65.4493 35.8317 65.0528 34.7117 65.0528 33.265V11.95Z" fill="black"/>
<path d="M74.9325 32.075C74.9325 30.885 75.2591 29.8467 75.9122 28.96C76.5886 28.05 77.5216 27.35 78.7111 26.86C79.9007 26.37 81.2652 26.125 82.8046 26.125C83.5744 26.125 84.3557 26.1833 85.1488 26.3C85.9418 26.4167 86.6299 26.6033 87.213 26.86V25.88C87.213 24.7133 86.8631 23.815 86.1634 23.185C85.487 22.555 84.4724 22.24 83.1195 22.24C82.1166 22.24 81.1602 22.415 80.2506 22.765C79.3409 23.115 78.3846 23.6283 77.3816 24.305L75.8772 21.225C77.0901 20.4317 78.3263 19.8367 79.5858 19.44C80.8687 19.0433 82.2099 18.845 83.6093 18.845C86.2217 18.845 88.251 19.4983 89.6971 20.805C91.1666 22.1117 91.9013 23.9783 91.9013 26.405V32.25C91.9013 32.74 91.9829 33.09 92.1462 33.3C92.3328 33.51 92.6244 33.6383 93.0209 33.685V37.5C92.601 37.57 92.2162 37.6283 91.8663 37.675C91.5398 37.7217 91.2599 37.745 91.0266 37.745C90.0936 37.745 89.3822 37.535 88.8924 37.115C88.4259 36.695 88.1343 36.1817 88.0177 35.575L87.9128 34.63C87.1197 35.6567 86.1284 36.45 84.9389 37.01C83.7493 37.57 82.5364 37.85 81.3002 37.85C80.0873 37.85 78.991 37.605 78.0114 37.115C77.0551 36.6017 76.297 35.9133 75.7372 35.05C75.2008 34.1633 74.9325 33.1717 74.9325 32.075ZM86.3383 33.02C86.5949 32.74 86.8048 32.46 86.9681 32.18C87.1314 31.9 87.213 31.6433 87.213 31.41V29.555C86.6532 29.3217 86.0468 29.1467 85.3937 29.03C84.7406 28.89 84.1225 28.82 83.5394 28.82C82.3265 28.82 81.3235 29.0883 80.5305 29.625C79.7608 30.1383 79.3759 30.8267 79.3759 31.69C79.3759 32.1567 79.5042 32.6 79.7608 33.02C80.0173 33.44 80.3905 33.7783 80.8803 34.035C81.3702 34.2917 81.9533 34.42 82.6297 34.42C83.3294 34.42 84.0175 34.2917 84.6939 34.035C85.3704 33.755 85.9185 33.4167 86.3383 33.02Z" fill="black"/>
<path d="M107.097 36.555C106.701 36.7183 106.223 36.905 105.663 37.115C105.103 37.325 104.497 37.4883 103.844 37.605C103.214 37.745 102.572 37.815 101.919 37.815C101.056 37.815 100.263 37.6633 99.5402 37.36C98.8172 37.0567 98.234 36.5783 97.7909 35.925C97.371 35.2483 97.1611 34.3733 97.1611 33.3V22.765H94.747V19.16H97.1611V13.21H101.849V19.16H105.698V22.765H101.849V31.725C101.873 32.355 102.048 32.81 102.374 33.09C102.701 33.37 103.109 33.51 103.599 33.51C104.089 33.51 104.567 33.4283 105.033 33.265C105.5 33.1017 105.873 32.9617 106.153 32.845L107.097 36.555Z" fill="black"/>
<path d="M110.59 37.5V23.71H108.176V20.14H110.59V19.02C110.59 17.5033 110.835 16.1967 111.325 15.1C111.838 13.98 112.55 13.1167 113.459 12.51C114.392 11.9033 115.477 11.6 116.713 11.6C117.46 11.6 118.206 11.6933 118.952 11.88C119.722 12.0667 120.48 12.335 121.226 12.685L120.282 16.22C119.932 16.0333 119.524 15.8817 119.057 15.765C118.591 15.625 118.148 15.555 117.728 15.555C116.935 15.555 116.328 15.835 115.908 16.395C115.489 16.955 115.279 17.7717 115.279 18.845V20.14H119.757V23.71H115.279V37.5H110.59Z" fill="black"/>
<path d="M130.648 37.85C129.155 37.85 127.814 37.605 126.624 37.115C125.435 36.6017 124.42 35.9017 123.58 35.015C122.764 34.1283 122.134 33.1133 121.691 31.97C121.248 30.8267 121.026 29.625 121.026 28.365C121.026 27.0817 121.248 25.8683 121.691 24.725C122.134 23.5817 122.764 22.5667 123.58 21.68C124.42 20.7933 125.435 20.105 126.624 19.615C127.814 19.1017 129.155 18.845 130.648 18.845C132.141 18.845 133.47 19.1017 134.636 19.615C135.826 20.105 136.841 20.7933 137.68 21.68C138.52 22.5667 139.15 23.5817 139.57 24.725C140.013 25.8683 140.234 27.0817 140.234 28.365C140.234 29.625 140.013 30.8267 139.57 31.97C139.15 33.1133 138.52 34.1283 137.68 35.015C136.864 35.9017 135.861 36.6017 134.671 37.115C133.482 37.605 132.141 37.85 130.648 37.85ZM125.855 28.365C125.855 29.4383 126.065 30.395 126.484 31.235C126.904 32.0517 127.476 32.6933 128.199 33.16C128.922 33.6267 129.738 33.86 130.648 33.86C131.534 33.86 132.339 33.6267 133.062 33.16C133.785 32.67 134.356 32.0167 134.776 31.2C135.22 30.36 135.441 29.4033 135.441 28.33C135.441 27.28 135.22 26.335 134.776 25.495C134.356 24.655 133.785 24.0017 133.062 23.535C132.339 23.0683 131.534 22.835 130.648 22.835C129.738 22.835 128.922 23.08 128.199 23.57C127.476 24.0367 126.904 24.69 126.484 25.53C126.065 26.3467 125.855 27.2917 125.855 28.365Z" fill="black"/>
<path d="M154.315 23.22C152.892 23.22 151.621 23.5 150.501 24.06C149.382 24.5967 148.577 25.3783 148.087 26.405V37.5H143.399V19.16H147.702V23.08C148.355 21.82 149.183 20.8283 150.186 20.105C151.189 19.3817 152.25 18.985 153.37 18.915C153.627 18.915 153.825 18.915 153.965 18.915C154.105 18.915 154.221 18.9267 154.315 18.95V23.22Z" fill="black"/>
<path d="M185.408 37.5H180.72V27.21C180.72 25.7633 180.464 24.7017 179.95 24.025C179.461 23.325 178.773 22.975 177.886 22.975C176.977 22.975 176.102 23.3367 175.262 24.06C174.446 24.76 173.863 25.6817 173.513 26.825V37.5H168.825V27.21C168.825 25.74 168.568 24.6667 168.055 23.99C167.565 23.3133 166.877 22.975 165.991 22.975C165.081 22.975 164.206 23.325 163.367 24.025C162.55 24.725 161.967 25.6467 161.617 26.79V37.5H156.929V19.16H161.162V22.555C161.862 21.365 162.795 20.455 163.961 19.825C165.128 19.1717 166.469 18.845 167.985 18.845C169.501 18.845 170.679 19.2183 171.519 19.965C172.382 20.7117 172.93 21.6333 173.163 22.73C173.909 21.47 174.854 20.5133 175.997 19.86C177.163 19.1833 178.469 18.845 179.915 18.845C181.058 18.845 181.98 19.055 182.679 19.475C183.403 19.8717 183.962 20.42 184.359 21.12C184.755 21.7967 185.024 22.5667 185.164 23.43C185.327 24.2933 185.408 25.1683 185.408 26.055V37.5Z" fill="black"/>
<path d="M191.042 0H203V6.25H191.042V0Z" fill="#543C6F"/>
<path d="M191.042 43.75H203V50H191.042V43.75Z" fill="#94866E"/>
<path d="M191.042 37.5H203V43.75H191.042V37.5Z" fill="#E04434"/>
<path d="M191.042 31.25H203V37.5H191.042V31.25Z" fill="#FEC017"/>
<path d="M191.042 25H203V31.25H191.042V25Z" fill="#FCE221"/>
<path d="M191.042 18.75H203V25H191.042V18.75Z" fill="#9CEB5C"/>
<path d="M191.042 12.5H203V18.75H191.042V12.5Z" fill="#52C3B7"/>
<path d="M191.042 6.25H203V12.5H191.042V6.25Z" fill="#5F83D9"/>
</svg>
