<svg width="184" height="50" viewBox="0 0 184 50" fill="none" xmlns="http://www.w3.org/2000/svg">
<path d="M7.68836 8.34525C8.49658 3.52832 12.6662 0 17.5505 0H174C179.522 0 184 4.47715 184 10V50H0.699219L7.68836 8.34525Z" fill="#DFDCC7"/>
<path d="M50.9918 36.6622H46.307V26.7297C46.307 25.3333 46.0506 24.3086 45.5378 23.6554C45.0484 22.9797 44.3608 22.6419 43.4751 22.6419C42.5661 22.6419 41.6921 22.991 40.853 23.6892C40.0372 24.3649 39.4546 25.2545 39.1049 26.3581V36.6622H34.4201V26.7297C34.4201 25.3108 34.1637 24.2748 33.6509 23.6216C33.1615 22.9685 32.4739 22.6419 31.5882 22.6419C30.6792 22.6419 29.8052 22.9797 28.9661 23.6554C28.1503 24.3311 27.5677 25.2207 27.218 26.3243V36.6622H22.5332V18.9595H26.7635V22.2365C27.4628 21.0878 28.3951 20.2095 29.5605 19.6014C30.7258 18.9707 32.066 18.6554 33.581 18.6554C35.096 18.6554 36.2731 19.0158 37.1121 19.7365C37.9745 20.4572 38.5222 21.3468 38.7553 22.4054C39.5012 21.1892 40.4451 20.2658 41.5872 19.6351C42.7526 18.982 44.0578 18.6554 45.5029 18.6554C46.645 18.6554 47.5656 18.8581 48.2648 19.2635C48.9874 19.6464 49.5468 20.1757 49.943 20.8514C50.3392 21.5045 50.6073 22.2477 50.7471 23.0811C50.9103 23.9144 50.9918 24.759 50.9918 25.6149V36.6622Z" fill="#0C1C40"/>
<path d="M63.5313 37C62.0396 37 60.6994 36.7635 59.5107 36.2905C58.322 35.795 57.3081 35.1194 56.469 34.2635C55.6533 33.4077 55.024 32.4279 54.5811 31.3243C54.1383 30.2207 53.9169 29.0608 53.9169 27.8446C53.9169 26.6059 54.1383 25.4347 54.5811 24.3311C55.024 23.2275 55.6533 22.2477 56.469 21.3919C57.3081 20.536 58.322 19.8716 59.5107 19.3986C60.6994 18.9032 62.0396 18.6554 63.5313 18.6554C65.0229 18.6554 66.3515 18.9032 67.5169 19.3986C68.7056 19.8716 69.7194 20.536 70.5585 21.3919C71.3976 22.2477 72.0269 23.2275 72.4464 24.3311C72.8893 25.4347 73.1107 26.6059 73.1107 27.8446C73.1107 29.0608 72.8893 30.2207 72.4464 31.3243C72.0269 32.4279 71.3976 33.4077 70.5585 34.2635C69.7427 35.1194 68.7405 35.795 67.5518 36.2905C66.3631 36.7635 65.0229 37 63.5313 37ZM58.7415 27.8446C58.7415 28.8806 58.9513 29.8041 59.3708 30.6149C59.7904 31.4032 60.3614 32.0225 61.084 32.473C61.8065 32.9234 62.6223 33.1486 63.5313 33.1486C64.417 33.1486 65.2211 32.9234 65.9436 32.473C66.6661 32 67.2372 31.3694 67.6567 30.5811C68.0996 29.7703 68.321 28.8468 68.321 27.8108C68.321 26.7973 68.0996 25.8851 67.6567 25.0743C67.2372 24.2635 66.6661 23.6329 65.9436 23.1824C65.2211 22.732 64.417 22.5068 63.5313 22.5068C62.6223 22.5068 61.8065 22.7432 61.084 23.2162C60.3614 23.6667 59.7904 24.2973 59.3708 25.1081C58.9513 25.8964 58.7415 26.8086 58.7415 27.8446Z" fill="#0C1C40"/>
<path d="M75.154 27.8108C75.154 26.0991 75.5036 24.5563 76.2029 23.1824C76.9021 21.786 77.8694 20.6824 79.1047 19.8716C80.34 19.0608 81.7501 18.6554 83.335 18.6554C84.6869 18.6554 85.8989 18.982 86.971 19.6351C88.0665 20.2658 88.9172 21.0766 89.5232 22.0676V12H94.208V31.5946C94.208 32.0676 94.2896 32.4054 94.4528 32.6081C94.6159 32.8108 94.8956 32.9347 95.2918 32.9797V36.6622C94.4761 36.8198 93.8118 36.8986 93.299 36.8986C92.46 36.8986 91.7607 36.6959 91.2013 36.2905C90.6653 35.8851 90.3623 35.3559 90.2923 34.7027L90.2224 33.5878C89.5465 34.6914 88.6259 35.536 87.4605 36.1216C86.3184 36.7072 85.1181 37 83.8594 37C82.6008 37 81.4354 36.7635 80.3633 36.2905C79.3144 35.8176 78.3938 35.1644 77.6013 34.3311C76.8322 33.4977 76.2262 32.5293 75.7833 31.4257C75.3638 30.2995 75.154 29.0946 75.154 27.8108ZM89.5232 30.1757V25.9527C89.2901 25.2995 88.9172 24.714 88.4044 24.1959C87.8917 23.6779 87.3206 23.2725 86.6913 22.9797C86.062 22.6644 85.4327 22.5068 84.8034 22.5068C84.0809 22.5068 83.4282 22.6532 82.8456 22.9459C82.2629 23.2387 81.7501 23.6329 81.3073 24.1284C80.8877 24.6239 80.5614 25.1982 80.3283 25.8514C80.1186 26.5045 80.0137 27.1914 80.0137 27.9122C80.0137 28.6329 80.1302 29.3198 80.3633 29.973C80.6197 30.6036 80.9809 31.1554 81.4471 31.6284C81.9133 32.1014 82.4493 32.473 83.0553 32.7432C83.6846 33.0135 84.3606 33.1486 85.0831 33.1486C85.5259 33.1486 85.9688 33.0811 86.4116 32.9459C86.8778 32.7883 87.309 32.5856 87.7052 32.3378C88.1247 32.0676 88.486 31.7523 88.789 31.3919C89.1153 31.009 89.36 30.6036 89.5232 30.1757Z" fill="#0C1C40"/>
<path d="M98.6318 30.0405V18.9595H103.317V29.0608C103.317 30.4122 103.573 31.4369 104.086 32.1351C104.599 32.8108 105.356 33.1486 106.358 33.1486C106.964 33.1486 107.559 33.036 108.141 32.8108C108.747 32.5631 109.295 32.2027 109.784 31.7297C110.297 31.2568 110.728 30.6599 111.078 29.9392V18.9595H115.763V31.5946C115.763 32.0676 115.844 32.4054 116.008 32.6081C116.194 32.8108 116.485 32.9347 116.882 32.9797V36.6622C116.415 36.7297 116.019 36.7748 115.693 36.7973C115.39 36.8423 115.11 36.8649 114.854 36.8649C114.015 36.8649 113.327 36.6847 112.791 36.3243C112.278 35.9414 111.975 35.4234 111.882 34.7703L111.777 33.3514C110.961 34.545 109.913 35.4572 108.631 36.0878C107.349 36.6959 105.939 37 104.4 37C102.512 37 101.079 36.4144 100.1 35.2432C99.1212 34.0495 98.6318 32.3153 98.6318 30.0405Z" fill="#0C1C40"/>
<path d="M120.384 12H125.068V30.9865C125.068 31.7973 125.208 32.3491 125.488 32.6419C125.768 32.9122 126.152 33.0473 126.642 33.0473C127.015 33.0473 127.399 33.0023 127.795 32.9122C128.192 32.8221 128.541 32.7095 128.844 32.5743L129.474 36.0203C128.844 36.3131 128.11 36.5383 127.271 36.6959C126.432 36.8536 125.674 36.9324 124.998 36.9324C123.53 36.9324 122.388 36.5608 121.572 35.8176C120.78 35.0518 120.384 33.9707 120.384 32.5743V12Z" fill="#0C1C40"/>
<path d="M140.01 37C138.542 37 137.213 36.7635 136.025 36.2905C134.836 35.795 133.822 35.1306 132.983 34.2973C132.144 33.4414 131.491 32.473 131.025 31.3919C130.582 30.2883 130.361 29.1284 130.361 27.9122C130.361 26.223 130.745 24.6802 131.515 23.2838C132.307 21.8874 133.426 20.7725 134.871 19.9392C136.339 19.0833 138.064 18.6554 140.045 18.6554C142.05 18.6554 143.763 19.0833 145.185 19.9392C146.606 20.7725 147.69 21.8874 148.436 23.2838C149.205 24.6577 149.59 26.1441 149.59 27.7432C149.59 28.0135 149.578 28.295 149.555 28.5878C149.531 28.8581 149.508 29.0833 149.485 29.2635H135.325C135.419 30.1644 135.687 30.9527 136.13 31.6284C136.596 32.3041 137.178 32.8221 137.878 33.1824C138.6 33.5203 139.369 33.6892 140.185 33.6892C141.117 33.6892 141.991 33.4752 142.807 33.0473C143.646 32.5968 144.217 32.0113 144.52 31.2905L148.541 32.3716C148.098 33.2725 147.457 34.0721 146.618 34.7703C145.802 35.4685 144.835 36.0203 143.716 36.4257C142.597 36.8086 141.362 37 140.01 37ZM135.221 26.3919H144.8C144.707 25.491 144.439 24.714 143.996 24.0608C143.576 23.3851 143.017 22.8671 142.318 22.5068C141.619 22.1239 140.838 21.9324 139.975 21.9324C139.136 21.9324 138.367 22.1239 137.668 22.5068C136.992 22.8671 136.433 23.3851 135.99 24.0608C135.57 24.714 135.314 25.491 135.221 26.3919Z" fill="#0C1C40"/>
<path d="M159.191 37C157.63 37 156.138 36.7523 154.716 36.2568C153.294 35.7613 152.071 35.0293 151.045 34.0608L152.723 31.1216C153.819 31.9775 154.891 32.6081 155.94 33.0135C157.012 33.4189 158.038 33.6216 159.016 33.6216C159.925 33.6216 160.648 33.464 161.184 33.1486C161.743 32.8333 162.023 32.3604 162.023 31.7297C162.023 31.3018 161.872 30.9752 161.569 30.75C161.266 30.5023 160.823 30.2883 160.24 30.1081C159.681 29.9279 158.993 29.7252 158.177 29.5C156.826 29.0721 155.695 28.6554 154.786 28.25C153.877 27.8446 153.19 27.3378 152.723 26.7297C152.281 26.0991 152.059 25.2995 152.059 24.3311C152.059 23.1599 152.362 22.1577 152.968 21.3243C153.597 20.4685 154.46 19.8041 155.555 19.3311C156.674 18.8581 157.979 18.6216 159.471 18.6216C160.776 18.6216 162.012 18.8243 163.177 19.2297C164.342 19.6126 165.403 20.2432 166.358 21.1216L164.47 23.9932C163.538 23.295 162.652 22.7883 161.813 22.473C160.974 22.1351 160.124 21.9662 159.261 21.9662C158.772 21.9662 158.306 22.0225 157.863 22.1351C157.443 22.2477 157.094 22.4392 156.814 22.7095C156.558 22.9572 156.429 23.3176 156.429 23.7905C156.429 24.2185 156.546 24.5563 156.779 24.8041C157.035 25.0293 157.408 25.232 157.898 25.4122C158.41 25.5923 159.028 25.795 159.751 26.0203C161.219 26.4257 162.454 26.8423 163.457 27.2703C164.482 27.6982 165.251 28.2275 165.764 28.8581C166.277 29.4662 166.533 30.3108 166.533 31.3919C166.533 33.1486 165.869 34.5225 164.54 35.5135C163.212 36.5045 161.429 37 159.191 37Z" fill="#0C1C40"/>
</svg>
