<svg width="238" height="50" viewBox="0 0 238 50" fill="none" xmlns="http://www.w3.org/2000/svg">
<path d="M8.7237 0H238V50H0L8.7237 0Z" fill="#5F81D7"/>
<path d="M32.1303 38.0911C30.7139 38.0911 29.4601 37.7777 28.3689 37.1508C27.3008 36.5006 26.465 35.63 25.8613 34.5387V45.1611H21.1944V19.4932H25.2692V22.6277C25.9658 21.5596 26.8481 20.7238 27.9161 20.1201C28.9842 19.4932 30.2031 19.1797 31.573 19.1797C32.8036 19.1797 33.9297 19.4235 34.9513 19.9111C35.9961 20.3987 36.9016 21.0836 37.6678 21.9659C38.434 22.825 39.0261 23.8234 39.444 24.9611C39.8852 26.0756 40.1058 27.2829 40.1058 28.5832C40.1058 30.3478 39.7575 31.9498 39.0609 33.3894C38.3876 34.8289 37.4473 35.9782 36.2399 36.8373C35.0558 37.6732 33.6859 38.0911 32.1303 38.0911ZM30.563 34.1208C31.2828 34.1208 31.9329 33.9698 32.5134 33.668C33.0938 33.3662 33.593 32.9598 34.0109 32.449C34.4521 31.915 34.7771 31.3229 34.9861 30.6728C35.2183 29.9995 35.3344 29.3029 35.3344 28.5832C35.3344 27.817 35.2067 27.1088 34.9513 26.4587C34.7191 25.8086 34.3708 25.2397 33.9065 24.7521C33.4421 24.2413 32.8965 23.8466 32.2696 23.568C31.6659 23.2894 31.0042 23.1501 30.2844 23.1501C29.8432 23.1501 29.3905 23.2313 28.9261 23.3939C28.485 23.5332 28.0554 23.7421 27.6375 24.0208C27.2196 24.2994 26.8481 24.6244 26.523 24.9959C26.2212 25.3674 26.0006 25.7738 25.8613 26.2149V30.4987C26.1399 31.172 26.5114 31.7873 26.9758 32.3446C27.4634 32.9018 28.0206 33.3429 28.6475 33.668C29.2744 33.9698 29.9129 34.1208 30.563 34.1208Z" fill="white"/>
<path d="M54.1339 23.5332C52.7176 23.5332 51.4522 23.8118 50.3377 24.369C49.2232 24.9031 48.4222 25.6809 47.9346 26.7025V37.7428H43.2677V19.4932H47.5515V23.3939C48.2016 22.1401 49.0259 21.1533 50.0243 20.4335C51.0227 19.7138 52.0791 19.319 53.1936 19.2494C53.449 19.2494 53.6463 19.2494 53.7857 19.2494C53.925 19.2494 54.0411 19.261 54.1339 19.2842V23.5332Z" fill="white"/>
<path d="M64.9264 38.0911C63.4404 38.0911 62.1054 37.8473 60.9212 37.3597C59.7371 36.8489 58.7271 36.1524 57.8912 35.2701C57.0786 34.3878 56.4517 33.3778 56.0105 32.2401C55.5694 31.1024 55.3488 29.9066 55.3488 28.6528C55.3488 27.3758 55.5694 26.1685 56.0105 25.0308C56.4517 23.8931 57.0786 22.8831 57.8912 22.0008C58.7271 21.1185 59.7371 20.4335 60.9212 19.9459C62.1054 19.4351 63.4404 19.1797 64.9264 19.1797C66.4124 19.1797 67.7358 19.4351 68.8967 19.9459C70.0809 20.4335 71.0909 21.1185 71.9267 22.0008C72.7626 22.8831 73.3895 23.8931 73.8074 25.0308C74.2486 26.1685 74.4692 27.3758 74.4692 28.6528C74.4692 29.9066 74.2486 31.1024 73.8074 32.2401C73.3895 33.3778 72.7626 34.3878 71.9267 35.2701C71.1141 36.1524 70.1157 36.8489 68.9316 37.3597C67.7474 37.8473 66.4124 38.0911 64.9264 38.0911ZM60.155 28.6528C60.155 29.7209 60.364 30.6728 60.7819 31.5087C61.1999 32.3213 61.7687 32.9598 62.4885 33.4242C63.2082 33.8886 64.0209 34.1208 64.9264 34.1208C65.8087 34.1208 66.6097 33.8886 67.3295 33.4242C68.0493 32.9366 68.6181 32.2865 69.0361 31.4739C69.4772 30.638 69.6978 29.6861 69.6978 28.618C69.6978 27.5732 69.4772 26.6328 69.0361 25.797C68.6181 24.9611 68.0493 24.311 67.3295 23.8466C66.6097 23.3823 65.8087 23.1501 64.9264 23.1501C64.0209 23.1501 63.2082 23.3939 62.4885 23.8815C61.7687 24.3458 61.1999 24.9959 60.7819 25.8318C60.364 26.6444 60.155 27.5848 60.155 28.6528Z" fill="white"/>
<path d="M76.5047 28.618C76.5047 26.8534 76.8529 25.2629 77.5495 23.8466C78.246 22.4071 79.2096 21.2694 80.4402 20.4335C81.6708 19.5977 83.0755 19.1797 84.6543 19.1797C86.001 19.1797 87.2083 19.5164 88.2764 20.1897C89.3676 20.8398 90.2151 21.6757 90.8188 22.6973V12.3187H95.4857V32.5187C95.4857 33.0063 95.567 33.3546 95.7295 33.5635C95.892 33.7725 96.1706 33.9002 96.5653 33.9466V37.7428C95.7527 37.9054 95.091 37.9866 94.5802 37.9866C93.7443 37.9866 93.0478 37.7777 92.4905 37.3597C91.9565 36.9418 91.6547 36.3962 91.585 35.7228L91.5154 34.5735C90.842 35.7112 89.9249 36.5819 88.764 37.1856C87.6263 37.7893 86.4305 38.0911 85.1767 38.0911C83.9229 38.0911 82.762 37.8473 81.694 37.3597C80.6491 36.8721 79.732 36.1988 78.9426 35.3397C78.1764 34.4807 77.5727 33.4823 77.1316 32.3446C76.7136 31.1836 76.5047 29.9415 76.5047 28.618ZM90.8188 31.0559V26.7025C90.5866 26.0292 90.2151 25.4255 89.7043 24.8915C89.1935 24.3574 88.6247 23.9395 87.9978 23.6377C87.3709 23.3126 86.744 23.1501 86.1171 23.1501C85.3973 23.1501 84.7472 23.301 84.1667 23.6028C83.5863 23.9047 83.0755 24.311 82.6343 24.8218C82.2164 25.3326 81.8913 25.9247 81.6591 26.598C81.4502 27.2713 81.3457 27.9795 81.3457 28.7225C81.3457 29.4655 81.4618 30.1736 81.694 30.847C81.9494 31.4971 82.3093 32.0659 82.7736 32.5535C83.238 33.0411 83.772 33.4242 84.3757 33.7028C85.0026 33.9815 85.6759 34.1208 86.3957 34.1208C86.8368 34.1208 87.278 34.0511 87.7191 33.9118C88.1835 33.7493 88.613 33.5403 89.0078 33.2849C89.4257 33.0063 89.7856 32.6812 90.0874 32.3097C90.4125 31.915 90.6563 31.4971 90.8188 31.0559Z" fill="white"/>
<path d="M99.8925 30.9166V19.4932H104.559V29.9066C104.559 31.2997 104.815 32.3562 105.326 33.0759C105.836 33.7725 106.591 34.1208 107.589 34.1208C108.193 34.1208 108.785 34.0047 109.366 33.7725C109.969 33.5171 110.515 33.1456 111.002 32.658C111.513 32.1704 111.943 31.5551 112.291 30.8121V19.4932H116.958V32.5187C116.958 33.0063 117.039 33.3546 117.202 33.5635C117.388 33.7725 117.678 33.9002 118.072 33.9466V37.7428C117.608 37.8125 117.213 37.8589 116.888 37.8821C116.586 37.9286 116.308 37.9518 116.052 37.9518C115.217 37.9518 114.532 37.7661 113.998 37.3946C113.487 36.9998 113.185 36.4658 113.092 35.7925L112.988 34.3297C112.175 35.5603 111.13 36.5006 109.853 37.1508C108.576 37.7777 107.171 38.0911 105.639 38.0911C103.758 38.0911 102.33 37.4874 101.355 36.2801C100.38 35.0495 99.8925 33.2617 99.8925 30.9166Z" fill="white"/>
<path d="M130.094 38.0911C128.608 38.0911 127.273 37.8473 126.089 37.3597C124.904 36.8489 123.894 36.1524 123.059 35.2701C122.223 34.3646 121.573 33.3429 121.108 32.2052C120.667 31.0675 120.446 29.8718 120.446 28.618C120.446 26.8998 120.83 25.3326 121.596 23.9163C122.385 22.4767 123.5 21.3274 124.939 20.4684C126.379 19.6093 128.085 19.1797 130.059 19.1797C132.032 19.1797 133.727 19.6093 135.144 20.4684C136.56 21.3274 137.616 22.4535 138.313 23.8466L133.751 25.2397C133.356 24.5664 132.833 24.0556 132.183 23.7073C131.533 23.3358 130.813 23.1501 130.024 23.1501C129.142 23.1501 128.329 23.3823 127.586 23.8466C126.866 24.2878 126.297 24.9263 125.88 25.7621C125.462 26.5748 125.253 27.5267 125.253 28.618C125.253 29.6861 125.462 30.638 125.88 31.4739C126.321 32.2865 126.901 32.9366 127.621 33.4242C128.341 33.8886 129.142 34.1208 130.024 34.1208C130.581 34.1208 131.104 34.0279 131.591 33.8421C132.102 33.6564 132.555 33.401 132.95 33.0759C133.344 32.7509 133.634 32.3794 133.82 31.9615L138.383 33.3546C137.965 34.2601 137.349 35.0727 136.537 35.7925C135.747 36.5123 134.807 37.0811 133.716 37.499C132.648 37.8938 131.44 38.0911 130.094 38.0911Z" fill="white"/>
<path d="M152.19 36.8025C151.795 36.965 151.319 37.1508 150.762 37.3597C150.205 37.5687 149.601 37.7312 148.951 37.8473C148.324 37.9866 147.686 38.0563 147.036 38.0563C146.177 38.0563 145.387 37.9054 144.667 37.6035C143.948 37.3017 143.367 36.8257 142.926 36.1756C142.508 35.5023 142.299 34.6316 142.299 33.5635V23.0804H139.896V19.4932H142.299V13.5725H146.966V19.4932H150.797V23.0804H146.966V31.9963C146.989 32.6232 147.163 33.0759 147.488 33.3546C147.813 33.6332 148.22 33.7725 148.707 33.7725C149.195 33.7725 149.671 33.6912 150.135 33.5287C150.6 33.3662 150.971 33.2269 151.25 33.1108L152.19 36.8025Z" fill="white"/>
<path d="M154.621 37.7428V19.4932H159.288V37.7428H154.621ZM154.621 16.9508V12.3187H159.288V16.9508H154.621Z" fill="white"/>
<path d="M168.408 37.7428L161.687 19.4932H166.528L171.125 33.4939L175.757 19.4932H180.18L173.493 37.7428H168.408Z" fill="white"/>
<path d="M182.646 37.7428V19.4932H187.313V37.7428H182.646ZM182.646 16.9508V12.3187H187.313V16.9508H182.646Z" fill="white"/>
<path d="M202.459 36.8025C202.064 36.965 201.588 37.1508 201.031 37.3597C200.474 37.5687 199.87 37.7312 199.22 37.8473C198.593 37.9866 197.954 38.0563 197.304 38.0563C196.445 38.0563 195.656 37.9054 194.936 37.6035C194.216 37.3017 193.636 36.8257 193.195 36.1756C192.777 35.5023 192.568 34.6316 192.568 33.5635V23.0804H190.165V19.4932H192.568V13.5725H197.235V19.4932H201.066V23.0804H197.235V31.9963C197.258 32.6232 197.432 33.0759 197.757 33.3546C198.082 33.6332 198.489 33.7725 198.976 33.7725C199.464 33.7725 199.94 33.6912 200.404 33.5287C200.868 33.3662 201.24 33.2269 201.519 33.1108L202.459 36.8025Z" fill="white"/>
<path d="M205.205 41.2952C205.622 41.3881 206.006 41.4694 206.354 41.539C206.725 41.6087 207.039 41.6435 207.294 41.6435C207.735 41.6435 208.095 41.5274 208.374 41.2952C208.676 41.0863 208.966 40.6916 209.245 40.1111C209.523 39.5539 209.813 38.7644 210.115 37.7428L202.906 19.4932H207.747L212.658 32.9715L216.976 19.4932H221.434L213.772 41.3649C213.493 42.1775 213.064 42.9089 212.484 43.559C211.926 44.2324 211.218 44.7548 210.359 45.1263C209.523 45.521 208.583 45.7183 207.538 45.7183C207.166 45.7183 206.795 45.6835 206.424 45.6139C206.052 45.5674 205.646 45.4746 205.205 45.3352V41.2952Z" fill="white"/>
</svg>
