<svg width="99" height="50" viewBox="0 0 99 50" fill="none" xmlns="http://www.w3.org/2000/svg">
<path d="M7.03506 8.33508C7.8476 3.52283 12.0151 0 16.8955 0H89C94.5229 0 99 4.47715 99 10V50H0L7.03506 8.33508Z" fill="#494949"/>
<path d="M19.5621 31.925C19.5621 30.735 19.8888 29.6967 20.5421 28.81C21.2188 27.9 22.1521 27.2 23.3421 26.71C24.5321 26.22 25.8971 25.975 27.4371 25.975C28.2071 25.975 28.9888 26.0333 29.7821 26.15C30.5754 26.2667 31.2638 26.4533 31.8471 26.71V25.73C31.8471 24.5633 31.4971 23.665 30.7971 23.035C30.1204 22.405 29.1054 22.09 27.7521 22.09C26.7488 22.09 25.7921 22.265 24.8821 22.615C23.9721 22.965 23.0154 23.4783 22.0121 24.155L20.5071 21.075C21.7204 20.2817 22.9571 19.6867 24.2171 19.29C25.5004 18.8933 26.8421 18.695 28.2421 18.695C30.8554 18.695 32.8854 19.3483 34.3321 20.655C35.8021 21.9617 36.5371 23.8283 36.5371 26.255V32.1C36.5371 32.59 36.6188 32.94 36.7821 33.15C36.9688 33.36 37.2604 33.4883 37.6571 33.535V37.35C37.2371 37.42 36.8521 37.4783 36.5021 37.525C36.1754 37.5717 35.8954 37.595 35.6621 37.595C34.7288 37.595 34.0171 37.385 33.5271 36.965C33.0604 36.545 32.7688 36.0317 32.6521 35.425L32.5471 34.48C31.7538 35.5067 30.7621 36.3 29.5721 36.86C28.3821 37.42 27.1688 37.7 25.9321 37.7C24.7188 37.7 23.6221 37.455 22.6421 36.965C21.6854 36.4517 20.9271 35.7633 20.3671 34.9C19.8304 34.0133 19.5621 33.0217 19.5621 31.925ZM30.9721 32.87C31.2288 32.59 31.4388 32.31 31.6021 32.03C31.7654 31.75 31.8471 31.4933 31.8471 31.26V29.405C31.2871 29.1717 30.6804 28.9967 30.0271 28.88C29.3738 28.74 28.7554 28.67 28.1721 28.67C26.9588 28.67 25.9554 28.9383 25.1621 29.475C24.3921 29.9883 24.0071 30.6767 24.0071 31.54C24.0071 32.0067 24.1354 32.45 24.3921 32.87C24.6488 33.29 25.0221 33.6283 25.5121 33.885C26.0021 34.1417 26.5854 34.27 27.2621 34.27C27.9621 34.27 28.6504 34.1417 29.3271 33.885C30.0038 33.605 30.5521 33.2667 30.9721 32.87Z" fill="white"/>
<path d="M51.9098 37.7C50.4864 37.7 49.2264 37.385 48.1298 36.755C47.0564 36.1017 46.2164 35.2267 45.6098 34.13V44.805H40.9198V19.01H45.0148V22.16C45.7148 21.0867 46.6014 20.2467 47.6748 19.64C48.7481 19.01 49.9731 18.695 51.3498 18.695C52.5864 18.695 53.7181 18.94 54.7448 19.43C55.7948 19.92 56.7048 20.6083 57.4748 21.495C58.2448 22.3583 58.8398 23.3617 59.2598 24.505C59.7031 25.625 59.9248 26.8383 59.9248 28.145C59.9248 29.9183 59.5748 31.5283 58.8748 32.975C58.1981 34.4217 57.2531 35.5767 56.0398 36.44C54.8498 37.28 53.4731 37.7 51.9098 37.7ZM50.3348 33.71C51.0581 33.71 51.7114 33.5583 52.2948 33.255C52.8781 32.9517 53.3798 32.5433 53.7998 32.03C54.2431 31.4933 54.5698 30.8983 54.7798 30.245C55.0131 29.5683 55.1298 28.8683 55.1298 28.145C55.1298 27.375 55.0014 26.6633 54.7448 26.01C54.5114 25.3567 54.1614 24.785 53.6948 24.295C53.2281 23.7817 52.6798 23.385 52.0498 23.105C51.4431 22.825 50.7781 22.685 50.0548 22.685C49.6114 22.685 49.1564 22.7667 48.6898 22.93C48.2464 23.07 47.8148 23.28 47.3948 23.56C46.9748 23.84 46.6014 24.1667 46.2748 24.54C45.9714 24.9133 45.7498 25.3217 45.6098 25.765V30.07C45.8898 30.7467 46.2631 31.365 46.7298 31.925C47.2198 32.485 47.7798 32.9283 48.4098 33.255C49.0398 33.5583 49.6814 33.71 50.3348 33.71Z" fill="white"/>
<path d="M74.0924 37.7C72.6691 37.7 71.409 37.385 70.3124 36.755C69.2391 36.1017 68.399 35.2267 67.7924 34.13V44.805H63.1024V19.01H67.1974V22.16C67.8974 21.0867 68.784 20.2467 69.8574 19.64C70.9307 19.01 72.1557 18.695 73.5324 18.695C74.7691 18.695 75.9007 18.94 76.9274 19.43C77.9774 19.92 78.8874 20.6083 79.6574 21.495C80.4274 22.3583 81.0224 23.3617 81.4424 24.505C81.8857 25.625 82.1074 26.8383 82.1074 28.145C82.1074 29.9183 81.7574 31.5283 81.0574 32.975C80.3807 34.4217 79.4357 35.5767 78.2224 36.44C77.0324 37.28 75.6557 37.7 74.0924 37.7ZM72.5174 33.71C73.2407 33.71 73.894 33.5583 74.4774 33.255C75.0607 32.9517 75.5624 32.5433 75.9824 32.03C76.4257 31.4933 76.7524 30.8983 76.9624 30.245C77.1957 29.5683 77.3124 28.8683 77.3124 28.145C77.3124 27.375 77.1841 26.6633 76.9274 26.01C76.6941 25.3567 76.3441 24.785 75.8774 24.295C75.4107 23.7817 74.8624 23.385 74.2324 23.105C73.6257 22.825 72.9607 22.685 72.2374 22.685C71.7941 22.685 71.3391 22.7667 70.8724 22.93C70.429 23.07 69.9974 23.28 69.5774 23.56C69.1574 23.84 68.7841 24.1667 68.4574 24.54C68.1541 24.9133 67.9324 25.3217 67.7924 25.765V30.07C68.0724 30.7467 68.4457 31.365 68.9124 31.925C69.4024 32.485 69.9624 32.9283 70.5924 33.255C71.2224 33.5583 71.8641 33.71 72.5174 33.71Z" fill="white"/>
</svg>
