<svg width="145" height="50" viewBox="0 0 145 50" fill="none" xmlns="http://www.w3.org/2000/svg">
<path d="M38.7195 0H144.744V50H30L38.7195 0Z" fill="#E04434"/>
<path d="M61.5919 37.85C60.0101 37.85 58.499 37.5933 57.0588 37.08C55.6186 36.5667 54.3791 35.8083 53.3403 34.805L55.0402 31.76C56.1499 32.6467 57.2359 33.3 58.2984 33.72C59.3844 34.14 60.4232 34.35 61.4148 34.35C62.3356 34.35 63.0675 34.1867 63.6106 33.86C64.1772 33.5333 64.4605 33.0433 64.4605 32.39C64.4605 31.9467 64.307 31.6083 64.0001 31.375C63.6932 31.1183 63.2446 30.8967 62.6544 30.71C62.0877 30.5233 61.3912 30.3133 60.5649 30.08C59.1955 29.6367 58.0504 29.205 57.1297 28.785C56.2089 28.365 55.5124 27.84 55.0402 27.21C54.5916 26.5567 54.3673 25.7283 54.3673 24.725C54.3673 23.5117 54.6743 22.4733 55.2881 21.61C55.9256 20.7233 56.7991 20.035 57.9088 19.545C59.0421 19.055 60.3642 18.81 61.8752 18.81C63.1974 18.81 64.4487 19.02 65.6292 19.44C66.8097 19.8367 67.8839 20.49 68.8519 21.4L66.9395 24.375C65.9951 23.6517 65.098 23.1267 64.248 22.8C63.3981 22.45 62.5363 22.275 61.6628 22.275C61.1669 22.275 60.6947 22.3333 60.2462 22.45C59.8212 22.5667 59.467 22.765 59.1837 23.045C58.924 23.3017 58.7942 23.675 58.7942 24.165C58.7942 24.6083 58.9122 24.9583 59.1483 25.215C59.408 25.4483 59.7858 25.6583 60.2816 25.845C60.801 26.0317 61.4267 26.2417 62.1586 26.475C63.646 26.895 64.8973 27.3267 65.9125 27.77C66.9513 28.2133 67.7305 28.7617 68.2499 29.415C68.7693 30.045 69.029 30.92 69.029 32.04C69.029 33.86 68.3561 35.2833 67.0104 36.31C65.6646 37.3367 63.8585 37.85 61.5919 37.85Z" fill="white"/>
<path d="M89.5037 37.5H84.7581V27.21C84.7581 25.7867 84.4748 24.725 83.9082 24.025C83.3651 23.325 82.6096 22.975 81.6416 22.975C81.075 22.975 80.4729 23.1383 79.8355 23.465C79.198 23.7917 78.6196 24.2467 78.1001 24.83C77.6043 25.39 77.2384 26.0433 77.0023 26.79V37.5H72.2567V11.95H77.0023V22.555C77.687 21.3883 78.6196 20.4783 79.8 19.825C80.9805 19.1717 82.2673 18.845 83.6602 18.845C84.8643 18.845 85.8442 19.055 86.5997 19.475C87.3552 19.8717 87.9454 20.42 88.3704 21.12C88.7954 21.7967 89.0905 22.5667 89.2558 23.43C89.421 24.27 89.5037 25.145 89.5037 26.055V37.5Z" fill="white"/>
<path d="M93.63 37.5V19.16H98.3756V37.5H93.63ZM93.63 16.605V11.95H98.3756V16.605H93.63Z" fill="white"/>
<path d="M103.79 37.5V23.71H101.346V20.14H103.79V19.02C103.79 17.5033 104.038 16.1967 104.534 15.1C105.053 13.98 105.773 13.1167 106.694 12.51C107.638 11.9033 108.736 11.6 109.987 11.6C110.743 11.6 111.499 11.6933 112.254 11.88C113.033 12.0667 113.8 12.335 114.556 12.685L113.6 16.22C113.246 16.0333 112.832 15.8817 112.36 15.765C111.888 15.625 111.439 15.555 111.015 15.555C110.212 15.555 109.598 15.835 109.173 16.395C108.748 16.955 108.535 17.7717 108.535 18.845V20.14H113.069V23.71H108.535V37.5H103.79Z" fill="white"/>
<path d="M126.884 36.555C126.483 36.7183 125.999 36.905 125.432 37.115C124.866 37.325 124.252 37.4883 123.591 37.605C122.953 37.745 122.304 37.815 121.643 37.815C120.769 37.815 119.967 37.6633 119.235 37.36C118.503 37.0567 117.913 36.5783 117.464 35.925C117.039 35.2483 116.827 34.3733 116.827 33.3V22.765H114.383V19.16H116.827V13.21H121.572V19.16H125.468V22.765H121.572V31.725C121.596 32.355 121.773 32.81 122.103 33.09C122.434 33.37 122.847 33.51 123.343 33.51C123.839 33.51 124.323 33.4283 124.795 33.265C125.267 33.1017 125.645 32.9617 125.928 32.845L126.884 36.555Z" fill="white"/>
<rect x="0.00195312" y="-0.00292969" width="49.9994" height="49.9994" fill="#E04434"/>
<mask id="mask0_652_278" style="mask-type:alpha" maskUnits="userSpaceOnUse" x="10" y="10" width="30" height="30">
<rect x="10.502" y="10.4971" width="28.9996" height="28.9996" fill="#D9D9D9"/>
</mask>
<g mask="url(#mask0_652_278)">
<path d="M14.6388 36.355C14.0603 36.355 13.5481 36.1321 13.1023 35.6863C12.6565 35.2404 12.4336 34.7283 12.4336 34.1498V19.6802C12.4336 19.1017 12.6565 18.5896 13.1023 18.1437C13.5481 17.6979 14.0603 17.475 14.6388 17.475H19.7439V14.4542C19.7439 13.883 19.9668 13.3727 20.4127 12.9232C20.8585 12.4738 21.3706 12.249 21.9491 12.249H28.0511C28.6296 12.249 29.1417 12.4738 29.5876 12.9232C30.0334 13.3727 30.2563 13.883 30.2563 14.4542V17.475H35.3614C35.9399 17.475 36.4521 17.6979 36.8979 18.1437C37.3437 18.5896 37.5666 19.1017 37.5666 19.6802V26.2051C37.2402 25.92 36.8918 25.6625 36.5213 25.4324C36.1508 25.2024 35.7642 24.9968 35.3614 24.8155V19.6802H14.6388V34.1498H24.4262C24.5067 34.5526 24.6275 34.9352 24.7887 35.2977C24.9498 35.6602 25.1411 36.0126 25.3626 36.355H14.6388ZM21.9491 17.475H28.0511V14.4542H21.9491V17.475ZM32.25 38.4997C30.5382 38.4997 29.0681 37.8855 27.8397 36.6571C26.6112 35.4286 25.997 33.9585 25.997 32.2467C25.997 30.5349 26.6112 29.0648 27.8397 27.8363C29.0681 26.6079 30.5382 25.9936 32.25 25.9936C33.9618 25.9936 35.4319 26.6079 36.6604 27.8363C37.8888 29.0648 38.5031 30.5349 38.5031 32.2467C38.5031 33.9585 37.8888 35.4286 36.6604 36.6571C35.4319 37.8855 33.9618 38.4997 32.25 38.4997ZM32.7938 32.1863V28.078H31.4344V32.5722L34.4854 35.3883L35.3614 34.5123L32.7938 32.1863Z" fill="white"/>
</g>
</svg>
