<svg width="204" height="50" viewBox="0 0 204 50" fill="none" xmlns="http://www.w3.org/2000/svg">
<path d="M8.72732 0H203.85V50H0L8.72732 0Z" fill="#94866E"/>
<path d="M46.2325 19.16H50.6775L43.0125 37.5H39.0925L36.0125 29.625L33.0025 37.5H29.0475L21.4175 19.16H25.8275L31.2875 33.02L33.4225 27.035L30.2375 19.195H34.1225L36.0125 24.795L37.9375 19.195H41.8225L38.6375 27.035L40.8075 33.02L46.2325 19.16Z" fill="white"/>
<path d="M60.6976 37.85C59.2042 37.85 57.8626 37.605 56.6726 37.115C55.4826 36.6017 54.4676 35.9017 53.6276 35.015C52.8109 34.1283 52.1809 33.1133 51.7376 31.97C51.2942 30.8267 51.0726 29.625 51.0726 28.365C51.0726 27.0817 51.2942 25.8683 51.7376 24.725C52.1809 23.5817 52.8109 22.5667 53.6276 21.68C54.4676 20.7933 55.4826 20.105 56.6726 19.615C57.8626 19.1017 59.2042 18.845 60.6976 18.845C62.1909 18.845 63.5209 19.1017 64.6876 19.615C65.8776 20.105 66.8926 20.7933 67.7326 21.68C68.5726 22.5667 69.2026 23.5817 69.6226 24.725C70.0659 25.8683 70.2876 27.0817 70.2876 28.365C70.2876 29.625 70.0659 30.8267 69.6226 31.97C69.2026 33.1133 68.5726 34.1283 67.7326 35.015C66.9159 35.9017 65.9126 36.6017 64.7226 37.115C63.5326 37.605 62.1909 37.85 60.6976 37.85ZM55.9026 28.365C55.9026 29.4383 56.1126 30.395 56.5326 31.235C56.9526 32.0517 57.5242 32.6933 58.2476 33.16C58.9709 33.6267 59.7876 33.86 60.6976 33.86C61.5842 33.86 62.3892 33.6267 63.1126 33.16C63.8359 32.67 64.4076 32.0167 64.8276 31.2C65.2709 30.36 65.4926 29.4033 65.4926 28.33C65.4926 27.28 65.2709 26.335 64.8276 25.495C64.4076 24.655 63.8359 24.0017 63.1126 23.535C62.3892 23.0683 61.5842 22.835 60.6976 22.835C59.7876 22.835 58.9709 23.08 58.2476 23.57C57.5242 24.0367 56.9526 24.69 56.5326 25.53C56.1126 26.3467 55.9026 27.2917 55.9026 28.365Z" fill="white"/>
<path d="M84.3732 23.22C82.9498 23.22 81.6782 23.5 80.5582 24.06C79.4382 24.5967 78.6332 25.3783 78.1432 26.405V37.5H73.4532V19.16H77.7582V23.08C78.4115 21.82 79.2398 20.8283 80.2432 20.105C81.2465 19.3817 82.3082 18.985 83.4282 18.915C83.6848 18.915 83.8832 18.915 84.0232 18.915C84.1632 18.915 84.2798 18.9267 84.3732 18.95V23.22Z" fill="white"/>
<path d="M99.5183 37.5L94.1633 29.59L91.6783 32.04V37.5H86.9883V11.95H91.6783V27.42L99.0633 19.195H104.033L97.2083 26.965L104.523 37.5H99.5183Z" fill="white"/>
<path d="M129.255 19.16H133.7L126.035 37.5H122.115L119.035 29.625L116.025 37.5H112.07L104.44 19.16H108.85L114.31 33.02L116.445 27.035L113.26 19.195H117.145L119.035 24.795L120.96 19.195H124.845L121.66 27.035L123.83 33.02L129.255 19.16Z" fill="white"/>
<path d="M143.755 37.85C142.285 37.85 140.955 37.605 139.765 37.115C138.575 36.6017 137.56 35.9133 136.72 35.05C135.88 34.1633 135.227 33.16 134.76 32.04C134.317 30.8967 134.095 29.695 134.095 28.435C134.095 26.685 134.48 25.0867 135.25 23.64C136.043 22.1933 137.163 21.0383 138.61 20.175C140.08 19.2883 141.807 18.845 143.79 18.845C145.797 18.845 147.512 19.2883 148.935 20.175C150.358 21.0383 151.443 22.1933 152.19 23.64C152.96 25.0633 153.345 26.6033 153.345 28.26C153.345 28.54 153.333 28.8317 153.31 29.135C153.287 29.415 153.263 29.6483 153.24 29.835H139.065C139.158 30.7683 139.427 31.585 139.87 32.285C140.337 32.985 140.92 33.5217 141.62 33.895C142.343 34.245 143.113 34.42 143.93 34.42C144.863 34.42 145.738 34.1983 146.555 33.755C147.395 33.2883 147.967 32.6817 148.27 31.935L152.295 33.055C151.852 33.9883 151.21 34.8167 150.37 35.54C149.553 36.2633 148.585 36.835 147.465 37.255C146.345 37.6517 145.108 37.85 143.755 37.85ZM138.96 26.86H148.55C148.457 25.9267 148.188 25.1217 147.745 24.445C147.325 23.745 146.765 23.2083 146.065 22.835C145.365 22.4383 144.583 22.24 143.72 22.24C142.88 22.24 142.11 22.4383 141.41 22.835C140.733 23.2083 140.173 23.745 139.73 24.445C139.31 25.1217 139.053 25.9267 138.96 26.86Z" fill="white"/>
<path d="M154.942 32.075C154.942 30.885 155.269 29.8467 155.922 28.96C156.599 28.05 157.532 27.35 158.722 26.86C159.912 26.37 161.277 26.125 162.817 26.125C163.587 26.125 164.369 26.1833 165.162 26.3C165.956 26.4167 166.644 26.6033 167.227 26.86V25.88C167.227 24.7133 166.877 23.815 166.177 23.185C165.501 22.555 164.486 22.24 163.132 22.24C162.129 22.24 161.172 22.415 160.262 22.765C159.352 23.115 158.396 23.6283 157.392 24.305L155.887 21.225C157.101 20.4317 158.337 19.8367 159.597 19.44C160.881 19.0433 162.222 18.845 163.622 18.845C166.236 18.845 168.266 19.4983 169.712 20.805C171.182 22.1117 171.917 23.9783 171.917 26.405V32.25C171.917 32.74 171.999 33.09 172.162 33.3C172.349 33.51 172.641 33.6383 173.037 33.685V37.5C172.617 37.57 172.232 37.6283 171.882 37.675C171.556 37.7217 171.276 37.745 171.042 37.745C170.109 37.745 169.397 37.535 168.907 37.115C168.441 36.695 168.149 36.1817 168.032 35.575L167.927 34.63C167.134 35.6567 166.142 36.45 164.952 37.01C163.762 37.57 162.549 37.85 161.312 37.85C160.099 37.85 159.002 37.605 158.022 37.115C157.066 36.6017 156.307 35.9133 155.747 35.05C155.211 34.1633 154.942 33.1717 154.942 32.075ZM166.352 33.02C166.609 32.74 166.819 32.46 166.982 32.18C167.146 31.9 167.227 31.6433 167.227 31.41V29.555C166.667 29.3217 166.061 29.1467 165.407 29.03C164.754 28.89 164.136 28.82 163.552 28.82C162.339 28.82 161.336 29.0883 160.542 29.625C159.772 30.1383 159.387 30.8267 159.387 31.69C159.387 32.1567 159.516 32.6 159.772 33.02C160.029 33.44 160.402 33.7783 160.892 34.035C161.382 34.2917 161.966 34.42 162.642 34.42C163.342 34.42 164.031 34.2917 164.707 34.035C165.384 33.755 165.932 33.4167 166.352 33.02Z" fill="white"/>
<path d="M187.22 23.22C185.797 23.22 184.525 23.5 183.405 24.06C182.285 24.5967 181.48 25.3783 180.99 26.405V37.5H176.3V19.16H180.605V23.08C181.258 21.82 182.087 20.8283 183.09 20.105C184.093 19.3817 185.155 18.985 186.275 18.915C186.532 18.915 186.73 18.915 186.87 18.915C187.01 18.915 187.127 18.9267 187.22 18.95V23.22Z" fill="white"/>
</svg>
