<svg width="233" height="50" viewBox="0 0 233 50" fill="none" xmlns="http://www.w3.org/2000/svg">
<path d="M38.4284 0H233V50H30L38.4284 0Z" fill="#F2F2F2"/>
<path d="M61.6237 37.85C60.1346 37.85 58.7967 37.605 57.6101 37.115C56.4234 36.6017 55.4113 35.9017 54.5737 35.015C53.736 34.105 53.0846 33.0783 52.6192 31.935C52.1771 30.7917 51.9561 29.59 51.9561 28.33C51.9561 26.6033 52.34 25.0283 53.1078 23.605C53.8989 22.1583 55.0158 21.0033 56.4583 20.14C57.9009 19.2767 59.6111 18.845 61.5888 18.845C63.5665 18.845 65.2651 19.2767 66.6844 20.14C68.1037 21.0033 69.1624 22.135 69.8604 23.535L65.2883 24.935C64.8928 24.2583 64.3693 23.745 63.7178 23.395C63.0663 23.0217 62.345 22.835 61.5539 22.835C60.6697 22.835 59.8554 23.0683 59.1108 23.535C58.3895 23.9783 57.8195 24.62 57.4007 25.46C56.9819 26.2767 56.7724 27.2333 56.7724 28.33C56.7724 29.4033 56.9819 30.36 57.4007 31.2C57.8427 32.0167 58.4244 32.67 59.1457 33.16C59.867 33.6267 60.6697 33.86 61.5539 33.86C62.1123 33.86 62.6358 33.7667 63.1245 33.58C63.6363 33.3933 64.0901 33.1367 64.4856 32.81C64.8811 32.4833 65.172 32.11 65.3581 31.69L69.9302 33.09C69.5114 34 68.8948 34.8167 68.0804 35.54C67.2893 36.2633 66.347 36.835 65.2534 37.255C64.1831 37.6517 62.9732 37.85 61.6237 37.85Z" fill="black"/>
<path d="M83.7668 37.85C82.3475 37.85 81.0911 37.535 79.9975 36.905C78.9272 36.2517 78.0896 35.3767 77.4846 34.28V44.955H72.8079V19.16H76.8913V22.31C77.5893 21.2367 78.4735 20.3967 79.5438 19.79C80.6141 19.16 81.8357 18.845 83.2084 18.845C84.4416 18.845 85.5701 19.09 86.5938 19.58C87.6409 20.07 88.5483 20.7583 89.3161 21.645C90.084 22.5083 90.6773 23.5117 91.0961 24.655C91.5382 25.775 91.7592 26.9883 91.7592 28.295C91.7592 30.0683 91.4102 31.6783 90.7122 33.125C90.0374 34.5717 89.0951 35.7267 87.8852 36.59C86.6985 37.43 85.3258 37.85 83.7668 37.85ZM82.1963 33.86C82.9176 33.86 83.5691 33.7083 84.1508 33.405C84.7324 33.1017 85.2327 32.6933 85.6515 32.18C86.0936 31.6433 86.4193 31.0483 86.6287 30.395C86.8614 29.7183 86.9778 29.0183 86.9778 28.295C86.9778 27.525 86.8498 26.8133 86.5938 26.16C86.3612 25.5067 86.0122 24.935 85.5468 24.445C85.0815 23.9317 84.5347 23.535 83.9065 23.255C83.3015 22.975 82.6384 22.835 81.9171 22.835C81.475 22.835 81.0213 22.9167 80.5559 23.08C80.1139 23.22 79.6834 23.43 79.2646 23.71C78.8458 23.99 78.4735 24.3167 78.1478 24.69C77.8453 25.0633 77.6242 25.4717 77.4846 25.915V30.22C77.7639 30.8967 78.1361 31.515 78.6015 32.075C79.0901 32.635 79.6485 33.0783 80.2767 33.405C80.905 33.7083 81.5448 33.86 82.1963 33.86Z" fill="black"/>
<path d="M94.893 11.95H99.5697V31.62C99.5697 32.46 99.7093 33.0317 99.9885 33.335C100.268 33.615 100.652 33.755 101.14 33.755C101.513 33.755 101.896 33.7083 102.292 33.615C102.688 33.5217 103.037 33.405 103.339 33.265L103.967 36.835C103.339 37.1383 102.606 37.3717 101.768 37.535C100.931 37.6983 100.175 37.78 99.4999 37.78C98.034 37.78 96.894 37.395 96.0796 36.625C95.2885 35.8317 94.893 34.7117 94.893 33.265V11.95Z" fill="black"/>
<path d="M104.748 32.075C104.748 30.885 105.074 29.8467 105.726 28.96C106.4 28.05 107.331 27.35 108.518 26.86C109.704 26.37 111.066 26.125 112.601 26.125C113.369 26.125 114.148 26.1833 114.94 26.3C115.731 26.4167 116.417 26.6033 116.999 26.86V25.88C116.999 24.7133 116.65 23.815 115.952 23.185C115.277 22.555 114.265 22.24 112.915 22.24C111.915 22.24 110.961 22.415 110.053 22.765C109.146 23.115 108.192 23.6283 107.192 24.305L105.691 21.225C106.901 20.4317 108.134 19.8367 109.39 19.44C110.67 19.0433 112.008 18.845 113.404 18.845C116.01 18.845 118.034 19.4983 119.477 20.805C120.943 22.1117 121.675 23.9783 121.675 26.405V32.25C121.675 32.74 121.757 33.09 121.92 33.3C122.106 33.51 122.397 33.6383 122.792 33.685V37.5C122.374 37.57 121.99 37.6283 121.641 37.675C121.315 37.7217 121.036 37.745 120.803 37.745C119.872 37.745 119.163 37.535 118.674 37.115C118.209 36.695 117.918 36.1817 117.801 35.575L117.697 34.63C116.906 35.6567 115.917 36.45 114.73 37.01C113.544 37.57 112.334 37.85 111.1 37.85C109.891 37.85 108.797 37.605 107.82 37.115C106.866 36.6017 106.11 35.9133 105.551 35.05C105.016 34.1633 104.748 33.1717 104.748 32.075ZM116.126 33.02C116.382 32.74 116.592 32.46 116.754 32.18C116.917 31.9 116.999 31.6433 116.999 31.41V29.555C116.44 29.3217 115.835 29.1467 115.184 29.03C114.532 28.89 113.916 28.82 113.334 28.82C112.124 28.82 111.124 29.0883 110.333 29.625C109.565 30.1383 109.181 30.8267 109.181 31.69C109.181 32.1567 109.309 32.6 109.565 33.02C109.821 33.44 110.193 33.7783 110.682 34.035C111.17 34.2917 111.752 34.42 112.427 34.42C113.125 34.42 113.811 34.2917 114.486 34.035C115.161 33.755 115.707 33.4167 116.126 33.02Z" fill="black"/>
<path d="M136.834 36.555C136.439 36.7183 135.962 36.905 135.403 37.115C134.845 37.325 134.24 37.4883 133.588 37.605C132.96 37.745 132.32 37.815 131.669 37.815C130.808 37.815 130.017 37.6633 129.296 37.36C128.574 37.0567 127.993 36.5783 127.551 35.925C127.132 35.2483 126.922 34.3733 126.922 33.3V22.765H124.514V19.16H126.922V13.21H131.599V19.16H135.438V22.765H131.599V31.725C131.622 32.355 131.797 32.81 132.123 33.09C132.448 33.37 132.856 33.51 133.344 33.51C133.833 33.51 134.31 33.4283 134.775 33.265C135.24 33.1017 135.613 32.9617 135.892 32.845L136.834 36.555Z" fill="black"/>
<path d="M140.319 37.5V23.71H137.911V20.14H140.319V19.02C140.319 17.5033 140.563 16.1967 141.052 15.1C141.564 13.98 142.273 13.1167 143.181 12.51C144.111 11.9033 145.193 11.6 146.426 11.6C147.171 11.6 147.916 11.6933 148.66 11.88C149.428 12.0667 150.184 12.335 150.929 12.685L149.986 16.22C149.637 16.0333 149.23 15.8817 148.765 15.765C148.299 15.625 147.857 15.555 147.439 15.555C146.647 15.555 146.042 15.835 145.624 16.395C145.205 16.955 144.995 17.7717 144.995 18.845V20.14H149.463V23.71H144.995V37.5H140.319Z" fill="black"/>
<path d="M160.327 37.85C158.838 37.85 157.5 37.605 156.313 37.115C155.127 36.6017 154.114 35.9017 153.277 35.015C152.462 34.1283 151.834 33.1133 151.392 31.97C150.95 30.8267 150.729 29.625 150.729 28.365C150.729 27.0817 150.95 25.8683 151.392 24.725C151.834 23.5817 152.462 22.5667 153.277 21.68C154.114 20.7933 155.127 20.105 156.313 19.615C157.5 19.1017 158.838 18.845 160.327 18.845C161.816 18.845 163.142 19.1017 164.306 19.615C165.492 20.105 166.504 20.7933 167.342 21.68C168.18 22.5667 168.808 23.5817 169.227 24.725C169.669 25.8683 169.89 27.0817 169.89 28.365C169.89 29.625 169.669 30.8267 169.227 31.97C168.808 33.1133 168.18 34.1283 167.342 35.015C166.528 35.9017 165.527 36.6017 164.34 37.115C163.154 37.605 161.816 37.85 160.327 37.85ZM155.545 28.365C155.545 29.4383 155.755 30.395 156.174 31.235C156.592 32.0517 157.162 32.6933 157.884 33.16C158.605 33.6267 159.419 33.86 160.327 33.86C161.211 33.86 162.014 33.6267 162.735 33.16C163.456 32.67 164.026 32.0167 164.445 31.2C164.887 30.36 165.108 29.4033 165.108 28.33C165.108 27.28 164.887 26.335 164.445 25.495C164.026 24.655 163.456 24.0017 162.735 23.535C162.014 23.0683 161.211 22.835 160.327 22.835C159.419 22.835 158.605 23.08 157.884 23.57C157.162 24.0367 156.592 24.69 156.174 25.53C155.755 26.3467 155.545 27.2917 155.545 28.365Z" fill="black"/>
<path d="M183.936 23.22C182.516 23.22 181.248 23.5 180.131 24.06C179.015 24.5967 178.212 25.3783 177.723 26.405V37.5H173.046V19.16H177.339V23.08C177.991 21.82 178.817 20.8283 179.817 20.105C180.818 19.3817 181.876 18.985 182.993 18.915C183.249 18.915 183.447 18.915 183.587 18.915C183.726 18.915 183.843 18.9267 183.936 18.95V23.22Z" fill="black"/>
<path d="M214.953 37.5H210.276V27.21C210.276 25.7633 210.02 24.7017 209.508 24.025C209.02 23.325 208.333 22.975 207.449 22.975C206.542 22.975 205.669 23.3367 204.832 24.06C204.017 24.76 203.436 25.6817 203.086 26.825V37.5H198.41V27.21C198.41 25.74 198.154 24.6667 197.642 23.99C197.153 23.3133 196.467 22.975 195.583 22.975C194.675 22.975 193.803 23.325 192.965 24.025C192.151 24.725 191.569 25.6467 191.22 26.79V37.5H186.543V19.16H190.766V22.555C191.464 21.365 192.395 20.455 193.558 19.825C194.722 19.1717 196.06 18.845 197.572 18.845C199.084 18.845 200.26 19.2183 201.097 19.965C201.958 20.7117 202.505 21.6333 202.737 22.73C203.482 21.47 204.424 20.5133 205.564 19.86C206.728 19.1833 208.031 18.845 209.473 18.845C210.614 18.845 211.533 19.055 212.231 19.475C212.952 19.8717 213.51 20.42 213.906 21.12C214.301 21.7967 214.569 22.5667 214.709 23.43C214.871 24.2933 214.953 25.1683 214.953 26.055V37.5Z" fill="black"/>
<path d="M220.573 0H233V6.25H220.573V0Z" fill="#543C6F"/>
<path d="M220.573 43.75H233V50H220.573V43.75Z" fill="#94866E"/>
<path d="M220.573 37.5H233V43.75H220.573V37.5Z" fill="#E04434"/>
<path d="M220.573 31.25H233V37.5H220.573V31.25Z" fill="#FEC017"/>
<path d="M220.573 25H233V31.25H220.573V25Z" fill="#FCE221"/>
<path d="M220.573 18.75H233V25H220.573V18.75Z" fill="#9CEB5C"/>
<path d="M220.573 12.5H233V18.75H220.573V12.5Z" fill="#52C3B7"/>
<path d="M220.573 6.25H233V12.5H220.573V6.25Z" fill="#5F83D9"/>
<rect width="49.9994" height="49.9994" fill="#F2F2F2"/>
<mask id="mask0_652_273" style="mask-type:alpha" maskUnits="userSpaceOnUse" x="10" y="10" width="30" height="30">
<rect x="10.5" y="10.5" width="28.9996" height="28.9996" fill="#D9D9D9"/>
</mask>
<g mask="url(#mask0_652_273)">
<path d="M13.7617 23.7917V13.7627H23.7907V23.7917H13.7617ZM13.7617 36.2374V26.2083H23.7907V36.2374H13.7617ZM26.2074 23.7917V13.7627H36.2364V23.7917H26.2074ZM26.2074 36.2374V26.2083H36.2364V36.2374H26.2074ZM16.3596 21.1939H21.1929V16.3606H16.3596V21.1939ZM28.8052 21.1939H33.6385V16.3606H28.8052V21.1939ZM28.8052 33.6395H33.6385V28.8062H28.8052V33.6395ZM16.3596 33.6395H21.1929V28.8062H16.3596V33.6395Z" fill="#1C1B1F"/>
</g>
</svg>
