<svg width="184" height="50" viewBox="0 0 184 50" fill="none" xmlns="http://www.w3.org/2000/svg">
<path d="M38.6836 0H183.165V50H30L38.6836 0Z" fill="#FEC017"/>
<path d="M53.176 32.075C53.176 30.885 53.5021 29.8467 54.1545 28.96C54.8301 28.05 55.762 27.35 56.9502 26.86C58.1383 26.37 59.5012 26.125 61.0389 26.125C61.8077 26.125 62.5882 26.1833 63.3803 26.3C64.1724 26.4167 64.8597 26.6033 65.4421 26.86V25.88C65.4421 24.7133 65.0926 23.815 64.3937 23.185C63.7181 22.555 62.7046 22.24 61.3534 22.24C60.3516 22.24 59.3964 22.415 58.4878 22.765C57.5792 23.115 56.624 23.6283 55.6222 24.305L54.1195 21.225C55.331 20.4317 56.5657 19.8367 57.8238 19.44C59.1052 19.0433 60.4448 18.845 61.8426 18.845C64.452 18.845 66.4788 19.4983 67.9233 20.805C69.391 22.1117 70.1249 23.9783 70.1249 26.405V32.25C70.1249 32.74 70.2064 33.09 70.3695 33.3C70.5559 33.51 70.8471 33.6383 71.2432 33.685V37.5C70.8238 37.57 70.4394 37.6283 70.09 37.675C69.7638 37.7217 69.4842 37.745 69.2512 37.745C68.3193 37.745 67.6088 37.535 67.1195 37.115C66.6536 36.695 66.3624 36.1817 66.2459 35.575L66.141 34.63C65.3489 35.6567 64.3588 36.45 63.1706 37.01C61.9824 37.57 60.771 37.85 59.5362 37.85C58.3247 37.85 57.2297 37.605 56.2512 37.115C55.296 36.6017 54.5389 35.9133 53.9797 35.05C53.4439 34.1633 53.176 33.1717 53.176 32.075ZM64.5684 33.02C64.8247 32.74 65.0344 32.46 65.1975 32.18C65.3606 31.9 65.4421 31.6433 65.4421 31.41V29.555C64.883 29.3217 64.2772 29.1467 63.6249 29.03C62.9726 28.89 62.3552 28.82 61.7727 28.82C60.5613 28.82 59.5595 29.0883 58.7674 29.625C57.9985 30.1383 57.6141 30.8267 57.6141 31.69C57.6141 32.1567 57.7423 32.6 57.9985 33.02C58.2548 33.44 58.6276 33.7783 59.1168 34.035C59.6061 34.2917 60.1885 34.42 60.8641 34.42C61.5631 34.42 62.2503 34.2917 62.926 34.035C63.6016 33.755 64.1491 33.4167 64.5684 33.02Z" fill="white"/>
<path d="M83.0277 37.85C81.5367 37.85 80.1971 37.605 79.0089 37.115C77.8207 36.6017 76.8073 35.9017 75.9686 35.015C75.1299 34.105 74.4775 33.0783 74.0116 31.935C73.5689 30.7917 73.3476 29.59 73.3476 28.33C73.3476 26.6033 73.732 25.0283 74.5008 23.605C75.2929 22.1583 76.4112 21.0033 77.8557 20.14C79.3001 19.2767 81.0125 18.845 82.9928 18.845C84.9731 18.845 86.6738 19.2767 88.0949 20.14C89.5161 21.0033 90.5761 22.135 91.275 23.535L86.6971 24.935C86.301 24.2583 85.7768 23.745 85.1245 23.395C84.4722 23.0217 83.7499 22.835 82.9578 22.835C82.0725 22.835 81.2571 23.0683 80.5116 23.535C79.7894 23.9783 79.2186 24.62 78.7992 25.46C78.3799 26.2767 78.1702 27.2333 78.1702 28.33C78.1702 29.4033 78.3799 30.36 78.7992 31.2C79.2419 32.0167 79.8243 32.67 80.5465 33.16C81.2688 33.6267 82.0725 33.86 82.9578 33.86C83.517 33.86 84.0412 33.7667 84.5304 33.58C85.043 33.3933 85.4973 33.1367 85.8933 32.81C86.2894 32.4833 86.5806 32.11 86.767 31.69L91.3449 33.09C90.9256 34 90.3082 34.8167 89.4928 35.54C88.7007 36.2633 87.7571 36.835 86.6621 37.255C85.5905 37.6517 84.379 37.85 83.0277 37.85Z" fill="white"/>
<path d="M102.583 37.85C101.092 37.85 99.752 37.605 98.5638 37.115C97.3756 36.6017 96.3622 35.9017 95.5235 35.015C94.6848 34.105 94.0324 33.0783 93.5665 31.935C93.1238 30.7917 92.9025 29.59 92.9025 28.33C92.9025 26.6033 93.2869 25.0283 94.0557 23.605C94.8478 22.1583 95.9661 21.0033 97.4106 20.14C98.855 19.2767 100.567 18.845 102.548 18.845C104.528 18.845 106.229 19.2767 107.65 20.14C109.071 21.0033 110.131 22.135 110.83 23.535L106.252 24.935C105.856 24.2583 105.332 23.745 104.679 23.395C104.027 23.0217 103.305 22.835 102.513 22.835C101.627 22.835 100.812 23.0683 100.066 23.535C99.3443 23.9783 98.7735 24.62 98.3541 25.46C97.9348 26.2767 97.7251 27.2333 97.7251 28.33C97.7251 29.4033 97.9348 30.36 98.3541 31.2C98.7968 32.0167 99.3792 32.67 100.101 33.16C100.824 33.6267 101.627 33.86 102.513 33.86C103.072 33.86 103.596 33.7667 104.085 33.58C104.598 33.3933 105.052 33.1367 105.448 32.81C105.844 32.4833 106.135 32.11 106.322 31.69L110.9 33.09C110.48 34 109.863 34.8167 109.048 35.54C108.256 36.2633 107.312 36.835 106.217 37.255C105.145 37.6517 103.934 37.85 102.583 37.85Z" fill="white"/>
<path d="M122.103 37.85C120.635 37.85 119.307 37.605 118.119 37.115C116.931 36.6017 115.917 35.9133 115.078 35.05C114.24 34.1633 113.587 33.16 113.121 32.04C112.679 30.8967 112.457 29.695 112.457 28.435C112.457 26.685 112.842 25.0867 113.611 23.64C114.403 22.1933 115.521 21.0383 116.965 20.175C118.433 19.2883 120.157 18.845 122.138 18.845C124.141 18.845 125.853 19.2883 127.275 20.175C128.696 21.0383 129.779 22.1933 130.525 23.64C131.293 25.0633 131.678 26.6033 131.678 28.26C131.678 28.54 131.666 28.8317 131.643 29.135C131.62 29.415 131.596 29.6483 131.573 29.835H117.42C117.513 30.7683 117.781 31.585 118.224 32.285C118.689 32.985 119.272 33.5217 119.971 33.895C120.693 34.245 121.462 34.42 122.277 34.42C123.209 34.42 124.083 34.1983 124.898 33.755C125.737 33.2883 126.308 32.6817 126.611 31.935L130.629 33.055C130.187 33.9883 129.546 34.8167 128.707 35.54C127.892 36.2633 126.925 36.835 125.807 37.255C124.689 37.6517 123.454 37.85 122.103 37.85ZM117.315 26.86H126.89C126.797 25.9267 126.529 25.1217 126.086 24.445C125.667 23.745 125.108 23.2083 124.409 22.835C123.71 22.4383 122.93 22.24 122.068 22.24C121.229 22.24 120.46 22.4383 119.761 22.835C119.086 23.2083 118.526 23.745 118.084 24.445C117.664 25.1217 117.408 25.9267 117.315 26.86Z" fill="white"/>
<path d="M141.275 37.85C139.714 37.85 138.223 37.5933 136.802 37.08C135.381 36.5667 134.158 35.8083 133.133 34.805L134.81 31.76C135.905 32.6467 136.977 33.3 138.025 33.72C139.097 34.14 140.122 34.35 141.101 34.35C142.009 34.35 142.731 34.1867 143.267 33.86C143.826 33.5333 144.106 33.0433 144.106 32.39C144.106 31.9467 143.954 31.6083 143.652 31.375C143.349 31.1183 142.906 30.8967 142.324 30.71C141.765 30.5233 141.077 30.3133 140.262 30.08C138.911 29.6367 137.781 29.205 136.872 28.785C135.963 28.365 135.276 27.84 134.81 27.21C134.368 26.5567 134.146 25.7283 134.146 24.725C134.146 23.5117 134.449 22.4733 135.055 21.61C135.684 20.7233 136.546 20.035 137.641 19.545C138.759 19.055 140.064 18.81 141.555 18.81C142.859 18.81 144.094 19.02 145.259 19.44C146.424 19.8367 147.484 20.49 148.439 21.4L146.552 24.375C145.62 23.6517 144.735 23.1267 143.896 22.8C143.058 22.45 142.207 22.275 141.345 22.275C140.856 22.275 140.39 22.3333 139.947 22.45C139.528 22.5667 139.178 22.765 138.899 23.045C138.643 23.3017 138.514 23.675 138.514 24.165C138.514 24.6083 138.631 24.9583 138.864 25.215C139.12 25.4483 139.493 25.6583 139.982 25.845C140.495 26.0317 141.112 26.2417 141.834 26.475C143.302 26.895 144.537 27.3267 145.539 27.77C146.564 28.2133 147.333 28.7617 147.845 29.415C148.358 30.045 148.614 30.92 148.614 32.04C148.614 33.86 147.95 35.2833 146.622 36.31C145.294 37.3367 143.512 37.85 141.275 37.85Z" fill="white"/>
<path d="M158.544 37.85C156.983 37.85 155.492 37.5933 154.071 37.08C152.649 36.5667 151.426 35.8083 150.401 34.805L152.079 31.76C153.174 32.6467 154.245 33.3 155.294 33.72C156.365 34.14 157.39 34.35 158.369 34.35C159.278 34.35 160 34.1867 160.536 33.86C161.095 33.5333 161.374 33.0433 161.374 32.39C161.374 31.9467 161.223 31.6083 160.92 31.375C160.617 31.1183 160.174 30.8967 159.592 30.71C159.033 30.5233 158.346 30.3133 157.53 30.08C156.179 29.6367 155.049 29.205 154.14 28.785C153.232 28.365 152.545 27.84 152.079 27.21C151.636 26.5567 151.415 25.7283 151.415 24.725C151.415 23.5117 151.717 22.4733 152.323 21.61C152.952 20.7233 153.814 20.035 154.909 19.545C156.027 19.055 157.332 18.81 158.823 18.81C160.128 18.81 161.363 19.02 162.528 19.44C163.692 19.8367 164.752 20.49 165.708 21.4L163.821 24.375C162.889 23.6517 162.003 23.1267 161.165 22.8C160.326 22.45 159.476 22.275 158.614 22.275C158.124 22.275 157.658 22.3333 157.216 22.45C156.796 22.5667 156.447 22.765 156.167 23.045C155.911 23.3017 155.783 23.675 155.783 24.165C155.783 24.6083 155.899 24.9583 156.132 25.215C156.389 25.4483 156.761 25.6583 157.251 25.845C157.763 26.0317 158.381 26.2417 159.103 26.475C160.571 26.895 161.805 27.3267 162.807 27.77C163.832 28.2133 164.601 28.7617 165.114 29.415C165.626 30.045 165.882 30.92 165.882 32.04C165.882 33.86 165.218 35.2833 163.89 36.31C162.562 37.3367 160.78 37.85 158.544 37.85Z" fill="white"/>
<rect y="-0.00390625" width="49.9994" height="49.9994" fill="#FEC017"/>
<mask id="mask0_652_280" style="mask-type:alpha" maskUnits="userSpaceOnUse" x="10" y="10" width="30" height="30">
<rect x="10.5" y="10.4961" width="28.9996" height="28.9996" fill="#D9D9D9"/>
</mask>
<g mask="url(#mask0_652_280)">
<path d="M18.8964 32.699C16.7567 32.699 14.9379 31.9496 13.4401 30.4508C11.9423 28.9519 11.1934 27.1319 11.1934 24.9907C11.1934 22.8495 11.9423 21.0312 13.4401 19.5359C14.9379 18.0406 16.7567 17.293 18.8964 17.293C20.5352 17.293 21.9115 17.6756 23.0255 18.4409C24.1394 19.2061 24.9883 20.2231 25.5724 21.4919H38.8034V28.5001H35.5712V32.699H29.1369V28.5001H25.5724C24.9883 29.7689 24.1394 30.7859 23.0255 31.5511C21.9115 32.3164 20.5352 32.699 18.8964 32.699ZM18.9001 30.4939C20.3476 30.4939 21.5355 30.0173 22.4638 29.0643C23.3921 28.1112 23.9372 27.1881 24.0993 26.2949H31.4514V30.4939H33.3603V26.2949H36.5983V23.6971H24.0922C23.9332 22.8039 23.3897 21.8808 22.4616 20.9277C21.5335 19.9747 20.3448 19.4982 18.8954 19.4982C17.3655 19.4982 16.0669 20.0331 14.9996 21.1029C13.9322 22.1728 13.3985 23.4717 13.3985 24.9997C13.3985 26.5278 13.9335 27.8255 15.0033 28.8928C16.0732 29.9602 17.3721 30.4939 18.9001 30.4939ZM18.8964 27.3522C19.561 27.3522 20.1198 27.1257 20.5729 26.6725C21.0261 26.2194 21.2526 25.6606 21.2526 24.996C21.2526 24.3314 21.0261 23.7726 20.5729 23.3195C20.1198 22.8663 19.561 22.6398 18.8964 22.6398C18.2318 22.6398 17.673 22.8663 17.2198 23.3195C16.7667 23.7726 16.5402 24.3314 16.5402 24.996C16.5402 25.6606 16.7667 26.2194 17.2198 26.6725C17.673 27.1257 18.2318 27.3522 18.8964 27.3522Z" fill="white"/>
</g>
</svg>
