<svg width="100" height="50" viewBox="0 0 100 50" fill="none" xmlns="http://www.w3.org/2000/svg">
<path d="M15,0h85v50H15V0z" fill="#494949"/>
<path d="M19.6015 31.925C19.6015 30.735 19.9288 29.6967 20.5835 28.81C21.2615 27.9 22.1967 27.2 23.3891 26.71C24.5815 26.22 25.9493 25.975 27.4924 25.975C28.2639 25.975 29.0472 26.0333 29.8421 26.15C30.637 26.2667 31.3267 26.4533 31.9113 26.71V25.73C31.9113 24.5633 31.5605 23.665 30.8591 23.035C30.1811 22.405 29.1641 22.09 27.808 22.09C26.8027 22.09 25.8441 22.265 24.9322 22.615C24.0204 22.965 23.0618 23.4783 22.0564 24.155L20.5484 21.075C21.7642 20.2817 23.0033 19.6867 24.2659 19.29C25.5518 18.8933 26.8962 18.695 28.299 18.695C30.9176 18.695 32.9517 19.3483 34.4013 20.655C35.8742 21.9617 36.6107 23.8283 36.6107 26.255V32.1C36.6107 32.59 36.6925 32.94 36.8562 33.15C37.0432 33.36 37.3355 33.4883 37.733 33.535V37.35C37.3121 37.42 36.9263 37.4783 36.5756 37.525C36.2483 37.5717 35.9677 37.595 35.7339 37.595C34.7987 37.595 34.0856 37.385 33.5946 36.965C33.127 36.545 32.8348 36.0317 32.7179 35.425L32.6127 34.48C31.8177 35.5067 30.8241 36.3 29.6317 36.86C28.4393 37.42 27.2235 37.7 25.9843 37.7C24.7686 37.7 23.6697 37.455 22.6877 36.965C21.7291 36.4517 20.9693 35.7633 20.4081 34.9C19.8704 34.0133 19.6015 33.0217 19.6015 31.925ZM31.0345 32.87C31.2917 32.59 31.5021 32.31 31.6658 32.03C31.8294 31.75 31.9113 31.4933 31.9113 31.26V29.405C31.3501 29.1717 30.7422 28.9967 30.0876 28.88C29.4329 28.74 28.8134 28.67 28.2289 28.67C27.0131 28.67 26.0077 28.9383 25.2128 29.475C24.4412 29.9883 24.0555 30.6767 24.0555 31.54C24.0555 32.0067 24.1841 32.45 24.4412 32.87C24.6984 33.29 25.0725 33.6283 25.5635 33.885C26.0545 34.1417 26.639 34.27 27.317 34.27C28.0184 34.27 28.7081 34.1417 29.3862 33.885C30.0642 33.605 30.6136 33.2667 31.0345 32.87Z" fill="white"/>
<path d="M52.0143 37.7C50.5881 37.7 49.3256 37.385 48.2267 36.755C47.1512 36.1017 46.3095 35.2267 45.7016 34.13V44.805H41.0022V19.01H45.1054V22.16C45.8068 21.0867 46.6953 20.2467 47.7708 19.64C48.8463 19.01 50.0738 18.695 51.4532 18.695C52.6924 18.695 53.8263 18.94 54.855 19.43C55.9072 19.92 56.819 20.6083 57.5905 21.495C58.3621 22.3583 58.9583 23.3617 59.3791 24.505C59.8233 25.625 60.0455 26.8383 60.0455 28.145C60.0455 29.9183 59.6948 31.5283 58.9934 32.975C58.3153 34.4217 57.3684 35.5767 56.1526 36.44C54.9602 37.28 53.5808 37.7 52.0143 37.7ZM50.4361 33.71C51.1609 33.71 51.8156 33.5583 52.4001 33.255C52.9846 32.9517 53.4873 32.5433 53.9081 32.03C54.3524 31.4933 54.6797 30.8983 54.8901 30.245C55.1239 29.5683 55.2408 28.8683 55.2408 28.145C55.2408 27.375 55.1122 26.6633 54.855 26.01C54.6212 25.3567 54.2705 24.785 53.8029 24.295C53.3353 23.7817 52.7859 23.385 52.1546 23.105C51.5467 22.825 50.8804 22.685 50.1556 22.685C49.7114 22.685 49.2554 22.7667 48.7878 22.93C48.3436 23.07 47.9111 23.28 47.4902 23.56C47.0694 23.84 46.6953 24.1667 46.368 24.54C46.064 24.9133 45.8419 25.3217 45.7016 25.765V30.07C45.9822 30.7467 46.3563 31.365 46.8239 31.925C47.3149 32.485 47.876 32.9283 48.5073 33.255C49.1385 33.5583 49.7815 33.71 50.4361 33.71Z" fill="white"/>
<path d="M74.2416 37.7C72.8154 37.7 71.5529 37.385 70.454 36.755C69.3785 36.1017 68.5368 35.2267 67.9289 34.13V44.805H63.2295V19.01H67.3327V22.16C68.0341 21.0867 68.9226 20.2467 69.9981 19.64C71.0736 19.01 72.301 18.695 73.6805 18.695C74.9196 18.695 76.0536 18.94 77.0823 19.43C78.1344 19.92 79.0463 20.6083 79.8178 21.495C80.5894 22.3583 81.1856 23.3617 81.6064 24.505C82.0506 25.625 82.2728 26.8383 82.2728 28.145C82.2728 29.9183 81.9221 31.5283 81.2206 32.975C80.5426 34.4217 79.5957 35.5767 78.3799 36.44C77.1875 37.28 75.8081 37.7 74.2416 37.7ZM72.6634 33.71C73.3882 33.71 74.0429 33.5583 74.6274 33.255C75.2119 32.9517 75.7146 32.5433 76.1354 32.03C76.5797 31.4933 76.907 30.8983 77.1174 30.245C77.3512 29.5683 77.4681 28.8683 77.4681 28.145C77.4681 27.375 77.3395 26.6633 77.0823 26.01C76.8485 25.3567 76.4978 24.785 76.0302 24.295C75.5626 23.7817 75.0132 23.385 74.3819 23.105C73.774 22.825 73.1077 22.685 72.3829 22.685C71.9387 22.685 71.4827 22.7667 71.0151 22.93C70.5709 23.07 70.1384 23.28 69.7175 23.56C69.2967 23.84 68.9226 24.1667 68.5953 24.54C68.2913 24.9133 68.0692 25.3217 67.9289 25.765V30.07C68.2095 30.7467 68.5836 31.365 69.0512 31.925C69.5422 32.485 70.1033 32.9283 70.7346 33.255C71.3658 33.5583 72.0088 33.71 72.6634 33.71Z" fill="white"/>
<path fill-rule="evenodd" clip-rule="evenodd" d="M15.6815 0H8.45942L0 50H15.6815L15.6815 0Z" fill="#494949"/>
</svg>
