<svg width="205" height="50" viewBox="0 0 205 50" fill="none" xmlns="http://www.w3.org/2000/svg">
<path d="M7.28906 8.27898C8.12528 3.49262 12.281 0 17.1398 0H194.04C199.563 0 204.04 4.47715 204.04 10V50H0L7.28906 8.27898Z" fill="#94866E"/>
<path d="M46.2756 19.16H50.7248L43.0526 37.5H39.129L36.0461 29.625L33.0333 37.5H29.0746L21.4375 19.16H25.8516L31.3167 33.02L33.4537 27.035L30.2657 19.195H34.1543L36.0461 24.795L37.9729 19.195H41.8615L38.6735 27.035L40.8456 33.02L46.2756 19.16Z" fill="white"/>
<path d="M60.7543 37.85C59.2595 37.85 57.9166 37.605 56.7255 37.115C55.5344 36.6017 54.5185 35.9017 53.6777 35.015C52.8602 34.1283 52.2297 33.1133 51.7859 31.97C51.3422 30.8267 51.1203 29.625 51.1203 28.365C51.1203 27.0817 51.3422 25.8683 51.7859 24.725C52.2297 23.5817 52.8602 22.5667 53.6777 21.68C54.5185 20.7933 55.5344 20.105 56.7255 19.615C57.9166 19.1017 59.2595 18.845 60.7543 18.845C62.249 18.845 63.5802 19.1017 64.748 19.615C65.9391 20.105 66.9551 20.7933 67.7959 21.68C68.6366 22.5667 69.2672 23.5817 69.6876 24.725C70.1314 25.8683 70.3532 27.0817 70.3532 28.365C70.3532 29.625 70.1314 30.8267 69.6876 31.97C69.2672 33.1133 68.6366 34.1283 67.7959 35.015C66.9784 35.9017 65.9741 36.6017 64.783 37.115C63.5919 37.605 62.249 37.85 60.7543 37.85ZM55.9548 28.365C55.9548 29.4383 56.165 30.395 56.5854 31.235C57.0058 32.0517 57.578 32.6933 58.302 33.16C59.026 33.6267 59.8434 33.86 60.7543 33.86C61.6418 33.86 62.4475 33.6267 63.1715 33.16C63.8955 32.67 64.4677 32.0167 64.8881 31.2C65.3319 30.36 65.5537 29.4033 65.5537 28.33C65.5537 27.28 65.3319 26.335 64.8881 25.495C64.4677 24.655 63.8955 24.0017 63.1715 23.535C62.4475 23.0683 61.6418 22.835 60.7543 22.835C59.8434 22.835 59.026 23.08 58.302 23.57C57.578 24.0367 57.0058 24.69 56.5854 25.53C56.165 26.3467 55.9548 27.2917 55.9548 28.365Z" fill="white"/>
<path d="M84.452 23.22C83.0273 23.22 81.7545 23.5 80.6334 24.06C79.5124 24.5967 78.7066 25.3783 78.2162 26.405V37.5H73.5218V19.16H77.8308V23.08C78.4847 21.82 79.3138 20.8283 80.3181 20.105C81.3224 19.3817 82.3851 18.985 83.5061 18.915C83.763 18.915 83.9615 18.915 84.1016 18.915C84.2418 18.915 84.3586 18.9267 84.452 18.95V23.22Z" fill="white"/>
<path d="M99.6113 37.5L94.2513 29.59L91.764 32.04V37.5H87.0696V11.95H91.764V27.42L99.1559 19.195H104.131L97.2991 26.965L104.621 37.5H99.6113Z" fill="white"/>
<path d="M129.376 19.16H133.825L126.153 37.5H122.229L119.146 29.625L116.133 37.5H112.175L104.537 19.16H108.952L114.417 33.02L116.554 27.035L113.366 19.195H117.254L119.146 24.795L121.073 19.195H124.962L121.774 27.035L123.946 33.02L129.376 19.16Z" fill="white"/>
<path d="M143.889 37.85C142.418 37.85 141.087 37.605 139.896 37.115C138.704 36.6017 137.689 35.9133 136.848 35.05C136.007 34.1633 135.353 33.16 134.886 32.04C134.442 30.8967 134.22 29.695 134.22 28.435C134.22 26.685 134.606 25.0867 135.376 23.64C136.17 22.1933 137.292 21.0383 138.74 20.175C140.211 19.2883 141.939 18.845 143.924 18.845C145.933 18.845 147.649 19.2883 149.074 20.175C150.499 21.0383 151.585 22.1933 152.332 23.64C153.103 25.0633 153.488 26.6033 153.488 28.26C153.488 28.54 153.477 28.8317 153.453 29.135C153.43 29.415 153.407 29.6483 153.383 29.835H139.195C139.288 30.7683 139.557 31.585 140.001 32.285C140.468 32.985 141.052 33.5217 141.752 33.895C142.476 34.245 143.247 34.42 144.064 34.42C144.999 34.42 145.875 34.1983 146.692 33.755C147.533 33.2883 148.105 32.6817 148.409 31.935L152.437 33.055C151.994 33.9883 151.351 34.8167 150.51 35.54C149.693 36.2633 148.724 36.835 147.603 37.255C146.482 37.6517 145.244 37.85 143.889 37.85ZM139.09 26.86H148.689C148.595 25.9267 148.327 25.1217 147.883 24.445C147.463 23.745 146.902 23.2083 146.201 22.835C145.501 22.4383 144.718 22.24 143.854 22.24C143.014 22.24 142.243 22.4383 141.542 22.835C140.865 23.2083 140.304 23.745 139.861 24.445C139.44 25.1217 139.183 25.9267 139.09 26.86Z" fill="white"/>
<path d="M155.087 32.075C155.087 30.885 155.414 29.8467 156.068 28.96C156.745 28.05 157.679 27.35 158.87 26.86C160.062 26.37 161.428 26.125 162.969 26.125C163.74 26.125 164.522 26.1833 165.316 26.3C166.111 26.4167 166.8 26.6033 167.383 26.86V25.88C167.383 24.7133 167.033 23.815 166.332 23.185C165.655 22.555 164.639 22.24 163.285 22.24C162.28 22.24 161.323 22.415 160.412 22.765C159.501 23.115 158.543 23.6283 157.539 24.305L156.033 21.225C157.247 20.4317 158.485 19.8367 159.746 19.44C161.031 19.0433 162.374 18.845 163.775 18.845C166.391 18.845 168.423 19.4983 169.871 20.805C171.342 22.1117 172.078 23.9783 172.078 26.405V32.25C172.078 32.74 172.16 33.09 172.323 33.3C172.51 33.51 172.802 33.6383 173.199 33.685V37.5C172.778 37.57 172.393 37.6283 172.043 37.675C171.716 37.7217 171.436 37.745 171.202 37.745C170.268 37.745 169.555 37.535 169.065 37.115C168.598 36.695 168.306 36.1817 168.189 35.575L168.084 34.63C167.29 35.6567 166.297 36.45 165.106 37.01C163.915 37.57 162.701 37.85 161.463 37.85C160.248 37.85 159.151 37.605 158.17 37.115C157.212 36.6017 156.453 35.9133 155.893 35.05C155.355 34.1633 155.087 33.1717 155.087 32.075ZM166.508 33.02C166.764 32.74 166.975 32.46 167.138 32.18C167.302 31.9 167.383 31.6433 167.383 31.41V29.555C166.823 29.3217 166.216 29.1467 165.562 29.03C164.908 28.89 164.289 28.82 163.705 28.82C162.49 28.82 161.486 29.0883 160.692 29.625C159.921 30.1383 159.536 30.8267 159.536 31.69C159.536 32.1567 159.665 32.6 159.921 33.02C160.178 33.44 160.552 33.7783 161.042 34.035C161.533 34.2917 162.117 34.42 162.794 34.42C163.495 34.42 164.184 34.2917 164.861 34.035C165.538 33.755 166.087 33.4167 166.508 33.02Z" fill="white"/>
<path d="M187.395 23.22C185.97 23.22 184.697 23.5 183.576 24.06C182.455 24.5967 181.649 25.3783 181.159 26.405V37.5H176.465V19.16H180.774V23.08C181.427 21.82 182.257 20.8283 183.261 20.105C184.265 19.3817 185.328 18.985 186.449 18.915C186.706 18.915 186.904 18.915 187.044 18.915C187.185 18.915 187.301 18.9267 187.395 18.95V23.22Z" fill="white"/>
</svg>
