<svg width="192" height="30" viewBox="0 0 192 30" fill="none" xmlns="http://www.w3.org/2000/svg">
    <g fill="#ffffff">
        <path d="M16.6351 30C14.0002 30 11.6603 29.6147 9.61531 28.844C7.57034 28.0367 5.82031 26.9541 4.36523 25.5963C2.94948 24.2385 1.86801 22.6789 1.1208 20.9174C0.373601 19.1193 0 17.2477 0 15.3028C0 12.5138 0.648886 9.98165 1.94666 7.70642C3.28376 5.3945 5.19109 3.54128 7.66865 2.14679C10.1462 0.715596 13.135 0 16.6351 0C20.1351 0 23.1043 0.697248 25.5425 2.09174C28.0201 3.48624 29.9078 5.3211 31.2055 7.59633C32.5033 9.83486 33.1522 12.2752 33.1522 14.9174C33.1522 15.4312 33.1129 15.945 33.0342 16.4587C32.9949 16.9358 32.9555 17.3578 32.9162 17.7248H10.0282C10.1462 19.0092 10.5198 20.0917 11.149 20.9725C11.8176 21.8532 12.6631 22.5321 13.6856 23.0092C14.7081 23.4495 15.7896 23.6697 16.93 23.6697C18.3458 23.6697 19.6632 23.3578 20.8823 22.7339C22.1408 22.1101 23.006 21.2661 23.4779 20.2018L31.5005 22.2936C30.7139 23.7982 29.5931 25.1376 28.1381 26.3119C26.7223 27.4495 25.0313 28.3486 23.065 29.0092C21.138 29.6697 18.9947 30 16.6351 30ZM9.79228 12.3303H23.2419C23.0846 11.1193 22.711 10.0734 22.1211 9.19266C21.5312 8.27523 20.7447 7.57798 19.7615 7.10092C18.7784 6.58716 17.6969 6.33028 16.5171 6.33028C15.298 6.33028 14.1968 6.58716 13.2137 7.10092C12.2698 7.57798 11.503 8.27523 10.9131 9.19266C10.3232 10.0734 9.94959 11.1193 9.79228 12.3303Z"/>
        <path d="M35.5408 20.8073C35.5408 18.8991 36.111 17.2294 37.2515 15.7982C38.392 14.367 39.965 13.2477 41.9707 12.4404C43.9763 11.5963 46.2769 11.1743 48.8725 11.1743C50.1309 11.1743 51.3697 11.2844 52.5888 11.5046C53.8079 11.6881 54.8697 11.9633 55.7742 12.3303V11.0642C55.7742 9.48624 55.263 8.27523 54.2405 7.43119C53.218 6.58716 51.6646 6.16514 49.5803 6.16514C47.85 6.16514 46.2179 6.44037 44.6842 6.99083C43.1898 7.54129 41.5971 8.33028 39.906 9.3578L37.0745 3.74312C39.1195 2.49541 41.2431 1.55963 43.4454 0.935781C45.687 0.311927 48.0466 0 50.5242 0C55.1647 0 58.7631 1.04587 61.3193 3.13762C63.9148 5.19266 65.2126 8.18349 65.2126 12.1101V19.6514C65.2126 20.5321 65.3502 21.156 65.6255 21.5229C65.9401 21.8532 66.471 22.055 67.2182 22.1284V29.4495C66.4317 29.5963 65.6845 29.7064 64.9766 29.7798C64.3081 29.8532 63.7182 29.8899 63.2069 29.8899C61.4373 29.8899 60.0805 29.5596 59.1367 28.8991C58.2321 28.2385 57.6619 27.3395 57.426 26.2018L57.249 24.9358C55.8726 26.5872 54.2209 27.8532 52.2939 28.7339C50.4062 29.578 48.4202 30 46.3359 30C44.2909 30 42.4426 29.5963 40.7909 28.789C39.1785 27.9817 37.9004 26.8807 36.9566 25.4862C36.0127 24.0917 35.5408 22.5321 35.5408 20.8073ZM54.2995 21.9083C54.7321 21.578 55.086 21.211 55.3613 20.8073C55.6366 20.4037 55.7742 20.0183 55.7742 19.6514V17.0642C54.9877 16.7706 54.1029 16.5505 53.1197 16.4037C52.1759 16.2202 51.291 16.1284 50.4652 16.1284C48.7348 16.1284 47.2994 16.4954 46.1589 17.2294C45.0185 17.9266 44.4482 18.8624 44.4482 20.0367C44.4482 20.6972 44.6449 21.3028 45.0381 21.8532C45.4314 22.4037 45.9623 22.844 46.6309 23.1743C47.3387 23.5046 48.1646 23.6697 49.1084 23.6697C50.0522 23.6697 50.9961 23.5046 51.9399 23.1743C52.8838 22.844 53.6703 22.422 54.2995 21.9083Z"/>
        <path d="M83.9086 30C81.2738 30 78.6979 29.5963 76.181 28.789C73.6641 27.9817 71.5405 26.789 69.8101 25.211L73.0545 19.6514C74.9422 20.9358 76.7709 21.9083 78.5406 22.5688C80.3496 23.2294 82.0406 23.5596 83.6137 23.5596C84.8328 23.5596 85.7766 23.3761 86.4452 23.0092C87.1137 22.6422 87.448 22.0734 87.448 21.3028C87.448 20.7523 87.2514 20.3303 86.8581 20.0367C86.4648 19.7064 85.8553 19.4128 85.0294 19.156C84.2429 18.8991 83.2597 18.6239 82.0799 18.3303C79.7204 17.5963 77.754 16.8807 76.181 16.1835C74.6079 15.4862 73.4281 14.6422 72.6416 13.6514C71.8551 12.6239 71.4618 11.3028 71.4618 9.68807C71.4618 7.74312 71.9731 6.05505 72.9955 4.62385C74.0574 3.15596 75.5518 2.01835 77.4788 1.21101C79.4057 0.40367 81.7063 0 84.3805 0C86.5042 0 88.5688 0.311927 90.5744 0.935781C92.6194 1.55963 94.5268 2.6055 96.2964 4.07339L92.6391 9.57798C90.8694 8.44037 89.2963 7.61468 87.9199 7.10092C86.5435 6.58716 85.2064 6.33028 83.9086 6.33028C83.2401 6.33028 82.6305 6.40367 82.0799 6.55046C81.5294 6.69725 81.0771 6.95413 80.7232 7.3211C80.4086 7.65138 80.2513 8.09174 80.2513 8.6422C80.2513 9.19266 80.4086 9.63303 80.7232 9.9633C81.0771 10.2936 81.608 10.5872 82.3159 10.844C83.0631 11.0642 83.9873 11.3394 85.0884 11.6697C87.6446 12.367 89.7683 13.0826 91.4593 13.8165C93.1503 14.5138 94.4088 15.3945 95.2346 16.4587C96.0998 17.4862 96.5324 18.8624 96.5324 20.5872C96.5324 23.5229 95.3919 25.8349 93.111 27.5229C90.8694 29.1743 87.8019 30 83.9086 30Z"/>
        <path d="M116.18 30C113.545 30 111.205 29.6147 109.16 28.844C107.115 28.0367 105.365 26.9541 103.91 25.5963C102.495 24.2385 101.413 22.6789 100.666 20.9174C99.9186 19.1193 99.545 17.2477 99.545 15.3028C99.545 12.5138 100.194 9.98165 101.492 7.70642C102.829 5.3945 104.736 3.54128 107.214 2.14679C109.691 0.715596 112.68 0 116.18 0C119.68 0 122.649 0.697248 125.088 2.09174C127.565 3.48624 129.453 5.3211 130.751 7.59633C132.048 9.83486 132.697 12.2752 132.697 14.9174C132.697 15.4312 132.658 15.945 132.579 16.4587C132.54 16.9358 132.501 17.3578 132.461 17.7248H109.573C109.691 19.0092 110.065 20.0917 110.694 20.9725C111.363 21.8532 112.208 22.5321 113.231 23.0092C114.253 23.4495 115.335 23.6697 116.475 23.6697C117.891 23.6697 119.208 23.3578 120.427 22.7339C121.686 22.1101 122.551 21.2661 123.023 20.2018L131.045 22.2936C130.259 23.7982 129.138 25.1376 127.683 26.3119C126.267 27.4495 124.576 28.3486 122.61 29.0092C120.683 29.6697 118.54 30 116.18 30ZM109.337 12.3303H122.787C122.63 11.1193 122.256 10.0734 121.666 9.19266C121.076 8.27523 120.29 7.57798 119.307 7.10092C118.323 6.58716 117.242 6.33028 116.062 6.33028C114.843 6.33028 113.742 6.58716 112.759 7.10092C111.815 7.57798 111.048 8.27523 110.458 9.19266C109.868 10.0734 109.495 11.1193 109.337 12.3303Z"/>
    </g>
    <path d="M155.131 5.36697H149.601V13.1078H141.306V18.2684H149.601V26.0092H155.131V18.2684H162.542L163.427 13.1078H155.131V5.36697Z" fill="#FBC83B"/>
    <path d="M178.174 26.0092H183.705V18.2684H192V13.1078H183.705V5.36697H178.174V13.1078H170.764L169.879 18.2684H178.174V26.0092Z" fill="#FBC83B"/>
</svg>
