 <svg xmlns="http://www.w3.org/2000/svg" xmlns:xlink="http://www.w3.org/1999/xlink">
	<symbol id="icon-hrbase" viewBox="0 0 260 260" fill="currentColor">
		<path d="M130.001 231.833C101.474 231.833 77.3694 227.229 57.6888 218.021C38.0082 208.812 28.168 197.527 28.168 184.166V75.833C28.168 62.6525 38.0985 51.3677 57.9596 41.9788C77.8208 32.59 101.835 27.8955 130.001 27.8955C157.987 27.8955 182.001 32.59 202.043 41.9788C222.085 51.3677 232.105 62.6525 232.105 75.833V184.166C232.105 197.527 222.175 208.812 202.314 218.021C182.453 227.229 158.349 231.833 130.001 231.833ZM130.001 93.9788C144.987 93.9788 160.56 91.6768 176.72 87.0726C192.88 82.4684 203.939 77.0969 209.897 70.958C203.758 64.9997 192.564 59.6281 176.314 54.8434C160.064 50.0587 144.626 47.6663 130.001 47.6663C114.474 47.6663 98.7201 50.0136 82.7409 54.708C66.7617 59.4025 55.8832 64.8191 50.1055 70.958C56.0638 77.2775 66.8971 82.6941 82.6055 87.208C98.3138 91.7219 114.112 93.9788 130.001 93.9788ZM129.73 153.021C137.133 153.021 144.536 152.569 151.939 151.666C159.342 150.764 166.609 149.409 173.741 147.604C180.873 145.798 187.689 143.586 194.189 140.968C200.689 138.35 206.737 135.416 212.335 132.166V93.708C206.557 96.7775 200.373 99.5761 193.783 102.104C187.192 104.632 180.331 106.753 173.199 108.468C166.067 110.184 158.845 111.493 151.533 112.396C144.22 113.298 136.953 113.75 129.73 113.75C122.328 113.75 114.88 113.298 107.387 112.396C99.8937 111.493 92.6263 110.184 85.5846 108.468C78.543 106.753 71.8173 104.632 65.4076 102.104C58.9978 99.5761 53.1749 96.7775 47.9388 93.708V132.166C53.536 135.416 59.5395 138.35 65.9492 140.968C72.3589 143.586 79.0846 145.798 86.1263 147.604C93.168 149.409 100.345 150.764 107.658 151.666C114.97 152.569 122.328 153.021 129.73 153.021ZM130.001 212.062C138.668 212.062 147.605 211.295 156.814 209.76C166.022 208.225 174.508 206.194 182.272 203.666C190.036 201.139 196.671 198.25 202.178 195C207.685 191.75 211.071 188.5 212.335 185.25V153.021C206.557 156.09 200.373 158.889 193.783 161.416C187.192 163.944 180.331 166.021 173.199 167.646C166.067 169.271 158.845 170.534 151.533 171.437C144.22 172.34 136.953 172.791 129.73 172.791C122.508 172.791 115.286 172.385 108.064 171.573C100.842 170.76 93.7999 169.496 86.9388 167.781C80.0777 166.066 73.352 163.989 66.7617 161.552C60.1714 159.114 53.8971 156.271 47.9388 153.021V185.521C48.8416 188.771 51.9562 191.975 57.2826 195.135C62.6089 198.295 69.1992 201.139 77.0534 203.666C84.9076 206.194 93.4839 208.225 102.783 209.76C112.081 211.295 121.154 212.062 130.001 212.062Z"/>
	</symbol>
	<symbol id="icon-cplatform" viewBox="0 0 260 260" fill="currentColor">
		<path d="M29.25 119.167V29.251H119.166V119.167H29.25ZM29.25 230.75V140.834H119.166V230.75H29.25ZM140.833 119.167V29.251H230.749V119.167H140.833ZM140.833 230.75V140.834H230.749V230.75H140.833ZM52.5414 95.876H95.875V52.5424H52.5414V95.876ZM164.124 95.876H207.458V52.5424H164.124V95.876ZM164.124 207.459H207.458V164.125H164.124V207.459ZM52.5414 207.459H95.875V164.125H52.5414V207.459Z"/>
	</symbol>
	<symbol id="icon-holiday" viewBox="0 0 260 260" fill="currentColor">
		<path d="M129.786 168.869C140.507 168.869 149.701 165.131 157.368 157.655C165.035 150.18 168.869 141.032 168.869 130.214C168.869 119.493 165.058 110.299 157.437 102.632C149.816 94.9645 140.644 91.131 129.923 91.131C119.202 91.131 110.056 94.9417 102.486 102.563C94.916 110.184 91.131 119.356 91.131 130.077C91.131 140.798 94.8689 149.944 102.345 157.514C109.82 165.084 118.968 168.869 129.786 168.869ZM129.835 190.123C113.129 190.123 98.9596 184.307 87.3265 172.673C75.6934 161.04 69.8768 146.871 69.8768 130.165C69.8768 113.459 75.6934 99.2348 87.3265 87.4916C98.9596 75.7484 113.129 69.8768 129.835 69.8768C146.541 69.8768 160.765 75.7484 172.508 87.4916C184.252 99.2348 190.123 113.459 190.123 130.165C190.123 146.871 184.252 161.04 172.508 172.673C160.765 184.307 146.541 190.123 129.835 190.123ZM10.4815 140.627C7.61366 140.627 5.14973 139.593 3.08972 137.524C1.02991 135.455 0 132.98 0 130.1C0 127.219 1.02991 124.711 3.08972 122.576C5.14973 120.44 7.61366 119.373 10.4815 119.373H39.5969C42.5472 119.373 45.0803 120.436 47.196 122.561C49.3117 124.687 50.3695 127.232 50.3695 130.197C50.3695 133.079 49.3117 135.538 47.196 137.574C45.0803 139.609 42.5472 140.627 39.5969 140.627H10.4815ZM220.112 140.627C217.244 140.627 214.78 139.593 212.72 137.524C210.66 135.455 209.63 132.98 209.63 130.1C209.63 127.219 210.66 124.711 212.72 122.576C214.78 120.44 217.244 119.373 220.112 119.373H249.227C252.178 119.373 254.711 120.436 256.826 122.561C258.942 124.687 260 127.232 260 130.197C260 133.079 258.942 135.538 256.826 137.574C254.711 139.609 252.178 140.627 249.227 140.627H220.112ZM129.803 50.3695C126.921 50.3695 124.462 49.3396 122.426 47.2798C120.391 45.2198 119.373 42.7559 119.373 39.888V10.7727C119.373 7.82232 120.407 5.28929 122.476 3.17358C124.545 1.05786 127.02 0 129.9 0C132.781 0 135.289 1.05786 137.424 3.17358C139.56 5.28929 140.627 7.82232 140.627 10.7727V39.888C140.627 42.7559 139.564 45.2198 137.439 47.2798C135.313 49.3396 132.768 50.3695 129.803 50.3695ZM129.803 260C126.921 260 124.462 258.97 122.426 256.91C120.391 254.85 119.373 252.386 119.373 249.518V220.403C119.373 217.453 120.407 214.92 122.476 212.804C124.545 210.688 127.02 209.63 129.9 209.63C132.781 209.63 135.289 210.688 137.424 212.804C139.56 214.92 140.627 217.453 140.627 220.403V249.518C140.627 252.386 139.564 254.85 137.439 256.91C135.313 258.97 132.768 260 129.803 260ZM58.813 73.6618L42.2172 57.3572C40.0821 55.2221 39.002 52.6888 38.977 49.7572C38.9518 46.8255 40.0219 44.3022 42.1873 42.1872C44.1081 40.2662 46.5344 39.3057 49.4661 39.3057C52.3976 39.3057 55.028 40.2762 57.3572 42.2172L73.6618 58.813C75.6028 61.0188 76.5733 63.5598 76.5733 66.436C76.5733 69.3122 75.6028 71.6723 73.6618 73.5162C71.8178 75.7484 69.3673 76.8645 66.3102 76.8645C63.2531 76.8645 60.754 75.7969 58.813 73.6618ZM202.643 217.783L186.338 201.187C184.203 199.246 183.184 196.856 183.281 194.017C183.378 191.179 184.446 188.619 186.484 186.338C188.328 184.397 190.686 183.415 193.559 183.39C196.432 183.366 198.974 184.349 201.187 186.338L217.783 202.643C219.724 204.972 220.707 207.602 220.732 210.534C220.757 213.466 219.784 215.892 217.813 217.813C215.613 219.928 213.069 220.985 210.18 220.985C207.29 220.985 204.778 219.918 202.643 217.783ZM186.338 73.6618C184.203 71.6723 183.135 69.2339 183.135 66.3466C183.135 63.4593 184.203 60.9481 186.338 58.813L202.643 42.2172C204.778 40.2762 207.311 39.2932 210.243 39.2681C213.174 39.2429 215.698 40.2159 217.813 42.1872C219.734 44.3866 220.694 46.931 220.694 49.8204C220.694 52.7098 219.724 55.2221 217.783 57.3572L201.187 73.6618C199.052 75.7969 196.542 76.8645 193.657 76.8645C190.772 76.8645 188.332 75.7969 186.338 73.6618ZM42.1873 217.813C40.0721 215.892 39.0146 213.466 39.0146 210.534C39.0146 207.602 40.0821 204.972 42.2172 202.643L58.813 186.338C60.7152 184.397 63.0832 183.427 65.9171 183.427C68.751 183.427 71.2566 184.397 73.4338 186.338C75.5268 188.473 76.5733 190.997 76.5733 193.908C76.5733 196.82 75.6028 199.246 73.6618 201.187L57.3572 217.783C55.028 219.918 52.3976 220.998 49.4661 221.023C46.5344 221.048 44.1081 219.978 42.1873 217.813Z"/>
	</symbol>
	<symbol id="icon-workhour" viewBox="0 0 260 260" fill="currentColor">
		<path d="M118.06 230.208C104.164 230.208 91.1463 227.55 79.0064 222.235C66.8664 216.919 56.2441 209.706 47.1396 200.595C38.0351 191.484 30.8815 180.839 25.6788 168.66C20.4763 156.481 17.875 143.418 17.875 129.473C17.875 115.528 20.4757 102.463 25.6772 90.2795C30.8786 78.0962 38.0306 67.4473 47.1331 58.3328C56.2357 49.2186 66.8595 42.0027 79.0048 36.6851C91.1502 31.3676 104.176 28.7088 118.083 28.7088C121.875 28.7088 125.712 28.9345 129.593 29.3859C133.475 29.8373 137.222 30.5144 140.833 31.4171V55.521C137.222 54.4377 133.475 53.5801 129.593 52.9481C125.712 52.3162 121.861 52.0002 118.042 52.0002C96.7222 52.0002 78.5796 59.5732 63.6144 74.7191C48.6491 89.8648 41.1664 108.111 41.1664 129.459C41.1664 150.806 48.6491 169.052 63.6144 184.198C78.5796 199.344 96.7358 206.917 118.083 206.917C139.43 206.917 157.677 199.344 172.823 184.198C187.968 169.052 195.541 150.818 195.541 129.494C195.541 127.506 195.496 125.59 195.406 123.746C195.316 121.901 195.055 119.986 194.625 118H217.979C218.34 120.028 218.572 121.965 218.677 123.812C218.781 125.659 218.833 127.541 218.833 129.459C218.833 143.331 216.175 156.394 210.859 168.646C205.544 180.899 198.348 191.564 189.271 200.642C180.194 209.72 169.531 216.917 157.28 222.234C145.029 227.55 131.956 230.208 118.06 230.208ZM148.667 176.333L106.708 134.375V74.2085H129.999V125.084L164.958 160.042L148.667 176.333ZM195.541 96.3335V63.2918H162.5V40.0007H195.541V6.95898H218.833V40.0007H251.874V63.2918H218.833V96.3335H195.541Z"/>
	</symbol>
	<symbol id="icon-productivity" viewBox="0 0 260 260" fill="currentColor">
		<path d="M54.167 216.662C46.5978 216.662 40.1916 214.04 34.9484 208.797C29.7055 203.554 27.084 197.148 27.084 189.579C27.084 182.01 29.7055 175.603 34.9484 170.36C40.1916 165.117 46.5978 162.496 54.167 162.496H205.834C213.403 162.496 219.809 165.117 225.052 170.36C230.295 175.603 232.917 182.01 232.917 189.579C232.917 197.148 230.295 203.554 225.052 208.797C219.809 214.04 213.403 216.662 205.834 216.662H54.167ZM54.167 200.412H205.834C208.903 200.412 211.476 199.374 213.552 197.298C215.629 195.221 216.667 192.648 216.667 189.579C216.667 186.51 215.629 183.937 213.552 181.86C211.476 179.784 208.903 178.746 205.834 178.746H54.167C51.0976 178.746 48.5247 179.784 46.4483 181.86C44.3719 183.937 43.3337 186.51 43.3337 189.579C43.3337 192.648 44.3719 195.221 46.4483 197.298C48.5247 199.374 51.0976 200.412 54.167 200.412ZM117.874 140.829C115.112 140.829 112.796 139.895 110.928 138.026C109.06 136.157 108.126 133.842 108.126 131.079V53.0779C108.126 50.3154 109.061 48.0001 110.929 46.1321C112.798 44.2641 115.114 43.3301 117.876 43.3301H195.877C198.64 43.3301 200.955 44.2645 202.823 46.1332C204.691 48.002 205.625 50.3176 205.625 53.0801V131.081C205.625 133.844 204.691 136.159 202.822 138.027C200.953 139.895 198.638 140.829 195.875 140.829H117.874ZM124.376 124.58H189.376V59.5795H124.376V124.58ZM27.084 121.538V105.788H85.9596V121.538H27.084ZM135.209 89.3712H178.542V73.2883H135.209V89.3712ZM48.7507 89.3712H85.9596V73.2883H48.7507V89.3712Z"/>
	</symbol>
	<symbol id="icon-competency" viewBox="0 0 260 260" fill="currentColor">
		<path d="M10.2832 190.126V160.219C10.2832 153.435 12.007 147.255 15.4545 141.68C18.9018 136.106 23.6781 131.942 29.7832 129.188C41.1582 124.313 52.8012 120.251 64.7123 117.001C76.6234 113.751 88.8137 112.126 101.283 112.126C110.843 112.126 120.297 113.119 129.645 115.105C138.993 117.091 148.046 119.709 156.804 122.959C154.481 125.491 152.361 128.131 150.444 130.881C148.526 133.631 146.855 136.587 145.429 139.751C138.207 137.223 130.885 135.282 123.462 133.928C116.04 132.574 108.602 131.896 101.148 131.896C90.4048 131.896 79.6617 133.341 68.9186 136.23C58.1756 139.119 47.8388 142.73 37.9082 147.063C35.3804 148.327 33.4395 150.13 32.0853 152.471C30.7311 154.812 30.054 157.454 30.054 160.397V170.355H137.575C137.394 173.966 137.62 177.396 138.252 180.646C138.884 183.896 139.742 187.056 140.825 190.126H10.2832ZM101.055 93.9798C88.6497 93.9798 78.1383 89.6857 69.5212 81.0974C60.9042 72.5092 56.5957 62.0122 56.5957 49.6062C56.5957 37.2004 60.8899 26.689 69.4782 18.072C78.0663 9.45498 88.5633 5.14648 100.969 5.14648C113.375 5.14648 123.887 9.44063 132.504 18.0289C141.121 26.6171 145.429 37.1141 145.429 49.5201C145.429 61.9259 141.135 72.4373 132.547 81.0543C123.958 89.6713 113.461 93.9798 101.055 93.9798ZM101.046 74.209C107.885 74.209 113.696 71.8054 118.481 66.9983C123.266 62.1912 125.658 56.3683 125.658 49.5296C125.658 42.6908 123.255 36.8791 118.448 32.0944C113.64 27.3097 107.818 24.9173 100.979 24.9173C94.1401 24.9173 88.3284 27.3209 83.5436 32.128C78.7589 36.9351 76.3665 42.758 76.3665 49.5967C76.3665 56.4355 78.7701 62.2472 83.5772 67.0319C88.3843 71.8166 94.2072 74.209 101.046 74.209ZM210.158 49.5631C210.158 61.7597 205.805 72.2116 197.097 80.9189C188.39 89.6262 177.925 93.9798 165.703 93.9798C162.84 93.9798 159.964 93.7993 157.075 93.4382C154.186 93.077 151.478 92.4451 148.95 91.5423C153.825 85.7645 157.301 79.2229 159.377 71.9175C161.453 64.612 162.492 57.1505 162.492 49.5331C162.492 41.9156 161.363 34.5545 159.106 27.4496C156.849 20.3447 153.464 13.7229 148.95 7.58398C151.613 6.65864 154.367 6.02109 157.21 5.67136C160.054 5.32144 162.925 5.14648 165.823 5.14648C177.965 5.14648 188.39 9.50012 197.097 18.2074C205.805 26.9147 210.158 37.3666 210.158 49.5631ZM206.783 224.251C191.99 224.251 179.465 219.058 169.209 208.671C158.953 198.285 153.825 185.724 153.825 170.988C153.825 156.219 158.96 143.664 169.229 133.324C179.499 122.983 192.06 117.813 206.911 117.813C221.798 117.813 234.411 122.981 244.752 133.316C255.092 143.651 260.262 156.22 260.262 171.025C260.262 185.728 255.092 198.274 244.752 208.665C234.411 219.055 221.755 224.251 206.783 224.251ZM196.887 195.001L235.075 156.813L227.221 149.23L196.617 179.834L181.45 164.396L173.867 171.98L196.887 195.001Z"/>
	</symbol>
	<symbol id="icon-shift" viewBox="0 0 260 260" fill="currentColor">
		<path d="M37.099 231.833C31.9125 231.833 27.3208 229.835 23.3238 225.838C19.3267 221.84 17.3281 217.249 17.3281 212.062V82.333C17.3281 77.1465 19.3267 72.5548 23.3238 68.5579C27.3208 64.5607 31.9125 62.5622 37.099 62.5622H82.8698V35.4788C82.8698 30.3579 84.8684 25.7825 88.8655 21.7527C92.8625 17.7229 97.4542 15.708 102.641 15.708H157.349C162.535 15.708 167.127 17.7229 171.124 21.7527C175.121 25.7825 177.12 30.3579 177.12 35.4788V62.5622H222.891C228.077 62.5622 232.669 64.5607 236.666 68.5579C240.663 72.5548 242.661 77.1465 242.661 82.333V140.833C239.735 138.277 236.611 135.968 233.29 133.906C229.968 131.843 226.502 130 222.891 128.375V82.333H37.099V212.062H124.849C125.571 215.673 126.655 219.104 128.099 222.354C129.543 225.604 131.259 228.764 133.245 231.833H37.099ZM102.641 62.5622H157.349V35.4788H102.641V62.5622ZM194.995 251.062C179.648 251.062 166.467 245.555 155.453 234.541C144.439 223.527 138.932 210.347 138.932 195C138.932 179.652 144.439 166.472 155.453 155.458C166.467 144.444 179.648 138.937 194.995 138.937C210.342 138.937 223.523 144.444 234.536 155.458C245.55 166.472 251.057 179.652 251.057 195C251.057 210.347 245.55 223.527 234.536 234.541C223.523 245.555 210.342 251.062 194.995 251.062ZM199.87 194.458V157.625H187.682V197.918L215.036 223.166L222.891 215.312L199.87 194.458Z"/>
	</symbol>
	<symbol id="icon-workwear" viewBox="0 0 260 260" fill="currentColor">
		<path d="M205.566 241.584C204.138 241.584 202.833 241.313 201.651 240.771C200.469 240.23 199.427 239.417 198.524 238.334L135.691 175.23C134.575 174.34 133.799 173.33 133.364 172.202C132.929 171.073 132.712 169.826 132.712 168.459C132.712 167.092 132.929 165.844 133.364 164.715C133.799 163.587 134.575 162.488 135.691 161.417L161.42 135.688C162.31 134.752 163.319 134.022 164.448 133.497C165.576 132.971 166.824 132.709 168.191 132.709C169.558 132.709 170.806 132.971 171.934 133.497C173.063 134.022 174.162 134.752 175.233 135.688L238.337 198.792C239.24 199.695 239.962 200.739 240.504 201.925C241.045 203.11 241.316 204.419 241.316 205.852C241.316 207.284 241.053 208.551 240.528 209.652C240.003 210.754 239.273 211.738 238.337 212.605L212.608 238.605C211.537 239.54 210.438 240.27 209.309 240.796C208.181 241.321 206.933 241.584 205.566 241.584ZM205.566 217.75L217.483 205.834L168.191 156.271L156.274 168.188L205.566 217.75ZM54.1702 241.313C52.7258 241.313 51.4039 241.087 50.2044 240.636C49.005 240.184 47.9797 239.417 47.1286 238.334L21.6702 212.875C20.5869 212.024 19.8196 210.999 19.3682 209.799C18.9168 208.6 18.6911 207.278 18.6911 205.834C18.6911 204.389 18.9168 203.116 19.3682 202.015C19.8196 200.914 20.5869 199.839 21.6702 198.792L79.3578 141.105H105.087L115.92 130.271L70.4202 84.5003H54.9827L16.5244 46.3128L45.7744 17.0628L84.2327 55.2503V70.6878L129.733 116.459L163.858 82.3337L145.712 64.1878L159.254 50.6462H132.17L125.399 44.1462L162.504 7.04199L169.274 13.542V40.6253L182.545 27.3545L229.652 74.19C232.372 77.0913 234.59 80.3859 236.306 84.0738C238.021 87.7618 238.879 91.6956 238.879 95.8753C238.879 99.9644 238.066 103.921 236.441 107.744C234.816 111.568 232.74 115.014 230.212 118.084L207.191 95.0628L192.024 110.23L177.941 96.1462L118.899 155.188V180.646L61.2119 238.334C60.1414 239.417 59.0419 240.184 57.9134 240.636C56.785 241.087 55.5372 241.313 54.1702 241.313ZM54.1702 217.75L103.462 168.459V156.542H91.5453L42.2536 205.834L54.1702 217.75ZM54.1702 217.75L42.2536 205.834L48.492 211.512L54.1702 217.75Z"/>
	</symbol>
	<symbol id="icon-app" viewBox="0 0 260 260" fill="currentColor">
		<path d="M74.667 248.354C69.5656 248.354 65.0993 246.438 61.2681 242.607C57.4367 238.776 55.521 234.31 55.521 229.208V30.7925C55.521 25.6911 57.4367 21.2248 61.2681 17.3936C65.0993 13.5622 69.5656 11.6465 74.667 11.6465H185.333C190.434 11.6465 194.9 13.5622 198.732 17.3936C202.563 21.2248 204.479 25.6911 204.479 30.7925V229.208C204.479 234.31 202.563 238.776 198.732 242.607C194.9 246.439 190.434 248.355 185.333 248.355L74.667 248.354ZM71.3333 204.562V229.208C71.3333 230.042 71.6805 230.806 72.375 231.5C73.0695 232.195 73.8336 232.542 74.667 232.542H185.333C186.166 232.542 186.93 232.195 187.625 231.5C188.319 230.806 188.666 230.042 188.666 229.208V204.562H71.3333ZM130.101 226.917C132.353 226.917 134.302 226.078 135.948 224.4C137.594 222.723 138.417 220.74 138.417 218.452C138.417 216.165 137.56 214.198 135.846 212.552C134.133 210.906 132.15 210.083 129.898 210.083C127.647 210.083 125.698 210.94 124.052 212.653C122.406 214.367 121.583 216.349 121.583 218.6C121.583 220.922 122.44 222.889 124.154 224.5C125.867 226.111 127.85 226.917 130.101 226.917ZM71.3333 188.75H188.666V53.4797H71.3333V188.75ZM71.3333 37.6673H188.666V30.7925C188.666 29.9591 188.319 29.1951 187.625 28.5005C186.93 27.806 186.166 27.4588 185.333 27.4588H74.667C73.8336 27.4588 73.0695 27.806 72.375 28.5005C71.6805 29.1951 71.3333 29.9591 71.3333 30.7925V37.6673Z"/>
	</symbol>
	<symbol id="icon-ai" viewBox="0 0 260 260" fill="currentColor">
		<path d="M72.3193 231.022V188.401C62.0277 178.634 54.0381 167.778 48.3506 155.83C42.6631 143.882 39.8193 131.611 39.8193 119.017C39.8193 94.007 48.5876 72.7483 66.124 55.2413C83.6605 37.7341 104.955 28.9805 130.007 28.9805C150.243 28.9805 168.593 35.1718 185.056 47.5545C201.519 59.9372 212.197 75.9333 217.09 95.5429L228.052 140.005C228.952 143.836 228.208 147.324 225.818 150.47C223.427 153.616 220.241 155.189 216.257 155.189H198.528V184.814C198.528 191.793 196.182 197.628 191.491 202.319C186.8 207.01 180.965 209.355 173.986 209.355H155.194V231.022H137.319V191.48H173.986C175.931 191.48 177.528 190.855 178.778 189.605C180.028 188.356 180.653 186.758 180.653 184.814V137.314H208.819L199.611 99.668C195.458 84.1819 186.858 71.5083 173.809 61.647C160.76 51.786 146.16 46.8555 130.007 46.8555C110.035 46.8555 92.9898 53.8421 78.8716 67.8153C64.7534 81.7885 57.6943 98.7804 57.6943 118.791C57.6943 129.076 59.8159 138.897 64.0589 148.254C68.302 157.611 74.3055 165.798 82.0693 172.814L90.1943 180.376V231.022H72.3193ZM120.715 158.46H137.674L139.007 146.835C140.937 146.474 142.913 145.8 144.934 144.814C146.955 143.828 148.562 142.529 149.757 140.918L160.09 144.751L168.299 130.126L159.84 123.751C160.673 121.321 161.09 118.89 161.09 116.46C161.09 114.029 160.673 111.599 159.84 109.168L168.299 102.793L160.09 88.1679L149.757 92.0012C148.562 90.3901 146.955 89.0916 144.934 88.1055C142.913 87.1194 140.937 86.4457 139.007 86.0846L137.674 74.4596H120.715L119.382 86.0846C117.451 86.4457 115.476 87.1194 113.455 88.1055C111.434 89.0916 109.826 90.3901 108.632 92.0012L98.2985 88.1679L90.0901 102.793L98.5485 109.168C97.7152 111.599 97.2986 114.029 97.2986 116.46C97.2986 118.89 97.7152 121.321 98.5485 123.751L90.0901 130.126L98.2985 144.751L108.632 140.918C109.826 142.529 111.434 143.828 113.455 144.814C115.476 145.8 117.451 146.474 119.382 146.835L120.715 158.46ZM129.15 137.21C123.374 137.21 118.479 135.188 114.465 131.145C110.451 127.101 108.444 122.192 108.444 116.415C108.444 110.639 110.466 105.744 114.509 101.73C118.553 97.7166 123.462 95.7097 129.238 95.7097C135.015 95.7097 139.91 97.7313 143.924 101.775C147.937 105.818 149.944 110.728 149.944 116.504C149.944 122.28 147.923 127.175 143.879 131.189C139.836 135.203 134.926 137.21 129.15 137.21Z"/>
	</symbol>
	<symbol id="icon-access" viewBox="0 0 260 260" fill="currentColor">
		<path d="M75.2823 199.063C56.0983 199.063 39.7919 192.344 26.3631 178.905C12.9343 165.467 6.21985 149.15 6.21985 129.952C6.21985 110.755 12.9343 94.4531 26.3631 81.0469C39.7919 67.6406 56.0983 60.9375 75.2823 60.9375C89.9751 60.9375 102.315 64.3681 112.302 71.2292C122.289 78.0903 129.9 87.2083 135.137 98.5833H253.762V161.417H224.782V199.063H167.095V161.417H135.137C129.9 172.792 122.289 181.91 112.302 188.771C102.315 195.632 89.9751 199.063 75.2823 199.063ZM75.3159 179.292C88.2935 179.292 98.9437 175.019 107.266 166.474C115.589 157.93 120.477 149.653 121.929 141.646H187.846V179.292H204.96V141.646H233.991V118.354H121.866C120.441 110.347 115.568 102.07 107.247 93.5255C98.9256 84.9807 88.2679 80.7083 75.2737 80.7083C61.5572 80.7083 49.9143 85.5043 40.3448 95.0961C30.7754 104.688 25.9907 116.334 25.9907 130.034C25.9907 143.733 30.7866 155.368 40.3784 164.938C49.9703 174.507 61.6161 179.292 75.3159 179.292ZM75.2823 151.125C81.2407 151.125 86.2511 149.094 90.3136 145.031C94.3761 140.969 96.4073 135.958 96.4073 130C96.4073 124.042 94.3761 119.031 90.3136 114.969C86.2511 110.906 81.2407 108.875 75.2823 108.875C69.324 108.875 64.3136 110.906 60.2511 114.969C56.1886 119.031 54.1573 124.042 54.1573 130C54.1573 135.958 56.1886 140.969 60.2511 145.031C64.3136 149.094 69.324 151.125 75.2823 151.125Z"/>
	</symbol>
	<symbol id="icon-guest" viewBox="0 0 260 260" fill="currentColor">
		<path d="M58.4953 189.854C70.0508 181.729 81.6105 175.545 93.1741 171.302C104.738 167.059 117.016 164.937 130.007 164.937C142.999 164.937 155.273 167.059 166.829 171.302C178.384 175.545 190.12 181.729 202.037 189.854C209.801 179.743 215.218 169.902 218.287 160.333C221.356 150.764 222.891 140.652 222.891 130C222.891 103.639 213.999 81.5657 196.214 63.7809C178.429 45.9962 156.356 37.1038 129.995 37.1038C103.634 37.1038 81.5613 45.9962 63.7765 63.7809C45.9918 81.5657 37.0994 103.639 37.0994 130C37.0994 140.652 38.6793 150.764 41.839 160.333C44.9988 169.902 50.5508 179.743 58.4953 189.854ZM129.956 141.375C118.607 141.375 109.051 137.48 101.287 129.689C93.5231 121.899 89.6411 112.33 89.6411 100.981C89.6411 89.6323 93.5362 80.0761 101.326 72.3122C109.117 64.5483 118.686 60.6663 130.035 60.6663C141.383 60.6663 150.94 64.5615 158.704 72.3517C166.468 80.1418 170.349 89.7112 170.349 101.06C170.349 112.409 166.454 121.965 158.664 129.729C150.874 137.493 141.305 141.375 129.956 141.375ZM130.122 242.666C114.69 242.666 100.155 239.709 86.5171 233.793C72.8786 227.878 60.9168 219.753 50.6316 209.418C40.3463 199.084 32.2244 187.122 26.2661 173.532C20.3078 159.942 17.3286 145.362 17.3286 129.792C17.3286 114.583 20.3267 100.171 26.323 86.5545C32.3194 72.9381 40.4413 60.9549 50.6885 50.6049C60.9358 40.2547 72.8575 32.1219 86.4537 26.2063C100.05 20.2908 114.633 17.333 130.203 17.333C145.412 17.333 159.824 20.3312 173.44 26.3277C187.057 32.3239 199.019 40.4489 209.326 50.7027C219.633 60.9562 227.766 72.8946 233.724 86.5177C239.683 100.141 242.662 114.593 242.662 129.873C242.662 145.305 239.704 159.84 233.789 173.478C227.873 187.116 219.74 199.059 209.39 209.306C199.04 219.554 187.061 227.676 173.454 233.672C159.846 239.668 145.402 242.666 130.122 242.666ZM129.995 222.896C139.565 222.896 148.999 221.541 158.297 218.833C167.596 216.125 176.94 211.159 186.329 203.937C177.014 197.624 167.599 192.841 158.083 189.588C148.566 186.335 139.204 184.708 129.995 184.708C120.787 184.708 111.443 186.333 101.964 189.583C92.4849 192.833 83.1411 197.645 73.9328 204.019C83.1411 211.116 92.3946 216.036 101.693 218.78C110.992 221.524 120.426 222.896 129.995 222.896ZM129.995 121.604C135.954 121.604 140.874 119.663 144.756 115.781C148.638 111.899 150.579 106.979 150.579 101.021C150.579 95.0622 148.638 90.142 144.756 86.2601C140.874 82.3782 135.954 80.4372 129.995 80.4372C124.037 80.4372 119.117 82.3782 115.235 86.2601C111.353 90.142 109.412 95.0622 109.412 101.021C109.412 106.979 111.353 111.899 115.235 115.781C119.117 119.663 124.037 121.604 129.995 121.604Z"/>
	</symbol>

	 <symbol id="icon-modulestab" viewBox="0 0 50 50" fill="currentColor">
	 	<path d="M9.21521 42.7086C8.16288 42.7086 7.27214 42.344 6.54297 41.6148C5.8138 40.8856 5.44922 39.9949 5.44922 38.9425V11.058C5.44922 10.0057 5.8138 9.11491 6.54297 8.38574C7.27214 7.65658 8.16288 7.29199 9.21521 7.29199H37.0997C38.1521 7.29199 39.0428 7.65658 39.772 8.38574C40.5011 9.11491 40.8657 10.0057 40.8657 11.058V15.385H44.5516V18.5099H40.8657V23.4378H44.5516V26.5627H40.8657V31.4907H44.5516V34.6156H40.8657V38.9425C40.8657 39.9949 40.5011 40.8856 39.772 41.6148C39.0428 42.344 38.1521 42.7086 37.0997 42.7086H9.21521ZM9.21521 39.5836H37.0997C37.26 39.5836 37.4069 39.5168 37.5405 39.3833C37.674 39.2497 37.7408 39.1028 37.7408 38.9425V11.058C37.7408 10.8978 37.674 10.7508 37.5405 10.6173C37.4069 10.4837 37.26 10.4169 37.0997 10.4169H9.21521C9.05497 10.4169 8.90806 10.4837 8.77448 10.6173C8.64094 10.7508 8.57417 10.8978 8.57417 11.058V38.9425C8.57417 39.1028 8.64094 39.2497 8.77448 39.3833C8.90806 39.5168 9.05497 39.5836 9.21521 39.5836ZM13.5421 34.6156H22.9571V27.2839H13.5421V34.6156ZM25.4411 20.6333H32.7728V15.385H25.4411V20.6333ZM13.5421 24.8H22.9571V15.385H13.5421V24.8ZM25.4411 34.6156H32.7728V23.1173H25.4411V34.6156Z"/>
	 </symbol>

	<symbol id="menu" viewBox="0 0 16 16" fill="currentColor">
		<path d="M1,3.1h14 M1,8h14 M1,12.9h14" stroke="currentColor" stroke-width="2" stroke-linecap="round" stroke-linejoin="round"/>
	</symbol>
	<symbol id="download" viewBox="0 0 16 16" fill="currentColor">
		<path d="M8,12L3.4,7.5l1.1-1.2L7.2,9V0h1.6v9l2.6-2.6l1.1,1.2L8,12z M1.9,16c-0.5,0-1-0.2-1.4-0.6	C0.2,15.1,0,14.6,0,14.1v-2.9h1.6v2.9c0,0.1,0,0.2,0.1,0.2c0.1,0.1,0.1,0.1,0.2,0.1h12.1c0.1,0,0.2,0,0.2-0.1 c0.1-0.1,0.1-0.1,0.1-0.2v-2.9H16v2.9c0,0.5-0.2,1-0.6,1.4c-0.4,0.4-0.8,0.6-1.4,0.6H1.9z"/>
	</symbol>
	<symbol id="upload" viewBox="0 0 16 16" fill="currentColor">
		<path d="M8,4L3.4,8.5l1.1,1.2L7.2,7v9h1.6V7l2.6,2.6l1.1-1.2L8,4z M1.9,0c-0.5,0-1,0.2-1.4,0.6C0.2,0.9,0,1.4,0,1.9v2.9 h1.6V1.9c0-0.1,0-0.2,0.1-0.2c0.1-0.1,0.1-0.1,0.2-0.1h12.1c0.1,0,0.2,0,0.2,0.1c0.1,0.1,0.1,0.1,0.1,0.2v2.9H16V1.9 c0-0.5-0.2-1-0.6-1.4C15.1,0.2,14.6,0,14.1,0H1.9z"/>
	</symbol>
	<symbol id="mailat" viewBox="0 0 16 16" fill="currentColor">
		<path d="M8,16c-1.1,0-2.1-0.2-3.1-0.6c-1-0.4-1.8-1-2.5-1.7c-0.7-0.7-1.3-1.6-1.7-2.5C0.2,10.1,0,9.1,0,8 s0.2-2.1,0.6-3.1c0.4-1,1-1.8,1.7-2.5c0.7-0.7,1.6-1.3,2.5-1.7C5.9,0.2,6.9,0,8,0s2.1,0.2,3.1,0.6c1,0.4,1.8,1,2.5,1.7 c0.7,0.7,1.3,1.6,1.7,2.5c0.4,1,0.6,2,0.6,3.1v1c0,0.8-0.3,1.4-0.8,2c-0.5,0.5-1.2,0.8-1.9,0.8c-0.5,0-1-0.1-1.4-0.4 c-0.4-0.2-0.8-0.6-1-1c-0.4,0.4-0.8,0.8-1.3,1c-0.5,0.2-1,0.4-1.6,0.4c-1.1,0-1.9-0.4-2.7-1.1C4.6,9.9,4.2,9.1,4.2, 8	s0.4-1.9,1.1-2.7C6.1,4.6,6.9,4.2,8,4.2s1.9,0.4,2.7,1.1c0.7,0.7,1.1,1.6,1.1,2.7v1c0,0.4,0.1,0.8,0.4,1.1c0.3,0.3,0.6,0.4,1,0.4 c0.4,0,0.8-0.1,1-0.4c0.3-0.3,0.4-0.6,0.4-1.1V8c0-1.9-0.7-3.5-2-4.8c-1.3-1.3-2.9-2-4.8-2s-3.5,0.7-4.8,2s-2,2.9-2,4.8 s0.7,3.5,2,4.8c1.3,1.3,2.9,2,4.8,2h4.2V16H8z M8,10.5c0.7,0,1.3-0.2,1.8-0.7c0.5-0.5,0.7-1.1,0.7-1.8s-0.2-1.3-0.7-1.8 C9.3,5.7,8.7,5.5,8,5.5c-0.7,0-1.3,0.2-1.8,0.7C5.7,6.7,5.5,7.3,5.5,8s0.2,1.3,0.7,1.8C6.7,10.3,7.3,10.5,8,10.5z"/>
	</symbol>
	<symbol id="call" viewBox="0 0 16 16" fill="currentColor">
		<path d="M8.8,7.2V2.1h1.4v2.7L15,0l1,1l-4.9,4.9h2.7v1.4H8.8z M14.8,16c-1.7,0-3.5-0.4-5.3-1.2c-1.8-0.8-3.4-2-4.9-3.4	C3.2,9.9,2,8.2,1.2,6.5C0.4,4.7,0,3,0,1.2c0-0.3,0.1-0.5,0.3-0.7C0.5,0.3,0.7,0.2,1,0.2h3c0.2,0,0.4,0.1,0.6,0.2 C4.8,0.6,4.9,0.8,5,1l0.5,2.7c0,0.3,0,0.5,0,0.7C5.4,4.6,5.3,4.7,5.2,4.9L3,7c0.3,0.6,0.7,1.2,1.2,1.8c0.4,0.6,0.9,1.1,1.4,1.6 c0.5,0.5,1.1,1,1.6,1.4c0.6,0.4,1.2,0.8,1.9,1.2l2.1-2.1c0.1-0.2,0.3-0.3,0.5-0.3c0.2-0.1,0.4-0.1,0.6,0l2.6,0.5 c0.2,0.1,0.4,0.2,0.6,0.4c0.1,0.2,0.2,0.4,0.2,0.6v3c0,0.3-0.1,0.5-0.3,0.7C15.3,15.9,15.1,16,14.8,16z M2.4,5.6L4,4 c0,0,0-0.1,0.1-0.1c0,0,0-0.1,0-0.1L3.7,1.8c0,0,0-0.1-0.1-0.1c0,0-0.1,0-0.1,0h-2c0,0-0.1,0-0.1,0c0,0,0,0.1,0,0.1 c0,0.6,0.2,1.3,0.3,1.9C1.9,4.3,2.1,5,2.4,5.6z M10.5,13.7c0.6,0.3,1.3,0.5,1.9,0.7c0.7,0.2,1.3,0.2,1.9,0.3c0,0,0.1,0,0.1,0 c0,0,0-0.1,0-0.1v-2c0,0,0-0.1,0-0.1c0,0-0.1-0.1-0.1-0.1l-1.9-0.4c0,0-0.1,0-0.1,0c0,0-0.1,0-0.1,0.1L10.5,13.7z"/>
	</symbol>
	<symbol id="close" viewBox="0 0 16 16" fill="currentColor">
		<path d="M2,14L14,2 M14,14L2,2" stroke="currentColor" stroke-width="4" stroke-linecap="round"/>
	</symbol>
	<symbol id="arrow-left" viewBox="0 0 16 16" fill="currentColor">
		<path d="M6.8,13.8L1,8 M1,8l5.8-5.8 M1,8h14" stroke="currentColor" stroke-width="2" stroke-linecap="round" stroke-linejoin="round"/>
	</symbol>
	 <symbol id="caret-circle-up" viewBox="0 0 16 16" fill="currentColor">
		 <path d="m8 5.6-3.2 3.2h6.4zm0-5.6c1.10666 0 2.14666 0.209984 3.12 0.630016 0.973344 0.419968 1.82 0.989984 2.54 1.70998s1.29 1.56666 1.71 2.54 0.63 2.01334 0.63 3.12-0.21 2.14666-0.63 3.12-0.99 1.82-1.71 2.54-1.56666 1.29-2.54 1.71-2.01334 0.63-3.12 0.63-2.14666-0.21-3.12-0.63-1.82-0.99-2.54-1.71-1.29002-1.56666-1.70998-2.54c-0.420032-0.973344-0.630016-2.01334-0.630016-3.12s0.209984-2.14666 0.630016-3.12c0.419968-0.973344 0.989984-1.82 1.70998-2.54s1.56666-1.29002 2.54-1.70998c0.973344-0.420032 2.01334-0.630016 3.12-0.630016z"/>
	 </symbol>
	 <symbol id="caret-circle-right" viewBox="0 0 16 16" fill="currentColor">
		 <path d="m10.4 8-3.2-3.2v6.4zm5.6 0c0 1.10666-0.209984 2.14666-0.630016 3.12-0.419968 0.973344-0.989984 1.82-1.70998 2.54s-1.56666 1.29-2.54 1.71-2.01334 0.63-3.12 0.63-2.14666-0.21-3.12-0.63-1.82-0.99-2.54-1.71-1.29-1.56666-1.71-2.54-0.63-2.01334-0.63-3.12 0.21-2.14666 0.63-3.12 0.99-1.82 1.71-2.54 1.56666-1.29002 2.54-1.70998c0.973344-0.420032 2.01334-0.630016 3.12-0.630016s2.14666 0.209984 3.12 0.630016c0.973344 0.419968 1.82 0.989984 2.54 1.70998s1.29002 1.56666 1.70998 2.54c0.420032 0.973344 0.630016 2.01334 0.630016 3.12z"/>
	 </symbol>
	 <symbol id="caret-circle-down" viewBox="0 0 16 16" fill="currentColor">
		 <path d="m8 10.4 3.2-3.2h-6.4zm0 5.6c-1.10666 0-2.14666-0.209984-3.12-0.630016-0.973344-0.419968-1.82-0.989984-2.54-1.70998s-1.29-1.56666-1.71-2.54-0.63-2.01334-0.63-3.12 0.21-2.14666 0.63-3.12 0.99-1.82 1.71-2.54 1.56666-1.29 2.54-1.71 2.01334-0.63 3.12-0.63 2.14666 0.21 3.12 0.63 1.82 0.99 2.54 1.71 1.29002 1.56666 1.70998 2.54c0.420032 0.973344 0.630016 2.01334 0.630016 3.12s-0.209984 2.14666-0.630016 3.12c-0.419968 0.973344-0.989984 1.82-1.70998 2.54s-1.56666 1.29002-2.54 1.70998c-0.973344 0.420032-2.01334 0.630016-3.12 0.630016z"/>
	 </symbol>
	 <symbol id="caret-circle-left" viewBox="0 0 16 16" fill="currentColor">
		 <path d="m5.6 8 3.2 3.2v-6.4zm-5.6 0c0-1.10666 0.209984-2.14666 0.630016-3.12 0.419968-0.973344 0.989984-1.82 1.70998-2.54s1.56666-1.29 2.54-1.71 2.01334-0.63 3.12-0.63 2.14666 0.21 3.12 0.63 1.82 0.99 2.54 1.71 1.29 1.56666 1.71 2.54 0.63 2.01334 0.63 3.12-0.21 2.14666-0.63 3.12-0.99 1.82-1.71 2.54-1.56666 1.29002-2.54 1.70998c-0.973344 0.420032-2.01334 0.630016-3.12 0.630016s-2.14666-0.209984-3.12-0.630016c-0.973344-0.419968-1.82-0.989984-2.54-1.70998s-1.29002-1.56666-1.70998-2.54c-0.420032-0.973344-0.630016-2.01334-0.630016-3.12z"/>
	 </symbol>
</svg>
