<svg width="250" height="250" viewBox="0 0 250 250" fill="none" xmlns="http://www.w3.org/2000/svg">
<path d="M166.25 183.75L183.75 166.25L137.5 120V62.5H112.5V130L166.25 183.75ZM125 250C107.708 250 91.4583 246.719 76.25 240.156C61.0417 233.594 47.8125 224.688 36.5625 213.438C25.3125 202.188 16.4062 188.958 9.84375 173.75C3.28125 158.542 0 142.292 0 125C0 107.708 3.28125 91.4583 9.84375 76.25C16.4062 61.0417 25.3125 47.8125 36.5625 36.5625C47.8125 25.3125 61.0417 16.4062 76.25 9.84375C91.4583 3.28125 107.708 0 125 0C142.292 0 158.542 3.28125 173.75 9.84375C188.958 16.4062 202.188 25.3125 213.438 36.5625C224.688 47.8125 233.594 61.0417 240.156 76.25C246.719 91.4583 250 107.708 250 125C250 142.292 246.719 158.542 240.156 173.75C233.594 188.958 224.688 202.188 213.438 213.438C202.188 224.688 188.958 233.594 173.75 240.156C158.542 246.719 142.292 250 125 250Z" fill="#243D80"/>
</svg>
