<svg width="1912" height="1913" viewBox="0 0 1912 1913" fill="none" xmlns="http://www.w3.org/2000/svg">
<path d="M1390.46 423.514C1392.23 424.624 1393.41 426.467 1393.68 428.539L1394.27 433.021C1394.74 436.654 1392.33 440.037 1388.75 440.78L1378.9 442.818C1375.89 443.441 1373.64 445.957 1373.35 449.02L1371.72 466.453C1371.33 470.559 1374.56 474.105 1378.69 474.105H1396.48L1427.53 471.116C1429.36 470.94 1431.04 470.056 1432.22 468.654L1441.58 457.525C1444.67 453.853 1443.23 448.234 1438.76 446.495L1430.89 443.432C1429.83 443.02 1428.89 442.357 1428.14 441.5L1419.47 431.517C1419.22 431.231 1418.99 430.925 1418.79 430.603L1404.44 407.359C1404.02 406.668 1403.71 405.907 1403.55 405.112L1397.91 378.098C1397.12 374.327 1393.43 371.9 1389.66 372.67L1370.6 376.553C1368.77 376.927 1367.16 378.019 1366.14 379.586L1360.82 387.74C1360.07 388.878 1359.68 390.208 1359.68 391.567V399.714C1359.68 402.023 1360.82 404.185 1362.72 405.489L1373.52 412.881L1390.46 423.514Z" fill="black" fill-opacity="0.25"/>
<path d="M1366.09 438.797C1367.78 437.599 1368.86 435.715 1369.02 433.65L1369.89 422.959C1370.13 419.967 1368.44 417.155 1365.68 415.966L1355.54 411.59C1354.17 410.999 1352.64 410.862 1351.19 411.199L1332.66 415.491C1330.85 415.91 1329.28 417.031 1328.3 418.608L1313.39 442.522C1312.7 443.633 1312.33 444.915 1312.33 446.224V455.427C1312.33 459.293 1315.47 462.427 1319.33 462.427H1330.51C1331.96 462.427 1333.38 461.977 1334.56 461.139L1366.09 438.797Z" fill="black" fill-opacity="0.25"/>
<path d="M887.824 517.308C884.986 517.363 882.463 519.127 881.436 521.773L879.677 526.303C878.632 528.995 876.04 530.769 873.152 530.769H859.305C855.721 530.769 852.816 533.674 852.816 537.257V540.566C852.816 542.322 854.24 543.746 855.996 543.746C857.596 543.746 858.947 544.933 859.161 546.518C859.174 546.616 859.188 546.715 859.202 546.817C859.453 548.668 861.114 549.993 862.976 549.836L873.398 548.959C874.499 548.866 875.562 548.514 876.501 547.932L882.157 544.423C883.785 543.413 884.928 541.779 885.319 539.903L886.159 535.873C886.791 532.844 889.335 530.589 892.418 530.327L896.24 530.001C898.378 529.819 900.262 528.524 901.197 526.593C902.925 523.026 900.834 518.785 896.952 517.985L893.928 517.361C893.418 517.256 892.898 517.208 892.377 517.218L887.824 517.308Z" fill="black" fill-opacity="0.25"/>
<path d="M819.722 539.267C818.84 540.366 818.31 541.706 818.201 543.11L818.02 545.449C817.687 549.75 821.287 553.326 825.587 552.964L830.066 552.587C833.303 552.314 835.927 549.851 836.403 546.637L836.884 543.395C837.251 540.912 836.262 538.423 834.291 536.87L831.994 535.061C828.977 532.684 824.609 533.182 822.205 536.176L819.722 539.267Z" fill="black" fill-opacity="0.25"/>
<path d="M1911.8 946.128C1911.52 918.17 1910.11 890.408 1907.47 863.079C1898.63 771.97 1876.84 684.636 1844.2 602.768C1841.77 596.673 1839.52 590.499 1836.93 584.483C1793.44 481.734 1732.37 388.187 1657.62 307.459C1652.71 302.19 1647.71 296.999 1642.72 291.888C1628.6 277.22 1614.09 262.907 1599.07 249.184C1429.12 94.4515 1203.41 0 955.997 0C706.499 0 479.178 96.1424 308.757 253.234C269.041 289.843 232.551 329.794 199.441 372.576C74.5546 534.111 0 736.463 0 955.997C0 1483.19 428.885 1912.03 956.037 1912.03C1326.84 1912.03 1648.77 1699.7 1807.24 1390.31C1841.14 1324.17 1867.52 1253.67 1885.3 1179.78C1889.82 1161.02 1893.71 1142.19 1897.09 1123.12C1906.73 1068.81 1911.99 1012.98 1911.99 955.997C1912.03 952.694 1911.84 949.431 1911.8 946.128ZM1731.86 565.765C1731.86 564.651 1732.27 563.576 1733.01 562.745C1735.13 560.372 1738.97 560.86 1740.4 563.701C1745.27 573.371 1749.94 583.148 1754.44 593.02C1756.08 596.616 1753.35 600.66 1749.4 600.505C1749.08 600.493 1748.77 600.508 1748.46 600.552L1739.82 601.746C1735.61 602.328 1731.86 599.059 1731.86 594.812V565.765ZM1589.91 399.168C1592.25 397.979 1593.73 395.579 1593.74 392.953L1593.82 372.057C1593.84 365.734 1601.54 362.709 1605.79 367.387C1615.42 377.974 1624.81 388.776 1633.92 399.827C1635.88 402.203 1636.04 405.585 1634.32 408.142L1622.09 426.345C1620.78 428.299 1618.57 429.462 1616.22 429.441L1564.94 428.972C1561.88 428.944 1559.19 426.925 1558.3 423.989L1557.7 421.988C1556.72 418.743 1558.21 415.264 1561.23 413.73L1589.91 399.168ZM440.485 291.101C440.485 290.211 441.207 289.489 442.098 289.489H456.25C458.24 289.489 459.976 288.136 460.461 286.205C460.947 284.275 462.682 282.922 464.672 282.922H485.627C489.493 282.922 492.627 286.056 492.627 289.922V294.277C492.627 295.789 492.137 297.26 491.231 298.471L485.722 305.833C484.4 307.599 482.323 308.639 480.117 308.639H447.462C443.59 308.639 440.453 305.495 440.462 301.623L440.485 291.101ZM470.71 333.87C470.955 333.801 471.193 333.746 471.444 333.703C474.1 333.252 490.363 330.502 491.879 330.502C492.914 330.502 492.652 337.998 492.313 343.601C492.103 347.059 489.321 349.773 485.863 349.99L451.869 352.127C449.879 352.252 447.948 351.422 446.67 349.892C443.761 346.414 445.397 341.093 449.757 339.849L470.71 333.87ZM1794.61 711.558C1793.43 712.654 1791.87 713.263 1790.26 713.263H1725.14C1723.63 713.263 1722.16 712.777 1720.96 711.877L1682.36 683.144C1680.96 682.105 1679.23 681.623 1677.5 681.791L1641.65 685.279C1638.06 685.628 1635.33 688.643 1635.33 692.246V706.263C1635.33 710.128 1632.19 713.263 1628.33 713.263H1623.37C1621.91 713.263 1620.49 712.808 1619.31 711.963L1606.86 703.093C1606.16 702.589 1605.36 702.221 1604.52 702.008L1533.37 683.969C1530.27 683.182 1528.09 680.387 1528.09 677.184V639.865C1528.09 635.785 1524.62 632.569 1520.55 632.886L1431.1 639.852C1430.13 639.927 1429.19 640.204 1428.33 640.664L1400.67 655.53C1399.65 656.077 1398.51 656.363 1397.36 656.363H1360.03L1343.06 654.656C1341.64 654.513 1340.21 654.808 1338.96 655.501L1297.02 678.783C1294.8 680.017 1293.42 682.36 1293.42 684.903V726.786C1293.42 729.035 1292.34 731.147 1290.52 732.463L1200.33 797.531C1197.97 799.234 1196.91 802.22 1197.67 805.031L1203.08 825.069C1203.9 828.123 1206.67 830.246 1209.84 830.246H1215.75C1220.12 830.246 1223.42 834.197 1222.64 838.492L1219.7 854.768C1219.26 857.213 1217.55 859.24 1215.22 860.095L1209.68 862.123C1206.95 863.124 1205.12 865.714 1205.09 868.625L1204.42 935.507C1204.4 937.231 1205.02 938.901 1206.16 940.196L1286.14 1031.28C1287.47 1032.79 1289.38 1033.66 1291.4 1033.66H1321.61C1323.48 1033.66 1325.16 1032.5 1325.82 1030.75C1326.48 1029 1328.16 1027.84 1330.03 1027.84H1389.77C1391.53 1027.84 1393.23 1027.17 1394.52 1025.98L1409.41 1012.2C1410.71 1011.01 1412.4 1010.34 1414.17 1010.34H1445.72C1447.58 1010.34 1449.36 1011.08 1450.68 1012.4L1467.27 1029.03C1468.41 1030.17 1469.91 1030.88 1471.51 1031.04L1517.54 1035.81C1521.37 1036.21 1524.17 1039.63 1523.78 1043.47L1517.34 1108.05C1517.2 1109.49 1517.51 1110.93 1518.22 1112.19L1576.78 1215.59C1577.95 1217.66 1578 1220.18 1576.89 1222.28L1547.19 1279.06C1546.58 1280.22 1546.31 1281.53 1546.41 1282.83L1548.27 1307.42C1548.39 1309.09 1549.12 1310.67 1550.3 1311.85L1571.92 1333.4C1573.24 1334.72 1573.98 1336.5 1573.98 1338.36V1403.29C1573.98 1404.79 1574.47 1406.26 1575.36 1407.47L1606.1 1448.81C1607 1450.02 1607.49 1451.48 1607.49 1452.99V1501.94C1607.49 1505.81 1610.62 1508.94 1614.49 1508.94H1621.7C1627.59 1508.94 1630.83 1515.78 1627.03 1520.29C1465.91 1711.53 1224.95 1833.35 955.958 1833.35C472.218 1833.39 78.6441 1439.78 78.6441 955.997C78.6441 834.723 103.445 719.104 148.116 613.954C148.485 613.084 148.677 612.151 148.677 611.206V587.781C148.677 586.157 149.241 584.584 150.273 583.331L180.056 547.166C188.75 530.75 197.946 514.659 207.644 498.893C210.033 495.009 215.93 496.436 216.334 500.979C216.445 502.228 216.06 503.472 215.262 504.44L180.056 547.166C168.992 568.06 158.684 589.408 149.28 611.321C148.907 612.189 148.716 613.125 148.716 614.07V658.176C148.716 660.866 150.257 663.318 152.681 664.484L181.202 678.206C183.626 679.372 185.167 681.824 185.167 684.514V747.617C185.167 748.862 185.499 750.083 186.128 751.157L218.44 806.295C219.506 808.113 221.334 809.355 223.418 809.674L241.804 812.497C245.559 813.074 249.088 810.55 249.757 806.811L251.725 795.807C252.038 794.059 251.674 792.257 250.708 790.767L219.532 742.668C218.964 741.793 218.6 740.802 218.465 739.767L213.135 698.952C212.588 694.761 215.851 691.046 220.076 691.046H225.797C229.235 691.046 232.164 693.542 232.709 696.937L239.812 741.241C239.976 742.263 240.365 743.236 240.95 744.09L286.114 809.987C287.605 812.163 287.747 814.992 286.481 817.305L278.055 832.7C276.815 834.965 276.923 837.73 278.337 839.891L305.363 881.224C306.331 882.704 307.823 883.763 309.54 884.188L377.108 900.915C380.322 901.711 383.429 899.279 383.429 895.968C383.429 892.867 386.175 890.485 389.245 890.922L407.195 893.48C410.997 894.022 413.653 897.526 413.146 901.334L412.031 909.713C411.538 913.414 414.037 916.85 417.71 917.522L435.216 920.726L470.346 930.317C471.67 930.678 472.858 931.421 473.763 932.452L522.986 988.533C524.194 989.909 525.893 990.757 527.719 990.895L586.178 995.318C589.512 995.57 592.202 998.144 592.6 1001.46L597.981 1046.28C598.289 1048.85 597.159 1051.37 595.042 1052.85L555.422 1080.56C553.638 1081.8 552.536 1083.81 552.44 1085.98L550.457 1130.77C550.439 1131.17 550.387 1131.57 550.3 1131.96L544.58 1158C544.127 1160.06 544.629 1162.22 545.948 1163.87L609.128 1242.96C609.857 1243.87 610.346 1244.95 610.551 1246.1L614.533 1268.45C615.008 1271.11 616.97 1273.27 619.587 1273.96C626.643 1275.83 640.163 1279.34 642.326 1279.34C644.826 1279.34 682.878 1307.89 693.526 1315.92C695.276 1317.24 696.275 1319.28 696.275 1321.48V1462.86C696.275 1466 698.363 1468.75 701.383 1469.6L708.365 1471.56C711.835 1472.54 713.998 1475.99 713.363 1479.53L702.631 1539.57C702.289 1541.48 702.756 1543.45 703.921 1545L731.133 1581.29C732.16 1582.66 732.649 1584.36 732.508 1586.07L727.242 1649.92C727.127 1651.32 727.437 1652.73 728.134 1653.96L766.941 1722.18C767.329 1722.86 767.829 1723.47 768.42 1723.99L817.547 1766.91C818.79 1767.99 820.376 1768.6 822.026 1768.63L866.407 1769.44C869.534 1769.49 872.319 1767.47 873.23 1764.48L875.458 1757.16C876.274 1754.48 875.413 1751.57 873.271 1749.77L841.375 1722.9C839.538 1721.36 838.623 1718.98 838.949 1716.6L840.531 1705.07C840.595 1704.61 840.704 1704.15 840.859 1703.71L847.201 1685.59C847.405 1685.01 847.531 1684.4 847.575 1683.79L848.435 1671.94C848.723 1667.97 845.645 1664.56 841.665 1664.44L826.252 1663.97C824.196 1663.91 822.271 1662.94 820.989 1661.34L813.889 1652.42C811.638 1649.6 811.907 1645.52 814.512 1643.02L829.845 1628.27C830.898 1627.26 831.608 1625.94 831.875 1624.5L833.211 1617.32C833.87 1613.77 831.724 1610.31 828.253 1609.31L815.917 1605.79C812.668 1604.86 810.547 1601.74 810.874 1598.38L811.197 1595.06C811.507 1591.87 813.946 1589.3 817.116 1588.82L844.976 1584.6C845.664 1584.5 846.332 1584.29 846.96 1583.99L896.121 1560.37C897.443 1559.74 898.533 1558.7 899.235 1557.41L915.377 1527.81C915.561 1527.48 915.772 1527.16 916.007 1526.85L968.304 1459.93C969.599 1458.28 970.08 1456.12 969.614 1454.07L958.531 1405.25C958.141 1403.53 958.413 1401.73 959.292 1400.2L972.623 1377.07C973.911 1374.83 976.324 1373.49 978.902 1373.57L1022.45 1374.9C1024.1 1374.95 1025.72 1374.41 1027.01 1373.39L1056.55 1349.99C1058.03 1348.82 1058.97 1347.1 1059.17 1345.22L1069.59 1244.55C1069.72 1243.24 1070.23 1241.98 1071.05 1240.94L1106.34 1196.11C1107 1195.28 1107.46 1194.3 1107.69 1193.25L1112.59 1170.41C1113.34 1166.89 1111.3 1163.37 1107.88 1162.27L1082.15 1154.03C1080.55 1153.52 1079.18 1152.45 1078.31 1151.01L1059.08 1119.47C1057.82 1117.41 1055.59 1116.14 1053.17 1116.12L981.04 1115.38C980.211 1115.37 979.391 1115.22 978.617 1114.92L922.716 1093.61C920.161 1092.64 918.407 1090.26 918.225 1087.54L915.721 1049.94C915.65 1048.88 915.34 1047.85 914.812 1046.92L897.148 1016.05C895.92 1013.9 893.649 1012.56 891.176 1012.52L843.534 1011.81C841.179 1011.78 839 1010.56 837.734 1008.57L808.813 963.167C808.12 962.078 807.14 961.203 805.98 960.637L788.011 951.864C783.809 949.812 778.852 952.591 778.41 957.247C778.099 960.533 775.438 963.102 772.142 963.297L729.97 965.796C727.574 965.938 725.272 964.842 723.871 962.893L708.769 941.869C707.74 940.436 706.207 939.444 704.478 939.093L657.188 929.483C654.711 928.98 652.155 929.851 650.501 931.763L611.284 977.082C609.683 978.933 607.232 979.813 604.82 979.403L544.171 969.114C540.972 968.571 538.565 965.9 538.357 962.661L533.994 894.826C533.786 891.591 531.384 888.922 528.188 888.376L492.092 882.207C487.395 881.404 484.855 876.243 487.085 872.031L501.767 844.301C502.59 842.748 502.798 840.941 502.35 839.241L499.69 829.155C498.464 824.507 493.027 822.449 489.031 825.12L432.224 863.091C430.831 864.022 429.15 864.423 427.487 864.22L391.725 859.858C389.307 859.563 387.217 858.032 386.205 855.816L373.822 828.689C373.144 827.205 373.006 825.53 373.432 823.954L381.76 793.169C381.902 792.644 382.105 792.137 382.365 791.658L404.211 751.398C404.889 750.148 405.933 749.134 407.202 748.491L457.359 723.1C458.339 722.604 459.421 722.346 460.518 722.345L555.281 722.309C559.171 722.308 562.317 725.479 562.283 729.37L562.109 749.375C562.085 752.12 563.667 754.625 566.156 755.783L588.689 766.264C593.481 768.492 598.919 764.811 598.631 759.534L596.489 720.343C596.38 718.364 597.117 716.432 598.514 715.026L622.624 690.775C622.965 690.432 623.34 690.125 623.744 689.86L674.621 656.435C676.289 655.339 677.41 653.583 677.702 651.608L680.613 631.916C680.825 630.477 681.482 629.139 682.49 628.09L734.158 574.313C734.643 573.808 735.201 573.379 735.814 573.039L789.02 543.574C790.574 542.713 790.771 540.555 789.398 539.427C788.226 538.464 788.166 536.69 789.271 535.65L823.206 503.708C824.967 502.05 827.46 501.418 829.798 502.039L838.059 504.229C839.496 504.611 840.774 505.444 841.701 506.607C844.372 509.953 849.407 510.104 852.273 506.924L861.394 496.806C861.494 496.695 861.617 496.606 861.754 496.545C862.737 496.106 862.533 494.654 861.467 494.504L849.414 492.803C849.14 492.764 848.87 492.7 848.608 492.613L837.391 488.874C834.533 487.921 832.605 485.246 832.605 482.233V474.865C832.605 472.767 833.546 470.779 835.17 469.449L839.36 466.017C840.612 464.992 842.179 464.433 843.796 464.433H858.975C859.944 464.433 860.903 464.634 861.791 465.024L866.885 467.263C868.389 467.924 869.613 469.093 870.342 470.566L874.888 479.753C876.029 482.057 878.529 483.359 881.07 482.971L885.579 482.283C885.869 482.239 886.083 481.99 886.083 481.696C886.083 481.29 886.482 481.004 886.866 481.134L888.359 481.639C888.62 481.727 888.899 481.752 889.172 481.71L911.238 478.323C913.931 477.909 916.139 475.972 916.899 473.356L917.585 470.993C918.635 467.376 922.36 465.238 926.013 466.156L929.509 467.035C932.621 467.817 934.803 470.615 934.803 473.823V480.173C934.803 481.692 934.055 483.114 932.804 483.975L920.594 492.373C920.586 492.378 920.59 492.391 920.599 492.391C920.604 492.391 920.608 492.394 920.609 492.399L922.099 503.559C922.46 506.267 924.364 508.517 926.975 509.322L971.182 522.952C971.323 522.995 971.401 522.971 971.431 523.117C971.471 523.318 971.684 523.599 971.889 523.582L977.15 523.139C980.337 522.871 982.822 520.263 982.935 517.066L983.318 506.232C983.418 503.4 981.801 500.787 979.222 499.613L948.065 485.43C946.054 484.515 944.593 482.704 944.124 480.544L943.99 479.927C943.236 476.452 945.206 472.964 948.571 471.817L970.202 464.438C972.925 463.51 974.802 461.01 974.935 458.136L975.939 436.371C976.057 433.816 974.772 431.401 972.588 430.07L945.821 413.765C943.826 412.549 942.568 410.419 942.469 408.084L940.882 370.826C940.667 365.777 935.337 362.612 930.801 364.841L895.958 381.964C894.997 382.437 893.941 382.682 892.871 382.682H885.573C881.399 382.682 878.153 379.052 878.617 374.904L881.461 349.488C881.854 345.968 879.558 342.709 876.111 341.896L822.83 329.33C820.802 328.852 818.667 329.302 817.004 330.557L796.536 346.017C794.784 347.34 793.755 349.408 793.755 351.603V402.606C793.755 405.657 791.778 408.357 788.87 409.279L750.123 421.561C748.281 422.145 746.763 423.464 745.927 425.206L730.181 458.027C729.189 460.094 727.249 461.544 724.986 461.91L716.502 463.279C712.246 463.967 708.387 460.68 708.387 456.369V420.984C708.387 417.489 705.809 414.53 702.347 414.05L666.209 409.046C665.189 408.905 664.213 408.54 663.35 407.978L645.028 396.049C643.591 395.113 642.548 393.683 642.095 392.029L635.405 367.569C634.57 364.515 635.889 361.28 638.622 359.681L711.49 317.037C711.962 316.761 712.465 316.541 712.988 316.381L742.703 307.342C746.791 306.098 751.03 308.776 751.663 313.002L753.374 324.417C753.907 327.981 757.059 330.557 760.657 330.371L769.785 329.899C773.167 329.724 775.939 327.154 776.368 323.795L776.604 321.95C777.002 318.825 779.439 316.352 782.557 315.906L797.238 313.809C798.606 313.614 799.659 312.501 799.779 311.124C799.891 309.832 799.153 308.616 797.954 308.12L793.986 306.477C791.74 305.548 790.138 303.521 789.752 301.121L789.37 298.748C788.723 294.727 791.632 291.005 795.691 290.661L812.95 289.2C814.644 289.057 816.228 288.302 817.406 287.076L832.043 271.848C832.103 271.786 832.158 271.719 832.209 271.65L832.971 270.589C833.01 270.535 833.081 270.514 833.143 270.539C833.198 270.561 833.261 270.547 833.302 270.505L836.557 267.148C837.664 266.007 839.127 265.276 840.705 265.077L892.817 258.496C894.765 258.25 896.727 258.833 898.224 260.104L913.497 273.067C917.266 276.266 916.621 282.258 912.258 284.582L870.933 306.595C865.235 309.63 866.334 318.104 872.617 319.586L933.628 333.978C937.029 334.78 940.5 332.952 941.762 329.693L948.839 311.42C949.883 308.724 952.476 306.948 955.367 306.948H983.518C986.11 306.948 988.489 305.516 989.703 303.227L996.675 290.076C998.805 286.059 996.599 281.109 992.188 280.006L979.899 276.934C976.783 276.155 974.597 273.355 974.597 270.143V248.824C974.597 246.054 972.964 243.545 970.432 242.424L893.961 208.55C892.819 208.044 891.563 207.853 890.323 207.996L836.648 214.195C835.795 214.294 834.967 214.549 834.206 214.947L807.257 229.049C804.829 230.32 803.365 232.891 803.513 235.628L805.009 263.357C805.248 267.79 801.353 271.323 796.965 270.655L776.641 267.557C773.799 267.124 771.511 264.997 770.871 262.195L767.69 248.257C767.128 245.793 767.937 243.217 769.808 241.518L786.427 226.425C791.039 222.236 788.293 214.562 782.07 214.251L741.805 212.242C741.002 212.202 740.198 212.301 739.428 212.534L727.169 216.246C725.072 216.881 723.393 218.462 722.633 220.517L719.497 228.992C717.975 233.107 720.569 237.592 724.895 238.324L731.319 239.41C735.211 240.068 737.79 243.811 737.017 247.682L735.121 257.177C734.498 260.298 731.848 262.606 728.671 262.794L701.34 264.414C698.633 264.574 696.262 266.284 695.254 268.802L692.793 274.956C691.756 277.548 689.278 279.276 686.488 279.353L644.026 280.53C640.219 280.636 637.023 277.684 636.779 273.884C636.198 264.867 635.019 250.128 633.517 250.128C631.684 250.128 663.33 249.591 673.016 249.427C674.803 249.397 676.501 248.685 677.78 247.436L700.88 224.872C704.323 221.51 703.424 215.756 699.119 213.604L694.821 211.454C692.159 210.124 688.948 210.621 686.813 212.694L669.265 229.74C667.859 231.105 665.946 231.819 663.99 231.707L631.68 229.869C629.583 229.749 627.65 228.694 626.415 226.995L607.145 200.478C605.828 198.666 603.723 197.593 601.482 197.593H557.789C556.279 197.593 554.81 198.081 553.6 198.985L520.595 223.639C515.2 227.669 518.05 236.247 524.784 236.247H545.987C549.051 236.247 551.759 238.239 552.67 241.164L554.439 246.841C555.065 248.849 554.483 251.039 552.942 252.471C549.358 255.804 551.621 261.805 556.513 261.94L591.152 262.9C593.892 262.976 596.336 264.645 597.404 267.169L599.383 271.845C601.38 276.564 597.797 281.759 592.676 281.569L550.109 279.983C546.864 279.862 544.128 277.525 543.501 274.339L542.59 269.707C542.05 266.964 539.931 264.806 537.198 264.216L505.554 257.385C504.882 257.24 504.236 256.997 503.635 256.663L486.451 247.128C485.396 246.542 484.206 246.24 482.999 246.249L462.396 246.414C455.591 246.469 452.776 237.845 458.374 233.975C599.885 136.129 771.317 78.6441 955.997 78.6441C1175.83 78.6441 1376.85 160.066 1530.96 294.103C1533.45 296.267 1534.06 299.88 1532.45 302.758L1526.01 314.276C1525.22 315.69 1523.97 316.787 1522.46 317.378L1485.83 331.722C1484.84 332.109 1483.95 332.716 1483.24 333.497L1469.63 348.266C1468.14 349.881 1467.49 352.102 1467.89 354.263L1470.29 367.439C1470.83 370.411 1473.22 372.701 1476.21 373.118L1488.05 374.768C1490.54 375.115 1492.65 376.769 1493.58 379.101L1502.05 400.271C1503.49 403.867 1507.57 405.612 1511.17 404.164L1532.38 395.619C1536.6 393.92 1541.29 396.631 1541.93 401.134L1545.49 426.373C1546.08 430.586 1542.81 434.351 1538.56 434.351H1536.28C1535.93 434.351 1535.59 434.326 1535.25 434.276L1507.28 430.148C1506.56 430.041 1505.82 430.048 1505.1 430.169L1476.27 435.009C1474.43 435.318 1472.79 436.347 1471.71 437.868L1443.37 477.906C1442.28 479.448 1440.61 480.484 1438.74 480.777L1401.26 486.655C1398.29 487.122 1395.95 489.436 1395.45 492.404L1390.81 519.815C1390.2 523.455 1392.51 526.946 1396.11 527.794L1402.15 529.221C1405.87 530.101 1408.2 533.812 1407.37 537.551L1404.81 549.082C1403.99 552.802 1400.34 555.178 1396.6 554.428L1359.7 547.023C1358.75 546.832 1357.77 546.841 1356.83 547.048L1320.63 554.969C1318.32 555.474 1316.43 557.107 1315.59 559.314L1308.82 577.071C1308.39 578.192 1308.26 579.404 1308.43 580.591L1314.77 623.35C1315.12 625.672 1316.6 627.667 1318.73 628.663L1338.15 637.763C1339.1 638.204 1340.12 638.43 1341.16 638.424L1380.28 638.197L1403.42 636.111C1406.08 635.871 1408.37 634.138 1409.33 631.644L1415.78 614.811C1416.02 614.178 1416.35 613.583 1416.77 613.046L1456.42 561.523C1458.05 559.403 1460.75 558.398 1463.37 558.934L1483.89 563.129C1486.07 563.575 1488.33 562.957 1489.98 561.464L1506.67 546.381C1510.56 542.865 1516.79 544.717 1518.13 549.788L1519.71 555.789C1520.15 557.429 1521.16 558.857 1522.57 559.805L1582.8 600.435C1586.12 602.669 1586.89 607.216 1584.5 610.42L1582.75 612.774C1581.35 614.654 1579.1 615.708 1576.76 615.583L1564.06 614.903C1558.22 614.591 1554.6 621.151 1557.97 625.929L1559.95 628.742C1560.96 630.17 1562.46 631.169 1564.17 631.544L1578.35 634.656C1579.76 634.964 1581.22 634.833 1582.55 634.28L1598.38 627.68C1601.03 626.575 1602.73 623.965 1602.68 621.096L1602.36 602.553C1602.32 600.401 1603.52 598.418 1605.44 597.452C1608.79 595.77 1609.57 591.334 1607 588.607L1604.96 586.446C1604.47 585.927 1603.9 585.485 1603.28 585.138L1560.83 561.466C1559.35 560.638 1558.22 559.299 1557.65 557.697L1549.82 535.67C1548.2 531.113 1551.58 526.326 1556.41 526.326H1581.6C1583.45 526.326 1585.22 527.054 1586.53 528.352L1596.63 538.358L1627.05 564.568C1628.51 565.834 1629.39 567.651 1629.47 569.588L1630.62 598.037C1630.69 599.719 1631.36 601.319 1632.51 602.546L1655.89 627.443C1659.67 631.47 1666.41 629.735 1667.77 624.382L1676.49 590.227C1676.97 588.344 1678.21 586.746 1679.92 585.814L1691.54 579.47C1695.91 577.08 1701.31 579.9 1701.85 584.856L1704.87 612.649C1705.04 614.123 1705.66 615.509 1706.66 616.605L1725.92 637.745C1727.27 639.232 1729.2 640.064 1731.21 640.03L1768.9 639.382C1771.83 639.331 1774.49 641.112 1775.53 643.85C1783.21 663.923 1790.18 684.305 1796.4 705.049C1797.1 707.381 1796.4 709.904 1794.61 711.558ZM524.548 440.703C522.842 437.205 524.316 432.987 527.831 431.314L542.183 424.482C543.627 423.794 545.262 423.622 546.817 423.993L558.25 426.722C562.056 427.63 564.378 431.481 563.405 435.271L558.984 452.496C558.384 454.834 556.622 456.697 554.322 457.428L541.366 461.542C538.057 462.593 534.478 461.059 532.956 457.939L524.548 440.703ZM639.534 499.98C641.619 499.98 643.309 501.67 643.309 503.755V511.029C643.309 514.895 640.175 518.029 636.309 518.029H591.808C591.174 518.029 590.543 517.943 589.933 517.773L578.656 514.638C574.662 513.527 572.502 509.208 574.011 505.347L575.021 502.761C575.715 500.984 577.104 499.568 578.867 498.839L600.028 490.09C600.876 489.74 601.785 489.559 602.703 489.559H630.549C633.426 489.559 635.759 491.892 635.759 494.77V496.205C635.759 498.29 637.449 499.98 639.534 499.98ZM660.452 525.146C664.318 525.146 667.452 528.28 667.452 532.146V538.825C667.452 541.206 666.243 543.423 664.241 544.711L655.478 550.352C654.712 550.845 653.858 551.184 652.963 551.349L646.235 552.595C641.932 553.391 637.961 550.089 637.961 545.712C637.961 541.42 637.961 536.253 637.961 532.142C637.961 528.276 641.095 525.146 644.961 525.146H660.452ZM659.937 516.27C656.233 517.166 652.667 514.36 652.667 510.549C652.667 505.437 658.737 502.755 662.517 506.197C666.006 509.375 664.524 515.161 659.937 516.27ZM652.926 561.205C657.133 560.622 660.885 563.891 660.885 568.139V574.237C660.885 576.089 660.151 577.866 658.843 579.179L650.393 587.655C649.08 588.972 647.296 589.713 645.436 589.713H629.242C624.746 589.713 621.416 585.536 622.417 581.154L623.691 575.577C624.368 572.613 626.882 570.424 629.911 570.162L634.357 569.777C636.595 569.583 638.539 568.159 639.396 566.082C640.212 564.108 642.014 562.715 644.13 562.422L652.926 561.205ZM589.364 527.394C590.689 525.961 592.553 525.146 594.505 525.146H606.809C612.505 525.146 615.816 531.586 612.502 536.219L586.842 572.088C584.796 574.949 580.943 575.847 577.843 574.185L572.281 571.205C569.671 569.806 568.224 566.917 568.666 563.989L570.91 549.136C571.119 547.75 571.74 546.459 572.691 545.43L589.364 527.394ZM705.098 552.645C708.074 553.523 710.117 556.256 710.117 559.359V564.113C710.117 567.979 706.983 571.113 703.117 571.113H685.903C683.607 571.113 681.457 569.987 680.15 568.1L675.855 561.902C675.044 560.731 674.609 559.34 674.609 557.915V546.22C674.609 545.157 675.47 544.296 676.533 544.296C676.717 544.296 676.901 544.322 677.078 544.374L705.098 552.645ZM689.384 534.955C686.665 532.689 686.43 528.597 688.871 526.035C690.871 523.937 694.068 523.53 696.53 525.06L698.306 526.164C701.944 528.426 702.289 533.591 698.983 536.315C696.66 538.23 693.303 538.221 690.991 536.294L689.384 534.955ZM1807.52 758.503C1807.21 757.927 1807.28 757.213 1807.71 756.717C1808.56 755.723 1810.18 756.129 1810.48 757.401C1810.92 759.27 1808.42 760.2 1807.52 758.503Z" fill="black" fill-opacity="0.25"/>
</svg>
