<svg width="375" height="375" viewBox="0 0 375 375" fill="none" xmlns="http://www.w3.org/2000/svg">
<path d="M83.3333 375V333.333H166.667V268.75C149.653 264.931 134.462 257.726 121.094 247.135C107.726 236.545 97.9167 223.264 91.6667 207.292C65.625 204.167 43.8368 192.795 26.3021 173.177C8.76736 153.559 0 130.556 0 104.167V83.3333C0 71.875 4.07986 62.066 12.2396 53.9063C20.3993 45.7465 30.2083 41.6667 41.6667 41.6667H83.3333V0H291.667V41.6667H333.333C344.792 41.6667 354.601 45.7465 362.76 53.9063C370.92 62.066 375 71.875 375 83.3333V104.167C375 130.556 366.233 153.559 348.698 173.177C331.163 192.795 309.375 204.167 283.333 207.292C277.083 223.264 267.274 236.545 253.906 247.135C240.538 257.726 225.347 264.931 208.333 268.75V333.333H291.667V375H83.3333ZM83.3333 162.5V83.3333H41.6667V104.167C41.6667 117.361 45.4861 129.253 53.125 139.844C60.7639 150.434 70.8333 157.986 83.3333 162.5ZM187.5 229.167C204.861 229.167 219.618 223.09 231.771 210.938C243.924 198.785 250 184.028 250 166.667V41.6667H125V166.667C125 184.028 131.076 198.785 143.229 210.938C155.382 223.09 170.139 229.167 187.5 229.167ZM291.667 162.5C304.167 157.986 314.236 150.434 321.875 139.844C329.514 129.253 333.333 117.361 333.333 104.167V83.3333H291.667V162.5Z" fill="black" fill-opacity="0.25"/>
</svg>
