<svg width="1174" height="741" viewBox="0 0 1174 741" fill="none" xmlns="http://www.w3.org/2000/svg">
<path d="M0 0L0.0399933 740.97H1043.23L1173.81 0H0Z" fill="#DC0A2F"/>
<path d="M173.71 135.95C173.71 123.02 163.23 112.54 150.3 112.54H129.25L126.92 114.87V425.16H126.93V464.12H351.89C364.82 464.12 375.3 453.64 375.3 440.72V417.32H173.71V135.95Z" fill="white"/>
<path d="M938.859 330.91C938.859 306.96 936.559 289.93 924.419 277.24C912.249 264.55 894.209 256.45 870.739 256.45C857.029 256.45 847.179 257.83 837.099 264.06C827.039 270.28 819.909 278.14 813.779 287.84C809.379 272.58 792.369 256.31 776.479 256.31L775.669 256.34C767.269 256.35 758.399 260.71 753.459 268.24C745.639 280.15 748.959 296.15 760.869 303.97C763.589 305.76 766.539 306.9 769.559 307.56L769.259 463.91H792.849C805.769 463.91 816.249 453.43 816.249 440.5V368.97C816.249 345.16 820.439 331.61 827.299 321.33C834.159 311.04 843.889 306.37 859.289 306.37C870.609 306.37 879.409 309.93 884.579 317.21C889.749 324.49 892.409 331.5 892.409 346.06V463.92L916.809 464.07C929.739 464.07 939.199 449.79 939.199 436.86L938.859 330.91Z" fill="white"/>
<path d="M413.63 195.12C403.18 188.26 389.59 189.98 381.13 198.54C363.21 183.67 340.2 174.73 315.1 174.73C257.96 174.73 211.65 221.04 211.65 278.18C211.65 335.32 257.96 381.63 315.1 381.63C372.24 381.63 418.55 335.32 418.55 278.18C418.55 264.55 415.84 251.56 411.05 239.63C414.97 237.66 418.46 234.77 421.05 230.85C428.86 218.94 425.53 202.94 413.63 195.12ZM315.09 336.23C283.08 336.23 257.04 310.19 257.04 278.18C257.04 246.17 283.08 220.13 315.09 220.13C347.1 220.13 373.14 246.17 373.14 278.18C373.14 310.19 347.1 336.23 315.09 336.23Z" fill="white"/>
<path d="M640.24 230.76C648.06 218.85 644.74 202.85 632.83 195.03C622.63 188.35 609.49 189.87 601 197.9C584.41 181.87 561.89 171.98 537.06 171.98C486.23 171.98 444.87 213.33 444.87 264.17C444.87 287.37 453.56 308.55 467.77 324.77C452.33 330.82 441.34 345.77 441.34 363.37C441.34 374.9 446.05 385.32 453.64 392.84C439.68 403.27 430.59 419.85 430.59 438.57V452.34C430.59 483.82 456.21 509.43 487.7 509.43H585.39C616.87 509.43 642.5 483.82 642.5 452.34V438.57C642.5 407.09 616.88 381.46 585.39 381.46H524.41H524.28C515.03 381.46 488.98 381.47 489.19 370.83C489.47 355.91 522.92 355.31 524.8 355.48H525.04C528.99 356 532.98 356.35 537.06 356.35C587.89 356.35 629.25 315 629.25 264.17C629.25 256.2 628.13 248.52 626.22 241.15C631.77 239.45 636.82 236 640.24 230.76ZM597.1 438.57V452.34C597.1 458.78 591.84 464.03 585.39 464.03H487.7C481.26 464.03 475.99 458.78 475.99 452.34V438.57C475.99 432.13 481.25 426.88 487.7 426.88H585.39C591.84 426.88 597.1 432.13 597.1 438.57ZM537.06 310.95C511.26 310.95 490.28 289.96 490.28 264.17C490.28 238.37 511.25 217.38 537.06 217.38C562.86 217.38 583.84 238.37 583.84 264.17C583.84 289.96 562.86 310.95 537.06 310.95Z" fill="white"/>
<path d="M711.99 170.86C698.04 161.71 679.31 165.6 670.15 179.55C661 193.5 664.89 212.24 678.84 221.39C692.79 230.55 711.53 226.65 720.68 212.7C729.84 198.76 725.95 180.03 711.99 170.86Z" fill="#FFCD32"/>
<path d="M673.279 464.03H696.679C709.609 464.03 720.089 453.55 720.089 440.63V256.61H673.279V464.03Z" fill="white"/>
<path d="M204.61 629.76L195.77 605.2H161.97L153.33 629.76H138.08L171.16 540.99H186.87L219.95 629.76H204.61ZM191.97 592.75L183.69 568.68C183.09 567.07 182.25 564.52 181.18 561.06C180.12 557.61 179.39 555.07 178.98 553.45C177.89 558.41 176.29 563.82 174.2 569.71L166.22 592.75H191.97Z" fill="white"/>
<path d="M325.699 541.35V598.56C325.699 605.08 324.309 610.8 321.499 615.69C318.699 620.59 314.649 624.36 309.349 627.01C304.039 629.64 297.699 630.97 290.329 630.97C279.369 630.97 270.839 628.05 264.749 622.25C258.669 616.45 255.619 608.47 255.619 598.3V541.34H270.139V597.27C270.139 604.58 271.829 609.96 275.219 613.43C278.599 616.88 283.799 618.62 290.809 618.62C304.439 618.62 311.259 611.47 311.259 597.17V541.35H325.699Z" fill="white"/>
<path d="M403.62 629.76H389.17V553.74H363.17V541.35H429.62V553.74H403.62V629.76Z" fill="white"/>
<path d="M546.42 585.43C546.42 599.83 542.83 611.01 535.64 618.99C528.43 626.97 518.25 630.96 505.05 630.96C491.72 630.96 481.46 627 474.31 619.08C467.15 611.17 463.58 599.91 463.58 585.31C463.58 570.72 467.18 559.52 474.37 551.69C481.56 543.87 491.83 539.95 505.18 539.95C518.32 539.95 528.47 543.93 535.66 551.86C542.83 559.82 546.42 571 546.42 585.43ZM478.94 585.43C478.94 596.31 481.14 604.57 485.53 610.2C489.93 615.82 496.43 618.63 505.05 618.63C513.65 618.63 520.13 615.85 524.5 610.29C528.88 604.73 531.06 596.45 531.06 585.43C531.06 574.59 528.89 566.37 524.56 560.76C520.23 555.15 513.77 552.36 505.19 552.36C496.52 552.36 489.97 555.16 485.56 560.76C481.15 566.36 478.94 574.59 478.94 585.43Z" fill="white"/>
<path d="M663.829 629.76H646.109L602.639 559.3H602.149L602.459 563.25C603.009 570.74 603.299 577.6 603.299 583.81V629.76H590.189V541.35H607.709L651.079 611.45H651.439C651.369 610.52 651.199 607.14 650.959 601.31C650.709 595.48 650.589 590.94 650.589 587.68V541.35H663.839V629.76H663.829Z" fill="white"/>
<path d="M790.43 585.43C790.43 599.83 786.84 611.01 779.65 618.99C772.44 626.97 762.26 630.96 749.06 630.96C735.73 630.96 725.47 627 718.32 619.08C711.16 611.17 707.59 599.91 707.59 585.31C707.59 570.72 711.19 559.52 718.38 551.69C725.57 543.87 735.84 539.95 749.19 539.95C762.33 539.95 772.48 543.93 779.67 551.86C786.84 559.82 790.43 571 790.43 585.43ZM722.95 585.43C722.95 596.31 725.15 604.57 729.54 610.2C733.94 615.82 740.44 618.63 749.06 618.63C757.66 618.63 764.13 615.85 768.51 610.29C772.89 604.73 775.07 596.45 775.07 585.43C775.07 574.59 772.9 566.37 768.57 560.76C764.23 555.15 757.78 552.36 749.2 552.36C740.53 552.36 733.98 555.16 729.57 560.76C725.16 566.37 722.95 574.59 722.95 585.43Z" fill="white"/>
<path d="M872.409 629.76L846.769 555.93H846.289C846.959 566.9 847.309 577.17 847.309 586.77V629.76H834.199V541.35H854.579L879.109 611.69H879.479L904.759 541.35H925.199V629.76H911.299V586.05C911.299 581.65 911.399 575.93 911.629 568.87C911.849 561.81 912.029 557.54 912.199 556.04H911.719L885.169 629.75H872.409V629.76Z" fill="white"/>
</svg>
