<svg width="57" height="28" viewBox="0 0 57 28" fill="none" xmlns="http://www.w3.org/2000/svg">
<path d="M3.28339 1.65154C3.28339 0.739348 2.54798 0 1.64064 0H0.163503L0 0.164379V22.0549H0.000701344V24.8034H15.7868C16.6941 24.8034 17.4295 24.0641 17.4295 23.1526V21.5018H3.28339V1.65154Z" fill="white"/>
<path d="M56.9761 15.4057C56.9761 13.7161 56.8147 12.5146 55.9628 11.6194C55.1088 10.7241 53.8429 10.1527 52.196 10.1527C51.2339 10.1527 50.5427 10.25 49.8353 10.6895C49.1294 11.1283 48.6291 11.6829 48.1989 12.3672C47.8901 11.2906 46.6965 10.1428 45.5815 10.1428L45.5246 10.1449C44.9352 10.1456 44.3127 10.4532 43.9661 10.9844C43.4173 11.8247 43.6503 12.9534 44.4861 13.5051C44.6769 13.6314 44.8839 13.7118 45.0959 13.7584L45.0748 24.7886H46.7302C47.6368 24.7886 48.3722 24.0493 48.3722 23.1371V18.0908C48.3722 16.411 48.6663 15.4551 49.1476 14.7298C49.629 14.0039 50.3118 13.6744 51.3925 13.6744C52.1868 13.6744 52.8044 13.9256 53.1672 14.4392C53.5299 14.9528 53.7166 15.4473 53.7166 16.4745V24.7893L55.4288 24.7999C56.3362 24.7999 57 23.7925 57 22.8803L56.9761 15.4057Z" fill="white"/>
<path d="M20.1193 5.82592C19.386 5.34196 18.4323 5.4633 17.8387 6.0672C16.5812 5.01814 14.9665 4.38744 13.2052 4.38744C9.19549 4.38744 5.94578 7.65454 5.94578 11.6857C5.94578 15.7168 9.19549 18.9839 13.2052 18.9839C17.2148 18.9839 20.4646 15.7168 20.4646 11.6857C20.4646 10.7241 20.2744 9.80768 19.9383 8.96603C20.2133 8.82705 20.4582 8.62317 20.64 8.34662C21.188 7.50638 20.9544 6.37761 20.1193 5.82592ZM13.2045 15.781C10.9582 15.781 9.13093 13.9439 9.13093 11.6857C9.13093 9.42742 10.9582 7.59034 13.2045 7.59034C15.4507 7.59034 17.278 9.42742 17.278 11.6857C17.278 13.9439 15.4507 15.781 13.2045 15.781Z" fill="white"/>
<path d="M36.0211 8.34027C36.5699 7.50004 36.3369 6.37126 35.5012 5.81957C34.7854 5.34831 33.8633 5.45554 33.2676 6.02204C32.1034 4.89115 30.5231 4.19343 28.7807 4.19343C25.2138 4.19343 22.3115 7.11061 22.3115 10.6973C22.3115 12.334 22.9213 13.8282 23.9184 14.9725C22.835 15.3993 22.0638 16.454 22.0638 17.6957C22.0638 18.5091 22.3943 19.2442 22.9269 19.7748C21.9473 20.5106 21.3094 21.6803 21.3094 23.0009V23.9724C21.3094 26.1933 23.1072 28 25.317 28H32.1722C34.3812 28 36.1797 26.1933 36.1797 23.9724V23.0009C36.1797 20.7801 34.3819 18.9719 32.1722 18.9719H27.8839C27.2348 18.9719 25.4068 18.9726 25.4215 18.222C25.4412 17.1694 27.7885 17.1271 27.9204 17.1391H27.9372C28.2144 17.1758 28.4944 17.2004 28.7807 17.2004C32.3476 17.2004 35.2499 14.2833 35.2499 10.6973C35.2499 10.135 35.1714 9.59321 35.0373 9.07326C35.4268 8.95333 35.7812 8.70994 36.0211 8.34027ZM32.9939 23.0009V23.9724C32.9939 24.4267 32.6248 24.7971 32.1722 24.7971H25.317C24.8651 24.7971 24.4952 24.4267 24.4952 23.9724V23.0009C24.4952 22.5466 24.8644 22.1762 25.317 22.1762H32.1722C32.6248 22.1762 32.9939 22.5466 32.9939 23.0009ZM28.7807 13.9975C26.9702 13.9975 25.498 12.5167 25.498 10.6973C25.498 8.87714 26.9695 7.39633 28.7807 7.39633C30.5912 7.39633 32.0634 8.87714 32.0634 10.6973C32.0634 12.5167 30.5912 13.9975 28.7807 13.9975Z" fill="white"/>
<path d="M41.056 4.11436C40.0771 3.46884 38.7628 3.74327 38.12 4.72743C37.4779 5.71158 37.7509 7.03365 38.7298 7.67917C39.7087 8.32539 41.0238 8.05026 41.6658 7.06611C42.3086 6.08266 42.0357 4.76129 41.056 4.11436Z" fill="#FFCD32"/>
<path d="M38.3396 24.7971H39.9817C40.889 24.7971 41.6244 24.0577 41.6244 23.1463V10.1639H38.3396V24.7971Z" fill="white"/>
</svg>
