<svg width="24" height="24" viewBox="0 0 24 24" fill="none" xmlns="http://www.w3.org/2000/svg">
<mask id="mask0_2780_337" style="mask-type:alpha" maskUnits="userSpaceOnUse" x="0" y="0" width="24" height="24">
<rect width="24" height="24" fill="#D9D9D9"/>
</mask>
<g mask="url(#mask0_2780_337)">
<path d="M6.67578 21.325V17.3907C5.72578 16.4893 4.98828 15.4871 4.46328 14.3842C3.93828 13.2814 3.67578 12.1487 3.67578 10.9861C3.67578 8.6775 4.48516 6.71516 6.10391 5.09912C7.72266 3.48307 9.68828 2.67505 12.0008 2.67505C13.8687 2.67505 15.5625 3.24656 17.0822 4.38957C18.6019 5.53259 19.5876 7.00916 20.0393 8.81927L21.0511 12.9235C21.1342 13.2771 21.0655 13.5991 20.8449 13.8895C20.6242 14.1799 20.33 14.325 19.9623 14.325H18.3258V17.0597C18.3258 17.7039 18.1093 18.2425 17.6763 18.6755C17.2433 19.1085 16.7046 19.325 16.0604 19.325H14.3258V21.325H12.6758V17.675H16.0604C16.2399 17.675 16.3873 17.6174 16.5027 17.502C16.6181 17.3866 16.6758 17.2392 16.6758 17.0597V12.675H19.2758L18.4258 9.20005C18.0424 7.77057 17.2485 6.60069 16.0441 5.69042C14.8396 4.78017 13.4918 4.32505 12.0008 4.32505C10.1572 4.32505 8.58382 4.96997 7.28061 6.2598C5.97739 7.54963 5.32578 9.11812 5.32578 10.9653C5.32578 11.9147 5.52161 12.8212 5.91328 13.6849C6.30495 14.5486 6.85911 15.3043 7.57578 15.952L8.32578 16.65V21.325H6.67578ZM11.1431 14.627H12.7085L12.8316 13.5539C13.0098 13.5206 13.1921 13.4584 13.3787 13.3673C13.5652 13.2763 13.7136 13.1565 13.8239 13.0077L14.7777 13.3616L15.5354 12.0116L14.7546 11.4231C14.8315 11.1988 14.87 10.9744 14.87 10.75C14.87 10.5257 14.8315 10.3013 14.7546 10.077L15.5354 9.48852L14.7777 8.1385L13.8239 8.49235C13.7136 8.34363 13.5652 8.22377 13.3787 8.13275C13.1921 8.04172 13.0098 7.97953 12.8316 7.9462L12.7085 6.87312H11.1431L11.02 7.9462C10.8418 7.97953 10.6594 8.04172 10.4729 8.13275C10.2864 8.22377 10.138 8.34363 10.0277 8.49235L9.07386 8.1385L8.31616 9.48852L9.09693 10.077C9.02001 10.3013 8.98156 10.5257 8.98156 10.75C8.98156 10.9744 9.02001 11.1988 9.09693 11.4231L8.31616 12.0116L9.07386 13.3616L10.0277 13.0077C10.138 13.1565 10.2864 13.2763 10.4729 13.3673C10.6594 13.4584 10.8418 13.5206 11.02 13.5539L11.1431 14.627ZM11.9217 12.6654C11.3885 12.6654 10.9367 12.4788 10.5662 12.1056C10.1957 11.7324 10.0104 11.2792 10.0104 10.746C10.0104 10.2128 10.197 9.76094 10.5702 9.39042C10.9435 9.01992 11.3967 8.83467 11.9299 8.83467C12.463 8.83467 12.9149 9.02128 13.2854 9.3945C13.6559 9.76773 13.8412 10.2209 13.8412 10.7541C13.8412 11.2873 13.6545 11.7392 13.2813 12.1097C12.9081 12.4802 12.4549 12.6654 11.9217 12.6654Z" fill="#545F71"/>
</g>
</svg>
