<svg width="24" height="24" viewBox="0 0 24 24" fill="none" xmlns="http://www.w3.org/2000/svg">
<mask id="mask0_796_7479" style="mask-type:alpha" maskUnits="userSpaceOnUse" x="0" y="0" width="24" height="24">
<rect width="24" height="24" fill="#D9D9D9"/>
</mask>
<g mask="url(#mask0_796_7479)">
<path d="M6.89232 22.9249C6.42142 22.9249 6.00915 22.7481 5.6555 22.3944C5.30183 22.0408 5.125 21.6285 5.125 21.1576V2.84228C5.125 2.37138 5.30183 1.9591 5.6555 1.60545C6.00915 1.25179 6.42142 1.07495 6.89232 1.07495H17.1076C17.5785 1.07495 17.9908 1.25179 18.3444 1.60545C18.6981 1.9591 18.875 2.37138 18.875 2.84228V21.1576C18.875 21.6285 18.6981 22.0408 18.3444 22.3944C17.9908 22.7481 17.5785 22.9249 17.1076 22.9249L6.89232 22.9249ZM6.5846 18.8826V21.1576C6.5846 21.2345 6.61665 21.305 6.68075 21.3692C6.74487 21.4333 6.81539 21.4653 6.89232 21.4653H17.1076C17.1846 21.4653 17.2551 21.4333 17.3192 21.3692C17.3833 21.305 17.4153 21.2345 17.4153 21.1576V18.8826H6.5846ZM12.0093 20.946C12.2172 20.946 12.3971 20.8686 12.549 20.7138C12.7009 20.5589 12.7769 20.3759 12.7769 20.1647C12.7769 19.9536 12.6978 19.772 12.5396 19.6201C12.3815 19.4682 12.1985 19.3922 11.9906 19.3922C11.7828 19.3922 11.6029 19.4713 11.451 19.6294C11.299 19.7876 11.2231 19.9705 11.2231 20.1783C11.2231 20.3927 11.3021 20.5743 11.4603 20.723C11.6185 20.8717 11.8015 20.946 12.0093 20.946ZM6.5846 17.423H17.4153V4.93648H6.5846V17.423ZM6.5846 3.47688H17.4153V2.84228C17.4153 2.76534 17.3833 2.69482 17.3192 2.6307C17.2551 2.5666 17.1846 2.53455 17.1076 2.53455H6.89232C6.81539 2.53455 6.74487 2.5666 6.68075 2.6307C6.61665 2.69482 6.5846 2.76534 6.5846 2.84228V3.47688Z" fill="#545F71"/>
</g>
</svg>
