<svg width="24" height="24" viewBox="0 0 24 24" fill="none" xmlns="http://www.w3.org/2000/svg">
<mask id="mask0_796_7497" style="mask-type:alpha" maskUnits="userSpaceOnUse" x="0" y="0" width="24" height="24">
<rect width="24" height="24" fill="#D9D9D9"/>
</mask>
<g mask="url(#mask0_796_7497)">
<path d="M0.949219 17.5501V14.7895C0.949219 14.1632 1.10834 13.5928 1.42657 13.0782C1.74479 12.5636 2.18567 12.1793 2.74922 11.9251C3.79922 11.4751 4.87396 11.1001 5.97344 10.8001C7.07293 10.5001 8.19819 10.3501 9.34922 10.3501C10.2317 10.3501 11.1044 10.4418 11.9672 10.6251C12.8301 10.8084 13.6658 11.0501 14.4742 11.3501C14.2598 11.5838 14.0641 11.8275 13.8871 12.0814C13.7101 12.3352 13.5558 12.6081 13.4242 12.9001C12.7576 12.6668 12.0817 12.4876 11.3965 12.3626C10.7114 12.2376 10.0248 12.1751 9.33674 12.1751C8.34506 12.1751 7.35339 12.3084 6.36172 12.5751C5.37005 12.8418 4.41589 13.1751 3.49922 13.5751C3.26589 13.6918 3.08672 13.8581 2.96172 14.0742C2.83672 14.2903 2.77422 14.5342 2.77422 14.8059V15.7251H12.6992C12.6826 16.0584 12.7034 16.3751 12.7617 16.6751C12.8201 16.9751 12.8992 17.2668 12.9992 17.5501H0.949219ZM9.32819 8.6751C8.18304 8.6751 7.21276 8.27871 6.41734 7.48595C5.62193 6.6932 5.22422 5.72424 5.22422 4.57907C5.22422 3.43392 5.6206 2.46364 6.41337 1.66822C7.20612 0.872805 8.17508 0.475098 9.32024 0.475098C10.4654 0.475098 11.4357 0.87148 12.2311 1.66425C13.0265 2.457 13.4242 3.42596 13.4242 4.57112C13.4242 5.71627 13.0278 6.68656 12.2351 7.48197C11.4423 8.27739 10.4734 8.6751 9.32819 8.6751ZM9.32732 6.8501C9.95859 6.8501 10.4951 6.62823 10.9367 6.1845C11.3784 5.74076 11.5992 5.20326 11.5992 4.572C11.5992 3.94073 11.3774 3.40426 10.9336 2.9626C10.4899 2.52093 9.95239 2.3001 9.32112 2.3001C8.68985 2.3001 8.15339 2.52197 7.71172 2.9657C7.27005 3.40943 7.04922 3.94693 7.04922 4.5782C7.04922 5.20947 7.27109 5.74593 7.71482 6.1876C8.15855 6.62926 8.69605 6.8501 9.32732 6.8501ZM19.3992 4.5751C19.3992 5.70093 18.9973 6.66572 18.1936 7.46947C17.3898 8.27322 16.4239 8.6751 15.2956 8.6751C15.0314 8.6751 14.7659 8.65843 14.4992 8.6251C14.2326 8.59176 13.9826 8.53343 13.7492 8.4501C14.1992 7.91676 14.5201 7.31292 14.7117 6.63857C14.9034 5.96422 14.9992 5.27547 14.9992 4.57232C14.9992 3.86917 14.8951 3.18968 14.6867 2.53385C14.4784 1.87801 14.1659 1.26676 13.7492 0.700098C13.9951 0.614681 14.2492 0.555831 14.5117 0.523547C14.7742 0.491247 15.0392 0.475098 15.3067 0.475098C16.4276 0.475098 17.3898 0.876972 18.1936 1.68072C18.9973 2.48447 19.3992 3.44926 19.3992 4.5751ZM19.0877 20.7001C17.7221 20.7001 16.566 20.2207 15.6193 19.262C14.6726 18.3033 14.1992 17.1438 14.1992 15.7835C14.1992 14.4202 14.6732 13.2613 15.6212 12.3068C16.5691 11.3523 17.7286 10.8751 19.0995 10.8751C20.4737 10.8751 21.638 11.3521 22.5925 12.3061C23.547 13.2601 24.0242 14.4204 24.0242 15.7869C24.0242 17.1441 23.547 18.3023 22.5925 19.2614C21.638 20.2205 20.4697 20.7001 19.0877 20.7001ZM18.1742 18.0001L21.6992 14.4751L20.9742 13.7751L18.1492 16.6001L16.7492 15.1751L16.0492 15.8751L18.1742 18.0001Z" fill="#545F71"/>
</g>
</svg>
