<svg width="24" height="24" viewBox="0 0 24 24" fill="none" xmlns="http://www.w3.org/2000/svg">
<path fill-rule="evenodd" clip-rule="evenodd" d="M23.9998 22.6754C23.9998 23.4069 23.4067 24 22.6753 24H16.5594V14.706H19.6791L20.1461 11.0839H16.5594V8.77136C16.5594 7.72268 16.8505 7.00806 18.3544 7.00806L20.2725 7.00716V3.76759C19.9407 3.72353 18.8021 3.62489 17.4776 3.62489C14.7122 3.62489 12.819 5.31283 12.819 8.41275V11.0839H9.69141V14.706H12.819V24H1.32457C0.592862 24 0 23.4069 0 22.6754V1.32465C0 0.592951 0.592862 0 1.32457 0H22.6753C23.4067 0 23.9998 0.592951 23.9998 1.32465V22.6754Z" fill="#545F71"/>
</svg>
