<svg width="24" height="24" viewBox="0 0 24 24" fill="none" xmlns="http://www.w3.org/2000/svg">
<mask id="mask0_796_7508" style="mask-type:alpha" maskUnits="userSpaceOnUse" x="0" y="0" width="24" height="24">
<rect width="24" height="24" fill="#D9D9D9"/>
</mask>
<g mask="url(#mask0_796_7508)">
<path d="M11.9937 15.325C12.9143 15.325 13.7038 15.004 14.3621 14.3621C15.0204 13.7202 15.3496 12.9348 15.3496 12.0058C15.3496 11.0852 15.0224 10.2958 14.368 9.63745C13.7136 8.97912 12.9261 8.64995 12.0055 8.64995C11.0849 8.64995 10.2996 8.97716 9.64961 9.63158C8.99961 10.286 8.67461 11.0735 8.67461 11.9941C8.67461 12.9147 8.99557 13.7 9.63748 14.35C10.2794 15 11.0648 15.325 11.9937 15.325ZM11.9979 17.15C10.5635 17.15 9.34682 16.6505 8.34793 15.6516C7.34905 14.6527 6.84961 13.4361 6.84961 12.0016C6.84961 10.5672 7.34905 9.34579 8.34793 8.33745C9.34682 7.32912 10.5635 6.82495 11.9979 6.82495C13.4324 6.82495 14.6538 7.32912 15.6621 8.33745C16.6704 9.34579 17.1746 10.5672 17.1746 12.0016C17.1746 13.4361 16.6704 14.6527 15.6621 15.6516C14.6538 16.6505 13.4324 17.15 11.9979 17.15ZM1.74961 12.9C1.50336 12.9 1.29179 12.8111 1.11491 12.6335C0.938043 12.4559 0.849609 12.2434 0.849609 11.996C0.849609 11.7486 0.938043 11.5333 1.11491 11.35C1.29179 11.1666 1.50336 11.075 1.74961 11.075H4.24961C4.50294 11.075 4.72044 11.1662 4.90211 11.3487C5.08378 11.5312 5.17461 11.7498 5.17461 12.0043C5.17461 12.2518 5.08378 12.463 4.90211 12.6378C4.72044 12.8126 4.50294 12.9 4.24961 12.9H1.74961ZM19.7496 12.9C19.5034 12.9 19.2918 12.8111 19.1149 12.6335C18.938 12.4559 18.8496 12.2434 18.8496 11.996C18.8496 11.7486 18.938 11.5333 19.1149 11.35C19.2918 11.1666 19.5034 11.075 19.7496 11.075H22.2496C22.5029 11.075 22.7204 11.1662 22.9021 11.3487C23.0838 11.5312 23.1746 11.7498 23.1746 12.0043C23.1746 12.2518 23.0838 12.463 22.9021 12.6378C22.7204 12.8126 22.5029 12.9 22.2496 12.9H19.7496ZM11.9952 5.14995C11.7477 5.14995 11.5366 5.06152 11.3618 4.88465C11.187 4.70777 11.0996 4.4962 11.0996 4.24995V1.74995C11.0996 1.49662 11.1884 1.27912 11.3661 1.09745C11.5437 0.915785 11.7562 0.824951 12.0036 0.824951C12.2509 0.824951 12.4663 0.915785 12.6496 1.09745C12.8329 1.27912 12.9246 1.49662 12.9246 1.74995V4.24995C12.9246 4.4962 12.8334 4.70777 12.6509 4.88465C12.4683 5.06152 12.2498 5.14995 11.9952 5.14995ZM11.9952 23.15C11.7477 23.15 11.5366 23.0615 11.3618 22.8847C11.187 22.7078 11.0996 22.4962 11.0996 22.25V19.75C11.0996 19.4966 11.1884 19.2791 11.3661 19.0975C11.5437 18.9158 11.7562 18.825 12.0036 18.825C12.2509 18.825 12.4663 18.9158 12.6496 19.0975C12.8329 19.2791 12.9246 19.4966 12.9246 19.75V22.25C12.9246 22.4962 12.8334 22.7078 12.6509 22.8847C12.4683 23.0615 12.2498 23.15 11.9952 23.15ZM5.89961 7.14995L4.47461 5.74995C4.29128 5.56662 4.19853 5.34909 4.19638 5.09738C4.19422 4.84564 4.2861 4.62898 4.47203 4.44738C4.63697 4.28243 4.8453 4.19995 5.09703 4.19995C5.34875 4.19995 5.57461 4.28328 5.77461 4.44995L7.17461 5.87495C7.34128 6.06435 7.42461 6.28253 7.42461 6.5295C7.42461 6.77647 7.34128 6.97912 7.17461 7.13745C7.01628 7.32912 6.80586 7.42495 6.54336 7.42495C6.28086 7.42495 6.06628 7.33328 5.89961 7.14995ZM18.2496 19.525L16.8496 18.1C16.6663 17.9333 16.5788 17.7281 16.5871 17.4843C16.5954 17.2406 16.6871 17.0208 16.8621 16.825C17.0204 16.6583 17.2229 16.5739 17.4696 16.5718C17.7163 16.5697 17.9346 16.6541 18.1246 16.825L19.5496 18.225C19.7163 18.425 19.8007 18.6508 19.8028 18.9025C19.805 19.1543 19.7215 19.3626 19.5522 19.5275C19.3633 19.7091 19.1449 19.8 18.8968 19.8C18.6487 19.8 18.4329 19.7083 18.2496 19.525ZM16.8496 7.14995C16.6663 6.97912 16.5746 6.76974 16.5746 6.52183C16.5746 6.27391 16.6663 6.05828 16.8496 5.87495L18.2496 4.44995C18.4329 4.28328 18.6505 4.19888 18.9022 4.19673C19.1539 4.19456 19.3706 4.27811 19.5522 4.44738C19.7171 4.63623 19.7996 4.8547 19.7996 5.1028C19.7996 5.3509 19.7163 5.56662 19.5496 5.74995L18.1246 7.14995C17.9413 7.33328 17.7257 7.42495 17.478 7.42495C17.2303 7.42495 17.0208 7.33328 16.8496 7.14995ZM4.47203 19.5275C4.29042 19.3626 4.19961 19.1543 4.19961 18.9025C4.19961 18.6508 4.29128 18.425 4.47461 18.225L5.89961 16.825C6.06294 16.6583 6.26628 16.575 6.50961 16.575C6.75294 16.575 6.96808 16.6583 7.15503 16.825C7.33475 17.0083 7.42461 17.225 7.42461 17.475C7.42461 17.725 7.34128 17.9333 7.17461 18.1L5.77461 19.525C5.57461 19.7083 5.34875 19.801 5.09703 19.8032C4.8453 19.8053 4.63697 19.7135 4.47203 19.5275Z" fill="#545F71"/>
</g>
</svg>
