<svg width="24" height="24" viewBox="0 0 24 24" fill="none" xmlns="http://www.w3.org/2000/svg">
<mask id="mask0_796_7516" style="mask-type:alpha" maskUnits="userSpaceOnUse" x="0" y="0" width="24" height="24">
<rect width="24" height="24" fill="#D9D9D9"/>
</mask>
<g mask="url(#mask0_796_7516)">
<path d="M11.9996 21.4001C9.36628 21.4001 7.14128 20.9751 5.32461 20.1251C3.50794 19.2751 2.59961 18.2334 2.59961 17.0001V7.00007C2.59961 5.78341 3.51628 4.74174 5.34961 3.87507C7.18294 3.00841 9.39961 2.57507 11.9996 2.57507C14.5829 2.57507 16.7996 3.00841 18.6496 3.87507C20.4996 4.74174 21.4246 5.78341 21.4246 7.00007V17.0001C21.4246 18.2334 20.5079 19.2751 18.6746 20.1251C16.8413 20.9751 14.6163 21.4001 11.9996 21.4001ZM11.9996 8.67507C13.3829 8.67507 14.8204 8.46257 16.3121 8.03757C17.8038 7.61257 18.8246 7.11674 19.3746 6.55007C18.8079 6.00007 17.7746 5.50424 16.2746 5.06257C14.7746 4.62091 13.3496 4.40007 11.9996 4.40007C10.5663 4.40007 9.11211 4.61674 7.63711 5.05007C6.16211 5.48341 5.15794 5.98341 4.62461 6.55007C5.17461 7.13341 6.17461 7.63341 7.62461 8.05007C9.07461 8.46674 10.5329 8.67507 11.9996 8.67507ZM11.9746 14.1251C12.6579 14.1251 13.3413 14.0834 14.0246 14.0001C14.7079 13.9167 15.3788 13.7917 16.0371 13.6251C16.6954 13.4584 17.3246 13.2542 17.9246 13.0126C18.5246 12.7709 19.0829 12.5001 19.5996 12.2001V8.65007C19.0663 8.93341 18.4954 9.19174 17.8871 9.42507C17.2788 9.65841 16.6454 9.85424 15.9871 10.0126C15.3288 10.1709 14.6621 10.2917 13.9871 10.3751C13.3121 10.4584 12.6413 10.5001 11.9746 10.5001C11.2913 10.5001 10.6038 10.4584 9.91211 10.3751C9.22044 10.2917 8.54961 10.1709 7.89961 10.0126C7.24961 9.85424 6.62878 9.65841 6.03711 9.42507C5.44544 9.19174 4.90794 8.93341 4.42461 8.65007V12.2001C4.94128 12.5001 5.49544 12.7709 6.08711 13.0126C6.67878 13.2542 7.29961 13.4584 7.94961 13.6251C8.59961 13.7917 9.26211 13.9167 9.93711 14.0001C10.6121 14.0834 11.2913 14.1251 11.9746 14.1251ZM11.9996 19.5751C12.7996 19.5751 13.6246 19.5042 14.4746 19.3626C15.3246 19.2209 16.1079 19.0334 16.8246 18.8001C17.5413 18.5667 18.1538 18.3001 18.6621 18.0001C19.1704 17.7001 19.4829 17.4001 19.5996 17.1001V14.1251C19.0663 14.4084 18.4954 14.6667 17.8871 14.9001C17.2788 15.1334 16.6454 15.3251 15.9871 15.4751C15.3288 15.6251 14.6621 15.7417 13.9871 15.8251C13.3121 15.9084 12.6413 15.9501 11.9746 15.9501C11.3079 15.9501 10.6413 15.9126 9.97461 15.8376C9.30794 15.7626 8.65794 15.6459 8.02461 15.4876C7.39128 15.3292 6.77044 15.1376 6.16211 14.9126C5.55378 14.6876 4.97461 14.4251 4.42461 14.1251V17.1251C4.50794 17.4251 4.79544 17.7209 5.28711 18.0126C5.77878 18.3042 6.38711 18.5667 7.11211 18.8001C7.83711 19.0334 8.62878 19.2209 9.48711 19.3626C10.3454 19.5042 11.1829 19.5751 11.9996 19.5751Z" fill="#545F71"/>
</g>
</svg>
