<svg width="24" height="24" viewBox="0 0 24 24" fill="none" xmlns="http://www.w3.org/2000/svg">
<path d="M10 23.9998H14C19.5228 23.9998 24 19.5226 24 13.9998V9.99992C24 4.47708 19.5228 -7.62939e-05 14 -7.62939e-05H10C4.47715 -7.62939e-05 0 4.47708 0 9.99993V13.9998C0 19.5226 4.47715 23.9998 10 23.9998Z" fill="white"/>
<path d="M7.99994 23.9998H16.0001C20.4183 23.9998 24 20.4181 24 15.9998H0C0 20.4181 3.5817 23.9998 7.99994 23.9998Z" fill="#388D00"/>
<path d="M0 8.00659H24C24 3.58835 20.4183 0.00664854 16.0001 0.00664854H7.99994C3.5817 0.00664854 0 3.58835 0 8.00659Z" fill="#D43516"/>
</svg>
