<svg width="24" height="24" viewBox="0 0 24 24" fill="none" xmlns="http://www.w3.org/2000/svg">
<mask id="mask0_796_7501" style="mask-type:alpha" maskUnits="userSpaceOnUse" x="0" y="0" width="24" height="24">
<rect width="24" height="24" fill="#D9D9D9"/>
</mask>
<g mask="url(#mask0_796_7501)">
<path d="M4.99997 19.9996C4.30127 19.9996 3.70993 19.7576 3.22595 19.2737C2.74198 18.7897 2.5 18.1984 2.5 17.4997C2.5 16.8009 2.74198 16.2096 3.22595 15.7256C3.70993 15.2417 4.30127 14.9997 4.99997 14.9997H19C19.6987 14.9997 20.29 15.2417 20.774 15.7256C21.258 16.2096 21.5 16.8009 21.5 17.4997C21.5 18.1984 21.258 18.7897 20.774 19.2737C20.29 19.7576 19.6987 19.9996 19 19.9996H4.99997ZM4.99997 18.4997H19C19.2833 18.4997 19.5208 18.4038 19.7125 18.2122C19.9041 18.0205 20 17.783 20 17.4997C20 17.2163 19.9041 16.9788 19.7125 16.7872C19.5208 16.5955 19.2833 16.4997 19 16.4997H4.99997C4.71664 16.4997 4.47914 16.5955 4.28747 16.7872C4.09581 16.9788 3.99998 17.2163 3.99998 17.4997C3.99998 17.783 4.09581 18.0205 4.28747 18.2122C4.47914 18.4038 4.71664 18.4997 4.99997 18.4997ZM10.8806 12.9997C10.6256 12.9997 10.4119 12.9134 10.2395 12.7409C10.067 12.5684 9.98082 12.3547 9.98082 12.0997V4.89956C9.98082 4.64456 10.0671 4.43084 10.2396 4.25841C10.4121 4.08597 10.6258 3.99976 10.8808 3.99976H18.0809C18.3359 3.99976 18.5497 4.08601 18.7221 4.25851C18.8945 4.43101 18.9808 4.64476 18.9808 4.89976V12.0999C18.9808 12.3549 18.8945 12.5686 18.722 12.741C18.5495 12.9135 18.3357 12.9997 18.0807 12.9997H10.8806ZM11.4808 11.4997H17.4808V5.49971H11.4808V11.4997ZM2.5 11.2189V9.76513H7.93467V11.2189H2.5ZM12.4808 8.24971H16.4808V6.76513H12.4808V8.24971ZM4.5 8.24971H7.93467V6.76513H4.5V8.24971Z" fill="#545F71"/>
</g>
</svg>
