<svg width="24" height="24" viewBox="0 0 24 24" fill="none" xmlns="http://www.w3.org/2000/svg">
<mask id="mask0_796_7493" style="mask-type:alpha" maskUnits="userSpaceOnUse" x="0" y="0" width="24" height="24">
<rect width="24" height="24" fill="#D9D9D9"/>
</mask>
<g mask="url(#mask0_796_7493)">
<path d="M3.42461 21.4C2.94586 21.4 2.52201 21.2155 2.15306 20.8465C1.78409 20.4776 1.59961 20.0537 1.59961 19.575V7.59995C1.59961 7.1212 1.78409 6.69735 2.15306 6.3284C2.52201 5.95943 2.94586 5.77495 3.42461 5.77495H7.64961V3.27495C7.64961 2.80225 7.83409 2.37991 8.20306 2.00793C8.57201 1.63594 8.99586 1.44995 9.47461 1.44995H14.5246C15.0034 1.44995 15.4272 1.63594 15.7962 2.00793C16.1651 2.37991 16.3496 2.80225 16.3496 3.27495V5.77495H20.5746C21.0534 5.77495 21.4772 5.95943 21.8462 6.3284C22.2151 6.69735 22.3996 7.1212 22.3996 7.59995V13C22.1295 12.764 21.8411 12.5509 21.5345 12.3605C21.2279 12.1701 20.9079 12 20.5746 11.85V7.59995H3.42461V19.575H11.5246C11.5913 19.9083 11.6913 20.225 11.8246 20.525C11.9579 20.825 12.1163 21.1166 12.2996 21.4H3.42461ZM9.47461 5.77495H14.5246V3.27495H9.47461V5.77495ZM17.9996 23.175C16.5829 23.175 15.3663 22.6666 14.3496 21.65C13.3329 20.6333 12.8246 19.4166 12.8246 18C12.8246 16.5833 13.3329 15.3666 14.3496 14.35C15.3663 13.3333 16.5829 12.825 17.9996 12.825C19.4163 12.825 20.6329 13.3333 21.6496 14.35C22.6663 15.3666 23.1746 16.5833 23.1746 18C23.1746 19.4166 22.6663 20.6333 21.6496 21.65C20.6329 22.6666 19.4163 23.175 17.9996 23.175ZM18.4496 17.95V14.55H17.3246V18.2694L19.8496 20.6L20.5746 19.875L18.4496 17.95Z" fill="#545F71"/>
</g>
</svg>
