<svg width="24" height="24" viewBox="0 0 24 24" fill="none" xmlns="http://www.w3.org/2000/svg">
<mask id="mask0_796_7489" style="mask-type:alpha" maskUnits="userSpaceOnUse" x="0" y="0" width="24" height="24">
<rect width="24" height="24" fill="#D9D9D9"/>
</mask>
<g mask="url(#mask0_796_7489)">
<path d="M18.9754 22.2999C18.8436 22.2999 18.7231 22.2749 18.614 22.2249C18.5049 22.1749 18.4087 22.0999 18.3254 21.9999L12.5254 16.1749C12.4224 16.0928 12.3508 15.9996 12.3106 15.8954C12.2705 15.7913 12.2504 15.6761 12.2504 15.5499C12.2504 15.4237 12.2705 15.3085 12.3106 15.2044C12.3508 15.1002 12.4224 14.9987 12.5254 14.8999L14.9004 12.5249C14.9825 12.4385 15.0757 12.3711 15.1799 12.3226C15.284 12.2741 15.3992 12.2499 15.5254 12.2499C15.6516 12.2499 15.7667 12.2741 15.8709 12.3226C15.9751 12.3711 16.0766 12.4385 16.1754 12.5249L22.0004 18.3499C22.0837 18.4332 22.1504 18.5296 22.2004 18.6391C22.2504 18.7485 22.2754 18.8693 22.2754 19.0016C22.2754 19.1338 22.2511 19.2507 22.2027 19.3524C22.1542 19.4541 22.0868 19.5449 22.0004 19.6249L19.6254 22.0249C19.5266 22.1113 19.4251 22.1787 19.3209 22.2272C19.2167 22.2757 19.1016 22.2999 18.9754 22.2999ZM18.9754 20.0999L20.0754 18.9999L15.5254 14.4249L14.4254 15.5249L18.9754 20.0999ZM5.00039 22.2749C4.86706 22.2749 4.74503 22.2541 4.63432 22.2124C4.5236 22.1707 4.42896 22.0999 4.35039 21.9999L2.00039 19.6499C1.90039 19.5713 1.82956 19.4767 1.78789 19.366C1.74622 19.2553 1.72539 19.1332 1.72539 18.9999C1.72539 18.8666 1.74622 18.7491 1.78789 18.6474C1.82956 18.5457 1.90039 18.4466 2.00039 18.3499L7.32539 13.0249H9.70039L10.7004 12.0249L6.50039 7.7999H5.07539L1.52539 4.2749L4.22539 1.5749L7.77539 5.0999V6.5249L11.9754 10.7499L15.1254 7.5999L13.4504 5.9249L14.7004 4.6749H12.2004L11.5754 4.0749L15.0004 0.649902L15.6254 1.2499V3.7499L16.8504 2.5249L21.1987 6.84818C21.4498 7.11599 21.6546 7.42011 21.8129 7.76053C21.9712 8.10096 22.0504 8.46409 22.0504 8.8499C22.0504 9.22735 21.9754 9.59254 21.8254 9.94548C21.6754 10.2984 21.4837 10.6166 21.2504 10.8999L19.1254 8.7749L17.7254 10.1749L16.4254 8.8749L10.9754 14.3249V16.6749L5.65039 21.9999C5.55157 22.0999 5.45008 22.1707 5.34592 22.2124C5.24175 22.2541 5.12657 22.2749 5.00039 22.2749ZM5.00039 20.0999L9.55039 15.5499V14.4499H8.45039L3.90039 18.9999L5.00039 20.0999ZM5.00039 20.0999L3.90039 18.9999L4.47624 19.5241L5.00039 20.0999Z" fill="#545F71"/>
</g>
</svg>
