<svg width="24" height="24" viewBox="0 0 24 24" fill="none" xmlns="http://www.w3.org/2000/svg">
<mask id="mask0_796_7505" style="mask-type:alpha" maskUnits="userSpaceOnUse" x="0" y="0" width="24" height="24">
<rect width="24" height="24" fill="#D9D9D9"/>
</mask>
<g mask="url(#mask0_796_7505)">
<path d="M10.8982 21.25C9.61553 21.25 8.41389 21.0046 7.29329 20.5139C6.17267 20.0233 5.19216 19.3574 4.35174 18.5164C3.51132 17.6754 2.85099 16.6928 2.37074 15.5686C1.89051 14.4443 1.65039 13.2386 1.65039 11.9513C1.65039 10.664 1.89046 9.45809 2.37059 8.33346C2.85072 7.20884 3.51091 6.22587 4.35114 5.38454C5.19137 4.54322 6.17204 3.87714 7.29314 3.38629C8.41426 2.89544 9.61667 2.65001 10.9004 2.65001C11.2504 2.65001 11.6045 2.67084 11.9629 2.71251C12.3212 2.75418 12.667 2.81668 13.0004 2.90001V5.12499C12.667 5.02499 12.3212 4.94582 11.9629 4.88749C11.6045 4.82915 11.2491 4.79999 10.8966 4.79999C8.92859 4.79999 7.25389 5.49903 5.87249 6.89711C4.49107 8.29518 3.80037 9.97947 3.80037 11.95C3.80037 13.9205 4.49107 15.6048 5.87249 17.0029C7.25389 18.4009 8.92985 19.1 10.9004 19.1C12.8709 19.1 14.5552 18.4009 15.9532 17.0029C17.3513 15.6048 18.0504 13.9216 18.0504 11.9533C18.0504 11.7698 18.0462 11.5929 18.0379 11.4227C18.0295 11.2524 18.0055 11.0756 17.9657 10.8923H20.1215C20.1548 11.0795 20.1763 11.2583 20.1859 11.4288C20.1955 11.5992 20.2003 11.773 20.2003 11.95C20.2003 13.2305 19.955 14.4363 19.4643 15.5673C18.9736 16.6984 18.3094 17.6828 17.4716 18.5208C16.6337 19.3588 15.6494 20.0231 14.5185 20.5138C13.3877 21.0046 12.1809 21.25 10.8982 21.25ZM13.7235 16.2769L9.85039 12.4038V6.84999H12.0003V11.5461L15.2273 14.7731L13.7235 16.2769ZM18.0504 8.89229V5.84229H15.0004V3.69233H18.0504V0.642334H20.2003V3.69233H23.2503V5.84229H20.2003V8.89229H18.0504Z" fill="#545F71"/>
</g>
</svg>
